<svg width="512" height="512" viewBox="0 0 512 512" fill="none" xmlns="http://www.w3.org/2000/svg">
<path d="M85.9648 409.6L75.0797 402.115C75.0797 402.115 68.7923 411.249 59.1872 404.879C54.2003 401.572 53.8624 396.585 54.528 393.39C55.296 389.683 57.9174 386.662 61.3683 385.106C65.3107 383.334 71.2602 383.345 77.7011 389.683L94.5869 365.148L83.8246 357.745L73.9328 372.122C73.9328 372.122 56.1562 365.64 44.7181 382.269C33.7715 398.182 45.4963 411.699 51.6096 415.898C56.2688 419.113 72.96 428.933 85.9648 409.6Z" fill="#EBEBEB"/>
<path d="M87.1595 352.626L98.0754 360.137L105.092 349.938L94.1766 342.428L87.1595 352.626Z" fill="#EBEBEB"/>
<path d="M132.362 439.695L138.138 438.17C138.138 438.17 136.858 433.316 141.875 431.903C144.486 431.165 146.289 432.527 147.19 433.695C148.234 435.057 148.5 436.838 148.009 438.487C147.456 440.361 145.695 442.399 141.619 442.737L145.06 455.762L150.774 454.257L148.756 446.628C148.756 446.628 156.221 442.44 153.897 433.613C151.665 425.165 143.575 425.196 140.329 426.056C137.851 426.701 129.567 429.527 132.362 439.695Z" fill="#EBEBEB"/>
<path d="M151.576 456.903L145.774 458.433L147.202 463.849L153.005 462.318L151.576 456.903Z" fill="#EBEBEB"/>
<path d="M228.352 74.8237C231.311 73.0317 234.465 71.68 237.711 70.7584L239.636 61.4912L255.293 61.2147L257.546 70.4102C260.823 71.2192 264.028 72.4685 267.049 74.1478L274.964 68.9562L286.228 79.831L281.324 87.9206C283.116 90.88 284.467 94.0339 285.389 97.2902L294.656 99.2154L294.932 114.872L285.737 117.125C284.928 120.402 283.679 123.607 281.999 126.628L287.181 134.543L276.306 145.807L268.216 140.902C265.257 142.694 262.103 144.046 258.857 144.968L256.932 154.235L241.275 154.511L239.022 145.316C235.745 144.507 232.54 143.258 229.519 141.578L221.604 146.77L210.34 135.895L215.245 127.805C213.453 124.846 212.101 121.692 211.18 118.446L201.912 116.521L201.636 100.864L210.831 98.6112C211.64 95.3344 212.89 92.1293 214.569 89.1085L209.377 81.193L220.252 69.929L228.352 74.8237ZM236.698 95.6826C230.257 102.359 230.441 112.988 237.117 119.439C243.794 125.88 254.423 125.696 260.874 119.02C267.315 112.343 267.131 101.714 260.454 95.2627C253.778 88.8218 243.139 89.0061 236.698 95.6826Z" fill="#F5F5F5"/>
<path d="M162.775 42.1786C164.485 41.1443 166.298 40.3661 168.172 39.8336L169.277 34.4986L178.299 34.345L179.599 39.639C181.494 40.0998 183.327 40.8167 185.068 41.7895L189.624 38.7994L196.116 45.0662L193.29 49.7255C194.324 51.4355 195.103 53.248 195.635 55.1219L200.97 56.2278L201.124 65.2493L195.83 66.5498C195.369 68.4442 194.642 70.2771 193.679 72.0179L196.669 76.5747L190.403 83.0669L185.743 80.2407C184.033 81.2749 182.221 82.0531 180.347 82.5856L179.241 87.9207L170.22 88.0743L168.919 82.7802C167.025 82.3194 165.192 81.5923 163.451 80.6298L158.894 83.6199L152.402 77.353L155.228 72.6938C154.194 70.9837 153.416 69.1712 152.883 67.2973L147.548 66.1914L147.395 57.1699L152.689 55.8695C153.149 53.9751 153.876 52.1421 154.839 50.4013L151.849 45.8445L158.116 39.3523L162.775 42.1786ZM167.578 54.2003C163.871 58.0403 163.973 64.1741 167.813 67.881C171.653 71.5879 177.787 71.4855 181.494 67.6352C185.201 63.7952 185.098 57.6614 181.258 53.9546C177.418 50.2477 171.295 50.3501 167.578 54.2003Z" fill="#EBEBEB"/>
<path d="M450.632 209.623C452.342 208.589 454.154 207.811 456.028 207.278L457.134 201.943L466.156 201.789L467.456 207.084C469.35 207.544 471.183 208.261 472.924 209.234L477.481 206.244L483.973 212.511L481.147 217.17C482.181 218.88 482.959 220.692 483.492 222.566L488.827 223.672L488.98 232.694L483.686 233.994C483.226 235.889 482.509 237.722 481.536 239.462L484.526 244.019L478.259 250.511L473.6 247.685C471.89 248.719 470.077 249.498 468.204 250.03L467.087 255.365L458.066 255.519L456.765 250.225C454.871 249.764 453.038 249.037 451.297 248.074L446.74 251.064L440.248 244.797L443.075 240.138C442.04 238.428 441.262 236.616 440.73 234.742L435.395 233.636L435.241 224.614L440.535 223.314C440.996 221.42 441.723 219.587 442.685 217.846L439.695 213.289L445.962 206.797L450.632 209.623ZM455.434 221.635C451.727 225.475 451.83 231.608 455.67 235.315C459.51 239.022 465.644 238.92 469.35 235.069C473.057 231.229 472.955 225.096 469.115 221.389C465.275 217.682 459.151 217.795 455.434 221.635Z" fill="#EBEBEB"/>
<path d="M474.911 476.477C474.911 476.621 377.815 476.744 258.058 476.744C138.26 476.744 41.1853 476.621 41.1853 476.477C41.1853 476.334 138.26 476.211 258.058 476.211C377.805 476.211 474.911 476.334 474.911 476.477Z" fill="#263238"/>
<path d="M427.684 475.73L282.255 475.648C264.765 475.638 250.593 461.455 250.593 443.965L250.665 79.3805C250.665 61.8803 264.858 47.6979 282.358 47.7081L427.786 47.7901C445.276 47.8003 459.448 61.9827 459.448 79.4726L459.377 444.058C459.377 461.568 445.184 475.75 427.684 475.73Z" fill="#455A64"/>
<path d="M427.633 60.6924L399.442 60.6719C395.663 60.6719 392.591 63.8771 392.591 67.8297V72.9395C392.591 76.8921 389.53 80.0972 385.741 80.0972L330.783 80.0665C327.004 80.0665 323.932 76.8614 323.942 72.9087V67.799C323.942 63.8463 320.881 60.6412 317.092 60.6412L307.18 60.631L282.501 60.6207C270.244 60.6105 260.301 70.5433 260.301 82.8006L260.229 438.661C260.229 450.908 270.152 460.841 282.399 460.851L427.53 460.933C439.788 460.943 449.72 451.011 449.731 438.753L449.802 82.8927C449.812 70.6355 439.88 60.7027 427.633 60.6924Z" fill="white"/>
<path d="M449.792 135.485V82.4729C449.577 70.4102 439.746 60.7027 427.633 60.6924L399.442 60.6719C395.663 60.6719 392.591 63.8771 392.591 67.8297V72.9395C392.591 76.8921 389.53 80.0972 385.741 80.0972L330.783 80.0665C327.004 80.0665 323.932 76.8614 323.942 72.9087V67.799C323.942 63.8463 320.881 60.6412 317.092 60.6412L307.179 60.631L282.501 60.6207C270.244 60.6105 260.301 70.5433 260.301 82.8006L260.291 135.659H449.792V135.485Z" fill="#EBEBEB"/>
<path d="M298.947 207.391C311.632 207.391 321.915 197.13 321.915 184.474C321.915 171.817 311.632 161.556 298.947 161.556C286.261 161.556 275.978 171.817 275.978 184.474C275.978 197.13 286.261 207.391 298.947 207.391Z" fill="#E0E0E0"/>
<path d="M288.215 190.208L294.226 189.696L308.91 192.174L310.641 203.223L310.395 204.513C303.299 208.456 295.352 208.353 288.625 205.015L288.215 190.208Z" fill="#455A64"/>
<path d="M305.777 192C305.777 192 310.405 191.089 313.395 195.348C315.228 197.96 316.129 199.69 316.129 199.69C313.743 202.291 311.798 204.267 308.47 205.414L305.777 192Z" fill="#455A64"/>
<path d="M288.215 190.208C288.215 190.208 284.242 190.689 282.696 194.079C281.149 197.468 280.801 198.533 280.801 198.533C282.859 201.001 285.471 203.929 288.676 205.025C288.676 205.025 289.403 196.495 289.505 194.079C289.618 191.437 289.72 190.136 288.215 190.208Z" fill="#455A64"/>
<path d="M291.86 168.499C294.011 165.878 296.888 164.372 300.278 164.321C302.193 164.291 302.981 164.69 304.353 165.059C305.725 165.427 306.975 166.164 307.794 167.332C308.767 168.714 309.586 170.26 309.77 171.94C309.965 173.67 310.149 175.401 310.016 177.131C309.883 178.862 309.412 180.603 308.388 182.016L303.974 182.784C301.537 182.866 299.059 182.948 296.683 182.395C294.308 181.842 292.004 180.562 290.724 178.483C288.973 175.595 289.71 171.121 291.86 168.499Z" fill="#263238"/>
<path d="M287.58 181.289C287.693 180.296 288.215 179.323 289.075 178.811C289.935 178.299 291.144 178.35 291.86 179.057L292.557 179.886C293.642 180.347 294.328 181.586 294.195 182.753C294.062 183.921 293.161 184.955 292.035 185.303C290.908 185.651 289.608 185.313 288.747 184.515C287.877 183.695 287.447 182.467 287.58 181.289Z" fill="#263238"/>
<path d="M288.451 184.258C288.481 184.248 288.174 183.962 288.215 183.378C288.256 182.815 288.666 182.077 289.229 181.402C289.802 180.726 290.478 180.255 291 179.988C291.523 179.712 291.871 179.61 291.86 179.579C291.86 179.558 291.482 179.61 290.929 179.855C290.376 180.091 289.659 180.562 289.065 181.268C288.768 181.617 288.522 181.995 288.348 182.354C288.174 182.712 288.061 183.071 288.061 183.388C288.061 183.706 288.164 183.941 288.256 184.084C288.358 184.218 288.44 184.269 288.451 184.258Z" fill="#455A64"/>
<path d="M303.944 191.211C303.944 191.211 303.923 187.115 303.923 187.126C303.923 187.126 307.528 186.726 308.521 182.129C309.012 179.835 309.105 176.046 309.084 172.943C309.064 170.148 306.678 166.338 303.217 166.328L301.681 166.154L295.793 168.489C294.943 168.53 294.267 169.216 294.236 170.066L294.062 189.737L296.755 193.515C298.987 196.628 303.923 195.062 303.944 191.211Z" fill="#FFBE9D"/>
<path d="M301.599 181.043C301.629 180.797 301.763 180.582 301.937 180.439C302.285 180.142 302.787 180.111 303.155 180.367C303.524 180.623 303.739 181.145 303.667 181.627C303.462 181.913 303.145 182.098 302.797 182.129C302.746 182.129 302.684 182.139 302.633 182.139C302.367 182.129 302.1 182.047 301.896 181.842C301.681 181.658 301.558 181.34 301.599 181.043Z" fill="#EB996E"/>
<path d="M306.954 176.138C306.944 176.456 306.678 176.712 306.35 176.712C306.022 176.712 305.756 176.456 305.766 176.138C305.777 175.821 306.043 175.565 306.371 175.565C306.698 175.575 306.964 175.821 306.954 176.138Z" fill="#263238"/>
<path d="M307.937 174.653C307.855 174.725 307.425 174.367 306.78 174.336C306.135 174.295 305.654 174.602 305.582 174.51C305.551 174.469 305.633 174.336 305.848 174.203C306.063 174.07 306.411 173.937 306.811 173.967C307.21 173.988 307.538 174.162 307.722 174.315C307.907 174.479 307.968 174.623 307.937 174.653Z" fill="#263238"/>
<path d="M303.892 179.507C303.892 179.466 304.292 179.425 304.947 179.374C305.111 179.364 305.265 179.343 305.306 179.231C305.347 179.118 305.295 178.934 305.224 178.739C305.091 178.33 304.957 177.91 304.804 177.469C304.23 175.657 303.821 174.172 303.892 174.152C303.964 174.131 304.497 175.575 305.07 177.387C305.203 177.838 305.336 178.258 305.469 178.667C305.521 178.852 305.613 179.077 305.521 179.313C305.469 179.435 305.347 179.517 305.234 179.538C305.131 179.569 305.039 179.558 304.957 179.558C304.302 179.569 303.892 179.548 303.892 179.507Z" fill="#263238"/>
<path d="M303.923 187.126C303.923 187.126 300.779 187.156 297.779 185.129C297.779 185.129 299.264 188.436 303.944 188.262L303.923 187.126Z" fill="#EB996E"/>
<path d="M301.978 179.855C302.08 179.855 302.049 180.552 302.612 181.074C303.176 181.606 303.933 181.565 303.933 181.658C303.944 181.698 303.759 181.78 303.442 181.77C303.135 181.76 302.694 181.637 302.346 181.32C301.998 180.992 301.865 180.582 301.855 180.296C301.844 180.009 301.937 179.845 301.978 179.855Z" fill="#263238"/>
<path d="M307.804 172.237C307.691 172.39 307.2 172.257 306.627 172.267C306.053 172.267 305.562 172.411 305.449 172.257C305.398 172.186 305.469 172.032 305.674 171.889C305.879 171.745 306.227 171.612 306.627 171.612C307.026 171.612 307.374 171.725 307.579 171.868C307.784 172.022 307.855 172.165 307.804 172.237Z" fill="#263238"/>
<path d="M299.909 176.097C299.889 176.415 300.145 176.681 300.472 176.712C300.8 176.732 301.076 176.497 301.097 176.189C301.117 175.872 300.861 175.606 300.534 175.575C300.206 175.544 299.93 175.78 299.909 176.097Z" fill="#263238"/>
<path d="M299.131 174.428C299.203 174.51 299.663 174.182 300.308 174.193C300.954 174.193 301.414 174.531 301.486 174.459C301.517 174.428 301.445 174.285 301.24 174.131C301.035 173.978 300.698 173.824 300.298 173.824C299.899 173.824 299.561 173.957 299.366 174.111C299.162 174.254 299.09 174.387 299.131 174.428Z" fill="#263238"/>
<path d="M298.762 173.046C298.885 173.189 299.387 173.056 299.981 173.056C300.575 173.046 301.076 173.169 301.199 173.025C301.251 172.953 301.179 172.8 300.954 172.667C300.739 172.523 300.38 172.411 299.971 172.411C299.561 172.411 299.203 172.544 298.998 172.687C298.772 172.831 298.701 172.974 298.762 173.046Z" fill="#263238"/>
<path d="M295.025 177.859C295.045 177.51 294.687 176.671 294.349 176.599C293.437 176.404 291.789 176.394 291.645 178.708C291.451 181.873 294.676 181.412 294.687 181.33C294.707 181.248 294.963 179.046 295.025 177.859Z" fill="#FFBE9D"/>
<path d="M293.888 180.111C293.878 180.101 293.827 180.142 293.734 180.183C293.642 180.224 293.478 180.234 293.325 180.162C292.997 180.019 292.751 179.466 292.772 178.903C292.782 178.616 292.854 178.34 292.977 178.125C293.089 177.899 293.243 177.746 293.417 177.725C293.591 177.695 293.704 177.807 293.734 177.899C293.775 177.992 293.745 178.053 293.765 178.063C293.775 178.074 293.837 178.012 293.816 177.879C293.806 177.818 293.775 177.736 293.704 177.674C293.632 177.613 293.519 177.572 293.407 177.572C293.161 177.572 292.925 177.787 292.803 178.022C292.659 178.268 292.567 178.565 292.557 178.893C292.536 179.528 292.833 180.152 293.284 180.306C293.499 180.378 293.693 180.326 293.796 180.255C293.878 180.193 293.898 180.122 293.888 180.111Z" fill="#EB996E"/>
<path d="M294.226 176.609L295.035 177.439C298.516 174.111 305.316 165.786 304.937 166.287C304.937 166.287 302.551 165.304 299.96 165.745C297.37 166.185 292.465 167.475 292.536 170.527C292.618 173.578 294.226 176.609 294.226 176.609Z" fill="#263238"/>
<path d="M289.618 175.913C289.608 175.913 289.628 175.851 289.669 175.729C289.71 175.606 289.772 175.442 289.884 175.227C290.109 174.807 290.529 174.244 291.205 173.742C291.881 173.22 292.813 172.8 293.878 172.462C294.943 172.114 296.131 171.848 297.308 171.346C298.486 170.865 299.54 170.24 300.442 169.595C301.332 168.95 302.08 168.274 302.653 167.67C303.227 167.066 303.647 166.533 303.933 166.154C304.067 165.98 304.169 165.826 304.251 165.714C304.323 165.611 304.363 165.56 304.374 165.57C304.374 165.57 304.343 165.632 304.282 165.734C304.22 165.837 304.118 166.001 303.985 166.185C303.718 166.574 303.309 167.117 302.735 167.741C302.162 168.366 301.425 169.052 300.524 169.718C299.622 170.373 298.557 171.008 297.359 171.499C296.172 172.011 294.963 172.278 293.908 172.605C292.854 172.933 291.932 173.332 291.267 173.834C290.591 174.326 290.161 174.858 289.925 175.258C289.7 175.657 289.628 175.913 289.618 175.913Z" fill="#455A64"/>
<path d="M290.539 176.404C290.539 176.404 290.509 176.148 290.662 175.708C290.806 175.278 291.185 174.694 291.85 174.213C292.516 173.722 293.458 173.414 294.502 173.179C295.547 172.954 296.673 172.657 297.789 172.134C298.906 171.622 299.899 170.998 300.718 170.332C301.547 169.666 302.213 168.98 302.725 168.356C303.247 167.741 303.595 167.188 303.841 166.82C303.954 166.635 304.036 166.492 304.107 166.379C304.169 166.277 304.21 166.226 304.21 166.226C304.21 166.226 304.189 166.287 304.138 166.39C304.077 166.513 303.995 166.666 303.892 166.85C303.657 167.24 303.319 167.803 302.807 168.427C302.295 169.062 301.629 169.769 300.8 170.445C299.971 171.131 298.967 171.766 297.841 172.278C296.714 172.8 295.557 173.097 294.513 173.322C293.478 173.547 292.547 173.834 291.901 174.305C291.246 174.756 290.867 175.309 290.703 175.729C290.55 176.148 290.56 176.415 290.539 176.404Z" fill="#455A64"/>
<path d="M288.686 205.015C288.625 205.015 288.584 203.663 288.584 201.984C288.584 200.315 288.635 198.953 288.686 198.953C288.748 198.953 288.788 200.305 288.788 201.984C288.788 203.653 288.737 205.015 288.686 205.015Z" fill="#263238"/>
<path d="M310.415 204.585C310.385 204.585 310.415 204.175 310.446 203.51C310.477 202.854 310.518 201.933 310.354 200.939C310.19 199.946 309.852 199.096 309.617 198.472C309.371 197.857 309.217 197.468 309.248 197.458C309.268 197.448 309.473 197.806 309.76 198.41C310.036 199.014 310.395 199.885 310.569 200.898C310.733 201.912 310.671 202.844 310.6 203.51C310.528 204.186 310.446 204.595 310.415 204.585Z" fill="#263238"/>
<path d="M420.946 213.576H342.671C338.78 213.576 335.636 210.422 335.636 206.541V173.67L327.004 166.011H335.636H420.956C424.847 166.011 427.991 169.165 427.991 173.046V206.541C427.981 210.422 424.827 213.576 420.946 213.576Z" fill="#EBEBEB"/>
<path d="M415.58 218.901C415.58 219.044 411.843 219.167 407.235 219.167C402.627 219.167 398.879 219.044 398.879 218.901C398.879 218.757 402.616 218.634 407.235 218.634C411.843 218.634 415.58 218.757 415.58 218.901Z" fill="#E0E0E0"/>
<path d="M419.031 219.556C418.939 219.546 418.898 219.525 418.847 219.474L417.229 217.784C417.126 217.682 417.137 217.518 417.239 217.426C417.341 217.334 417.505 217.334 417.597 217.436L419.031 218.941L422.175 215.746C422.277 215.644 422.441 215.644 422.533 215.746C422.635 215.849 422.635 216.002 422.533 216.105L419.205 219.484C419.164 219.525 419.103 219.556 419.031 219.556Z" fill="#FF725E"/>
<path d="M421.335 219.505L421.028 219.494C420.884 219.494 420.772 219.371 420.782 219.228C420.782 219.085 420.925 218.982 421.048 218.982H421.233L424.479 215.675C424.581 215.572 424.745 215.572 424.837 215.675C424.939 215.777 424.939 215.931 424.837 216.033L421.509 219.412C421.478 219.474 421.407 219.505 421.335 219.505Z" fill="#FF725E"/>
<path d="M415.58 347.587C415.58 347.73 411.843 347.853 407.235 347.853C402.627 347.853 398.879 347.73 398.879 347.587C398.879 347.443 402.616 347.32 407.235 347.32C411.843 347.32 415.58 347.443 415.58 347.587Z" fill="#E0E0E0"/>
<path d="M419.031 348.242C418.959 348.242 418.898 348.211 418.847 348.16L417.229 346.47C417.126 346.368 417.137 346.204 417.239 346.112C417.341 346.02 417.505 346.02 417.597 346.122L419.031 347.617L422.175 344.422C422.277 344.32 422.441 344.32 422.533 344.422C422.635 344.525 422.635 344.689 422.533 344.781L419.205 348.16C419.164 348.211 419.103 348.242 419.031 348.242Z" fill="#FF725E"/>
<path d="M421.335 348.191L421.028 348.18C420.884 348.18 420.772 348.058 420.782 347.914C420.782 347.771 420.895 347.638 421.048 347.668H421.233L424.479 344.361C424.581 344.259 424.745 344.259 424.837 344.361C424.939 344.463 424.939 344.627 424.837 344.719L421.509 348.099C421.478 348.16 421.407 348.191 421.335 348.191Z" fill="#FF725E"/>
<path d="M419.942 175.421C419.942 175.565 402.852 175.688 381.778 175.688C360.694 175.688 343.603 175.565 343.603 175.421C343.603 175.278 360.694 175.155 381.778 175.155C402.852 175.155 419.942 175.268 419.942 175.421Z" fill="white"/>
<path d="M419.942 181.023C419.942 181.166 402.852 181.289 381.778 181.289C360.694 181.289 343.603 181.166 343.603 181.023C343.603 180.879 360.694 180.756 381.778 180.756C402.852 180.756 419.942 180.879 419.942 181.023Z" fill="white"/>
<path d="M419.942 186.634C419.942 186.778 402.852 186.9 381.778 186.9C360.694 186.9 343.603 186.778 343.603 186.634C343.603 186.491 360.694 186.368 381.778 186.368C402.852 186.368 419.942 186.491 419.942 186.634Z" fill="white"/>
<path d="M298.947 350.31C311.632 350.31 321.915 340.05 321.915 327.393C321.915 314.736 311.632 304.476 298.947 304.476C286.261 304.476 275.978 314.736 275.978 327.393C275.978 340.05 286.261 350.31 298.947 350.31Z" fill="#E0E0E0"/>
<path d="M288.215 333.128L294.226 332.616L308.91 335.094L310.641 346.143L310.395 347.433C303.299 351.375 295.352 351.273 288.625 347.935L288.215 333.128Z" fill="#455A64"/>
<path d="M305.777 334.909C305.777 334.909 310.405 333.998 313.395 338.258C315.228 340.869 316.129 342.6 316.129 342.6C313.743 345.201 311.798 347.177 308.47 348.324L305.777 334.909Z" fill="#455A64"/>
<path d="M288.215 333.128C288.215 333.128 284.242 333.609 282.696 336.998C281.149 340.388 280.801 341.453 280.801 341.453C282.859 343.921 285.471 346.849 288.676 347.945C288.676 347.945 289.403 339.415 289.505 336.998C289.618 334.356 289.72 333.046 288.215 333.128Z" fill="#455A64"/>
<path d="M291.86 311.419C294.011 308.797 296.888 307.292 300.278 307.241C302.193 307.21 302.981 307.61 304.353 307.978C305.725 308.347 306.975 309.084 307.794 310.251C308.767 311.634 309.586 313.18 309.77 314.859C309.965 316.59 310.149 318.321 310.016 320.051C309.883 321.782 309.412 323.523 308.388 324.936L303.974 325.704C301.537 325.786 299.059 325.867 296.683 325.315C294.308 324.762 292.004 323.482 290.724 321.403C288.973 318.505 289.71 314.03 291.86 311.419Z" fill="#263238"/>
<path d="M287.58 324.209C287.693 323.215 288.215 322.243 289.075 321.731C289.935 321.219 291.144 321.27 291.86 321.976L292.557 322.806C293.642 323.267 294.328 324.506 294.195 325.673C294.062 326.84 293.161 327.875 292.035 328.223C290.908 328.571 289.608 328.233 288.747 327.434C287.877 326.615 287.447 325.376 287.58 324.209Z" fill="#263238"/>
<path d="M288.451 327.178C288.481 327.168 288.174 326.881 288.215 326.297C288.256 325.734 288.666 324.997 289.229 324.321C289.802 323.645 290.478 323.174 291 322.908C291.523 322.632 291.871 322.529 291.86 322.498C291.86 322.478 291.482 322.529 290.929 322.775C290.376 323.01 289.659 323.482 289.065 324.188C288.768 324.536 288.522 324.915 288.348 325.273C288.174 325.632 288.061 325.99 288.061 326.308C288.061 326.625 288.164 326.861 288.256 327.004C288.358 327.137 288.44 327.188 288.451 327.178Z" fill="#455A64"/>
<path d="M303.964 334.5C303.964 334.5 303.944 330.404 303.944 330.414C303.944 330.414 307.548 330.015 308.541 325.417C309.033 323.123 309.125 319.334 309.105 316.232C309.084 313.436 306.698 309.627 303.237 309.617L301.701 309.443L295.813 311.777C294.963 311.818 294.287 312.504 294.257 313.354L294.083 333.025L296.776 336.804C299.008 339.917 303.944 338.35 303.964 334.5Z" fill="#FFBE9D"/>
<path d="M301.599 323.963C301.629 323.717 301.763 323.502 301.937 323.359C302.285 323.062 302.787 323.031 303.155 323.287C303.524 323.543 303.739 324.065 303.667 324.546C303.462 324.833 303.145 325.018 302.797 325.048C302.746 325.048 302.684 325.058 302.633 325.058C302.367 325.048 302.1 324.966 301.896 324.762C301.681 324.567 301.558 324.26 301.599 323.963Z" fill="#EB996E"/>
<path d="M306.954 319.447C306.944 319.764 306.678 320.02 306.35 320.02C306.022 320.02 305.756 319.764 305.766 319.447C305.777 319.13 306.043 318.874 306.371 318.874C306.698 318.874 306.964 319.13 306.954 319.447Z" fill="#263238"/>
<path d="M307.937 317.962C307.855 318.034 307.425 317.675 306.78 317.645C306.135 317.604 305.654 317.911 305.582 317.819C305.551 317.778 305.633 317.645 305.848 317.512C306.063 317.378 306.411 317.245 306.811 317.276C307.21 317.297 307.538 317.471 307.722 317.624C307.907 317.788 307.968 317.931 307.937 317.962Z" fill="#263238"/>
<path d="M303.892 322.816C303.892 322.775 304.292 322.734 304.947 322.683C305.111 322.673 305.265 322.652 305.306 322.539C305.347 322.427 305.295 322.243 305.224 322.048C305.091 321.638 304.957 321.219 304.804 320.778C304.23 318.966 303.821 317.481 303.892 317.46C303.964 317.44 304.497 318.884 305.07 320.696C305.203 321.147 305.336 321.567 305.469 321.976C305.521 322.161 305.613 322.386 305.521 322.621C305.469 322.744 305.347 322.826 305.234 322.847C305.131 322.877 305.039 322.867 304.957 322.867C304.302 322.877 303.892 322.857 303.892 322.816Z" fill="#263238"/>
<path d="M303.923 330.424C303.923 330.424 300.779 330.455 297.779 328.427C297.779 328.427 299.264 331.735 303.944 331.561L303.923 330.424Z" fill="#EB996E"/>
<path d="M301.978 323.154C302.08 323.154 302.049 323.85 302.612 324.372C303.176 324.905 303.933 324.864 303.933 324.956C303.944 324.997 303.759 325.079 303.442 325.069C303.135 325.058 302.694 324.936 302.346 324.618C301.998 324.29 301.865 323.881 301.855 323.594C301.844 323.318 301.937 323.154 301.978 323.154Z" fill="#263238"/>
<path d="M307.804 315.546C307.691 315.699 307.2 315.566 306.627 315.576C306.053 315.576 305.562 315.72 305.449 315.566C305.398 315.494 305.469 315.341 305.674 315.197C305.879 315.054 306.227 314.921 306.627 314.921C307.026 314.921 307.374 315.034 307.579 315.177C307.784 315.32 307.855 315.474 307.804 315.546Z" fill="#263238"/>
<path d="M299.909 319.406C299.889 319.723 300.145 319.99 300.472 320.02C300.8 320.041 301.076 319.805 301.097 319.498C301.117 319.181 300.861 318.904 300.534 318.884C300.206 318.853 299.93 319.089 299.909 319.406Z" fill="#263238"/>
<path d="M299.131 317.727C299.203 317.809 299.663 317.481 300.308 317.491C300.954 317.491 301.414 317.829 301.486 317.757C301.517 317.727 301.445 317.583 301.24 317.43C301.035 317.276 300.698 317.123 300.298 317.123C299.899 317.123 299.561 317.256 299.366 317.409C299.162 317.553 299.09 317.696 299.131 317.727Z" fill="#263238"/>
<path d="M298.762 316.354C298.885 316.498 299.387 316.365 299.981 316.365C300.575 316.344 301.076 316.477 301.199 316.334C301.251 316.262 301.179 316.109 300.954 315.976C300.739 315.832 300.38 315.72 299.971 315.72C299.561 315.72 299.203 315.853 298.998 315.996C298.772 316.129 298.701 316.283 298.762 316.354Z" fill="#263238"/>
<path d="M295.025 320.768C295.045 320.42 294.687 319.58 294.349 319.508C293.437 319.314 291.789 319.304 291.645 321.618C291.451 324.782 294.676 324.321 294.687 324.239C294.707 324.168 294.963 321.966 295.025 320.768Z" fill="#FFBE9D"/>
<path d="M293.888 323.031C293.878 323.021 293.827 323.062 293.734 323.103C293.642 323.144 293.478 323.154 293.325 323.082C292.997 322.939 292.751 322.386 292.772 321.823C292.782 321.536 292.854 321.259 292.977 321.044C293.089 320.819 293.243 320.666 293.417 320.645C293.591 320.614 293.704 320.727 293.734 320.819C293.775 320.911 293.745 320.973 293.765 320.983C293.775 320.993 293.837 320.932 293.816 320.799C293.806 320.737 293.775 320.655 293.704 320.594C293.632 320.532 293.519 320.491 293.407 320.491C293.161 320.491 292.925 320.706 292.803 320.942C292.659 321.188 292.567 321.485 292.557 321.812C292.536 322.447 292.833 323.072 293.284 323.226C293.499 323.297 293.693 323.246 293.796 323.174C293.878 323.103 293.898 323.031 293.888 323.031Z" fill="#EB996E"/>
<path d="M294.226 319.519L295.035 320.348C298.516 317.02 305.316 308.695 304.937 309.197C304.937 309.197 302.551 308.214 299.96 308.654C297.37 309.094 292.465 310.385 292.536 313.436C292.618 316.488 294.226 319.519 294.226 319.519Z" fill="#263238"/>
<path d="M289.618 318.822C289.608 318.822 289.628 318.761 289.669 318.638C289.71 318.515 289.772 318.351 289.884 318.136C290.109 317.716 290.529 317.153 291.205 316.651C291.881 316.129 292.813 315.709 293.878 315.371C294.943 315.023 296.131 314.757 297.308 314.255C298.486 313.774 299.54 313.149 300.442 312.504C301.332 311.859 302.08 311.183 302.653 310.579C303.227 309.975 303.647 309.442 303.933 309.064C304.067 308.89 304.169 308.736 304.251 308.623C304.323 308.521 304.363 308.47 304.374 308.48C304.374 308.48 304.343 308.541 304.282 308.644C304.22 308.746 304.118 308.91 303.985 309.094C303.718 309.483 303.309 310.026 302.735 310.651C302.162 311.275 301.425 311.962 300.524 312.627C299.622 313.282 298.557 313.917 297.359 314.409C296.172 314.921 294.963 315.187 293.908 315.515C292.854 315.842 291.932 316.242 291.267 316.744C290.591 317.235 290.161 317.768 289.925 318.167C289.7 318.577 289.628 318.833 289.618 318.822Z" fill="#455A64"/>
<path d="M290.539 319.324C290.539 319.324 290.509 319.068 290.662 318.628C290.806 318.198 291.185 317.614 291.85 317.133C292.516 316.641 293.458 316.334 294.502 316.098C295.547 315.873 296.673 315.576 297.789 315.054C298.906 314.542 299.899 313.917 300.718 313.252C301.547 312.586 302.213 311.9 302.725 311.275C303.247 310.661 303.595 310.108 303.841 309.739C303.954 309.555 304.036 309.412 304.107 309.299C304.169 309.197 304.21 309.146 304.21 309.146C304.21 309.146 304.189 309.207 304.138 309.309C304.077 309.432 303.995 309.586 303.892 309.77C303.657 310.159 303.319 310.722 302.807 311.347C302.295 311.982 301.629 312.689 300.8 313.364C299.971 314.05 298.967 314.685 297.841 315.197C296.714 315.72 295.557 316.017 294.513 316.242C293.478 316.467 292.547 316.754 291.901 317.225C291.246 317.675 290.867 318.228 290.703 318.648C290.55 319.068 290.56 319.324 290.539 319.324Z" fill="#455A64"/>
<path d="M288.686 347.924C288.625 347.924 288.584 346.573 288.584 344.893C288.584 343.224 288.635 341.862 288.686 341.862C288.748 341.862 288.788 343.214 288.788 344.893C288.788 346.573 288.737 347.924 288.686 347.924Z" fill="#263238"/>
<path d="M310.415 347.505C310.385 347.505 310.415 347.095 310.446 346.429C310.477 345.774 310.518 344.852 310.354 343.859C310.19 342.866 309.852 342.016 309.617 341.391C309.371 340.777 309.217 340.388 309.248 340.378C309.268 340.367 309.473 340.726 309.76 341.33C310.036 341.934 310.395 342.804 310.569 343.818C310.733 344.832 310.671 345.764 310.6 346.429C310.528 347.105 310.446 347.505 310.415 347.505Z" fill="#263238"/>
<path d="M420.946 340.869H342.671C338.78 340.869 335.636 337.715 335.636 333.834V316.59L327.004 308.931H335.636H420.956C424.847 308.931 427.991 312.084 427.991 315.965V333.824C427.981 337.715 424.827 340.869 420.946 340.869Z" fill="#EBEBEB"/>
<path d="M419.942 318.331C419.942 318.474 402.852 318.597 381.778 318.597C360.694 318.597 343.603 318.474 343.603 318.331C343.603 318.187 360.694 318.065 381.778 318.065C402.852 318.065 419.942 318.187 419.942 318.331Z" fill="white"/>
<path d="M419.942 323.942C419.942 324.086 402.852 324.209 381.778 324.209C360.694 324.209 343.603 324.086 343.603 323.942C343.603 323.799 360.694 323.676 381.778 323.676C402.852 323.676 419.942 323.799 419.942 323.942Z" fill="white"/>
<path d="M419.942 329.554C419.942 329.697 402.852 329.82 381.778 329.82C360.694 329.82 343.603 329.697 343.603 329.554C343.603 329.41 360.694 329.288 381.778 329.288C402.852 329.288 419.942 329.4 419.942 329.554Z" fill="white"/>
<path d="M419.942 192.246C419.942 192.389 402.852 192.512 381.778 192.512C360.694 192.512 343.603 192.389 343.603 192.246C343.603 192.102 360.694 191.979 381.778 191.979C402.852 191.979 419.942 192.092 419.942 192.246Z" fill="white"/>
<path d="M419.942 197.847C419.942 197.99 402.852 198.113 381.778 198.113C360.694 198.113 343.603 197.99 343.603 197.847C343.603 197.704 360.694 197.581 381.778 197.581C402.852 197.581 419.942 197.704 419.942 197.847Z" fill="white"/>
<path d="M419.942 204.585C419.942 204.728 402.852 204.851 381.778 204.851C360.694 204.851 343.603 204.728 343.603 204.585C343.603 204.442 360.694 204.319 381.778 204.319C402.852 204.319 419.942 204.442 419.942 204.585Z" fill="white"/>
<path d="M398.879 118.569C398.879 118.712 381.43 118.835 359.905 118.835C338.371 118.835 320.922 118.712 320.922 118.569C320.922 118.426 338.371 118.303 359.905 118.303C381.419 118.292 398.879 118.415 398.879 118.569Z" fill="#263238"/>
<path d="M433.418 107.141C434.419 107.141 435.231 106.33 435.231 105.329C435.231 104.328 434.419 103.516 433.418 103.516C432.417 103.516 431.606 104.328 431.606 105.329C431.606 106.33 432.417 107.141 433.418 107.141Z" fill="#263238"/>
<path d="M435.231 110.612C435.231 111.616 434.422 112.425 433.418 112.425C432.415 112.425 431.606 111.616 431.606 110.612C431.606 109.609 432.415 108.8 433.418 108.8C434.422 108.8 435.231 109.609 435.231 110.612Z" fill="#263238"/>
<path d="M435.231 115.906C435.231 116.91 434.422 117.719 433.418 117.719C432.415 117.719 431.606 116.91 431.606 115.906C431.606 114.903 432.415 114.094 433.418 114.094C434.422 114.094 435.231 114.903 435.231 115.906Z" fill="#263238"/>
<path d="M286.024 111.473C285.921 111.473 285.809 111.442 285.716 111.37L280.914 107.848C280.781 107.755 280.699 107.592 280.709 107.428C280.709 107.264 280.791 107.11 280.924 107.018L285.727 103.557C285.952 103.393 286.28 103.444 286.444 103.67C286.607 103.895 286.556 104.223 286.331 104.387L282.102 107.438L286.341 110.541C286.566 110.705 286.618 111.032 286.454 111.258C286.331 111.401 286.177 111.473 286.024 111.473Z" fill="#263238"/>
<path d="M411.351 283.648C424.036 283.648 434.319 273.388 434.319 260.731C434.319 248.074 424.036 237.814 411.351 237.814C398.666 237.814 388.383 248.074 388.383 260.731C388.383 273.388 398.666 283.648 411.351 283.648Z" fill="#E0E0E0"/>
<path d="M417.638 274.278H405.565C404.705 274.278 404.009 273.582 404.009 272.722C404.009 271.862 404.705 271.165 405.565 271.165H417.638C418.499 271.165 419.195 271.862 419.195 272.722C419.195 273.582 418.499 274.278 417.638 274.278Z" fill="#263238"/>
<path d="M412.283 245.832H411.218V251.197H412.283V245.832Z" fill="#263238"/>
<path d="M396.093 267.284C397.813 267.284 399.206 265.891 399.206 264.172C399.206 262.452 397.813 261.059 396.093 261.059C394.374 261.059 392.98 262.452 392.98 264.172C392.98 265.891 394.374 267.284 396.093 267.284Z" fill="#1E5BFA"/>
<path d="M427.571 267.08C429.29 267.08 430.684 265.686 430.684 263.967C430.684 262.247 429.29 260.854 427.571 260.854C425.852 260.854 424.458 262.247 424.458 263.967C424.458 265.686 425.852 267.08 427.571 267.08Z" fill="#1E5BFA"/>
<path d="M412.211 250.071C412.211 250.071 424.888 249.917 426.895 260.895C428.902 271.872 418.181 272.077 415.099 272.292C413.696 272.384 410.706 272.394 408.074 272.353C402.227 272.251 398.1 271.124 396.698 265.697C396.534 265.062 396.421 264.417 396.38 263.752C396.012 257.812 400.026 249.784 412.211 250.071Z" fill="#1E5BFA"/>
<path d="M403.016 266.793L421.437 267.08C423.373 267.11 424.96 265.564 424.991 263.639C425.021 261.704 423.475 260.116 421.55 260.086L403.128 259.799C401.193 259.768 399.606 261.304 399.575 263.24C399.544 265.175 401.091 266.762 403.016 266.793Z" fill="#263238"/>
<path d="M417.618 263.26C417.741 263.864 418.324 264.264 418.939 264.141C419.543 264.018 419.942 263.434 419.82 262.82C419.697 262.216 419.113 261.816 418.499 261.939C417.894 262.062 417.495 262.656 417.618 263.26Z" fill="white"/>
<path d="M404.746 263.055C404.869 263.659 405.453 264.059 406.067 263.936C406.671 263.813 407.071 263.229 406.948 262.615C406.825 262.011 406.241 261.612 405.627 261.734C405.023 261.857 404.623 262.451 404.746 263.055Z" fill="white"/>
<path d="M413.501 245.719C413.501 246.682 412.723 247.47 411.75 247.47C410.788 247.47 409.999 246.692 409.999 245.719C409.999 244.757 410.778 243.968 411.75 243.968C412.713 243.978 413.501 244.757 413.501 245.719Z" fill="#1E5BFA"/>
<path d="M414.392 262.748C414.423 262.748 414.474 262.83 414.505 263.014C414.536 263.199 414.536 263.475 414.433 263.793C414.341 264.11 414.136 264.479 413.819 264.786C413.501 265.103 413.041 265.359 412.498 265.411C411.955 265.452 411.453 265.288 411.085 265.032C410.706 264.786 410.45 264.458 410.296 264.161C410.143 263.864 410.092 263.588 410.092 263.404C410.092 263.219 410.122 263.117 410.153 263.117C410.235 263.107 410.255 263.506 410.593 263.977C410.757 264.212 411.003 264.458 411.32 264.643C411.638 264.827 412.037 264.95 412.447 264.919C412.856 264.878 413.225 264.694 413.512 264.448C413.788 264.202 413.993 263.916 414.106 263.66C414.351 263.148 414.31 262.748 414.392 262.748Z" fill="white"/>
<path d="M426.875 260.547C426.885 260.547 426.916 260.639 426.977 260.813C427.008 260.905 427.039 261.007 427.069 261.141C427.1 261.274 427.141 261.417 427.172 261.581C427.244 261.909 427.295 262.298 427.336 262.738C427.366 263.178 427.366 263.66 427.325 264.172C427.274 264.684 427.192 265.155 427.09 265.585C426.977 266.015 426.854 266.394 426.732 266.701C426.67 266.854 426.609 266.988 426.547 267.11C426.496 267.233 426.445 267.336 426.394 267.418C426.301 267.582 426.25 267.674 426.25 267.663C426.24 267.663 426.281 267.561 426.363 267.397C426.404 267.315 426.455 267.213 426.496 267.09C426.547 266.967 426.609 266.834 426.66 266.68C426.783 266.373 426.895 265.994 426.998 265.574C427.1 265.144 427.182 264.673 427.223 264.172C427.264 263.67 427.264 263.189 427.244 262.748C427.213 262.308 427.162 261.919 427.1 261.601C427.08 261.438 427.039 261.294 427.008 261.161C426.977 261.028 426.957 260.926 426.926 260.833C426.885 260.649 426.865 260.547 426.875 260.547Z" fill="#263238"/>
<path d="M396.841 260.608C396.831 260.608 396.8 260.7 396.739 260.874C396.708 260.966 396.677 261.069 396.646 261.202C396.616 261.335 396.575 261.478 396.544 261.642C396.472 261.97 396.421 262.359 396.38 262.799C396.349 263.24 396.349 263.721 396.39 264.233C396.442 264.745 396.523 265.216 396.626 265.646C396.739 266.076 396.861 266.455 396.984 266.762C397.046 266.916 397.107 267.049 397.169 267.172C397.22 267.295 397.271 267.397 397.322 267.479C397.414 267.643 397.466 267.735 397.466 267.725C397.476 267.725 397.435 267.622 397.353 267.459C397.312 267.377 397.261 267.274 397.22 267.151C397.169 267.029 397.107 266.895 397.056 266.742C396.933 266.435 396.82 266.056 396.718 265.636C396.616 265.206 396.534 264.735 396.483 264.233C396.442 263.731 396.442 263.25 396.462 262.81C396.493 262.369 396.544 261.98 396.605 261.663C396.626 261.499 396.667 261.356 396.698 261.222C396.728 261.089 396.749 260.987 396.78 260.895C396.82 260.71 396.841 260.608 396.841 260.608Z" fill="#263238"/>
<path d="M399.575 280.412C399.575 280.412 403.333 276.736 411.218 276.736C419.103 276.736 423.127 280.412 423.127 280.412C423.127 280.412 412.15 287.836 399.575 280.412Z" fill="#1E5BFA"/>
<path d="M285.665 284.099H363.94C367.831 284.099 370.975 280.945 370.975 277.064V254.351L379.607 246.692H370.975H285.655C281.764 246.692 278.62 249.846 278.62 253.727V277.064C278.63 280.955 281.774 284.099 285.665 284.099Z" fill="#EBEBEB"/>
<path d="M360.468 257.792C360.468 257.935 344.351 258.058 324.465 258.058C304.579 258.058 288.461 257.935 288.461 257.792C288.461 257.649 304.579 257.526 324.465 257.526C344.351 257.526 360.468 257.649 360.468 257.792Z" fill="white"/>
<path d="M360.468 263.875C360.468 264.018 344.351 264.141 324.465 264.141C304.579 264.141 288.461 264.018 288.461 263.875C288.461 263.731 304.579 263.608 324.465 263.608C344.351 263.608 360.468 263.731 360.468 263.875Z" fill="white"/>
<path d="M360.468 269.957C360.468 270.101 344.351 270.223 324.465 270.223C304.579 270.223 288.461 270.101 288.461 269.957C288.461 269.814 304.579 269.691 324.465 269.691C344.351 269.691 360.468 269.814 360.468 269.957Z" fill="white"/>
<path d="M360.468 276.04C360.468 276.183 344.351 276.306 324.465 276.306C304.579 276.306 288.461 276.183 288.461 276.04C288.461 275.896 304.579 275.773 324.465 275.773C344.351 275.773 360.468 275.886 360.468 276.04Z" fill="white"/>
<path d="M411.351 410.911C424.036 410.911 434.319 400.65 434.319 387.994C434.319 375.337 424.036 365.076 411.351 365.076C398.666 365.076 388.383 375.337 388.383 387.994C388.383 400.65 398.666 410.911 411.351 410.911Z" fill="#E0E0E0"/>
<path d="M417.638 401.541H405.565C404.705 401.541 404.009 400.845 404.009 399.985C404.009 399.125 404.705 398.428 405.565 398.428H417.638C418.499 398.428 419.195 399.125 419.195 399.985C419.195 400.845 418.499 401.541 417.638 401.541Z" fill="#263238"/>
<path d="M412.283 373.094H411.218V378.46H412.283V373.094Z" fill="#263238"/>
<path d="M396.093 394.547C397.813 394.547 399.206 393.153 399.206 391.434C399.206 389.715 397.813 388.321 396.093 388.321C394.374 388.321 392.98 389.715 392.98 391.434C392.98 393.153 394.374 394.547 396.093 394.547Z" fill="#1E5BFA"/>
<path d="M427.571 394.332C429.29 394.332 430.684 392.938 430.684 391.219C430.684 389.5 429.29 388.106 427.571 388.106C425.852 388.106 424.458 389.5 424.458 391.219C424.458 392.938 425.852 394.332 427.571 394.332Z" fill="#1E5BFA"/>
<path d="M412.211 377.334C412.211 377.334 424.888 377.18 426.895 388.158C428.902 399.135 418.181 399.34 415.099 399.555C413.696 399.647 410.706 399.657 408.074 399.616C402.227 399.514 398.1 398.387 396.698 392.96C396.534 392.325 396.421 391.68 396.38 391.014C396.012 385.075 400.026 377.037 412.211 377.334Z" fill="#1E5BFA"/>
<path d="M403.016 394.056L421.437 394.342C423.373 394.373 424.96 392.837 424.991 390.902C425.021 388.966 423.475 387.379 421.55 387.348L403.128 387.062C401.193 387.031 399.606 388.567 399.575 390.502C399.544 392.438 401.091 394.025 403.016 394.056Z" fill="#263238"/>
<path d="M417.618 390.523C417.741 391.127 418.324 391.526 418.939 391.404C419.543 391.281 419.942 390.697 419.82 390.083C419.697 389.478 419.113 389.079 418.499 389.202C417.894 389.325 417.495 389.919 417.618 390.523Z" fill="white"/>
<path d="M404.746 390.318C404.869 390.922 405.453 391.322 406.067 391.199C406.671 391.076 407.071 390.492 406.948 389.878C406.825 389.274 406.241 388.874 405.627 388.997C405.023 389.12 404.623 389.714 404.746 390.318Z" fill="white"/>
<path d="M413.501 372.982C413.501 373.944 412.723 374.733 411.75 374.733C410.788 374.733 409.999 373.955 409.999 372.982C409.999 372.009 410.778 371.231 411.75 371.231C412.713 371.231 413.501 372.019 413.501 372.982Z" fill="#1E5BFA"/>
<path d="M414.392 390.001C414.423 390.001 414.474 390.083 414.505 390.267C414.536 390.451 414.536 390.728 414.433 391.045C414.341 391.363 414.136 391.731 413.819 392.038C413.501 392.356 413.041 392.612 412.498 392.663C411.955 392.704 411.453 392.54 411.085 392.284C410.706 392.038 410.45 391.711 410.296 391.414C410.143 391.117 410.092 390.84 410.092 390.656C410.092 390.472 410.122 390.369 410.153 390.369C410.235 390.359 410.255 390.758 410.593 391.229C410.757 391.465 411.003 391.711 411.32 391.895C411.638 392.079 412.037 392.202 412.447 392.172C412.856 392.131 413.225 391.946 413.512 391.7C413.788 391.455 413.993 391.168 414.106 390.912C414.351 390.41 414.31 390.011 414.392 390.001Z" fill="white"/>
<path d="M426.875 387.799C426.885 387.799 426.916 387.891 426.977 388.065C427.008 388.157 427.039 388.26 427.069 388.393C427.1 388.526 427.141 388.669 427.172 388.833C427.244 389.161 427.295 389.55 427.336 389.99C427.366 390.431 427.366 390.912 427.325 391.424C427.274 391.936 427.192 392.407 427.09 392.837C426.977 393.267 426.854 393.646 426.732 393.953C426.67 394.107 426.609 394.24 426.547 394.363C426.496 394.486 426.445 394.588 426.394 394.67C426.301 394.834 426.25 394.926 426.25 394.916C426.24 394.916 426.281 394.813 426.363 394.65C426.404 394.568 426.455 394.465 426.496 394.342C426.547 394.22 426.609 394.086 426.66 393.933C426.783 393.626 426.895 393.247 426.998 392.827C427.1 392.397 427.182 391.926 427.223 391.424C427.264 390.922 427.264 390.441 427.244 390.001C427.213 389.56 427.162 389.171 427.1 388.854C427.08 388.69 427.039 388.547 427.008 388.413C426.977 388.28 426.957 388.178 426.926 388.086C426.885 387.901 426.865 387.809 426.875 387.799Z" fill="#263238"/>
<path d="M396.841 387.871C396.831 387.871 396.8 387.963 396.739 388.137C396.708 388.229 396.677 388.332 396.646 388.465C396.616 388.598 396.575 388.741 396.544 388.905C396.472 389.233 396.421 389.622 396.38 390.062C396.349 390.502 396.349 390.984 396.39 391.496C396.442 392.008 396.523 392.479 396.626 392.909C396.739 393.339 396.861 393.718 396.984 394.025C397.046 394.179 397.107 394.312 397.169 394.435C397.22 394.557 397.271 394.66 397.322 394.742C397.414 394.906 397.466 394.998 397.466 394.988C397.476 394.988 397.435 394.885 397.353 394.721C397.312 394.639 397.261 394.537 397.22 394.414C397.169 394.291 397.107 394.158 397.056 394.004C396.933 393.697 396.82 393.318 396.718 392.899C396.616 392.468 396.534 391.997 396.483 391.496C396.442 390.994 396.442 390.513 396.462 390.072C396.493 389.632 396.544 389.243 396.605 388.925C396.626 388.762 396.667 388.618 396.698 388.485C396.728 388.352 396.749 388.25 396.78 388.157C396.82 387.973 396.841 387.871 396.841 387.871Z" fill="#263238"/>
<path d="M399.575 407.675C399.575 407.675 403.333 403.999 411.218 403.999C419.103 403.999 423.127 407.675 423.127 407.675C423.127 407.675 412.15 415.099 399.575 407.675Z" fill="#1E5BFA"/>
<path d="M285.665 411.361H363.94C367.831 411.361 370.975 408.207 370.975 404.326V381.614L379.607 373.955H370.975H285.655C281.764 373.955 278.62 377.109 278.62 380.989V404.326C278.63 408.218 281.774 411.361 285.665 411.361Z" fill="#EBEBEB"/>
<path d="M285.665 446.884H363.94C367.831 446.884 370.975 443.73 370.975 439.849V432.322L379.607 424.663H370.975H285.655C281.764 424.663 278.62 427.817 278.62 431.698V439.849C278.63 443.73 281.774 446.884 285.665 446.884Z" fill="#EBEBEB"/>
<path d="M360.468 385.055C360.468 385.198 344.351 385.321 324.465 385.321C304.579 385.321 288.461 385.198 288.461 385.055C288.461 384.911 304.579 384.788 324.465 384.788C344.351 384.788 360.468 384.911 360.468 385.055Z" fill="white"/>
<path d="M360.468 391.137C360.468 391.281 344.351 391.403 324.465 391.403C304.579 391.403 288.461 391.281 288.461 391.137C288.461 390.994 304.579 390.871 324.465 390.871C344.351 390.871 360.468 390.994 360.468 391.137Z" fill="white"/>
<path d="M360.468 397.22C360.468 397.363 344.351 397.486 324.465 397.486C304.579 397.486 288.461 397.363 288.461 397.22C288.461 397.077 304.579 396.954 324.465 396.954C344.351 396.954 360.468 397.066 360.468 397.22Z" fill="white"/>
<path d="M360.468 403.302C360.468 403.446 344.351 403.569 324.465 403.569C304.579 403.569 288.461 403.446 288.461 403.302C288.461 403.159 304.579 403.036 324.465 403.036C344.351 403.036 360.468 403.149 360.468 403.302Z" fill="white"/>
<path d="M360.694 436.091C360.694 436.234 344.74 436.357 325.069 436.357C305.388 436.357 289.434 436.234 289.434 436.091C289.434 435.947 305.388 435.825 325.069 435.825C344.74 435.825 360.694 435.937 360.694 436.091Z" fill="white"/>
<path d="M98.7546 421.263C101.53 421.827 103.895 423.782 105.38 426.189C106.865 428.595 107.551 431.422 107.827 434.238C108.349 439.685 106.455 445.706 104.1 450.642C98.7853 447.672 96.3174 441.068 95.273 437.637C93.6243 432.23 93.9315 421.427 98.7546 421.263Z" fill="#455A64"/>
<path d="M111.165 458.332C109.814 455.475 110.367 451.912 112.241 449.362C114.115 446.812 117.156 445.266 120.289 444.846C121.743 444.652 123.372 444.744 124.436 445.747C125.43 446.679 125.665 448.236 125.297 449.546C124.928 450.867 124.047 451.973 123.064 452.925C119.695 456.192 115.835 458.721 111.165 458.332Z" fill="#455A64"/>
<path d="M108.872 475.873C108.841 475.873 108.82 475.474 108.8 474.747C108.78 473.948 108.749 472.914 108.718 471.675C108.687 469.105 108.575 465.429 109.773 461.589C110.94 457.759 113.06 454.677 115.026 452.956C115.999 452.076 116.89 451.492 117.535 451.154C117.852 450.97 118.118 450.867 118.292 450.785C118.467 450.703 118.559 450.673 118.569 450.683C118.62 450.765 117.094 451.379 115.231 453.161C113.347 454.902 111.319 457.943 110.162 461.711C108.995 465.47 109.056 469.105 109.005 471.685C108.995 472.986 108.984 474.03 108.964 474.757C108.923 475.474 108.892 475.873 108.872 475.873Z" fill="#263238"/>
<path d="M99.2461 429.517C99.2563 429.517 99.3075 429.67 99.3997 429.978C99.4918 430.326 99.6147 430.776 99.7683 431.329C100.086 432.507 100.516 434.217 101.038 436.337C102.083 440.576 103.434 446.444 104.786 452.966C106.138 459.489 107.223 465.418 107.95 469.719C108.319 471.869 108.595 473.61 108.769 474.819C108.851 475.392 108.913 475.853 108.964 476.211C109.005 476.529 109.015 476.703 109.005 476.703C108.995 476.703 108.954 476.539 108.882 476.232C108.81 475.873 108.718 475.423 108.616 474.849C108.38 473.6 108.063 471.88 107.674 469.77C106.875 465.48 105.748 459.571 104.397 453.048C103.045 446.536 101.734 440.658 100.772 436.408C100.301 434.319 99.9117 432.609 99.625 431.37C99.5021 430.807 99.3997 430.357 99.328 429.998C99.2563 429.681 99.2358 429.517 99.2461 429.517Z" fill="#263238"/>
<path d="M104.1 463.217C101.714 456.991 96.1434 452.086 89.6717 450.509C88.023 450.11 85.9648 450.048 84.9715 451.43C83.9782 452.803 84.6746 454.748 85.6064 456.172C89.4771 462.09 97.1878 465.224 104.09 463.678" fill="#455A64"/>
<path d="M91.4637 455.404C91.4739 455.373 91.8426 455.455 92.4979 455.619C92.8256 455.701 93.2352 455.793 93.696 455.967C94.1568 456.131 94.6893 456.274 95.2422 456.54C95.8054 456.786 96.4301 457.032 97.0547 457.39C97.6998 457.708 98.3552 458.117 99.0413 458.547C100.383 459.448 101.786 460.575 103.066 461.947C104.335 463.329 105.359 464.804 106.148 466.217C106.527 466.934 106.885 467.62 107.141 468.296C107.438 468.951 107.633 469.596 107.817 470.18C108.022 470.753 108.114 471.306 108.237 471.777C108.36 472.248 108.411 472.668 108.462 473.006C108.554 473.682 108.595 474.061 108.564 474.061C108.472 474.071 108.319 472.566 107.561 470.272C107.356 469.699 107.151 469.074 106.844 468.429C106.578 467.774 106.22 467.098 105.841 466.401C105.042 465.019 104.028 463.575 102.789 462.223C101.53 460.882 100.168 459.766 98.8467 458.854C98.1811 458.414 97.5462 458.005 96.9114 457.677C96.297 457.318 95.6928 457.052 95.1398 456.796C92.9178 455.823 91.433 455.486 91.4637 455.404Z" fill="#263238"/>
<path d="M124.006 155.341L120.218 143.524C124.068 137.267 126.3 129.905 126.3 122.02C126.3 99.3486 107.919 80.9678 85.248 80.9678C62.5766 80.9678 44.1958 99.3486 44.1958 122.02C44.1958 144.691 62.5766 163.072 85.248 163.072C94.72 163.072 103.424 159.857 110.377 154.471L110.367 154.491L124.006 155.341Z" fill="#FAFAFA"/>
<path d="M124.006 155.341C124.006 155.341 123.73 155.331 123.146 155.31C122.542 155.279 121.682 155.238 120.556 155.177C118.221 155.044 114.801 154.86 110.346 154.614C110.285 154.614 110.234 154.552 110.234 154.491C110.234 154.47 110.244 154.44 110.254 154.429L110.264 154.409L110.428 154.573C106.24 157.839 100.024 161.362 91.8938 162.714C89.8765 163.052 87.7466 163.246 85.5347 163.267C83.3331 163.174 81.0394 163.164 78.7251 162.724C74.0864 161.997 69.2531 160.42 64.7066 157.809C60.1498 155.208 55.8797 151.573 52.4186 147.026C48.9472 142.49 46.295 137.032 44.9434 131.052C43.561 125.092 43.5814 118.61 45.1072 112.343C45.312 111.565 45.5066 110.776 45.7114 109.988C45.9469 109.21 46.2541 108.462 46.5306 107.684C46.8378 106.926 47.0426 106.127 47.4317 105.4C47.7901 104.663 48.1485 103.916 48.5069 103.178C48.8346 102.421 49.2851 101.724 49.7152 101.018L51.0157 98.8877L52.5107 96.8807L53.2582 95.8772C53.5142 95.5495 53.8112 95.2525 54.0877 94.9351C58.6035 89.8048 64.2355 85.7805 70.4 83.497C76.5338 81.152 83.0566 80.3328 89.2518 80.9165C95.4573 81.5104 101.284 83.5584 106.26 86.528C111.247 89.4976 115.384 93.3888 118.518 97.6692C121.651 101.96 123.781 106.629 125.01 111.196C125.686 113.48 125.972 115.763 126.28 117.965C126.372 120.177 126.556 122.317 126.403 124.375C125.911 132.629 123.075 139.151 120.32 143.585L120.33 143.493C121.539 147.354 122.46 150.313 123.095 152.341C123.402 153.324 123.628 154.071 123.791 154.593C123.935 155.095 124.006 155.341 124.006 155.341C124.006 155.341 123.904 155.075 123.74 154.563C123.566 154.04 123.31 153.283 122.982 152.289C122.327 150.293 121.364 147.364 120.115 143.555C120.105 143.524 120.115 143.493 120.125 143.462C122.829 139.039 125.614 132.536 126.054 124.355C126.208 122.317 126.013 120.197 125.911 118.006C125.604 115.835 125.307 113.562 124.631 111.309C123.392 106.783 121.272 102.175 118.159 97.9354C115.057 93.7063 110.95 89.8663 106.015 86.9376C101.089 84.0192 95.3344 82.002 89.2109 81.4183C83.0976 80.8551 76.6566 81.6538 70.5946 83.9783C64.512 86.2311 58.9414 90.2042 54.487 95.273C54.2106 95.5802 53.9136 95.8772 53.6678 96.2048L52.9306 97.1981L51.4458 99.1744L50.1658 101.274C49.7357 101.97 49.2954 102.656 48.9779 103.404C48.6195 104.141 48.2714 104.868 47.9232 105.595C47.5341 106.312 47.3395 107.1 47.0323 107.848C46.7661 108.605 46.4589 109.353 46.2234 110.121C46.0288 110.899 45.824 111.667 45.6294 112.445C44.1139 118.63 44.0934 125.03 45.4554 130.918C46.7866 136.817 49.3978 142.213 52.8179 146.709C56.2381 151.214 60.457 154.808 64.9523 157.399C69.4477 160 74.2195 161.567 78.8173 162.304C81.111 162.755 83.3843 162.765 85.5654 162.867C87.7466 162.857 89.856 162.683 91.863 162.345C99.9219 161.045 106.117 157.583 110.316 154.368C110.367 154.327 110.438 154.337 110.479 154.389C110.51 154.429 110.51 154.491 110.479 154.532L110.469 154.552L110.387 154.368C114.801 154.675 118.2 154.911 120.504 155.064C121.651 155.146 122.522 155.208 123.126 155.249C123.689 155.31 124.006 155.341 124.006 155.341Z" fill="#263238"/>
<path d="M73.6666 121.999C73.6666 124.303 71.8029 126.167 69.4989 126.167C67.1949 126.167 65.3312 124.303 65.3312 121.999C65.3312 119.695 67.1949 117.832 69.4989 117.832C71.8029 117.832 73.6666 119.695 73.6666 121.999Z" fill="#263238"/>
<path d="M90.3578 121.999C90.3578 124.303 88.4941 126.167 86.1901 126.167C83.8861 126.167 82.0224 124.303 82.0224 121.999C82.0224 119.695 83.8861 117.832 86.1901 117.832C88.4941 117.832 90.3578 119.695 90.3578 121.999Z" fill="#263238"/>
<path d="M107.008 119.921C108.155 121.917 107.479 124.467 105.482 125.614C103.485 126.761 100.936 126.085 99.7888 124.088C98.6419 122.092 99.3178 119.542 101.315 118.395C103.301 117.238 105.851 117.924 107.008 119.921Z" fill="#263238"/>
<path d="M108.667 306.217L65.4848 301.711L47.2678 260.25L33.0752 263.956C33.0752 263.956 43.561 307.763 55.2858 314.552C67.0106 321.341 107.121 322.57 107.121 322.57L108.667 306.217Z" fill="#1E5BFA"/>
<path d="M131.615 327.251C138.632 319.354 137.92 307.263 130.023 300.245C122.126 293.228 110.036 293.94 103.018 301.837C95.9999 309.734 96.7125 321.824 104.609 328.842C112.506 335.86 124.597 335.148 131.615 327.251Z" fill="#263238"/>
<path d="M117.299 333.701C112.179 333.701 107.377 331.704 103.752 328.089C100.137 324.475 98.1402 319.662 98.1402 314.542C98.1402 309.422 100.137 304.619 103.752 300.994C107.366 297.38 112.179 295.383 117.299 295.383C122.419 295.383 127.222 297.38 130.847 300.994C134.461 304.609 136.458 309.422 136.458 314.542C136.458 319.662 134.461 324.465 130.847 328.089C127.232 331.704 122.419 333.701 117.299 333.701ZM117.299 295.444C112.2 295.444 107.397 297.431 103.793 301.035C100.188 304.64 98.2016 309.442 98.2016 314.542C98.2016 319.642 100.188 324.444 103.793 328.049C107.397 331.653 112.2 333.64 117.299 333.64C122.399 333.64 127.201 331.653 130.806 328.049C134.41 324.444 136.397 319.642 136.397 314.542C136.397 309.442 134.41 304.64 130.806 301.035C127.201 297.431 122.409 295.444 117.299 295.444Z" fill="#263238"/>
<path d="M61.6621 317.839C69.3666 315.99 74.1133 308.245 72.264 300.54C70.4147 292.836 62.6698 288.089 54.9653 289.939C47.2607 291.788 42.5141 299.533 44.3634 307.237C46.2127 314.942 53.9576 319.688 61.6621 317.839Z" fill="#263238"/>
<path d="M47.4209 263.601C51.9997 259.022 51.9997 251.598 47.4209 247.02C42.8421 242.441 35.4185 242.441 30.8397 247.02C26.2609 251.598 26.2609 259.022 30.8397 263.601C35.4185 268.18 42.8421 268.18 47.4209 263.601Z" fill="#263238"/>
<path d="M47.7696 257.116L57.4054 248.975C58.4704 248.084 58.6035 246.497 57.7024 245.432L57.4669 245.156C56.576 244.091 54.9888 243.958 53.9238 244.859L44.288 253L47.7696 257.116Z" fill="#263238"/>
<path d="M45.1482 246.292V234.045C45.1482 232.653 44.0218 231.537 42.6394 231.537H42.2707C40.8883 231.537 39.7619 232.663 39.7619 234.045V246.292C39.7619 246.497 39.9258 246.651 40.1203 246.651H44.7898C44.9843 246.651 45.1482 246.487 45.1482 246.292Z" fill="#263238"/>
<path d="M39.127 246.047L36.4544 234.086C36.1472 232.735 34.8058 231.885 33.4541 232.182L33.0957 232.264C31.744 232.571 30.8941 233.912 31.191 235.264L33.8637 247.224C33.9046 247.419 34.0992 247.542 34.2938 247.501L38.8506 246.477C39.0451 246.436 39.168 246.241 39.127 246.047Z" fill="#263238"/>
<path d="M33.2288 247.695L27.1053 237.087C26.409 235.889 24.873 235.469 23.6749 236.165L23.3574 236.349C22.1594 237.046 21.7395 238.582 22.4358 239.78L28.5594 250.388C28.6618 250.563 28.8768 250.624 29.0509 250.522L33.0957 248.187C33.2698 248.084 33.3312 247.869 33.2288 247.695Z" fill="#263238"/>
<path d="M296.12 413.602L309.029 408.111L271.776 320.525L258.866 326.016L296.12 413.602Z" fill="#1E5BFA"/>
<path d="M273.623 328.882C280.452 320.822 279.453 308.752 271.392 301.923C263.332 295.094 251.262 296.093 244.433 304.153C237.604 312.214 238.603 324.284 246.663 331.113C254.724 337.941 266.794 336.943 273.623 328.882Z" fill="#263238"/>
<path d="M259.052 335.708C257.157 335.708 255.242 335.422 253.379 334.848C248.494 333.343 244.48 330.015 242.094 325.499C239.708 320.973 239.217 315.791 240.722 310.907C242.227 306.022 245.555 302.008 250.071 299.622C254.597 297.237 259.779 296.745 264.663 298.25C269.548 299.756 273.562 303.084 275.948 307.599C278.333 312.126 278.825 317.307 277.32 322.191C275.814 327.076 272.486 331.09 267.971 333.476C265.185 334.961 262.134 335.708 259.052 335.708ZM259.011 297.431C255.939 297.431 252.897 298.179 250.112 299.653C245.596 302.039 242.289 306.033 240.783 310.917C239.278 315.791 239.759 320.963 242.145 325.478C244.531 329.994 248.525 333.302 253.409 334.807C258.284 336.312 263.455 335.831 267.971 333.445C272.486 331.059 275.794 327.066 277.299 322.181L277.32 322.191L277.299 322.181C278.804 317.307 278.313 312.136 275.937 307.62C273.551 303.104 269.558 299.797 264.673 298.291C262.799 297.718 260.895 297.431 259.011 297.431Z" fill="#263238"/>
<path d="M297.783 373.72C299.905 366.086 295.436 358.178 287.802 356.056C280.168 353.934 272.259 358.403 270.137 366.037C268.016 373.671 272.484 381.579 280.118 383.701C287.752 385.823 295.661 381.354 297.783 373.72Z" fill="#263238"/>
<path d="M305.572 426.24C312.047 426.24 317.297 420.991 317.297 414.515C317.297 408.04 312.047 402.79 305.572 402.79C299.096 402.79 293.847 408.04 293.847 414.515C293.847 420.991 299.096 426.24 305.572 426.24Z" fill="#263238"/>
<path d="M296.806 415.549L290.243 426.322C289.516 427.51 289.894 429.056 291.082 429.773L291.4 429.967C292.588 430.694 294.134 430.316 294.851 429.128L301.414 418.355L296.806 415.549Z" fill="#263238"/>
<path d="M302.725 424.98L306.606 436.603C307.046 437.924 308.47 438.63 309.78 438.19L310.129 438.077C311.45 437.637 312.156 436.214 311.716 434.903L307.835 423.281C307.773 423.086 307.569 422.984 307.374 423.055L302.95 424.53C302.766 424.581 302.664 424.786 302.725 424.98Z" fill="#263238"/>
<path d="M308.511 423.311L314.829 433.807C315.546 434.995 317.092 435.374 318.28 434.668L318.597 434.473C319.785 433.756 320.164 432.21 319.457 431.022L313.139 420.526C313.037 420.352 312.812 420.301 312.637 420.403L308.644 422.81C308.46 422.912 308.408 423.137 308.511 423.311Z" fill="#263238"/>
<path d="M313.58 419.881L322.755 428.001C323.789 428.923 325.376 428.82 326.298 427.786L326.543 427.51C327.465 426.475 327.363 424.888 326.328 423.967L317.153 415.846C317 415.713 316.774 415.723 316.641 415.877L313.549 419.369C313.416 419.512 313.436 419.748 313.58 419.881Z" fill="#263238"/>
<path d="M111.575 294.646C111.575 294.646 112.957 428.923 188.314 431.555C263.67 434.186 266.834 295.608 266.834 294.646C266.834 294.646 257.935 274.616 189.204 275.405C120.474 276.193 111.575 294.646 111.575 294.646Z" fill="#1E5BFA"/>
<path d="M153.917 271.012H217.61C221.768 271.012 225.137 267.643 225.137 263.485V262.38C225.137 258.222 221.768 254.853 217.61 254.853H153.917C149.76 254.853 146.391 258.222 146.391 262.38V263.485C146.391 267.633 149.76 271.012 153.917 271.012Z" fill="#263238"/>
<path d="M183.035 151.602H188.534V123.8H183.035V151.602Z" fill="#263238"/>
<path d="M269.879 234.354C278.561 232.29 283.926 223.578 281.862 214.896C279.798 206.213 271.086 200.848 262.404 202.912C253.721 204.976 248.356 213.688 250.42 222.371C252.484 231.053 261.196 236.418 269.879 234.354Z" fill="#1E5BFA"/>
<path d="M106.584 233.313C115.287 231.339 120.742 222.683 118.768 213.981C116.794 205.278 108.138 199.823 99.4353 201.797C90.7325 203.771 85.2776 212.426 87.2517 221.129C89.2257 229.832 97.8811 235.287 106.584 233.313Z" fill="#1E5BFA"/>
<path d="M182.579 145.572C182.579 145.572 116.879 144.783 106.476 201.687C96.0717 258.591 151.634 259.656 167.619 260.731C174.868 261.222 190.372 261.274 204.052 261.028C234.342 260.506 255.734 254.638 263.025 226.539C263.875 223.263 264.448 219.894 264.663 216.474C266.578 185.682 245.729 144.056 182.579 145.572Z" fill="#1E5BFA"/>
<path d="M230.236 232.243L134.789 233.738C124.785 233.892 116.552 225.915 116.388 215.91C116.234 205.906 124.211 197.673 134.216 197.509L229.663 196.014C239.667 195.86 247.9 203.837 248.064 213.842C248.228 223.846 240.241 232.079 230.236 232.243Z" fill="#263238"/>
<path d="M154.593 213.924C153.979 217.078 150.917 219.126 147.773 218.511C144.619 217.897 142.572 214.835 143.186 211.691C143.8 208.538 146.862 206.49 150.006 207.104C153.16 207.718 155.208 210.77 154.593 213.924Z" fill="white"/>
<path d="M221.276 212.859C220.662 216.013 217.6 218.061 214.456 217.446C211.302 216.832 209.254 213.77 209.869 210.627C210.483 207.473 213.545 205.425 216.689 206.039C219.843 206.653 221.891 209.705 221.276 212.859Z" fill="white"/>
<path d="M211.681 347.976C210.637 362.291 198.185 373.043 183.88 371.999C169.564 370.954 158.812 358.502 159.857 344.187C160.901 329.871 173.353 319.119 187.668 320.164C201.974 321.219 212.726 333.67 211.681 347.976Z" fill="#263238"/>
<path d="M204.646 347.464C203.889 357.888 194.816 365.732 184.381 364.964C173.957 364.206 166.113 355.133 166.881 344.699C167.639 334.275 176.712 326.431 187.146 327.199C197.581 327.967 205.414 337.039 204.646 347.464Z" fill="white"/>
<path d="M195.523 350.904C195.451 350.863 195.389 349.737 195.348 347.781C195.297 345.825 195.267 343.03 195.256 339.62L195.461 339.999C192.625 338.34 189.327 336.415 185.723 334.316L186.266 334.326C183.204 336.046 179.896 337.91 176.435 339.845C176.169 340.285 176.794 339.241 176.732 339.354V339.364V339.374V339.395V339.446V339.538V339.722L176.722 340.091L176.712 340.828L176.691 342.292C176.671 343.265 176.66 344.218 176.64 345.16C176.599 347.044 176.568 348.867 176.538 350.628L176.271 350.157C179.835 352.328 183.081 354.314 185.897 356.035L185.467 356.024C188.467 354.406 190.945 353.116 192.686 352.236C194.437 351.345 195.451 350.863 195.523 350.904C195.594 350.945 194.724 351.519 193.065 352.532C191.406 353.546 188.959 355 185.887 356.772L185.672 356.895L185.457 356.772C182.61 355.113 179.323 353.188 175.718 351.089L175.452 350.935V350.618C175.473 348.856 175.493 347.034 175.503 345.149C175.514 344.207 175.524 343.255 175.534 342.282L175.555 340.818L175.565 340.081L175.575 339.712V339.528V339.436V339.384V339.364V339.354V339.343C175.514 339.446 176.138 338.401 175.872 338.842C179.343 336.916 182.671 335.073 185.733 333.373L186.01 333.22L186.276 333.384C189.839 335.555 193.096 337.551 195.901 339.261L196.116 339.395L196.106 339.64C196.004 343.183 195.881 346.03 195.779 347.976C195.676 349.911 195.594 350.945 195.523 350.904Z" fill="#1E5BFA"/>
<path d="M192.189 129.645C195.728 126.106 195.728 120.368 192.189 116.829C188.65 113.29 182.912 113.29 179.373 116.829C175.834 120.368 175.834 126.106 179.373 129.645C182.912 133.184 188.65 133.184 192.189 129.645Z" fill="#1E5BFA"/>
<path d="M171.305 211.241C171.735 211.292 171.52 213.32 172.79 216.023C173.404 217.364 174.428 218.829 175.872 220.078C177.316 221.327 179.231 222.28 181.33 222.505C183.439 222.669 185.498 222.075 187.146 221.112C188.805 220.15 190.075 218.89 190.915 217.682C192.655 215.255 192.809 213.217 193.239 213.248C193.413 213.248 193.587 213.76 193.587 214.723C193.597 215.685 193.311 217.088 192.532 218.644C191.754 220.201 190.403 221.88 188.447 223.181C186.522 224.491 183.9 225.382 181.084 225.147C178.278 224.86 175.862 223.519 174.203 221.88C172.524 220.242 171.489 218.347 171.008 216.678C170.516 214.999 170.496 213.565 170.68 212.623C170.875 211.681 171.141 211.21 171.305 211.241Z" fill="white"/>
<path d="M258.785 237.773C258.693 237.722 259.871 235.93 260.997 232.704C262.164 229.499 263.178 224.85 263.66 219.658C264.182 214.456 264.1 209.715 263.967 206.295C263.885 204.585 263.803 203.202 263.731 202.24C263.66 201.288 263.639 200.755 263.68 200.745C263.721 200.745 263.803 201.267 263.936 202.219C264.079 203.172 264.212 204.554 264.346 206.274C264.571 209.705 264.714 214.477 264.192 219.709C263.7 224.942 262.615 229.622 261.356 232.837C260.741 234.445 260.106 235.704 259.615 236.534C259.103 237.353 258.816 237.793 258.785 237.773Z" fill="#263238"/>
<path d="M106.619 199.823C106.65 199.834 106.537 200.356 106.291 201.288C106.168 201.749 106.015 202.322 105.882 202.988C105.738 203.653 105.544 204.401 105.421 205.251C105.103 206.93 104.847 208.957 104.704 211.221C104.591 213.484 104.591 215.972 104.806 218.573C105.052 221.174 105.482 223.621 105.994 225.833C106.537 228.024 107.141 229.98 107.756 231.578C108.032 232.387 108.349 233.093 108.605 233.728C108.851 234.363 109.097 234.895 109.312 235.325C109.711 236.196 109.916 236.687 109.885 236.708C109.855 236.728 109.588 236.268 109.128 235.418C108.892 234.998 108.616 234.476 108.339 233.851C108.052 233.226 107.704 232.53 107.407 231.721C106.742 230.124 106.097 228.168 105.523 225.956C104.98 223.734 104.52 221.256 104.274 218.624C104.049 215.992 104.069 213.473 104.212 211.19C104.387 208.906 104.684 206.869 105.052 205.179C105.206 204.329 105.421 203.581 105.595 202.916C105.759 202.25 105.933 201.687 106.097 201.226C106.404 200.315 106.588 199.813 106.619 199.823Z" fill="#263238"/>
<path d="M111.268 294.533C111.268 294.523 111.401 294.564 111.667 294.646C111.944 294.738 112.323 294.871 112.804 295.035C113.828 295.393 115.292 295.916 117.166 296.571C118.118 296.909 119.163 297.288 120.32 297.697C121.477 298.086 122.757 298.445 124.119 298.875C126.853 299.684 129.935 300.739 133.437 301.558C135.178 302.008 137.001 302.469 138.895 302.961C140.8 303.442 142.807 303.8 144.876 304.241C148.992 305.183 153.467 305.828 158.157 306.586C167.567 307.866 177.992 308.736 188.948 308.787C199.916 308.746 210.34 307.866 219.75 306.586C224.44 305.828 228.905 305.183 233.032 304.241C235.1 303.79 237.107 303.442 239.012 302.961C240.906 302.469 242.729 302.008 244.47 301.558C247.972 300.739 251.054 299.684 253.788 298.875C255.15 298.455 256.43 298.086 257.587 297.697C258.734 297.288 259.789 296.909 260.741 296.571C262.615 295.905 264.079 295.393 265.103 295.035C265.585 294.871 265.964 294.738 266.24 294.646C266.496 294.564 266.629 294.523 266.639 294.533C266.639 294.543 266.516 294.595 266.26 294.697C265.984 294.81 265.615 294.953 265.134 295.137C264.12 295.516 262.656 296.069 260.803 296.776C259.86 297.124 258.806 297.523 257.669 297.943C256.512 298.342 255.242 298.721 253.88 299.162C251.146 300.001 248.074 301.077 244.572 301.926C242.831 302.387 241.009 302.869 239.104 303.36C237.199 303.852 235.192 304.22 233.124 304.671C228.997 305.633 224.522 306.299 219.822 307.067C210.391 308.378 199.946 309.269 188.948 309.31C177.961 309.258 167.506 308.367 158.085 307.057C153.385 306.278 148.91 305.623 144.783 304.65C142.715 304.19 140.708 303.821 138.803 303.34C136.909 302.838 135.076 302.357 133.335 301.906C129.833 301.056 126.761 299.981 124.027 299.141C122.665 298.701 121.395 298.322 120.238 297.923C119.091 297.493 118.047 297.103 117.094 296.755C115.231 296.049 113.777 295.506 112.763 295.117C112.292 294.933 111.913 294.789 111.636 294.677C111.391 294.595 111.258 294.543 111.268 294.533Z" fill="#263238"/>
<g opacity="0.3">
<path opacity="0.3" d="M111.575 294.646C111.575 294.646 120.474 276.183 189.204 275.405C257.935 274.616 266.834 294.646 266.834 294.646C266.834 294.646 197.509 328.837 111.575 294.646Z" fill="black"/>
</g>
<path d="M174.254 149.832C174.254 149.842 174.172 149.852 174.019 149.873C173.834 149.893 173.599 149.914 173.322 149.934C172.708 149.995 171.807 150.016 170.65 150.159C168.335 150.364 164.997 150.825 160.952 151.767C156.908 152.699 152.177 154.214 147.2 156.518C142.223 158.812 137.032 161.966 132.137 165.98C127.273 170.025 123.187 174.531 119.992 178.975C116.787 183.429 114.401 187.781 112.712 191.57C111.022 195.359 109.937 198.554 109.292 200.786C108.933 201.892 108.749 202.772 108.564 203.366C108.483 203.633 108.421 203.858 108.37 204.032C108.319 204.186 108.298 204.257 108.288 204.257C108.278 204.257 108.288 204.175 108.319 204.022C108.36 203.837 108.401 203.612 108.462 203.336C108.605 202.742 108.769 201.851 109.087 200.724C109.67 198.472 110.705 195.246 112.364 191.416C114.012 187.587 116.378 183.183 119.593 178.688C122.798 174.193 126.894 169.646 131.799 165.56C136.735 161.515 141.978 158.362 146.995 156.068C152.023 153.774 156.795 152.279 160.87 151.388C164.946 150.487 168.305 150.088 170.629 149.944C171.786 149.842 172.698 149.852 173.312 149.821C173.588 149.821 173.824 149.811 174.008 149.811C174.182 149.811 174.254 149.821 174.254 149.832Z" fill="white"/>
<path d="M109.978 228.659C109.916 228.68 109.517 227.922 109.046 226.611C108.564 225.311 108.042 223.447 107.704 221.358C107.377 219.259 107.315 217.334 107.366 215.941C107.418 214.548 107.561 213.709 107.633 213.709C107.796 213.719 107.571 217.139 108.227 221.276C108.861 225.413 110.131 228.598 109.978 228.659Z" fill="white"/>
<path d="M92.7437 223.365C92.7232 223.386 92.5082 223.201 92.1907 222.812C91.863 222.423 91.4432 221.829 91.0336 221.02C90.1939 219.433 89.4771 216.914 89.8355 214.139C90.2042 211.364 91.5661 209.121 92.7846 207.8C93.399 207.135 93.952 206.664 94.3718 206.377C94.7814 206.09 95.0272 205.957 95.0477 205.988C95.1091 206.06 94.1875 206.694 93.0714 208.046C91.9552 209.388 90.7162 211.558 90.368 214.2C90.0198 216.842 90.6547 219.269 91.3715 220.846C92.0883 222.464 92.8154 223.304 92.7437 223.365Z" fill="white"/>
<path d="M186.378 116.92C186.358 117.023 185.446 116.685 183.972 116.859C182.538 117.012 180.47 117.842 179.241 119.726C178.043 121.631 178.145 123.853 178.606 125.225C179.057 126.638 179.743 127.334 179.661 127.396C179.64 127.416 179.446 127.273 179.169 126.945C178.883 126.618 178.534 126.085 178.248 125.358C177.664 123.945 177.469 121.539 178.79 119.45C180.142 117.381 182.405 116.562 183.941 116.5C184.719 116.46 185.354 116.552 185.764 116.675C186.184 116.777 186.388 116.89 186.378 116.92Z" fill="white"/>
<path d="M275.62 210.944C275.507 211.067 273.91 209.541 271.503 208.394C269.107 207.217 266.926 206.909 266.957 206.746C266.957 206.612 269.24 206.694 271.739 207.913C274.248 209.111 275.732 210.862 275.62 210.944Z" fill="white"/>
<path d="M135.209 390.216C135.199 390.216 135.158 390.154 135.076 390.021C134.984 389.857 134.871 389.663 134.738 389.417C134.431 388.843 134.021 388.055 133.499 387.072C133.233 386.56 132.936 385.986 132.618 385.362C132.321 384.727 132.004 384.031 131.656 383.293C130.959 381.809 130.171 380.119 129.413 378.194C129.024 377.242 128.614 376.238 128.184 375.194C127.795 374.139 127.386 373.033 126.966 371.896C126.085 369.633 125.338 367.145 124.467 364.564C122.86 359.352 121.283 353.556 119.9 347.412C118.548 341.258 117.514 335.35 116.695 329.953C115.937 324.546 115.343 319.672 115.016 315.556C114.821 313.498 114.698 311.644 114.596 310.006C114.483 308.367 114.401 306.964 114.371 305.807C114.33 304.691 114.309 303.81 114.278 303.155C114.278 302.879 114.268 302.653 114.268 302.469C114.268 302.315 114.278 302.234 114.278 302.234C114.289 302.234 114.299 302.315 114.319 302.469C114.34 302.653 114.36 302.879 114.381 303.155C114.432 303.81 114.493 304.691 114.565 305.807C114.627 306.954 114.739 308.367 114.883 309.995C115.016 311.624 115.159 313.487 115.384 315.535C115.763 319.642 116.398 324.506 117.176 329.892C118.016 335.278 119.071 341.166 120.412 347.31C121.795 353.444 123.351 359.219 124.918 364.431C125.778 367.012 126.505 369.5 127.365 371.763C127.775 372.9 128.174 374.006 128.553 375.06C128.973 376.105 129.362 377.108 129.751 378.061C130.488 379.986 131.246 381.686 131.912 383.181C132.239 383.928 132.547 384.625 132.833 385.27C133.14 385.894 133.417 386.468 133.673 386.99C134.154 387.994 134.543 388.792 134.83 389.376C134.943 389.632 135.035 389.837 135.117 390.001C135.188 390.134 135.219 390.216 135.209 390.216Z" fill="white"/>
<path d="M95.0989 306.729C95.0886 306.872 91.7402 306.76 87.6134 306.463C83.4867 306.166 80.1587 305.807 80.169 305.664C80.1792 305.521 83.5277 305.633 87.6544 305.93C91.7811 306.227 95.1091 306.586 95.0989 306.729Z" fill="white"/>
<path d="M56.576 284.867C56.4429 284.938 54.7021 281.969 52.6746 278.231C50.647 274.493 49.1213 271.411 49.2442 271.34C49.3773 271.268 51.1181 274.237 53.1456 277.975C55.1731 281.713 56.7091 284.795 56.576 284.867Z" fill="white"/>
<path d="M171.52 422.502C171.51 422.543 171.09 422.482 170.322 422.359C169.554 422.246 168.458 421.98 167.117 421.581C165.775 421.192 164.219 420.598 162.55 419.83C160.891 419.031 159.119 418.038 157.368 416.819C155.628 415.58 154.092 414.249 152.781 412.959C151.491 411.648 150.405 410.378 149.586 409.252C148.756 408.136 148.142 407.183 147.773 406.497C147.395 405.822 147.2 405.432 147.231 405.422C147.313 405.371 148.173 406.856 149.883 409.027C150.733 410.112 151.828 411.331 153.129 412.611C154.44 413.87 155.965 415.171 157.676 416.379C159.396 417.577 161.137 418.57 162.765 419.379C164.403 420.168 165.929 420.782 167.229 421.222C169.851 422.103 171.54 422.4 171.52 422.502Z" fill="white"/>
<path d="M187.228 375.132C187.228 375.153 186.982 375.173 186.511 375.204C186.04 375.214 185.344 375.316 184.443 375.265C182.641 375.265 180.029 374.968 176.937 374.047C175.391 373.596 173.752 372.92 172.042 372.081C170.373 371.179 168.612 370.145 166.953 368.794C163.604 366.152 160.492 362.455 158.484 357.929C156.549 353.372 155.965 348.57 156.324 344.32C156.467 342.19 156.918 340.193 157.399 338.36C157.952 336.548 158.577 334.889 159.304 333.445C160.737 330.557 162.314 328.448 163.543 327.127C164.116 326.431 164.669 325.99 164.997 325.652C165.345 325.325 165.53 325.161 165.54 325.181C165.581 325.222 164.854 325.908 163.697 327.26C162.529 328.612 161.014 330.731 159.642 333.609C158.945 335.043 158.351 336.691 157.829 338.483C157.368 340.296 156.948 342.262 156.815 344.361C156.488 348.549 157.071 353.249 158.976 357.724C160.942 362.158 163.983 365.803 167.26 368.415C168.888 369.756 170.609 370.79 172.247 371.692C173.916 372.531 175.524 373.217 177.05 373.688C180.091 374.651 182.671 374.989 184.453 375.06C186.235 375.132 187.228 375.071 187.228 375.132Z" fill="white"/>
<path d="M63.2525 294.492C63.2115 294.574 62.464 294.195 61.1635 293.898C59.8733 293.601 58.0198 293.489 56.0538 293.949C54.0877 294.431 52.4902 295.373 51.4765 296.223C50.4627 297.073 49.961 297.748 49.8893 297.697C49.8483 297.677 50.2374 296.899 51.2307 295.946C52.2138 294.994 53.8726 293.939 55.9309 293.437C57.9891 292.946 59.945 293.13 61.2557 293.54C62.5869 293.939 63.2832 294.451 63.2525 294.492Z" fill="white"/>
<path d="M214.467 192.676C214.467 192.819 201.892 192.942 186.389 192.942C170.875 192.942 158.31 192.819 158.31 192.676C158.31 192.532 170.885 192.41 186.389 192.41C201.892 192.41 214.467 192.532 214.467 192.676Z" fill="white"/>
<path d="M166.543 256.707C166.543 256.727 166.38 256.748 166.072 256.788C165.693 256.819 165.243 256.86 164.7 256.911C164.106 256.963 163.379 257.014 162.529 257.024C161.679 257.044 160.717 257.096 159.652 257.055C157.512 257.044 154.972 256.901 152.156 256.604C149.35 256.276 146.278 255.775 143.094 255.037C139.919 254.28 136.95 253.348 134.287 252.396C131.635 251.412 129.3 250.399 127.386 249.457C126.413 249.006 125.573 248.535 124.826 248.136C124.068 247.747 123.443 247.378 122.931 247.071C122.47 246.784 122.081 246.548 121.754 246.354C121.487 246.19 121.354 246.088 121.364 246.077C121.375 246.057 121.528 246.129 121.805 246.262C122.143 246.436 122.542 246.641 123.023 246.886C123.546 247.173 124.191 247.511 124.959 247.869C125.716 248.238 126.566 248.689 127.549 249.108C129.475 250.01 131.82 250.972 134.461 251.924C137.114 252.856 140.073 253.757 143.227 254.515C146.381 255.252 149.432 255.754 152.218 256.113C155.013 256.44 157.532 256.625 159.662 256.676C160.727 256.737 161.69 256.707 162.529 256.717C163.379 256.727 164.106 256.717 164.7 256.696C165.243 256.686 165.693 256.686 166.072 256.676C166.38 256.676 166.543 256.686 166.543 256.707Z" fill="white"/>
<path d="M248.289 302.848C248.289 302.858 248.207 302.899 248.043 302.961C247.849 303.032 247.603 303.125 247.306 303.237C246.62 303.483 245.668 303.821 244.459 304.251C243.22 304.701 241.705 305.213 239.913 305.746C238.121 306.278 236.104 306.944 233.83 307.517C232.694 307.814 231.506 308.132 230.267 308.46C229.028 308.787 227.717 309.043 226.376 309.361C223.693 310.016 220.785 310.528 217.733 311.101C211.61 312.136 204.82 312.996 197.663 313.467C190.505 313.887 183.665 313.856 177.459 313.58C174.356 313.385 171.407 313.231 168.663 312.914C167.291 312.771 165.96 312.668 164.69 312.494C163.42 312.32 162.202 312.156 161.034 311.992C158.699 311.706 156.621 311.296 154.778 310.979C152.934 310.671 151.368 310.344 150.088 310.057C148.838 309.781 147.855 309.555 147.139 309.402C146.831 309.33 146.575 309.268 146.371 309.217C146.196 309.176 146.115 309.146 146.115 309.135C146.115 309.125 146.207 309.135 146.381 309.166C146.586 309.197 146.842 309.248 147.159 309.299C147.876 309.432 148.869 309.617 150.129 309.862C151.419 310.118 152.986 310.426 154.829 310.692C156.672 310.979 158.751 311.368 161.085 311.624C162.253 311.767 163.471 311.931 164.731 312.084C166.001 312.238 167.332 312.33 168.704 312.474C171.448 312.771 174.387 312.904 177.48 313.088C183.675 313.334 190.495 313.354 197.632 312.934C204.769 312.474 211.538 311.624 217.651 310.62C220.703 310.057 223.601 309.565 226.283 308.931C227.625 308.623 228.936 308.378 230.175 308.06C231.414 307.743 232.602 307.446 233.738 307.149C236.022 306.606 238.039 305.961 239.831 305.459C241.623 304.957 243.159 304.476 244.398 304.056C245.617 303.667 246.579 303.36 247.275 303.135C247.583 303.043 247.828 302.971 248.033 302.909C248.197 302.868 248.279 302.848 248.289 302.848Z" fill="white"/>
<path d="M347.45 113L345.35 110.11L343.28 113H342.13L344.76 109.41L342.29 106H343.43L345.39 108.69L347.33 106H348.42L345.95 109.38L348.6 113H347.45Z" fill="#263238"/>
<path d="M351.403 107.65C352.136 107.65 352.696 107.83 353.083 108.19C353.476 108.55 353.673 109.087 353.673 109.8V113H352.763V112.3C352.603 112.547 352.373 112.737 352.073 112.87C351.779 112.997 351.429 113.06 351.023 113.06C350.429 113.06 349.953 112.917 349.593 112.63C349.239 112.343 349.063 111.967 349.063 111.5C349.063 111.033 349.233 110.66 349.573 110.38C349.913 110.093 350.453 109.95 351.193 109.95H352.713V109.76C352.713 109.347 352.593 109.03 352.353 108.81C352.113 108.59 351.759 108.48 351.293 108.48C350.979 108.48 350.673 108.533 350.373 108.64C350.073 108.74 349.819 108.877 349.613 109.05L349.213 108.33C349.486 108.11 349.813 107.943 350.193 107.83C350.573 107.71 350.976 107.65 351.403 107.65ZM351.183 112.32C351.549 112.32 351.866 112.24 352.133 112.08C352.399 111.913 352.593 111.68 352.713 111.38V110.64H351.233C350.419 110.64 350.013 110.913 350.013 111.46C350.013 111.727 350.116 111.937 350.323 112.09C350.529 112.243 350.816 112.32 351.183 112.32Z" fill="#263238"/>
<path d="M358.259 107.65C358.772 107.65 359.232 107.763 359.639 107.99C360.046 108.217 360.362 108.533 360.589 108.94C360.822 109.347 360.939 109.817 360.939 110.35C360.939 110.883 360.822 111.357 360.589 111.77C360.362 112.177 360.046 112.493 359.639 112.72C359.232 112.947 358.772 113.06 358.259 113.06C357.866 113.06 357.506 112.983 357.179 112.83C356.852 112.677 356.582 112.453 356.369 112.16V113H355.449V105.58H356.409V108.5C356.622 108.22 356.889 108.01 357.209 107.87C357.529 107.723 357.879 107.65 358.259 107.65ZM358.179 112.22C358.519 112.22 358.822 112.143 359.089 111.99C359.362 111.83 359.576 111.61 359.729 111.33C359.889 111.043 359.969 110.717 359.969 110.35C359.969 109.983 359.889 109.66 359.729 109.38C359.576 109.093 359.362 108.873 359.089 108.72C358.822 108.567 358.519 108.49 358.179 108.49C357.846 108.49 357.542 108.567 357.269 108.72C356.996 108.873 356.782 109.093 356.629 109.38C356.476 109.66 356.399 109.983 356.399 110.35C356.399 110.717 356.476 111.043 356.629 111.33C356.782 111.61 356.996 111.83 357.269 111.99C357.542 112.143 357.846 112.22 358.179 112.22Z" fill="#263238"/>
<path d="M364.147 107.65C364.88 107.65 365.44 107.83 365.827 108.19C366.22 108.55 366.417 109.087 366.417 109.8V113H365.507V112.3C365.347 112.547 365.117 112.737 364.817 112.87C364.523 112.997 364.173 113.06 363.767 113.06C363.173 113.06 362.697 112.917 362.337 112.63C361.983 112.343 361.807 111.967 361.807 111.5C361.807 111.033 361.977 110.66 362.317 110.38C362.657 110.093 363.197 109.95 363.937 109.95H365.457V109.76C365.457 109.347 365.337 109.03 365.097 108.81C364.857 108.59 364.503 108.48 364.037 108.48C363.723 108.48 363.417 108.533 363.117 108.64C362.817 108.74 362.563 108.877 362.357 109.05L361.957 108.33C362.23 108.11 362.557 107.943 362.937 107.83C363.317 107.71 363.72 107.65 364.147 107.65ZM363.927 112.32C364.293 112.32 364.61 112.24 364.877 112.08C365.143 111.913 365.337 111.68 365.457 111.38V110.64H363.977C363.163 110.64 362.757 110.913 362.757 111.46C362.757 111.727 362.86 111.937 363.067 112.09C363.273 112.243 363.56 112.32 363.927 112.32Z" fill="#263238"/>
<path d="M369.113 108.59C369.28 108.283 369.527 108.05 369.853 107.89C370.18 107.73 370.577 107.65 371.043 107.65V108.58C370.99 108.573 370.917 108.57 370.823 108.57C370.303 108.57 369.893 108.727 369.593 109.04C369.3 109.347 369.153 109.787 369.153 110.36V113H368.193V107.7H369.113V108.59Z" fill="#263238"/>
<path d="M372.226 105.58H373.186V113H372.226V105.58Z" fill="#263238"/>
<path d="M376.949 107.65C377.683 107.65 378.243 107.83 378.629 108.19C379.023 108.55 379.219 109.087 379.219 109.8V113H378.309V112.3C378.149 112.547 377.919 112.737 377.619 112.87C377.326 112.997 376.976 113.06 376.569 113.06C375.976 113.06 375.499 112.917 375.139 112.63C374.786 112.343 374.609 111.967 374.609 111.5C374.609 111.033 374.779 110.66 375.119 110.38C375.459 110.093 375.999 109.95 376.739 109.95H378.259V109.76C378.259 109.347 378.139 109.03 377.899 108.81C377.659 108.59 377.306 108.48 376.839 108.48C376.526 108.48 376.219 108.533 375.919 108.64C375.619 108.74 375.366 108.877 375.159 109.05L374.759 108.33C375.033 108.11 375.359 107.943 375.739 107.83C376.119 107.71 376.523 107.65 376.949 107.65ZM376.729 112.32C377.096 112.32 377.413 112.24 377.679 112.08C377.946 111.913 378.139 111.68 378.259 111.38V110.64H376.779C375.966 110.64 375.559 110.913 375.559 111.46C375.559 111.727 375.663 111.937 375.869 112.09C376.076 112.243 376.363 112.32 376.729 112.32Z" fill="#263238"/>
<path d="M381.916 108.59C382.083 108.283 382.329 108.05 382.656 107.89C382.983 107.73 383.379 107.65 383.846 107.65V108.58C383.793 108.573 383.719 108.57 383.626 108.57C383.106 108.57 382.696 108.727 382.396 109.04C382.103 109.347 381.956 109.787 381.956 110.36V113H380.996V107.7H381.916V108.59Z" fill="#263238"/>
</svg>
