<svg width="500" height="500" viewBox="0 0 500 500" fill="none" xmlns="http://www.w3.org/2000/svg">
<path d="M358.974 314.415H431.234V258.675H358.974V314.415Z" fill="#EBEBEB"/>
<path d="M364.129 309.548H372.839V299.708H364.129V309.548Z" fill="white"/>
<path d="M409.19 258.82H400.98V270.71H409.19V258.82Z" fill="#FAFAFA"/>
<path d="M409.19 302.36H400.98V314.25H409.19V302.36Z" fill="#FAFAFA"/>
<path d="M377.01 314.8C376.88 314.8 376.78 302.54 376.78 287.42C376.78 272.3 376.88 260.04 377.01 260.04C377.14 260.04 377.24 272.3 377.24 287.42C377.24 302.54 377.13 314.8 377.01 314.8Z" fill="#E0E0E0"/>
<path d="M329.496 410.4H454.176V314.23H329.496V410.4Z" fill="#EBEBEB"/>
<path d="M338.411 402.007H353.431V385.027H338.411V402.007Z" fill="white"/>
<path d="M416.14 314.48H401.98V335H416.14V314.48Z" fill="#FAFAFA"/>
<path d="M416.14 389.59H401.98V410.11H416.14V389.59Z" fill="#FAFAFA"/>
<path d="M360.62 411.06C360.4 411.06 360.22 389.91 360.22 363.82C360.22 337.73 360.4 316.58 360.62 316.58C360.84 316.58 361.02 337.73 361.02 363.82C361.01 389.91 360.84 411.06 360.62 411.06Z" fill="#E0E0E0"/>
<path d="M450.22 114.21L456.9 127.74L471.83 129.91L461.03 140.45L463.58 155.32L450.22 148.3L436.86 155.32L439.41 140.45L428.6 129.91L443.54 127.74L450.22 114.21Z" fill="#EBEBEB"/>
<path d="M52.51 288.97L56.72 297.5L66.13 298.86L59.32 305.5L60.93 314.88L52.51 310.45L44.09 314.88L45.7 305.5L38.89 298.86L48.3 297.5L52.51 288.97Z" fill="#EBEBEB"/>
<path d="M57.73 214.66L67.08 233.6L87.98 236.64L72.86 251.38L76.43 272.2L57.73 262.37L39.04 272.2L42.61 251.38L27.48 236.64L48.39 233.6L57.73 214.66Z" fill="#EBEBEB"/>
<path d="M444.27 175.32L448.3 183.49L457.31 184.8L450.79 191.15L452.33 200.12L444.27 195.89L436.21 200.12L437.75 191.15L431.23 184.8L440.24 183.49L444.27 175.32Z" fill="#EBEBEB"/>
<path d="M312.05 43.0701L316.08 51.2301L325.09 52.5401L318.57 58.8901L320.11 67.8701L312.05 63.6301L303.99 67.8701L305.53 58.8901L299.01 52.5401L308.02 51.2301L312.05 43.0701Z" fill="#EBEBEB"/>
<path d="M404.22 130.41L406.86 135.75L412.76 136.61L408.49 140.77L409.5 146.64L404.22 143.87L398.95 146.64L399.96 140.77L395.69 136.61L401.59 135.75L404.22 130.41Z" fill="#EBEBEB"/>
<path d="M160.92 400.11L166.06 410.51L177.54 412.18L169.23 420.28L171.2 431.72L160.92 426.32L150.65 431.72L152.61 420.28L144.3 412.18L155.79 410.51L160.92 400.11Z" fill="#EBEBEB"/>
<path d="M174.48 389.76L176.6 394.06L181.35 394.75L177.91 398.1L178.73 402.83L174.48 400.59L170.24 402.83L171.05 398.1L167.61 394.75L172.36 394.06L174.48 389.76Z" fill="#EBEBEB"/>
<path d="M364.14 349.92L368.65 359.07L378.75 360.54L371.44 367.66L373.17 377.72L364.14 372.97L355.1 377.72L356.83 367.66L349.52 360.54L359.62 359.07L364.14 349.92Z" fill="#1E5BFA"/>
<path d="M385.68 341.81L387.81 346.12L392.56 346.81L389.12 350.17L389.93 354.91L385.68 352.67L381.42 354.91L382.24 350.17L378.79 346.81L383.55 346.12L385.68 341.81Z" fill="#1E5BFA"/>
<path d="M357.44 103.66L360.97 92.5998C358.22 87.0898 356.92 80.7698 357.51 74.1898C359.22 55.2598 375.98 41.2998 394.93 43.0198C413.89 44.7298 427.87 61.4698 426.15 80.3998C424.44 99.3298 407.68 113.29 388.73 111.57C380.81 110.85 374.3 107.99 368.89 102.97L357.44 103.66Z" fill="#FAFAFA"/>
<path d="M357.44 103.66C357.44 103.66 357.71 103.63 358.2 103.6C358.71 103.56 359.45 103.51 360.4 103.44C362.34 103.31 365.19 103.11 368.89 102.86H368.94L368.98 102.89C372.24 105.9 377.21 109.23 383.94 110.66C385.61 111.02 387.37 111.3 389.2 111.41C390.12 111.44 391.05 111.48 392 111.52C392.95 111.51 393.91 111.41 394.89 111.36C398.79 111 402.87 109.95 406.79 108.03C410.71 106.12 414.45 103.35 417.58 99.7799C420.7 96.2099 423.24 91.8499 424.65 86.9599C426.06 82.0799 426.41 76.7299 425.5 71.4499C425.34 70.1199 424.92 68.8299 424.59 67.5199C424.44 66.8599 424.16 66.2299 423.93 65.5899C423.69 64.9599 423.46 64.3099 423.2 63.6799C422.02 61.2199 420.73 58.7499 418.97 56.5799C418.17 55.4299 417.19 54.4499 416.26 53.4299C415.82 52.8999 415.26 52.4799 414.76 52.0099C414.24 51.5599 413.76 51.0699 413.22 50.6599L411.58 49.4499L410.76 48.8499L409.89 48.3299L408.15 47.2899C407.57 46.9599 406.94 46.6999 406.34 46.4099C401.5 44.1399 396.26 43.0399 391.18 43.1499C386.1 43.2499 381.23 44.4899 376.96 46.5499C372.69 48.6099 369.02 51.4699 366.14 54.7299C363.25 57.9899 361.15 61.6399 359.76 65.2999C359.59 65.7599 359.43 66.2199 359.27 66.6699C359.1 67.1199 358.95 67.5699 358.85 68.0399C358.62 68.9599 358.4 69.8699 358.17 70.7599C357.93 72.5799 357.59 74.3299 357.56 76.0399C357.28 82.8899 359.09 88.5799 361.06 92.5699L361.08 92.6099L361.07 92.6499C359.9 96.2099 359 98.9499 358.39 100.82C358.08 101.74 357.85 102.45 357.69 102.94C357.53 103.41 357.44 103.66 357.44 103.66C357.44 103.66 357.5 103.43 357.64 102.96C357.79 102.47 358.01 101.77 358.29 100.85C358.88 98.9499 359.74 96.1699 360.86 92.5599L360.87 92.6399C358.85 88.6499 356.98 82.9199 357.23 75.9999C357.26 74.2699 357.58 72.5099 357.82 70.6699C358.04 69.7699 358.26 68.8499 358.49 67.9199C358.59 67.4499 358.74 66.9899 358.91 66.5299C359.07 66.0699 359.24 65.6099 359.4 65.1399C360.78 61.4399 362.9 57.7299 365.82 54.4199C368.73 51.1099 372.43 48.1999 376.76 46.0999C381.08 43.9999 386.03 42.7399 391.18 42.6299C396.33 42.5099 401.65 43.6199 406.57 45.9199C407.18 46.2199 407.81 46.4799 408.4 46.8099L410.16 47.8599L411.04 48.3899L411.87 48.9999L413.54 50.2299C414.09 50.6499 414.58 51.1499 415.11 51.5999C415.62 52.0799 416.18 52.4999 416.63 53.0399C417.57 54.0799 418.57 55.0699 419.38 56.2299C421.16 58.4299 422.48 60.9399 423.67 63.4399C423.94 64.0799 424.16 64.7399 424.41 65.3799C424.64 66.0299 424.93 66.6599 425.08 67.3399C425.42 68.6699 425.85 69.9799 426.01 71.3299C426.93 76.6899 426.56 82.1199 425.13 87.0699C423.69 92.0299 421.11 96.4499 417.93 100.06C414.75 103.68 410.95 106.47 406.97 108.39C402.99 110.32 398.85 111.37 394.91 111.72C393.92 111.77 392.95 111.86 391.99 111.87C391.03 111.83 390.09 111.79 389.16 111.75C387.31 111.63 385.54 111.34 383.85 110.97C377.06 109.5 372.06 106.09 368.82 103.03L368.9 103.06C365.16 103.26 362.29 103.41 360.33 103.51C359.39 103.56 358.66 103.59 358.15 103.62C357.68 103.66 357.44 103.66 357.44 103.66Z" fill="#263238"/>
<path d="M372.31 75.9998L377.98 71.0798L387.53 80.8898L408.95 63.0498L413.48 68.6998L386.04 91.0398L372.31 75.9998Z" fill="#1E5BFA"/>
<path d="M298.11 349.49L106.35 392.23C101.7 393.27 97.08 390.33 96.04 385.68L33.81 106.43C32.77 101.78 35.71 97.1601 40.36 96.1201L232.12 53.3801C236.77 52.3401 241.39 55.2801 242.43 59.9301L304.66 339.18C305.7 343.84 302.77 348.46 298.11 349.49Z" fill="#E0E0E0"/>
<path d="M298.11 349.49C298.11 349.49 298.32 349.42 298.75 349.3C299.17 349.18 299.79 348.94 300.55 348.52C301.29 348.08 302.17 347.42 302.97 346.41C303.76 345.41 304.47 344.04 304.72 342.36C304.86 341.53 304.85 340.62 304.7 339.69C304.54 338.76 304.29 337.79 304.07 336.77C303.61 334.73 303.11 332.49 302.57 330.07C301.48 325.23 300.23 319.64 298.82 313.34C293.19 288.17 285.05 251.74 275 206.74C269.98 184.23 264.47 159.58 258.57 133.12C255.62 119.89 252.56 106.2 249.42 92.1101C247.85 85.0601 246.25 77.9101 244.64 70.6601C243.83 67.0401 243.01 63.3901 242.19 59.7201C241.75 57.9301 240.67 56.3201 239.22 55.1601C237.75 54.0301 235.92 53.3601 234.05 53.3701C233.11 53.3701 232.2 53.5501 231.27 53.7701C230.34 53.9801 229.4 54.1901 228.47 54.4001C226.6 54.8201 224.72 55.2401 222.84 55.6601C219.07 56.5001 215.29 57.3401 211.48 58.1901C203.86 59.8901 196.16 61.6101 188.37 63.3401C172.79 66.8101 156.89 70.3601 140.7 73.9701C108.32 81.1901 74.79 88.6601 40.45 96.3201C38.35 96.7801 36.45 98.0701 35.27 99.8601C34.07 101.63 33.59 103.87 33.97 105.98C34.87 110.24 35.86 114.5 36.79 118.74C38.68 127.22 40.56 135.65 42.42 144.01C46.15 160.74 49.82 177.22 53.43 193.41C60.64 225.8 67.6 257.04 74.23 286.8C80.86 316.56 87.15 344.84 93.05 371.31C93.79 374.62 94.52 377.9 95.24 381.15C95.61 382.77 95.95 384.41 96.34 385.99C96.75 387.56 97.63 388.98 98.82 390.06C100.01 391.14 101.5 391.86 103.06 392.14C103.84 392.27 104.64 392.29 105.43 392.21C106.21 392.11 106.99 391.92 107.78 391.74C110.91 391.04 114.02 390.35 117.09 389.67C129.38 386.94 141.17 384.31 152.42 381.81C197.44 371.81 233.87 363.71 259.04 358.12C271.63 355.33 281.4 353.17 288.03 351.7C291.34 350.97 293.87 350.41 295.57 350.04C297.24 349.67 298.11 349.49 298.11 349.49C298.11 349.49 297.24 349.7 295.55 350.08C293.85 350.46 291.33 351.03 288.02 351.78C281.39 353.27 271.62 355.46 259.04 358.28C233.87 363.91 197.45 372.05 152.44 382.1C141.19 384.61 129.4 387.24 117.11 389.99C114.04 390.68 110.94 391.37 107.8 392.07C107.02 392.24 106.24 392.44 105.42 392.54C104.6 392.62 103.77 392.6 102.96 392.47C101.33 392.18 99.78 391.43 98.55 390.31C97.32 389.19 96.39 387.71 95.97 386.08C95.57 384.46 95.24 382.85 94.87 381.22C94.14 377.97 93.41 374.69 92.67 371.38C86.77 344.91 80.46 316.63 73.82 286.87C67.18 257.11 60.22 225.87 52.99 193.48C49.38 177.29 45.71 160.8 41.98 144.08C40.12 135.72 38.24 127.29 36.35 118.81C35.41 114.56 34.44 110.33 33.52 106.03C33.13 103.83 33.63 101.47 34.89 99.6101C36.13 97.7401 38.12 96.3801 40.33 95.9001C74.67 88.2501 108.2 80.7801 140.58 73.5601C156.77 69.9501 172.68 66.4101 188.25 62.9401C196.04 61.2101 203.74 59.4901 211.36 57.7901C215.17 56.9401 218.96 56.1001 222.72 55.2601C224.6 54.8401 226.48 54.4201 228.35 54.0101C229.29 53.8001 230.22 53.5901 231.15 53.3901C232.07 53.1701 233.04 52.9701 234.02 52.9801C235.97 52.9701 237.89 53.6701 239.42 54.8501C240.93 56.0501 242.06 57.7401 242.52 59.6101C243.34 63.2801 244.16 66.9301 244.97 70.5601C246.58 77.8101 248.18 84.9601 249.75 92.0101C252.89 106.11 255.93 119.79 258.88 133.03C264.77 159.5 270.25 184.15 275.26 206.66C285.26 251.68 293.36 288.11 298.96 313.29C300.36 319.58 301.6 325.18 302.67 330.02C303.21 332.44 303.7 334.68 304.15 336.73C304.37 337.76 304.62 338.72 304.77 339.66C304.92 340.6 304.93 341.52 304.78 342.36C304.52 344.05 303.79 345.43 302.99 346.44C302.18 347.45 301.29 348.11 300.54 348.55C299.77 348.96 299.15 349.2 298.73 349.32C298.33 349.44 298.11 349.49 298.11 349.49Z" fill="#263238"/>
<g opacity="0.3">
<g opacity="0.3">
<g opacity="0.3">
<path opacity="0.3" d="M116.07 382.34L290.79 342.4L285.27 308.16L275.36 288.97L108.22 354.62L116.07 382.34Z" fill="black"/>
</g>
</g>
</g>
<g opacity="0.3">
<g opacity="0.3">
<g opacity="0.3">
<path opacity="0.3" d="M189.02 63.6301L195.63 74.5401L196.91 80.3301L192.43 81.3301L189.02 63.6301Z" fill="black"/>
</g>
</g>
</g>
<path d="M43.76 108.05L104.38 380.05L294.39 337.71L283.55 289.07L233.77 65.7L43.76 108.05Z" fill="white"/>
<path d="M43.76 108.05C45.11 107.75 118.25 91.38 233.73 65.54L233.89 65.5L233.93 65.67C250.79 141.26 271.82 235.59 294.58 337.64V337.66L294.63 337.86L294.43 337.91C226.5 353.04 162 367.41 104.42 380.24L104.23 380.28L104.19 380.09C68.51 219.47 44.13 109.71 43.76 108.05C44.13 109.71 68.66 219.44 104.56 380.01L104.33 379.87C161.91 367.03 226.41 352.65 294.34 337.51L294.18 337.76V337.74C271.45 235.68 250.44 141.35 233.61 65.75L233.81 65.88C118.28 91.51 45.12 107.75 43.76 108.05Z" fill="#263238"/>
<path d="M193.45 83.5402L97.31 104.97L92.47 83.2602C91.71 79.8502 93.86 76.4702 97.27 75.7102L181.06 57.0402C184.47 56.2802 187.85 58.4302 188.61 61.8402L193.45 83.5402Z" fill="#263238"/>
<path d="M149.07 53.1501L124.6 58.6001L132.13 78.9401L150.56 74.8301L149.07 53.1501Z" fill="#263238"/>
<path d="M181.06 57.0302C181.08 57.1402 162.35 61.4102 139.21 66.5702C116.07 71.7302 97.29 75.8202 97.27 75.7102C97.25 75.6002 115.98 71.3302 139.12 66.1702C162.26 61.0102 181.04 56.9202 181.06 57.0302Z" fill="#263238"/>
<path d="M98.46 99.9802C98.35 100 97.38 96.0802 96.3 91.2202C95.22 86.3502 94.43 82.3902 94.54 82.3702C94.65 82.3502 95.62 86.2702 96.71 91.1302C97.78 95.9902 98.57 99.9602 98.46 99.9802Z" fill="#263238"/>
<path d="M188.87 77.6402C188.76 77.6602 187.87 74.1002 186.89 69.6902C185.91 65.2702 185.2 61.6702 185.31 61.6502C185.42 61.6302 186.31 65.1902 187.29 69.6002C188.28 74.0202 188.98 77.6202 188.87 77.6402Z" fill="#263238"/>
<path d="M185.06 82.3901C185.08 82.5001 165.85 86.8801 142.1 92.1801C118.34 97.4701 99.07 101.67 99.05 101.56C99.03 101.45 118.26 97.07 142.01 91.77C165.76 86.48 185.04 82.2801 185.06 82.3901Z" fill="#263238"/>
<path d="M134.45 161.51C134.48 161.62 121.5 164.61 105.48 168.18C89.45 171.75 76.44 174.56 76.41 174.44C76.38 174.33 89.35 171.34 105.38 167.77C121.41 164.21 134.42 161.4 134.45 161.51Z" fill="#263238"/>
<path d="M231.16 150.62C231.19 150.73 197.29 158.38 155.46 167.71C113.61 177.04 79.68 184.5 79.66 184.39C79.63 184.28 113.53 176.63 155.37 167.3C197.2 157.98 231.14 150.51 231.16 150.62Z" fill="#263238"/>
<path d="M233.25 159.97C233.28 160.08 199.38 167.73 157.55 177.06C115.7 186.39 81.77 193.85 81.75 193.74C81.72 193.63 115.62 185.98 157.46 176.65C199.28 167.32 233.22 159.86 233.25 159.97Z" fill="#263238"/>
<path d="M235.33 169.32C235.36 169.43 201.46 177.08 159.63 186.41C117.78 195.74 83.85 203.2 83.83 203.09C83.8 202.98 117.7 195.33 159.54 186C201.37 176.67 235.3 169.21 235.33 169.32Z" fill="#263238"/>
<path d="M237.41 178.67C237.44 178.78 203.54 186.43 161.71 195.76C119.86 205.09 85.93 212.55 85.91 212.44C85.88 212.33 119.78 204.68 161.62 195.35C203.45 186.02 237.39 178.55 237.41 178.67Z" fill="#263238"/>
<path d="M239.5 188.01C239.53 188.12 205.63 195.77 163.8 205.1C121.95 214.43 88.02 221.89 88 221.78C87.97 221.67 121.87 214.02 163.71 204.69C205.53 195.37 239.47 187.9 239.5 188.01Z" fill="#263238"/>
<path d="M117.37 253.81C117.36 253.8 117.33 253.7 117.28 253.49C117.22 253.26 117.15 252.96 117.06 252.6C116.87 251.79 116.6 250.67 116.27 249.26C115.6 246.37 114.66 242.31 113.54 237.45L113.76 237.59C108.99 238.66 103.36 239.93 97.37 241.27C97.33 241.32 97.67 240.8 97.53 241.02V241.03V241.05L97.54 241.09L97.56 241.16L97.59 241.3L97.65 241.58L97.77 242.14C97.85 242.51 97.94 242.88 98.02 243.25C98.18 243.99 98.35 244.72 98.51 245.44C98.83 246.89 99.14 248.3 99.45 249.68C100.06 252.43 100.63 255.03 101.15 257.42L100.93 257.28C105.81 256.23 109.88 255.36 112.78 254.73C114.2 254.43 115.33 254.2 116.14 254.03C116.51 253.96 116.8 253.9 117.04 253.85C117.25 253.83 117.36 253.81 117.37 253.81C117.38 253.82 117.28 253.84 117.09 253.89C116.87 253.95 116.58 254.02 116.23 254.1C115.43 254.29 114.32 254.55 112.93 254.88C110.01 255.55 105.91 256.5 101 257.63L100.82 257.67L100.78 257.49C100.24 255.1 99.66 252.51 99.04 249.76C98.73 248.38 98.41 246.97 98.09 245.52C97.93 244.8 97.76 244.07 97.6 243.33C97.52 242.96 97.43 242.59 97.35 242.22L97.23 241.66L97.17 241.38L97.14 241.24L97.12 241.17L97.11 241.13V241.11V241.1C96.97 241.32 97.3 240.79 97.27 240.85C103.27 239.52 108.9 238.28 113.68 237.22L113.86 237.18L113.9 237.36C114.96 242.28 115.84 246.4 116.47 249.33C116.76 250.73 116.99 251.85 117.16 252.65C117.23 253 117.29 253.29 117.33 253.52C117.37 253.72 117.38 253.82 117.37 253.81Z" fill="#263238"/>
<path d="M239.288 213.383L124.87 238.878L126.997 248.425L241.416 222.929L239.288 213.383Z" fill="#E0E0E0"/>
<path d="M123.71 282.27C123.7 282.26 123.67 282.16 123.62 281.95C123.56 281.72 123.49 281.42 123.4 281.06C123.21 280.25 122.94 279.13 122.61 277.72C121.94 274.83 121 270.77 119.88 265.91L120.1 266.05C115.33 267.12 109.7 268.39 103.7 269.73C103.66 269.78 104 269.26 103.86 269.48V269.49V269.51L103.87 269.55L103.89 269.62L103.92 269.76L103.98 270.04L104.1 270.6C104.18 270.97 104.27 271.34 104.35 271.71C104.51 272.45 104.68 273.18 104.84 273.9C105.16 275.35 105.47 276.76 105.78 278.14C106.39 280.89 106.96 283.49 107.48 285.88L107.26 285.74C112.14 284.69 116.21 283.82 119.12 283.19C120.54 282.89 121.67 282.66 122.48 282.49C122.85 282.42 123.14 282.36 123.38 282.31C123.59 282.28 123.7 282.26 123.71 282.27C123.72 282.28 123.62 282.3 123.43 282.35C123.21 282.41 122.92 282.48 122.57 282.56C121.77 282.75 120.66 283.01 119.27 283.34C116.35 284.01 112.25 284.96 107.34 286.09L107.16 286.13L107.12 285.95C106.58 283.56 106 280.97 105.38 278.22C105.07 276.84 104.75 275.43 104.43 273.98C104.27 273.26 104.1 272.53 103.94 271.79C103.86 271.42 103.77 271.05 103.69 270.68L103.57 270.12L103.51 269.84L103.48 269.7L103.46 269.63L103.45 269.59V269.57V269.56C103.31 269.78 103.64 269.25 103.61 269.31C109.61 267.98 115.24 266.74 120.02 265.68L120.2 265.64L120.24 265.82C121.3 270.74 122.18 274.86 122.81 277.79C123.1 279.19 123.33 280.31 123.5 281.11C123.57 281.46 123.63 281.75 123.67 281.98C123.71 282.17 123.72 282.27 123.71 282.27Z" fill="#263238"/>
<path d="M245.628 241.834L131.209 267.33L133.336 276.876L247.755 251.381L245.628 241.834Z" fill="#E0E0E0"/>
<path d="M130.05 310.72C130.04 310.71 130.01 310.61 129.96 310.4C129.9 310.17 129.83 309.87 129.74 309.51C129.55 308.7 129.28 307.58 128.95 306.17C128.28 303.28 127.34 299.22 126.22 294.36L126.44 294.5C121.67 295.57 116.04 296.84 110.05 298.18C110.01 298.23 110.35 297.71 110.21 297.93V297.94V297.96L110.22 298L110.24 298.07L110.27 298.21L110.33 298.49L110.45 299.05C110.53 299.42 110.62 299.79 110.7 300.16C110.86 300.9 111.03 301.63 111.19 302.35C111.51 303.8 111.82 305.21 112.13 306.59C112.74 309.34 113.31 311.94 113.83 314.33L113.61 314.19C118.49 313.14 122.56 312.27 125.46 311.64C126.88 311.34 128.01 311.11 128.82 310.94C129.19 310.87 129.48 310.81 129.72 310.76C129.93 310.73 130.05 310.71 130.05 310.72C130.06 310.73 129.96 310.75 129.77 310.8C129.55 310.86 129.26 310.93 128.91 311.01C128.11 311.2 127 311.46 125.61 311.79C122.69 312.46 118.59 313.41 113.68 314.54L113.5 314.58L113.46 314.4C112.92 312.01 112.34 309.42 111.72 306.67C111.41 305.29 111.09 303.88 110.77 302.43C110.61 301.71 110.45 300.98 110.28 300.24C110.2 299.87 110.11 299.5 110.03 299.13L109.91 298.57L109.85 298.29L109.82 298.15L109.8 298.08L109.79 298.04V298.02V298.01C109.65 298.23 109.98 297.7 109.95 297.76C115.95 296.43 121.58 295.19 126.36 294.13L126.54 294.09L126.58 294.27C127.64 299.19 128.52 303.31 129.15 306.24C129.44 307.64 129.67 308.76 129.84 309.56C129.91 309.91 129.97 310.2 130.01 310.43C130.05 310.63 130.06 310.72 130.05 310.72Z" fill="#263238"/>
<path d="M251.969 270.296L137.551 295.791L139.678 305.338L254.096 279.842L251.969 270.296Z" fill="#E0E0E0"/>
<path d="M101.62 247.93L103.33 245.23L108.44 248.07L115.02 238.15L117.56 239.91L109.08 252.4L101.62 247.93Z" fill="#1E5BFA"/>
<path d="M107.74 275.43L109.46 272.73L114.57 275.57L121.14 265.65L123.69 267.41L115.2 279.9L107.74 275.43Z" fill="#1E5BFA"/>
<path d="M114.03 303.63L115.75 300.93L120.85 303.77L127.43 293.85L129.97 295.6L121.49 308.1L114.03 303.63Z" fill="#1E5BFA"/>
<path d="M166.4 339.01C166.43 339.12 156.77 341.37 144.83 344.03C132.89 346.69 123.19 348.76 123.16 348.64C123.13 348.53 132.79 346.28 144.74 343.62C156.67 340.97 166.37 338.9 166.4 339.01Z" fill="#263238"/>
<path d="M187.94 333.86C187.97 333.97 184.41 334.86 180 335.84C175.59 336.82 172 337.53 171.97 337.41C171.94 337.3 175.5 336.41 179.91 335.43C184.32 334.46 187.92 333.75 187.94 333.86Z" fill="#263238"/>
<path d="M259.28 311.41C259.31 311.52 250.61 313.56 239.87 315.95C229.12 318.35 220.39 320.2 220.37 320.08C220.34 319.97 229.03 317.93 239.78 315.54C250.52 313.15 259.26 311.3 259.28 311.41Z" fill="#263238"/>
<path d="M249.99 337.73C249.97 337.72 250.07 337.46 250.18 336.93C250.3 336.41 250.3 335.6 250.06 334.62C249.81 333.63 249.29 332.5 248.68 331.18C248.09 329.87 247.32 328.31 247.31 326.41C247.34 324.55 248.16 322.48 249.84 321.03C251.5 319.55 254.12 319.03 256.49 319.79C257.67 320.17 258.81 320.84 259.65 321.87C260.05 322.39 260.38 323.02 260.4 323.74C260.46 324.47 259.9 325.2 259.23 325.43C258.56 325.68 257.92 325.76 257.26 325.92C256.6 326.06 255.94 326.19 255.27 326.33C253.93 326.59 252.57 326.84 251.18 327.02C248.4 327.39 245.61 327.44 243 327.07C241.72 326.93 240.37 326.91 239.41 327.66C238.45 328.39 237.96 329.58 237.25 330.58C236.9 331.08 236.45 331.57 235.86 331.83C235.28 332.1 234.6 332.09 234.03 331.91C232.88 331.52 232.03 330.75 231.11 330.23C230.66 329.96 230.19 329.75 229.7 329.7C229.22 329.65 228.74 329.77 228.36 330.04C227.59 330.59 227.18 331.5 226.67 332.26C225.66 333.88 223.92 334.64 222.45 334.7C220.94 334.77 219.72 334.13 218.95 333.46C218.16 332.77 217.77 332.04 217.57 331.54C217.37 331.03 217.34 330.75 217.34 330.75C217.36 330.74 217.42 331.02 217.64 331.51C217.87 331.99 218.27 332.69 219.05 333.34C219.82 333.98 221 334.56 222.43 334.47C223.84 334.4 225.47 333.65 226.42 332.11C226.92 331.37 227.3 330.43 228.18 329.79C228.61 329.48 229.18 329.33 229.74 329.38C230.3 329.43 230.81 329.67 231.29 329.95C232.24 330.49 233.1 331.24 234.14 331.58C234.66 331.74 235.22 331.74 235.71 331.51C236.21 331.29 236.61 330.87 236.94 330.38C237.63 329.43 238.1 328.2 239.18 327.36C239.72 326.94 240.39 326.73 241.05 326.66C241.72 326.59 242.39 326.63 243.05 326.69C245.66 327.06 248.37 327 251.14 326.64C252.52 326.46 253.87 326.22 255.21 325.96C255.88 325.82 256.54 325.69 257.19 325.55C257.84 325.4 258.52 325.31 259.09 325.09C259.66 324.88 260.05 324.38 260.01 323.79C260 323.21 259.72 322.63 259.35 322.16C258.58 321.22 257.5 320.57 256.38 320.2C254.13 319.47 251.66 319.95 250.08 321.34C248.47 322.71 247.66 324.68 247.62 326.46C247.61 328.26 248.33 329.81 248.91 331.13C249.5 332.45 250.01 333.62 250.24 334.63C250.46 335.64 250.43 336.47 250.28 336.99C250.13 337.48 249.99 337.73 249.99 337.73Z" fill="#263238"/>
<path d="M270.67 324.93C270.67 324.94 270.49 325 270.15 325.09C269.76 325.18 269.26 325.3 268.64 325.46C267.27 325.78 265.38 326.22 263.06 326.75C258.35 327.84 251.85 329.38 244.71 331.19C237.56 333 231.11 334.75 226.45 336.03C224.16 336.66 222.28 337.18 220.93 337.55C220.31 337.71 219.81 337.85 219.43 337.95C219.08 338.04 218.9 338.08 218.9 338.06C218.9 338.05 219.07 337.98 219.41 337.87C219.79 337.75 220.28 337.59 220.89 337.39C222.18 336.98 224.05 336.42 226.37 335.74C231.01 334.38 237.45 332.59 244.6 330.78C251.75 328.97 258.26 327.47 262.99 326.45C265.35 325.94 267.27 325.54 268.6 325.29C269.23 325.17 269.74 325.08 270.13 325C270.48 324.94 270.66 324.92 270.67 324.93Z" fill="#263238"/>
<path d="M188.657 105.504L110.988 122.811L114.24 137.403L191.908 120.097L188.657 105.504Z" fill="#E0E0E0"/>
<path d="M262.12 342.31L287.21 474.87L310.14 432.5L353.6 458.01L307.47 328.93L262.12 342.31Z" fill="#1E5BFA"/>
<g opacity="0.3">
<g opacity="0.3">
<path opacity="0.3" d="M270.56 386.89C275.2 387.85 280.61 386.21 283.9 382.8C286.19 380.43 287.71 377.22 290.59 375.64C293.18 374.22 296.37 374.42 299.21 375.21C302.06 376 304.74 377.31 307.59 378.06C313.19 379.51 319.37 378.6 324.31 375.58L317.07 355.48L283.47 351.28L267.45 370.53L270.56 386.89Z" fill="black"/>
</g>
</g>
<path d="M308.51 427.24C308.37 427.28 304.63 413.51 300.17 396.49C295.7 379.47 292.19 365.64 292.33 365.61C292.47 365.57 296.2 379.34 300.68 396.36C305.13 413.37 308.65 427.2 308.51 427.24Z" fill="#263238"/>
<path d="M265.79 349.2L240.7 481.76L217.77 439.4L174.31 464.9L220.44 335.82L265.79 349.2Z" fill="#1E5BFA"/>
<g opacity="0.3">
<path opacity="0.3" d="M206.64 374.43C206.64 374.43 213.78 380.3 222.29 377.6C230.8 374.89 236.09 374.32 240.7 377.6C245.31 380.88 257.78 391.56 257.78 391.56L260.68 376.27L243.93 353.27L226.44 356.8L213.98 358.04L209.35 366.8L206.64 374.43Z" fill="black"/>
</g>
<path d="M412.9 229.54C412.9 239.05 400.74 247.24 398.96 256.23C397.13 265.49 405.19 277.7 401.66 286.22C398.06 294.89 383.69 297.81 378.54 305.51C373.34 313.28 376.11 327.66 369.53 334.24C362.95 340.82 348.56 338.05 340.8 343.25C333.09 348.41 330.18 362.78 321.51 366.37C312.99 369.9 300.78 361.84 291.52 363.67C282.53 365.45 274.34 377.61 264.83 377.61C255.32 377.61 247.13 365.45 238.14 363.67C228.88 361.84 216.67 369.9 208.15 366.37C199.48 362.77 196.56 348.4 188.86 343.25C181.09 338.05 166.71 340.82 160.13 334.24C153.55 327.66 156.32 313.27 151.12 305.51C145.96 297.8 131.59 294.89 128 286.22C124.47 277.7 132.53 265.49 130.7 256.23C128.92 247.24 116.76 239.05 116.76 229.54C116.76 220.03 128.92 211.84 130.7 202.85C132.53 193.59 124.47 181.38 128 172.86C131.6 164.19 145.97 161.27 151.12 153.57C156.32 145.8 153.55 131.42 160.13 124.84C166.71 118.26 181.1 121.03 188.86 115.83C196.57 110.67 199.48 96.2997 208.15 92.7097C216.67 89.1797 228.88 97.2397 238.14 95.4097C247.13 93.6297 255.32 81.4697 264.83 81.4697C274.34 81.4697 282.53 93.6297 291.52 95.4097C300.78 97.2397 312.99 89.1797 321.51 92.7097C330.18 96.3097 333.1 110.68 340.8 115.83C348.57 121.03 362.95 118.26 369.53 124.84C376.11 131.42 373.34 145.81 378.54 153.57C383.7 161.28 398.07 164.19 401.66 172.86C405.19 181.38 397.13 193.59 398.96 202.85C400.75 211.83 412.9 220.03 412.9 229.54Z" fill="#1E5BFA"/>
<path d="M230.17 146.53C230.15 146.54 230.06 146.4 229.9 146.12C229.71 145.79 229.49 145.39 229.22 144.9C228.63 143.84 227.83 142.28 226.86 140.34C224.93 136.46 222.43 131 220.02 124.84C217.62 118.67 215.76 112.96 214.55 108.8C213.94 106.72 213.49 105.02 213.2 103.85C213.07 103.31 212.96 102.86 212.88 102.49C212.81 102.18 212.78 102.01 212.8 102.01C212.82 102.01 212.88 102.16 212.98 102.47C213.09 102.83 213.23 103.27 213.4 103.8C213.78 105.04 214.29 106.69 214.91 108.7C216.21 112.83 218.11 118.5 220.51 124.66C222.91 130.81 225.35 136.28 227.19 140.19C228.1 142.09 228.84 143.65 229.4 144.82C229.64 145.32 229.83 145.74 229.99 146.08C230.12 146.37 230.18 146.52 230.17 146.53Z" fill="#263238"/>
<path d="M243.35 141.52C243.32 141.53 243.18 141.14 242.97 140.42C242.76 139.7 242.47 138.66 242.14 137.36C241.48 134.76 240.66 131.15 239.92 127.13C239.18 123.11 238.66 119.44 238.36 116.78C238.21 115.45 238.1 114.37 238.05 113.62C237.99 112.87 237.98 112.46 238.02 112.45C238.06 112.45 238.14 112.85 238.26 113.59C238.39 114.44 238.55 115.49 238.74 116.72C239.14 119.36 239.71 123.01 240.45 127.03C241.19 131.04 241.95 134.66 242.51 137.27C242.77 138.49 243 139.53 243.18 140.37C243.31 141.1 243.38 141.51 243.35 141.52Z" fill="#263238"/>
<path d="M266.6 139.21C266.46 139.21 266.09 128 265.77 114.16C265.46 100.32 265.32 89.0998 265.46 89.0898C265.6 89.0898 265.97 100.3 266.29 114.14C266.6 127.98 266.74 139.21 266.6 139.21Z" fill="#263238"/>
<path d="M289.99 116.16C290.13 116.2 288.51 121.81 286.38 128.69C284.25 135.57 282.41 141.11 282.28 141.06C282.14 141.02 283.76 135.41 285.89 128.53C288.02 121.66 289.85 116.12 289.99 116.16Z" fill="#263238"/>
<path d="M299.54 145.15C299.52 145.14 299.57 144.98 299.67 144.68C299.79 144.32 299.94 143.89 300.13 143.36C300.53 142.22 301.15 140.58 301.93 138.55C303.49 134.51 305.74 128.96 308.3 122.87C310.86 116.77 313.24 111.28 314.99 107.32C315.85 105.4 316.57 103.82 317.1 102.64C317.34 102.14 317.54 101.72 317.7 101.38C317.84 101.09 317.93 100.95 317.94 100.95C317.95 100.95 317.91 101.12 317.79 101.42C317.65 101.77 317.48 102.2 317.28 102.72C316.79 103.92 316.13 105.52 315.33 107.46C313.63 111.52 311.33 117.01 308.78 123.07C306.25 129.13 303.97 134.62 302.27 138.69C301.47 140.64 300.81 142.24 300.32 143.43C300.1 143.94 299.92 144.36 299.77 144.71C299.63 145 299.56 145.15 299.54 145.15Z" fill="#263238"/>
<path d="M312.04 151.67C312.01 151.65 312.21 151.29 312.61 150.65C313 150.01 313.6 149.11 314.35 148C315.85 145.78 318.01 142.77 320.52 139.55C323.04 136.33 325.43 133.5 327.22 131.5C328.11 130.5 328.85 129.7 329.37 129.17C329.89 128.63 330.19 128.35 330.22 128.37C330.25 128.39 330 128.73 329.52 129.31C328.97 129.97 328.3 130.79 327.5 131.75C325.79 133.8 323.44 136.66 320.93 139.88C318.42 143.1 316.22 146.07 314.65 148.23C313.91 149.24 313.28 150.09 312.78 150.79C312.33 151.36 312.07 151.69 312.04 151.67Z" fill="#263238"/>
<path d="M330.22 166.57C330.12 166.46 338.03 158.94 347.89 149.78C357.75 140.61 365.82 133.26 365.92 133.37C366.02 133.48 358.11 140.99 348.25 150.17C338.39 159.33 330.32 166.68 330.22 166.57Z" fill="#263238"/>
<path d="M361.98 169.68C362.01 169.75 360.84 170.34 358.97 171.32C357.09 172.3 354.54 173.71 351.72 175.3C348.9 176.88 346.3 178.25 344.38 179.15C343.42 179.6 342.63 179.95 342.08 180.17C341.53 180.39 341.22 180.5 341.2 180.47C341.17 180.4 342.34 179.81 344.21 178.83C346.09 177.85 348.64 176.44 351.46 174.85C354.28 173.27 356.88 171.9 358.8 171C359.76 170.55 360.55 170.2 361.1 169.98C361.66 169.75 361.97 169.64 361.98 169.68Z" fill="#263238"/>
<path d="M391.39 181.87C391.44 182.01 382.02 185.45 370.36 189.55C358.69 193.66 349.2 196.88 349.15 196.74C349.1 196.6 358.52 193.17 370.19 189.06C381.84 184.96 391.34 181.74 391.39 181.87Z" fill="#263238"/>
<path d="M400.75 235.34C400.74 235.48 390.5 234.63 377.89 233.43C365.28 232.23 355.06 231.14 355.08 231C355.09 230.86 365.33 231.71 377.94 232.91C390.55 234.11 400.76 235.2 400.75 235.34Z" fill="#263238"/>
<path d="M393.22 283.3C393.16 283.43 383.59 279.04 371.85 273.49C360.11 267.94 350.64 263.34 350.7 263.21C350.76 263.08 360.33 267.47 372.07 273.02C383.81 278.56 393.28 283.17 393.22 283.3Z" fill="#263238"/>
<path d="M361.74 328.93C361.63 329.02 354.73 321.02 346.33 311.05C337.92 301.08 331.2 292.93 331.31 292.83C331.42 292.74 338.32 300.74 346.73 310.71C355.13 320.68 361.85 328.83 361.74 328.93Z" fill="#263238"/>
<path d="M335.46 334.95C335.43 334.97 335.13 334.57 334.63 333.83C334.12 333.09 333.4 332 332.53 330.65C330.79 327.94 328.46 324.16 326.01 319.9C323.56 315.65 321.44 311.73 319.97 308.87C319.23 307.44 318.65 306.28 318.26 305.46C317.87 304.65 317.67 304.19 317.7 304.17C317.73 304.15 317.99 304.58 318.44 305.36C318.93 306.23 319.55 307.35 320.29 308.69C321.85 311.5 324.01 315.38 326.46 319.63C328.91 323.88 331.19 327.69 332.85 330.44C333.64 331.75 334.29 332.85 334.8 333.71C335.26 334.5 335.5 334.93 335.46 334.95Z" fill="#263238"/>
<path d="M319.14 357.9C319.12 357.91 319.03 357.77 318.88 357.49C318.7 357.16 318.49 356.75 318.23 356.27C317.67 355.21 316.89 353.65 315.97 351.7C314.13 347.81 311.76 342.35 309.51 336.18C307.26 330 305.56 324.3 304.47 320.13C303.92 318.05 303.51 316.36 303.26 315.18C303.15 314.64 303.05 314.19 302.97 313.82C302.91 313.51 302.89 313.34 302.91 313.34C302.93 313.34 302.98 313.49 303.08 313.8C303.18 314.16 303.31 314.6 303.46 315.13C303.81 316.37 304.27 318.02 304.83 320.03C306.01 324.16 307.76 329.83 310 336C312.25 342.16 314.55 347.63 316.31 351.55C317.17 353.45 317.88 355.02 318.41 356.18C318.64 356.68 318.82 357.1 318.98 357.44C319.1 357.74 319.16 357.89 319.14 357.9Z" fill="#263238"/>
<path d="M286.08 341.81C286 341.81 285.88 340.48 285.65 338.33C285.42 336.18 285.06 333.21 284.51 329.96C283.96 326.71 283.34 323.78 282.86 321.67C282.38 319.56 282.06 318.26 282.14 318.24C282.17 318.23 282.3 318.54 282.49 319.12C282.68 319.7 282.94 320.54 283.22 321.58C283.79 323.67 284.48 326.6 285.03 329.87C285.58 333.14 285.88 336.13 286.02 338.29C286.09 339.37 286.13 340.25 286.13 340.86C286.13 341.47 286.11 341.81 286.08 341.81Z" fill="#263238"/>
<path d="M264.45 370.6C264.43 370.6 264.42 370.42 264.41 370.09C264.4 369.69 264.4 369.21 264.39 368.62C264.38 367.34 264.38 365.5 264.43 363.21C264.51 358.65 264.72 352.34 265.08 345.39C265.44 338.43 265.89 332.14 266.26 327.59C266.45 325.32 266.61 323.48 266.74 322.21C266.81 321.62 266.86 321.14 266.9 320.75C266.94 320.42 266.98 320.24 266.99 320.24C267.01 320.24 267.01 320.42 267 320.75C266.98 321.15 266.96 321.63 266.93 322.22C266.85 323.57 266.74 325.4 266.61 327.61C266.34 332.24 265.98 338.49 265.59 345.41C265.22 352.36 264.96 358.66 264.79 363.22C264.71 365.44 264.64 367.27 264.59 368.62C264.56 369.21 264.54 369.69 264.52 370.09C264.49 370.42 264.47 370.6 264.45 370.6Z" fill="#263238"/>
<path d="M246.87 320.23C246.94 320.24 246.83 321.22 246.57 322.78C246.31 324.34 245.89 326.49 245.34 328.85C244.79 331.2 244.21 333.32 243.75 334.83C243.29 336.35 242.95 337.27 242.88 337.25C242.81 337.23 243.02 336.27 243.39 334.73C243.8 333.01 244.29 330.98 244.83 328.72C245.35 326.46 245.81 324.42 246.21 322.7C246.56 321.17 246.8 320.22 246.87 320.23Z" fill="#263238"/>
<path d="M215.08 304.96C215.19 305.05 213.24 307.82 210.7 311.16C208.17 314.5 206.02 317.13 205.91 317.05C205.8 316.96 207.75 314.19 210.29 310.85C212.82 307.51 214.97 304.87 215.08 304.96Z" fill="#263238"/>
<path d="M198.41 293.76C198.52 293.85 192.31 301.14 184.55 310.03C176.79 318.93 170.41 326.06 170.3 325.96C170.19 325.87 176.4 318.58 184.16 309.68C191.92 300.8 198.3 293.66 198.41 293.76Z" fill="#263238"/>
<path d="M190.06 281.36C190.15 281.47 186.7 284.47 182.35 288.05C178 291.64 174.4 294.45 174.31 294.34C174.22 294.23 177.67 291.23 182.02 287.65C186.37 284.06 189.97 281.24 190.06 281.36Z" fill="#263238"/>
<path d="M180.3 262.64C180.36 262.77 171.72 267.06 161 272.23C150.27 277.4 141.53 281.48 141.47 281.35C141.41 281.22 150.05 276.93 160.78 271.76C171.49 266.6 180.24 262.51 180.3 262.64Z" fill="#263238"/>
<path d="M176.38 253.31C176.39 253.35 176.07 253.44 175.48 253.58C174.9 253.72 174.04 253.9 172.99 254.09C170.88 254.48 167.94 254.93 164.68 255.26C161.42 255.59 158.45 255.73 156.3 255.76C155.23 255.78 154.36 255.77 153.76 255.75C153.16 255.73 152.83 255.7 152.83 255.67C152.83 255.59 154.15 255.52 156.29 255.39C158.43 255.26 161.38 255.06 164.63 254.73C167.88 254.4 170.81 254.02 172.93 253.72C175.05 253.42 176.36 253.23 176.38 253.31Z" fill="#263238"/>
<path d="M173.21 231.76C173.21 231.8 172.58 231.78 171.46 231.72C170.25 231.66 168.65 231.58 166.7 231.48C162.68 231.29 157.13 231.1 151 231.13C144.87 231.17 139.32 231.41 135.3 231.65C133.36 231.77 131.76 231.87 130.55 231.95C129.43 232.02 128.8 232.04 128.8 232.01C128.8 231.97 129.41 231.88 130.53 231.75C131.65 231.61 133.27 231.45 135.28 231.29C139.29 230.96 144.85 230.66 151 230.62C157.15 230.59 162.71 230.83 166.72 231.12C168.73 231.26 170.35 231.41 171.47 231.53C172.59 231.64 173.21 231.73 173.21 231.76Z" fill="#263238"/>
<path d="M175.17 212.84C175.13 212.98 168.66 211.29 160.71 209.08C152.76 206.86 146.35 204.95 146.39 204.81C146.43 204.67 152.9 206.36 160.85 208.57C168.8 210.79 175.21 212.7 175.17 212.84Z" fill="#263238"/>
<path d="M179.36 196.97C179.35 196.99 179.19 196.95 178.89 196.86C178.53 196.75 178.09 196.62 177.57 196.46C176.42 196.11 174.78 195.55 172.76 194.81C168.73 193.34 163.23 191.1 157.35 188.21C151.47 185.31 146.34 182.32 142.72 180.01C140.91 178.86 139.46 177.9 138.48 177.2C138.03 176.88 137.66 176.62 137.36 176.4C137.11 176.21 136.98 176.11 136.99 176.09C137 176.08 137.15 176.15 137.42 176.31C137.74 176.51 138.13 176.74 138.6 177.03C139.61 177.67 141.09 178.58 142.92 179.69C146.58 181.91 151.73 184.84 157.59 187.73C163.45 190.61 168.91 192.9 172.9 194.45C174.9 195.23 176.52 195.84 177.64 196.25C178.15 196.45 178.58 196.61 178.93 196.74C179.21 196.89 179.36 196.96 179.36 196.97Z" fill="#263238"/>
<path d="M188.77 181.03C188.69 181.15 183.62 177.73 177.46 173.39C171.3 169.05 166.37 165.44 166.45 165.32C166.53 165.2 171.59 168.62 177.76 172.96C183.93 177.29 188.85 180.91 188.77 181.03Z" fill="#263238"/>
<path d="M168.88 132.42C168.89 132.41 169.02 132.5 169.26 132.7C169.54 132.94 169.87 133.23 170.28 133.57C171.21 134.4 172.46 135.5 173.96 136.83C177.12 139.65 181.37 143.44 186.07 147.64C190.79 151.81 195.06 155.59 198.23 158.4C199.73 159.74 200.98 160.84 201.91 161.67C202.3 162.03 202.62 162.33 202.89 162.58C203.11 162.79 203.22 162.91 203.21 162.92C203.2 162.93 203.06 162.84 202.82 162.66C202.53 162.43 202.19 162.16 201.77 161.83C200.87 161.1 199.57 160.02 197.98 158.68C194.8 156 190.46 152.25 185.71 148.04C180.97 143.83 176.73 139.95 173.69 137.12C172.17 135.7 170.95 134.54 170.12 133.73C169.74 133.36 169.43 133.05 169.17 132.79C168.97 132.55 168.86 132.43 168.88 132.42Z" fill="#263238"/>
<path d="M200.07 133.33C200.1 133.31 200.34 133.56 200.75 134.02C201.16 134.49 201.74 135.18 202.43 136.05C203.82 137.79 205.67 140.24 207.59 143.04C209.51 145.84 211.12 148.46 212.24 150.39C212.8 151.35 213.23 152.14 213.52 152.69C213.81 153.24 213.95 153.56 213.92 153.57C213.85 153.61 213.12 152.45 211.93 150.57C210.74 148.7 209.08 146.12 207.17 143.33C205.26 140.54 203.46 138.06 202.15 136.27C200.83 134.48 200.01 133.37 200.07 133.33Z" fill="#263238"/>
<g opacity="0.2">
<path opacity="0.2" d="M160.1 124.82L203.6 162.91L214.41 154.26L189.17 115.58C189.17 115.58 187.24 117 182.21 118.44C177.35 119.83 163.01 120.2 160.1 124.82Z" fill="black"/>
</g>
<g opacity="0.2">
<path opacity="0.2" d="M208.53 92.5997L229.77 145.77L243.34 141.52L238.82 95.3997C238.82 95.3997 236.48 95.9497 231.3 95.2897C226.27 94.6497 214.08 89.8797 208.53 92.5997Z" fill="black"/>
</g>
<g opacity="0.3">
<path opacity="0.3" d="M265.17 81.4697L266.59 139.21L279.31 139.82L292.2 95.4997C291.95 95.4797 288.63 94.8997 284.71 92.3997C280.31 89.5797 271.33 81.0097 265.17 81.4697Z" fill="black"/>
</g>
<g opacity="0.2">
<path opacity="0.2" d="M320.65 92.3799L299.54 145.61L311.03 151.1L340.08 115.24C339.86 115.12 337.11 112.83 334.56 108.75C331.8 104.32 327.08 94.1499 320.65 92.3799Z" fill="black"/>
</g>
<g opacity="0.2">
<path opacity="0.2" d="M370.23 125.59L330.91 166.57L339.67 178.38L378.09 152.74C378.09 152.74 376.48 150.18 375.56 145.26C374.64 140.28 374.51 131.2 370.23 125.59Z" fill="black"/>
</g>
<g opacity="0.2">
<path opacity="0.2" d="M401.27 171.85L348.32 193.64L352.71 207.17L398.78 202.17C398.78 202.17 398.49 200.75 399.1 195.55C399.68 190.53 404.97 179.29 401.27 171.85Z" fill="black"/>
</g>
<g opacity="0.2">
<path opacity="0.2" d="M412.99 229.54L355.27 231.56L354.79 244.29L398.83 257.17C398.85 256.92 399.24 254.44 400.58 251.91C403.81 245.78 412.99 237.14 412.99 229.54Z" fill="black"/>
</g>
<g opacity="0.2">
<path opacity="0.2" d="M402.35 284.12L349.2 263.4L343.82 274.95L379.98 303.63C380.09 303.41 382.2 301.45 386.26 298.87C390.67 296.06 401.13 291.51 402.35 284.12Z" fill="black"/>
</g>
<g opacity="0.2">
<g opacity="0.2">
<path opacity="0.2" d="M324.18 283.3L311.03 294.34C312.03 295.38 329.56 325.18 340.36 343.6C340.51 343.49 340.65 343.36 340.8 343.26C347.92 338.5 360.57 340.41 367.71 335.69L324.18 283.3Z" fill="black"/>
</g>
<g opacity="0.2">
<path opacity="0.2" d="M300 304.18L280.36 310.88L289.66 364.2C290.27 363.99 290.89 363.81 291.51 363.69C300.77 361.86 312.98 369.92 321.5 366.39C322.67 365.9 323.73 365.21 324.72 364.38L300 304.18Z" fill="black"/>
</g>
<g opacity="0.2">
<path opacity="0.2" d="M264.14 377.6L267.28 307.94L250.3 303.64L237.66 363.62C237.82 363.65 237.97 363.67 238.13 363.7C246.9 365.42 254.91 377.04 264.14 377.6Z" fill="black"/>
</g>
<g opacity="0.2">
<path opacity="0.2" d="M221.44 296.11C221.44 296.11 199 326.17 187.27 342.36C187.82 342.63 188.35 342.93 188.85 343.27C196.56 348.43 199.47 362.8 208.14 366.39C208.54 366.55 208.95 366.69 209.36 366.8L240.71 307.46L221.44 296.11Z" fill="black"/>
</g>
<g opacity="0.2">
<path opacity="0.2" d="M198.41 271.91L150.55 304.81C150.73 305.05 150.93 305.28 151.1 305.52C156.3 313.29 153.53 327.67 160.11 334.25C160.72 334.86 161.41 335.36 162.13 335.82C179.04 316.76 209.4 282.54 210.5 281.35L198.41 271.91Z" fill="black"/>
</g>
<g opacity="0.2">
<path opacity="0.2" d="M187.44 248.42L130.85 257.56C131.75 266.64 124.6 278.1 127.96 286.22C128.17 286.72 128.42 287.19 128.69 287.65C148.49 277.79 189.87 257.28 191.59 257.17L187.44 248.42Z" fill="black"/>
</g>
<g opacity="0.2">
<path opacity="0.2" d="M184.35 216.9L130.86 201.46C130.82 201.93 130.76 202.39 130.67 202.84C128.89 211.83 116.73 220.02 116.73 229.53C116.73 230.17 116.79 230.8 116.89 231.43H182.18L184.35 216.9Z" fill="black"/>
</g>
<g opacity="0.2">
<path opacity="0.2" d="M128.19 172.43C148.18 183.14 187.27 204.81 187.27 204.81L196.89 186.54L151.7 152.52C151.51 152.87 151.32 153.23 151.1 153.56C146.02 161.13 132.07 164.09 128.19 172.43Z" fill="black"/>
</g>
</g>
<path d="M412.9 229.54C412.9 229.54 412.87 229.33 412.84 228.91C412.79 228.49 412.8 227.85 412.58 227.05C412.27 225.42 411.35 223.07 409.58 220.35C407.86 217.59 405.26 214.5 402.55 210.59C401.23 208.62 399.85 206.4 399.12 203.74C398.39 201.07 398.53 198.06 399.1 195.03C399.65 191.98 400.56 188.84 401.36 185.51C402.09 182.2 402.89 178.58 402.15 174.9C401.76 173.08 400.89 171.35 399.67 169.84C398.43 168.34 396.87 167.08 395.22 165.89C391.9 163.53 388.09 161.65 384.43 159.19C382.61 157.96 380.81 156.58 379.33 154.83C377.83 153.08 376.86 150.9 376.2 148.64C374.91 144.09 374.63 139.23 373.65 134.36C373.15 131.94 372.48 129.48 371.19 127.3C369.93 125.1 367.88 123.4 365.49 122.37C363.11 121.31 360.49 120.77 357.84 120.33C355.19 119.89 352.47 119.58 349.75 119.1C347.03 118.61 344.25 117.97 341.73 116.58C339.2 115.2 337.22 112.98 335.57 110.61C333.91 108.22 332.48 105.66 330.96 103.14C329.44 100.62 327.84 98.0898 325.76 95.9298C323.69 93.7998 320.92 92.2598 317.87 92.0598C314.83 91.8298 311.76 92.4098 308.73 93.1298C305.69 93.8598 302.65 94.7498 299.49 95.3398C296.36 95.9498 293 96.1698 289.83 95.1598C286.71 94.0798 283.96 92.1798 281.3 90.2298C278.64 88.2698 276.04 86.1798 273.18 84.4498C270.34 82.7698 267.1 81.3798 263.73 81.7498L263.1 81.7998C262.89 81.8398 262.69 81.8898 262.49 81.9298C262.08 82.0298 261.67 82.0998 261.26 82.2198C260.47 82.5098 259.65 82.7498 258.9 83.1398C257.35 83.8298 255.9 84.7598 254.47 85.7098C251.62 87.6498 248.94 89.8798 246.02 91.8598C244.58 92.8698 243.03 93.7598 241.42 94.5198C239.79 95.2598 238.01 95.6998 236.21 95.8398C232.59 96.0198 229.03 95.1998 225.54 94.3198C222.04 93.4398 218.54 92.4398 214.94 92.0898C213.14 91.9398 211.32 92.0198 209.57 92.4498C207.81 92.8698 206.25 93.8698 204.87 95.0298C202.11 97.4398 200.18 100.68 198.27 103.86C196.36 107.06 194.54 110.4 192 113.27C190.72 114.68 189.24 115.97 187.5 116.84C185.76 117.69 183.92 118.26 182.04 118.7C178.28 119.52 174.44 119.88 170.66 120.56C166.92 121.24 163.02 122.3 160.25 124.99C158.91 126.36 157.98 128.08 157.29 129.88C156.59 131.69 156.19 133.61 155.83 135.53C155.13 139.39 154.81 143.35 153.87 147.24C153.42 149.19 152.76 151.11 151.74 152.87C150.72 154.63 149.32 156.15 147.73 157.4C144.57 159.94 140.98 161.82 137.54 163.92C135.83 164.98 134.14 166.08 132.58 167.35C131.05 168.64 129.66 170.12 128.7 171.87C127.73 173.61 127.29 175.62 127.31 177.63C127.3 179.65 127.61 181.67 128.01 183.66C128.86 187.66 130.12 191.59 130.8 195.7C131.15 197.75 131.28 199.87 131.01 201.96C130.74 204.06 129.93 206.05 128.92 207.89C126.84 211.55 124.12 214.75 121.71 218.15C120.49 219.84 119.37 221.61 118.48 223.49C117.6 225.36 116.98 227.38 116.97 229.45C116.98 231.52 117.59 233.54 118.46 235.41C119.34 237.29 120.46 239.06 121.68 240.75C124.09 244.16 126.81 247.36 128.9 251.01C129.91 252.84 130.73 254.84 131 256.94C131.28 259.03 131.16 261.15 130.8 263.2C130.13 267.31 128.86 271.25 128.01 275.25C127.6 277.25 127.3 279.27 127.3 281.29C127.28 283.31 127.72 285.31 128.68 287.06C129.63 288.81 131.02 290.3 132.55 291.59C134.11 292.86 135.8 293.97 137.51 295.03C140.94 297.13 144.54 299.01 147.7 301.55C149.28 302.8 150.7 304.32 151.71 306.08C152.73 307.84 153.4 309.77 153.84 311.71C154.78 315.61 155.1 319.57 155.8 323.43C156.15 325.36 156.56 327.28 157.26 329.08C157.95 330.88 158.88 332.6 160.21 333.97C162.98 336.66 166.88 337.73 170.62 338.41C174.41 339.1 178.25 339.45 182.01 340.27C183.88 340.71 185.73 341.28 187.47 342.13C189.21 343 190.69 344.29 191.97 345.7C194.51 348.57 196.33 351.91 198.24 355.12C200.16 358.3 202.09 361.54 204.84 363.95C206.22 365.11 207.78 366.11 209.54 366.53C211.29 366.97 213.11 367.04 214.91 366.89C218.52 366.54 222.02 365.54 225.51 364.66C229 363.78 232.56 362.96 236.18 363.14C237.98 363.28 239.76 363.72 241.39 364.46C243 365.22 244.55 366.11 245.99 367.12C248.91 369.1 251.59 371.33 254.44 373.27C255.87 374.22 257.32 375.15 258.87 375.84C259.63 376.24 260.44 376.47 261.23 376.76C261.63 376.87 262.05 376.95 262.46 377.05C262.67 377.09 262.87 377.15 263.07 377.18L263.7 377.23C267.07 377.61 270.31 376.21 273.15 374.53C276 372.8 278.6 370.71 281.27 368.75C283.93 366.8 286.68 364.91 289.8 363.83C292.97 362.82 296.33 363.04 299.46 363.65C302.61 364.24 305.66 365.13 308.7 365.86C311.73 366.58 314.81 367.16 317.84 366.93C320.89 366.72 323.65 365.19 325.72 363.05C327.79 360.9 329.39 358.36 330.92 355.84C332.44 353.31 333.87 350.75 335.53 348.37C337.19 346 339.17 343.78 341.7 342.4C344.22 341.01 347 340.37 349.72 339.88C352.45 339.4 355.16 339.09 357.81 338.65C360.46 338.21 363.07 337.66 365.46 336.6C367.85 335.57 369.89 333.87 371.15 331.67C372.44 329.49 373.11 327.03 373.61 324.61C374.59 319.75 374.87 314.88 376.16 310.34C376.81 308.08 377.79 305.9 379.29 304.16C380.77 302.41 382.58 301.03 384.39 299.8C388.04 297.34 391.86 295.46 395.17 293.1C396.82 291.92 398.37 290.65 399.62 289.15C400.85 287.64 401.71 285.91 402.1 284.09C402.53 282.27 402.42 280.41 402.25 278.64C402.07 276.86 401.67 275.14 401.31 273.48C400.51 270.15 399.61 267.01 399.05 263.96C398.48 260.93 398.34 257.92 399.07 255.25C399.81 252.58 401.18 250.36 402.5 248.4C405.21 244.49 407.82 241.41 409.53 238.64C411.3 235.91 412.21 233.57 412.53 231.94C412.76 231.14 412.74 230.5 412.79 230.08C412.88 229.75 412.9 229.54 412.9 229.54C412.9 229.54 412.89 229.75 412.86 230.17C412.82 230.59 412.84 231.23 412.62 232.04C412.32 233.68 411.42 236.05 409.66 238.79C407.95 241.57 405.36 244.67 402.67 248.58C401.36 250.55 400 252.76 399.28 255.39C398.57 258.02 398.71 261 399.29 264.01C399.85 267.04 400.76 270.18 401.57 273.51C401.94 275.18 402.35 276.9 402.53 278.7C402.7 280.49 402.81 282.37 402.38 284.23C401.99 286.09 401.1 287.87 399.86 289.41C398.6 290.94 397.03 292.22 395.37 293.41C392.03 295.79 388.22 297.68 384.59 300.13C382.79 301.36 381.01 302.72 379.55 304.44C378.09 306.15 377.13 308.28 376.49 310.52C375.22 315.02 374.94 319.88 373.97 324.77C373.47 327.21 372.8 329.7 371.48 331.94C370.19 334.2 368.07 335.97 365.64 337.02C363.21 338.1 360.57 338.66 357.91 339.1C355.25 339.54 352.53 339.85 349.82 340.34C347.12 340.83 344.37 341.47 341.92 342.83C339.46 344.17 337.53 346.34 335.89 348.69C334.25 351.05 332.83 353.61 331.3 356.14C329.78 358.67 328.17 361.23 326.05 363.43C323.95 365.61 321.05 367.22 317.92 367.43C314.8 367.67 311.69 367.07 308.64 366.36C305.59 365.63 302.55 364.74 299.42 364.16C296.32 363.56 293.04 363.36 289.97 364.33C286.93 365.38 284.21 367.25 281.56 369.2C278.91 371.16 276.3 373.25 273.41 375.01C272.67 375.41 271.96 375.88 271.17 376.21C270.78 376.39 270.4 376.58 270.01 376.74L268.8 377.17C267.17 377.67 265.43 378 263.69 377.77L263.04 377.72C262.83 377.69 262.62 377.63 262.4 377.59C261.98 377.49 261.55 377.41 261.13 377.29C260.32 376.99 259.48 376.75 258.71 376.34C257.12 375.63 255.66 374.69 254.21 373.73C251.34 371.77 248.65 369.54 245.76 367.58C244.33 366.58 242.81 365.71 241.23 364.96C239.63 364.24 237.93 363.82 236.18 363.68C232.66 363.51 229.14 364.31 225.66 365.19C222.17 366.06 218.66 367.08 214.98 367.43C213.14 367.58 211.26 367.51 209.44 367.06C207.6 366.62 205.97 365.57 204.54 364.38C201.7 361.9 199.76 358.62 197.83 355.43C195.92 352.22 194.1 348.9 191.61 346.09C190.35 344.71 188.93 343.48 187.25 342.63C185.57 341.81 183.75 341.25 181.91 340.81C178.19 340 174.36 339.64 170.54 338.95C168.64 338.58 166.72 338.19 164.89 337.46C163.06 336.75 161.3 335.77 159.87 334.37C158.47 332.93 157.5 331.15 156.8 329.3C156.08 327.45 155.68 325.5 155.32 323.56C154.61 319.67 154.29 315.71 153.36 311.87C152.92 309.95 152.26 308.07 151.28 306.37C150.3 304.68 148.94 303.21 147.38 301.98C144.28 299.49 140.7 297.61 137.24 295.5C135.52 294.43 133.81 293.32 132.22 292.02C130.66 290.7 129.22 289.17 128.22 287.34C127.22 285.52 126.75 283.4 126.78 281.33C126.78 279.25 127.09 277.2 127.5 275.18C128.35 271.15 129.62 267.21 130.28 263.16C130.63 261.14 130.75 259.07 130.47 257.05C130.2 255.03 129.42 253.11 128.43 251.31C126.38 247.72 123.67 244.52 121.24 241.09C120.02 239.38 118.87 237.6 117.97 235.67C117.07 233.75 116.44 231.65 116.43 229.49C116.45 227.32 117.09 225.23 117.99 223.31C118.89 221.39 120.04 219.6 121.26 217.89C123.69 214.47 126.4 211.27 128.44 207.68C129.43 205.88 130.21 203.95 130.47 201.93C130.73 199.91 130.61 197.85 130.27 195.83C129.6 191.78 128.34 187.84 127.48 183.81C127.07 181.79 126.76 179.74 126.77 177.66C126.75 175.59 127.21 173.48 128.23 171.66C129.23 169.83 130.67 168.3 132.23 166.99C133.82 165.69 135.53 164.58 137.25 163.51C140.7 161.4 144.28 159.52 147.38 157.03C148.94 155.8 150.29 154.33 151.27 152.64C152.25 150.94 152.9 149.06 153.34 147.14C154.26 143.3 154.59 139.34 155.3 135.46C155.66 133.52 156.07 131.57 156.78 129.72C157.48 127.87 158.45 126.09 159.85 124.65C161.28 123.25 163.05 122.27 164.88 121.56C166.71 120.84 168.63 120.44 170.53 120.08C174.35 119.39 178.18 119.04 181.89 118.22C183.74 117.79 185.55 117.22 187.23 116.4C188.91 115.56 190.33 114.32 191.59 112.94C194.08 110.13 195.89 106.81 197.8 103.61C199.73 100.42 201.66 97.1498 204.51 94.6598C205.94 93.4598 207.57 92.4198 209.41 91.9798C211.23 91.5298 213.11 91.4498 214.95 91.6098C218.63 91.9698 222.14 92.9798 225.63 93.8498C229.11 94.7298 232.63 95.5298 236.15 95.3598C237.9 95.2298 239.6 94.7998 241.2 94.0898C242.78 93.3398 244.3 92.4698 245.73 91.4698C248.62 89.5098 251.31 87.2798 254.18 85.3198C255.63 84.3598 257.09 83.4198 258.68 82.7098C259.45 82.3098 260.29 82.0598 261.1 81.7598C261.52 81.6398 261.95 81.5598 262.37 81.4598C262.58 81.4198 262.79 81.3598 263.01 81.3198L263.66 81.2698C265.39 81.0398 267.14 81.3798 268.77 81.8698L269.98 82.2998C270.38 82.4598 270.75 82.6598 271.14 82.8298C271.93 83.1598 272.64 83.6298 273.38 84.0298C276.27 85.7898 278.87 87.8798 281.53 89.8398C284.18 91.7898 286.9 93.6498 289.94 94.7098C293 95.6798 296.28 95.4898 299.38 94.8798C302.5 94.2998 305.54 93.4098 308.6 92.6798C311.65 91.9598 314.76 91.3698 317.88 91.5998C321.02 91.7998 323.91 93.4098 326.02 95.5898C328.14 97.7898 329.74 100.35 331.27 102.87C332.79 105.4 334.21 107.96 335.85 110.32C337.49 112.67 339.42 114.84 341.88 116.18C344.33 117.54 347.08 118.18 349.78 118.67C352.49 119.15 355.2 119.47 357.87 119.91C360.53 120.35 363.17 120.91 365.6 121.99C368.03 123.04 370.16 124.81 371.45 127.06C372.77 129.3 373.45 131.79 373.94 134.23C374.92 139.12 375.19 143.98 376.46 148.48C377.11 150.71 378.05 152.85 379.52 154.56C380.97 156.28 382.75 157.65 384.55 158.87C388.18 161.32 391.99 163.21 395.33 165.59C396.99 166.78 398.56 168.06 399.82 169.59C401.07 171.13 401.95 172.91 402.35 174.76C402.78 176.62 402.66 178.5 402.5 180.29C402.32 182.09 401.91 183.81 401.54 185.48C400.74 188.82 399.82 191.95 399.26 194.98C398.68 198 398.54 200.97 399.25 203.6C399.97 206.23 401.33 208.45 402.64 210.41C405.33 214.32 407.93 217.42 409.63 220.2C411.39 222.94 412.29 225.31 412.59 226.95C412.81 227.76 412.78 228.4 412.83 228.82C412.9 229.32 412.9 229.54 412.9 229.54Z" fill="#263238"/>
<path d="M237.04 366.96C237.18 367 233.49 381.96 228.8 400.38C224.11 418.81 220.19 433.71 220.05 433.68C219.91 433.64 223.6 418.68 228.29 400.26C232.99 381.83 236.9 366.92 237.04 366.96Z" fill="#263238"/>
<path d="M264.82 320.32C314.956 320.32 355.6 279.676 355.6 229.54C355.6 179.403 314.956 138.76 264.82 138.76C214.684 138.76 174.04 179.403 174.04 229.54C174.04 279.676 214.684 320.32 264.82 320.32Z" fill="white"/>
<path d="M208.92 198.08C207.67 199.33 200.78 211.85 200.16 222.17C199.53 232.5 201.02 290.49 201.02 290.49L201.29 294.33C217.63 313.44 277.03 341.88 330.53 294.23L333.53 258.56L324.7 183.05L294.03 175.54L286.84 163.88L238.91 175.1L234.64 185.2L208.92 198.08Z" fill="#263238"/>
<path d="M283.52 133.54C285.63 125.7 287.71 117.79 288.44 109.7C289.17 101.61 288.49 93.2499 285.28 85.7899C284.79 84.6599 280.74 77.1099 279.52 77.2999C278.65 77.4299 281.27 84.5299 280.87 85.3099C277.02 92.7799 276.32 101.55 277.43 109.88C278.52 118.21 280.65 125.64 283.52 133.54Z" fill="#263238"/>
<path d="M282.72 102.54C282.33 82.1698 270.16 65.4198 249.8 66.3698L247.92 66.5698C229.05 68.5598 214.86 84.7098 215.32 103.68C215.75 121.33 216.46 140.83 217.56 150.21C219.85 169.63 239.61 170.6 239.61 170.6C239.65 170.6 240.52 183.37 240.52 183.37L248.87 192.44L287.58 168.46L282.72 102.54Z" fill="#FFBF9D"/>
<path d="M239.63 170.75C239.63 170.75 251.96 170.18 264.15 160.6C264.15 160.6 260.07 178.21 240.48 178.5L239.63 170.75Z" fill="#FF9A6C"/>
<path d="M226.52 119.51C226.62 120.98 227.95 122.11 229.49 122.03C231.03 121.95 232.19 120.7 232.09 119.22C231.99 117.75 230.66 116.62 229.12 116.7C227.58 116.78 226.41 118.04 226.52 119.51Z" fill="#263238"/>
<path d="M220.34 111.31C220.72 111.64 222.66 109.86 225.65 109.55C228.63 109.2 230.99 110.51 231.27 110.11C231.41 109.93 230.99 109.31 229.96 108.72C228.95 108.13 227.27 107.62 225.41 107.83C223.55 108.04 222.06 108.89 221.23 109.68C220.39 110.48 220.15 111.16 220.34 111.31Z" fill="#263238"/>
<path d="M252.91 117.27C253.01 118.74 254.34 119.87 255.88 119.79C257.42 119.71 258.58 118.46 258.48 116.98C258.38 115.51 257.05 114.38 255.51 114.46C253.97 114.54 252.81 115.8 252.91 117.27Z" fill="#263238"/>
<path d="M249.73 109.43C250.11 109.76 252.05 107.98 255.04 107.67C258.02 107.32 260.37 108.63 260.66 108.23C260.8 108.05 260.39 107.43 259.35 106.84C258.34 106.25 256.66 105.74 254.8 105.95C252.94 106.16 251.45 107.01 250.62 107.8C249.79 108.6 249.55 109.29 249.73 109.43Z" fill="#263238"/>
<path d="M241.43 133.52C241.43 133.35 239.54 133.22 236.49 133.16C235.72 133.16 234.98 133.09 234.8 132.58C234.56 132.05 234.79 131.19 235.07 130.26C235.59 128.34 236.14 126.32 236.71 124.21C238.97 115.61 240.52 108.57 240.18 108.48C239.83 108.39 237.72 115.29 235.46 123.89C234.92 126.01 234.4 128.03 233.92 129.96C233.72 130.86 233.33 131.89 233.84 133C234.11 133.55 234.71 133.9 235.21 133.98C235.71 134.08 236.14 134.04 236.52 134.02C239.56 133.87 241.44 133.69 241.43 133.52Z" fill="#263238"/>
<path d="M250.44 134.66C249.95 134.68 250.29 137.93 247.75 140.52C245.22 143.12 241.73 143.12 241.75 143.58C241.73 143.79 242.59 144.13 244.05 144.01C245.49 143.91 247.53 143.23 249.08 141.64C250.62 140.05 251.15 138.09 251.12 136.75C251.11 135.38 250.66 134.62 250.44 134.66Z" fill="#263238"/>
<path d="M248.62 97.2898C249 98.0698 251.94 97.3698 255.49 97.4198C259.04 97.3998 261.98 98.1298 262.36 97.3498C262.53 96.9798 261.96 96.2698 260.73 95.5998C259.51 94.9298 257.63 94.3798 255.5 94.3698C253.37 94.3598 251.48 94.8998 250.26 95.5498C249.03 96.2098 248.45 96.9198 248.62 97.2898Z" fill="#263238"/>
<path d="M220.53 101.25C221.13 101.87 223.11 100.95 225.58 100.66C228.04 100.28 230.2 100.63 230.61 99.8698C230.78 99.4998 230.38 98.8598 229.4 98.3098C228.43 97.7698 226.87 97.3998 225.17 97.6298C223.47 97.8598 222.07 98.6298 221.28 99.4198C220.47 100.21 220.26 100.94 220.53 101.25Z" fill="#263238"/>
<path d="M282.65 117.11C282.97 116.93 295.59 111.75 296.57 125.09C297.55 138.43 283.96 136.66 283.9 136.27C283.85 135.89 282.65 117.11 282.65 117.11Z" fill="#FFBF9D"/>
<path d="M287.61 130.92C287.67 130.87 287.85 131.07 288.26 131.22C288.66 131.37 289.32 131.44 290 131.13C291.37 130.51 292.39 128.19 292.28 125.78C292.22 124.56 291.89 123.43 291.39 122.5C290.91 121.55 290.23 120.92 289.51 120.84C288.79 120.73 288.32 121.19 288.19 121.58C288.04 121.97 288.14 122.23 288.07 122.25C288.04 122.29 287.77 122.05 287.83 121.49C287.87 121.22 288 120.89 288.29 120.62C288.59 120.34 289.05 120.17 289.55 120.19C290.58 120.19 291.58 121.06 292.13 122.08C292.74 123.1 293.15 124.37 293.21 125.74C293.32 128.43 292.13 131.05 290.24 131.75C289.32 132.06 288.52 131.84 288.09 131.55C287.66 131.24 287.57 130.94 287.61 130.92Z" fill="#FF9A6C"/>
<path d="M222.54 81.0199C220.3 79.9699 226.33 72.5599 231.49 69.8099C239.28 65.6499 251.38 62.6299 258.91 64.2499C267.98 66.1999 275.66 70.1599 280.65 77.9699C285.64 85.7899 287.93 95.1199 288.27 104.39C288.37 107.22 288.27 110.18 286.92 112.66C285.25 115.73 281.79 117.82 282.21 121.88C282.36 123.36 282.04 124.89 281.09 126.04C278.82 128.79 275.67 126.55 274.14 124.19C270.87 119.15 270.14 112.93 269.5 106.96C269.04 102.72 268.59 98.3799 269.53 94.2099C270.04 91.9399 270.95 89.7699 271.34 87.4799C271.72 85.1899 271.49 82.6299 269.97 80.8799C269.72 80.5899 269.32 80.2399 268.82 79.8499C264.83 76.7799 259.47 76.1299 254.84 78.1099C247.5 81.2499 234.92 86.0499 231.4 83.7099C226.34 80.3499 225.03 78.0299 225.03 78.0299L222.54 81.0199Z" fill="#263238"/>
<path d="M208.92 198.08C208.15 199.15 197.22 202.78 193.07 209.69C188.92 216.6 184.82 247.62 184.82 247.62L182.18 268.04C187.38 276.27 194.35 287.16 201.76 294.84L208.92 198.08Z" fill="#263238"/>
<g opacity="0.3">
<g opacity="0.3">
<path opacity="0.3" d="M291.05 228.03C291.51 232.19 291.98 236.4 293.41 240.34C294.84 244.27 297.35 247.97 301.02 250C302.55 250.85 304.29 251.41 305.57 252.6C306.95 253.88 307.64 255.74 308.89 257.15C310.34 258.79 312.44 259.7 314.5 260.44C320.61 262.61 326.64 263.64 333.12 263.41C333.32 261.27 333.33 253.41 333.53 251.27L291.05 228.03Z" fill="black"/>
</g>
</g>
<path d="M324.7 183.06C324.7 183.06 338.48 187.14 342.52 193.01C346.56 198.88 353.71 221.64 355.18 225.86C356.65 230.08 355.36 239.87 352.61 246.9C349.86 253.93 345.08 259.99 336.83 260.91C328.58 261.83 315.54 257.06 312.61 253.94C309.68 250.82 308.45 243.82 308.45 243.82C312.12 243.18 315.73 242.27 319.27 241.11" fill="#263238"/>
<path d="M319.26 241.1C319.26 241.11 319.2 241.13 319.09 241.18C318.95 241.23 318.78 241.29 318.57 241.37C318.11 241.53 317.42 241.76 316.51 242.03C314.69 242.57 311.99 243.31 308.47 243.96L308.58 243.8C308.89 245.36 309.33 247.07 309.99 248.86C310.32 249.75 310.7 250.67 311.18 251.56C311.67 252.45 312.24 253.35 313.03 254.07C313.82 254.79 314.8 255.37 315.82 255.91C316.84 256.46 317.93 256.94 319.06 257.4C321.33 258.31 323.78 259.1 326.38 259.72C328.98 260.32 331.74 260.77 334.6 260.78C335.32 260.81 336.03 260.72 336.75 260.68C337.46 260.56 338.19 260.5 338.9 260.3C340.33 259.98 341.73 259.44 343.04 258.69C345.68 257.23 347.91 254.95 349.61 252.28C351.33 249.61 352.59 246.58 353.51 243.42C354.23 240.99 354.76 238.53 355.1 236.09C355.45 233.65 355.62 231.21 355.46 228.84C355.37 227.65 355.15 226.53 354.74 225.42C354.37 224.3 354 223.19 353.64 222.09C352.91 219.9 352.19 217.75 351.49 215.66C350.07 211.48 348.67 207.53 347.27 203.86C345.84 200.21 344.51 196.79 342.84 193.92C342.02 192.48 340.91 191.35 339.73 190.44C338.57 189.5 337.37 188.75 336.22 188.09C333.92 186.78 331.83 185.86 330.11 185.14C328.39 184.43 327.03 183.93 326.1 183.6C325.66 183.44 325.31 183.32 325.05 183.23C324.81 183.15 324.69 183.1 324.69 183.09C324.69 183.08 324.82 183.11 325.06 183.18C325.33 183.26 325.68 183.37 326.13 183.5C327.07 183.8 328.44 184.26 330.18 184.95C331.92 185.64 334.03 186.55 336.36 187.84C337.52 188.49 338.74 189.24 339.93 190.18C341.13 191.09 342.31 192.26 343.15 193.73C344.87 196.63 346.22 200.05 347.67 203.7C349.09 207.37 350.51 211.32 351.94 215.5C352.65 217.59 353.37 219.74 354.11 221.93C354.48 223.03 354.85 224.13 355.22 225.25C355.63 226.36 355.88 227.59 355.97 228.8C356.14 231.23 355.97 233.7 355.62 236.16C355.27 238.63 354.74 241.11 354.01 243.57C353.07 246.77 351.8 249.84 350.04 252.57C348.31 255.3 346.01 257.64 343.28 259.14C341.93 259.91 340.48 260.46 339.01 260.79C338.28 260.99 337.53 261.06 336.8 261.18C336.06 261.22 335.32 261.31 334.6 261.28C331.68 261.26 328.89 260.8 326.27 260.18C323.65 259.55 321.18 258.74 318.9 257.81C317.76 257.34 316.66 256.85 315.63 256.28C314.6 255.73 313.61 255.13 312.77 254.37C311.94 253.6 311.36 252.66 310.87 251.75C310.38 250.83 310 249.9 309.68 248.99C309.04 247.17 308.61 245.45 308.31 243.87L308.28 243.74L308.42 243.72C311.94 243.12 314.64 242.42 316.47 241.93C317.36 241.68 318.05 241.48 318.55 241.34C318.77 241.28 318.94 241.23 319.08 241.19C319.2 241.1 319.26 241.09 319.26 241.1Z" fill="#263238"/>
<path d="M344.55 233.73C344.45 233.75 344.13 232.03 342.98 229.49C341.85 226.96 339.82 223.61 336.76 220.66C335.24 219.18 333.55 218.06 331.93 217.22C331.51 217.03 331.11 216.85 330.71 216.68C330.32 216.5 329.9 216.42 329.52 216.29C328.75 216.01 328 215.94 327.31 215.83C327.14 215.8 326.97 215.78 326.81 215.75C326.65 215.75 326.49 215.75 326.33 215.75C326.02 215.75 325.73 215.75 325.45 215.75C324.9 215.72 324.43 215.82 324.04 215.87C323.27 215.98 322.84 216.03 322.83 215.99C322.82 215.96 323.24 215.84 324.01 215.67C324.4 215.58 324.87 215.45 325.43 215.46C325.72 215.45 326.02 215.43 326.33 215.42C326.49 215.41 326.66 215.41 326.82 215.4C326.99 215.42 327.16 215.44 327.34 215.46C328.05 215.55 328.83 215.6 329.63 215.87C330.03 215.99 330.46 216.07 330.87 216.25C331.28 216.43 331.7 216.61 332.13 216.79C333.81 217.63 335.56 218.77 337.11 220.28C340.23 223.29 342.25 226.73 343.31 229.34C343.58 229.99 343.82 230.59 343.97 231.13C344.13 231.67 344.29 232.12 344.35 232.51C344.51 233.29 344.58 233.72 344.55 233.73Z" fill="#263238"/>
<path d="M352.07 221.36C351.96 221.4 351.58 219.59 349.99 217.16C348.43 214.77 345.45 211.78 341.21 210.51C336.98 209.22 332.87 209.62 330 209.89C328.63 210.05 327.49 210.19 326.57 210.3C325.76 210.4 325.31 210.44 325.3 210.4C325.29 210.36 325.73 210.26 326.53 210.1C327.33 209.94 328.49 209.73 329.94 209.52C332.81 209.15 336.98 208.68 341.34 210C343.51 210.66 345.41 211.77 346.9 213.04C348.41 214.3 349.5 215.7 350.28 216.95C351.06 218.21 351.5 219.32 351.75 220.11C352.02 220.91 352.09 221.36 352.07 221.36Z" fill="#263238"/>
<path d="M341.68 206.57C341.64 206.74 338.05 205.58 333.49 205.79C328.92 205.95 325.43 207.38 325.38 207.21C325.36 207.15 326.19 206.72 327.64 206.26C329.08 205.8 331.15 205.36 333.47 205.26C335.79 205.17 337.88 205.45 339.36 205.8C340.83 206.15 341.69 206.51 341.68 206.57Z" fill="#263238"/>
<path d="M319.38 186.5C319.46 186.51 319.26 187.91 319.1 190.16C318.94 192.42 318.86 195.55 319.17 198.99C319.45 202.29 320.05 205.26 320.58 207.41L320.22 207.53C319.81 206.37 319.49 205.44 319.28 204.78C319.07 204.13 318.97 203.76 319 203.75C319.04 203.74 319.2 204.08 319.47 204.71C319.74 205.34 320.12 206.26 320.57 207.4L320.21 207.52C319.59 205.37 318.93 202.39 318.65 199.05C318.34 195.58 318.47 192.41 318.73 190.14C318.86 189.01 319 188.1 319.13 187.47C319.26 186.84 319.34 186.5 319.38 186.5Z" fill="#263238"/>
<path d="M299.89 160.85C299.89 160.85 292.74 160.85 291.84 169.45C291.15 176.05 291.84 182.46 291.84 185.35C291.84 188.24 290.57 198.52 290.57 198.52C290.57 198.52 285.69 202.85 285.77 208.05C285.85 213.28 289.57 214.87 289.57 214.87C289.57 214.87 287.3 219.82 291.63 224.37C291.63 224.37 289.55 229.16 291.26 232.39C292.58 234.89 295.55 235.72 295.55 235.72C295.55 235.72 293.44 240.44 298.51 242.43C301.51 243.6 305.94 243.34 305.94 243.34L311.28 243.24L315.98 245.84C315.98 245.84 324.03 242.33 324.24 237.58C324.45 232.83 324.45 232.83 324.45 232.83C324.45 232.83 322.18 224.99 321.97 222.51C321.76 220.03 323.83 214.05 322.59 211.36C321.35 208.68 317.02 207.1 317.43 203.35C317.84 199.6 317.02 197.53 315.16 195.47C313.3 193.41 305.09 189.28 305.09 189.28C305.09 189.28 302.98 183.29 302.98 179.16C302.99 175.02 307.12 162.42 299.89 160.85Z" fill="#FFBF9D"/>
<path d="M304.71 190.83C304.75 190.89 303.99 191.38 302.73 192.11C301.47 192.85 299.72 193.83 297.77 194.89C295.82 195.95 294.03 196.89 292.73 197.54C291.43 198.19 290.6 198.57 290.57 198.5C290.54 198.44 291.3 197.95 292.55 197.21C293.81 196.47 295.56 195.49 297.51 194.43C299.46 193.37 301.24 192.44 302.55 191.78C303.85 191.14 304.68 190.76 304.71 190.83Z" fill="#FF9A6C"/>
<path d="M309.41 206.99C309.43 207.02 309.21 207.22 308.79 207.55C308.37 207.89 307.74 208.34 306.93 208.86C305.32 209.91 302.97 211.19 300.23 212.24C297.48 213.29 294.88 213.9 292.98 214.2C292.03 214.35 291.26 214.44 290.72 214.47C290.18 214.5 289.89 214.51 289.88 214.47C289.87 214.39 291.04 214.23 292.91 213.84C294.78 213.45 297.33 212.79 300.04 211.76C302.75 210.72 305.09 209.51 306.74 208.55C308.38 207.59 309.36 206.92 309.41 206.99Z" fill="#FF9A6C"/>
<path d="M315.55 201.85C315.68 201.89 315.41 202.81 314.56 203.58C313.72 204.35 312.78 204.53 312.75 204.4C312.7 204.26 313.47 203.89 314.21 203.19C314.97 202.51 315.41 201.79 315.55 201.85Z" fill="#FF9A6C"/>
<path d="M312.6 221.15C312.62 221.21 311.49 221.67 309.61 222.25C307.73 222.83 305.08 223.49 302.11 223.97C299.14 224.45 296.42 224.65 294.45 224.69C292.48 224.74 291.26 224.65 291.26 224.59C291.26 224.51 292.47 224.46 294.43 224.32C296.38 224.18 299.08 223.93 302.03 223.45C304.98 222.97 307.61 222.37 309.51 221.89C311.41 221.41 312.58 221.08 312.6 221.15Z" fill="#FF9A6C"/>
<path d="M319.14 219.96C319.07 219.92 319.38 219.37 319.69 218.43C320 217.49 320.26 216.13 320.08 214.64C319.9 213.15 319.33 211.88 318.81 211.05C318.29 210.21 317.86 209.75 317.92 209.69C317.96 209.64 318.49 210.01 319.12 210.84C319.74 211.66 320.42 212.99 320.61 214.58C320.8 216.17 320.46 217.62 320.05 218.56C319.62 219.51 319.19 220 319.14 219.96Z" fill="#FF9A6C"/>
<path d="M312.97 235.63C312.98 235.69 312.02 235.96 310.43 236.23C308.84 236.5 306.61 236.73 304.14 236.72C301.67 236.71 299.45 236.47 297.86 236.19C296.27 235.92 295.31 235.64 295.32 235.58C295.34 235.5 296.32 235.65 297.91 235.83C299.5 236.01 301.7 236.19 304.14 236.2C306.58 236.2 308.78 236.04 310.38 235.86C311.97 235.69 312.96 235.55 312.97 235.63Z" fill="#FF9A6C"/>
<path d="M300.28 179.26C300.31 179.32 299.96 179.58 299.29 179.82C298.63 180.06 297.63 180.23 296.55 180.1C295.47 179.97 294.54 179.57 293.95 179.18C293.36 178.79 293.08 178.45 293.12 178.4C293.21 178.27 294.57 179.36 296.61 179.58C298.64 179.85 300.22 179.12 300.28 179.26Z" fill="#FF9A6C"/>
<path d="M320.62 220.57C320.65 220.57 320.71 220.84 320.73 221.34C320.75 221.84 320.68 222.57 320.48 223.45C320.29 224.33 319.96 225.34 319.64 226.45C319.34 227.56 319.05 228.82 319.27 230.09C319.44 231.35 320.39 232.38 320.54 233.67C320.71 234.93 320.21 236 319.75 236.76C319.27 237.53 318.8 238.08 318.46 238.44C318.12 238.8 317.91 238.99 317.89 238.96C317.81 238.9 318.58 238.08 319.44 236.57C319.84 235.82 320.25 234.82 320.07 233.73C319.95 232.64 318.99 231.62 318.76 230.17C318.52 228.75 318.86 227.43 319.19 226.31C319.54 225.18 319.9 224.2 320.13 223.35C320.63 221.67 320.53 220.57 320.62 220.57Z" fill="#FF9A6C"/>
<path d="M323.31 226.85C323.34 226.84 323.47 227.17 323.65 227.79C323.83 228.4 324.07 229.3 324.3 230.43C324.52 231.56 324.74 232.91 324.78 234.44C324.81 235.96 324.66 237.7 323.88 239.34C323.08 240.95 321.92 242.22 320.81 243.26C319.69 244.29 318.58 245.11 317.63 245.75C316.68 246.39 315.89 246.87 315.33 247.19C314.77 247.5 314.45 247.66 314.43 247.63C314.39 247.56 315.58 246.81 317.42 245.46C318.33 244.78 319.4 243.95 320.48 242.92C321.55 241.88 322.66 240.65 323.41 239.13C324.14 237.61 324.31 235.95 324.3 234.46C324.29 232.97 324.11 231.63 323.94 230.5C323.56 228.24 323.23 226.87 323.31 226.85Z" fill="#263238"/>
<path d="M247.86 193.56C247.84 193.59 247.43 193.28 246.7 192.69C245.91 192.04 244.89 191.19 243.67 190.18C243.03 189.64 242.33 189.05 241.59 188.43C241.22 188.12 240.84 187.79 240.41 187.58C239.98 187.37 239.5 187.31 239.07 187.53C238.21 187.98 237.63 189.09 236.89 190.01C236.18 190.97 235.44 191.96 234.69 192.98C233.48 194.6 232.32 196.15 231.25 197.59L230.6 198.45L230.81 197.39C231.51 193.77 232.49 190.75 233.3 188.67C233.7 187.63 234.06 186.81 234.32 186.26C234.58 185.71 234.74 185.42 234.76 185.43C234.79 185.44 234.68 185.75 234.47 186.32C234.26 186.89 233.95 187.72 233.59 188.77C232.87 190.88 231.96 193.89 231.3 197.48L230.86 197.29C231.93 195.85 233.08 194.29 234.28 192.67C235.04 191.66 235.78 190.67 236.49 189.71C236.85 189.23 237.2 188.76 237.55 188.3C237.91 187.84 238.31 187.37 238.87 187.1C239.44 186.81 240.13 186.91 240.62 187.17C241.12 187.43 241.51 187.78 241.88 188.1C242.6 188.74 243.28 189.34 243.91 189.9C245.09 190.96 246.07 191.85 246.83 192.53C247.51 193.17 247.88 193.54 247.86 193.56Z" fill="#263238"/>
<path d="M290.08 185.11C290.09 185.12 289.96 185.24 289.69 185.46C289.37 185.71 288.98 186.01 288.51 186.38C287.41 187.21 285.92 188.33 284.1 189.7C280.29 192.5 275.12 196.31 269.39 200.53L269.17 200.69L269.02 200.46C268.9 200.28 268.78 200.08 268.66 199.89C265.95 195.61 263.42 191.62 261.28 188.23L261.55 188.32C258.02 189.72 255.24 191.26 253.35 192.41C252.4 192.98 251.68 193.46 251.18 193.78C250.68 194.1 250.42 194.27 250.4 194.25C250.39 194.23 250.63 194.03 251.1 193.67C251.57 193.31 252.28 192.8 253.21 192.19C255.07 190.98 257.83 189.37 261.38 187.91L261.55 187.84L261.65 188C263.81 191.37 266.36 195.35 269.1 199.61C269.22 199.81 269.35 200 269.46 200.18L269.09 200.11C274.86 195.94 280.06 192.18 283.9 189.41C285.76 188.1 287.28 187.02 288.4 186.23C288.9 185.89 289.31 185.61 289.64 185.39C289.92 185.18 290.07 185.09 290.08 185.11Z" fill="#263238"/>
<path d="M200.33 224.88C200.35 224.88 200.37 225.12 200.38 225.59C200.39 226.1 200.41 226.78 200.44 227.61C200.47 229.43 200.52 231.96 200.58 235.05C200.7 241.33 200.95 250.01 201.28 259.6C201.61 269.19 201.8 277.88 201.82 284.16C201.83 287.3 201.82 289.85 201.79 291.61C201.77 292.45 201.76 293.12 201.75 293.63C201.73 294.09 201.72 294.34 201.7 294.34C201.68 294.34 201.66 294.1 201.65 293.63C201.64 293.12 201.62 292.44 201.59 291.61C201.56 289.79 201.51 287.27 201.45 284.17C201.33 277.89 201.08 269.21 200.75 259.62C200.42 250.03 200.23 241.35 200.21 235.06C200.2 231.92 200.21 229.37 200.24 227.61C200.26 226.77 200.27 226.1 200.28 225.59C200.3 225.12 200.32 224.88 200.33 224.88Z" fill="#263238"/>
<path d="M248.19 315.2C248.18 315.2 248.16 315.1 248.14 314.91C248.12 314.69 248.08 314.41 248.04 314.06C247.96 313.27 247.86 312.18 247.72 310.79C247.44 307.95 247.12 303.83 246.8 298.74C246.47 293.65 246.21 287.58 246.03 280.83C245.88 274.08 245.85 266.66 246.01 258.88C246.19 251.09 246.55 243.68 246.99 236.94C247.46 230.21 247.99 224.15 248.53 219.08C249.07 214.01 249.57 209.91 249.97 207.08C250.17 205.7 250.32 204.61 250.43 203.83C250.48 203.48 250.53 203.21 250.56 202.99C250.59 202.8 250.61 202.7 250.62 202.7C250.63 202.7 250.63 202.8 250.61 202.99C250.59 203.21 250.56 203.49 250.53 203.84C250.44 204.62 250.32 205.72 250.16 207.1C249.82 209.93 249.38 214.04 248.89 219.11C248.39 224.18 247.9 230.24 247.46 236.97C247.05 243.7 246.7 251.11 246.52 258.89C246.36 266.67 246.38 274.08 246.5 280.82C246.65 287.56 246.87 293.63 247.15 298.72C247.42 303.81 247.69 307.93 247.9 310.78C247.99 312.17 248.07 313.27 248.12 314.06C248.14 314.41 248.15 314.69 248.16 314.91C248.2 315.1 248.19 315.2 248.19 315.2Z" fill="#263238"/>
<path d="M218.39 151.52C218.39 151.52 218.04 151.77 217.33 152.23C216.62 152.69 215.57 153.37 214.2 154.26C212.83 155.15 211.24 156.42 209.3 157.83C208.34 158.55 207.39 159.42 206.32 160.29C205.79 160.73 205.25 161.19 204.69 161.66C204.14 162.14 203.61 162.68 203.04 163.21C198.49 167.44 193.33 173.12 188.58 180.57C188 181.51 187.4 182.46 186.8 183.43C186.17 184.39 185.69 185.45 185.11 186.47C184.57 187.52 183.96 188.55 183.44 189.65C182.94 190.76 182.42 191.88 181.9 193.02C181.65 193.59 181.36 194.16 181.13 194.75C180.9 195.34 180.68 195.94 180.45 196.54C180 197.75 179.51 198.96 179.07 200.2C178.33 202.74 177.4 205.29 176.84 208.02C175.45 213.4 174.69 219.2 174.38 225.25C174.03 231.3 174.39 237.64 175.43 244.09C177.54 256.96 182.61 270.36 191.24 282.27C199.76 294.22 211.8 304.61 226.25 311.44C240.68 318.31 257.56 321.28 274.42 319.54C291.3 317.79 307.12 311.14 319.79 301.43C322.98 299.03 325.92 296.36 328.73 293.63C329.41 292.92 330.08 292.22 330.76 291.51C331.44 290.81 332.1 290.1 332.73 289.35C333.37 288.62 334 287.88 334.63 287.15C335.23 286.39 335.82 285.63 336.42 284.88C341.17 278.83 344.92 272.24 347.89 265.53C350.85 258.81 352.81 251.86 354.01 245.02C354.63 241.6 354.97 238.18 355.2 234.81C355.31 233.13 355.3 231.45 355.36 229.79C355.33 228.13 355.24 226.49 355.18 224.85C355.15 224.03 355.12 223.22 355.08 222.41C355.03 221.6 354.9 220.81 354.81 220.01C354.62 218.42 354.43 216.84 354.24 215.27C353.99 213.72 353.63 212.19 353.34 210.68C353.03 209.17 352.77 207.65 352.3 206.21C351.88 204.75 351.47 203.31 351.05 201.88C350.87 201.16 350.61 200.47 350.34 199.78C350.08 199.09 349.82 198.41 349.57 197.73C349.04 196.38 348.6 195 348.01 193.71C347.41 192.42 346.81 191.15 346.22 189.89C341.39 179.87 335.19 171.77 328.97 165.52C322.72 159.25 316.44 154.86 311.14 151.63C309.79 150.86 308.52 150.12 307.32 149.44C306.73 149.08 306.13 148.8 305.54 148.52C304.96 148.24 304.4 147.98 303.86 147.72C302.78 147.2 301.78 146.73 300.87 146.29C299.97 145.83 299.08 145.57 298.33 145.26C296.81 144.67 295.65 144.22 294.85 143.91C294.07 143.6 293.67 143.43 293.67 143.43C293.67 143.43 294.08 143.57 294.87 143.86C295.67 144.16 296.84 144.59 298.37 145.16C299.13 145.47 300.02 145.72 300.93 146.17C301.85 146.6 302.85 147.07 303.94 147.58C304.48 147.83 305.05 148.1 305.63 148.37C306.22 148.64 306.83 148.92 307.42 149.28C308.62 149.96 309.9 150.69 311.26 151.46C316.58 154.68 322.9 159.05 329.19 165.32C335.45 171.57 341.7 179.68 346.57 189.74C347.16 191 347.76 192.28 348.37 193.57C348.97 194.86 349.41 196.25 349.95 197.6C350.21 198.28 350.47 198.97 350.73 199.66C351 200.35 351.26 201.04 351.44 201.77C351.86 203.2 352.27 204.65 352.7 206.11C353.17 207.56 353.44 209.08 353.76 210.6C354.06 212.12 354.42 213.65 354.67 215.21C354.86 216.78 355.06 218.37 355.25 219.97C355.34 220.77 355.47 221.57 355.52 222.38C355.55 223.19 355.59 224.01 355.62 224.83C355.68 226.47 355.77 228.12 355.81 229.79C355.76 231.46 355.76 233.14 355.65 234.83C355.43 238.21 355.09 241.65 354.47 245.09C353.27 251.97 351.3 258.95 348.34 265.72C345.37 272.47 341.6 279.1 336.83 285.18C336.23 285.94 335.63 286.7 335.03 287.46C334.39 288.19 333.76 288.93 333.12 289.67C332.49 290.42 331.83 291.14 331.14 291.84C330.46 292.55 329.78 293.26 329.1 293.97C326.27 296.71 323.32 299.4 320.11 301.82C307.38 311.6 291.47 318.28 274.49 320.04C257.54 321.8 240.56 318.81 226.05 311.89C211.51 305.01 199.42 294.56 190.86 282.54C182.2 270.56 177.11 257.08 175.01 244.15C173.97 237.67 173.62 231.31 173.98 225.22C174.3 219.14 175.08 213.32 176.48 207.92C177.05 205.18 177.99 202.62 178.74 200.08C179.19 198.83 179.67 197.62 180.13 196.41C180.36 195.81 180.59 195.21 180.82 194.61C181.06 194.02 181.34 193.45 181.6 192.88C182.12 191.74 182.64 190.61 183.15 189.5C183.67 188.4 184.29 187.36 184.84 186.31C185.42 185.28 185.91 184.22 186.54 183.26C187.15 182.29 187.75 181.33 188.33 180.4C193.12 172.94 198.32 167.26 202.9 163.05C203.47 162.52 204.01 161.98 204.56 161.5C205.13 161.03 205.67 160.57 206.21 160.13C207.28 159.26 208.25 158.4 209.21 157.68C211.16 156.29 212.76 155.03 214.15 154.15C215.53 153.28 216.59 152.61 217.31 152.16C218.02 151.73 218.39 151.52 218.39 151.52Z" fill="#263238"/>
</svg>
