<svg width="512" height="512" viewBox="0 0 512 512" fill="none" xmlns="http://www.w3.org/2000/svg">
<path d="M169.513 293.867H70.7789V480.502H169.513V293.867Z" fill="#E0E0E0"/>
<path d="M140.216 293.867H41.4822V480.502H140.216V293.867Z" fill="#F5F5F5"/>
<path d="M132.946 332.288H48.1895V302.705H132.936V332.288H132.946ZM49.2339 331.243H131.901V303.739H49.2339V331.243Z" fill="#E0E0E0"/>
<path d="M102.154 309.115H80.128C77.3325 309.115 75.0592 306.842 75.0592 304.046V303.217H107.223V304.046C107.223 306.852 104.96 309.115 102.154 309.115Z" fill="#EBEBEB"/>
<path d="M132.946 369.869H48.1895V340.275H132.936V369.869H132.946ZM49.2339 368.824H131.901V341.32H49.2339V368.824Z" fill="#E0E0E0"/>
<path d="M102.154 346.696H80.128C77.3325 346.696 75.0592 344.422 75.0592 341.627V340.797H107.223V341.627C107.223 344.422 104.96 346.696 102.154 346.696Z" fill="#EBEBEB"/>
<path d="M132.946 407.45H48.1895V377.856H132.936V407.45H132.946ZM49.2339 406.405H131.901V378.9H49.2339V406.405Z" fill="#E0E0E0"/>
<path d="M102.154 384.276H80.128C77.3325 384.276 75.0592 382.003 75.0592 379.208V378.378H107.223V379.208C107.223 382.003 104.96 384.276 102.154 384.276Z" fill="#EBEBEB"/>
<path d="M132.946 445.03H48.1895V415.437H132.936V445.03H132.946ZM49.2339 443.986H131.901V416.481H49.2339V443.986Z" fill="#E0E0E0"/>
<path d="M102.154 421.857H80.128C77.3325 421.857 75.0592 419.584 75.0592 416.788V415.959H107.223V416.788C107.223 419.584 104.96 421.857 102.154 421.857Z" fill="#EBEBEB"/>
<path d="M144.343 286.884H37.0995V296.182H144.343V286.884Z" fill="#EBEBEB"/>
<path d="M176.589 286.884H144.343V296.182H176.589V286.884Z" fill="#E0E0E0"/>
<path d="M46.6739 480.502H41.4822V490.035H46.6739V480.502Z" fill="#E0E0E0"/>
<path d="M78.7251 480.502H73.5334V490.035H78.7251V480.502Z" fill="#E0E0E0"/>
<path d="M137.288 480.502H132.096V490.035H137.288V480.502Z" fill="#E0E0E0"/>
<path d="M166.564 480.502H161.372V490.035H166.564V480.502Z" fill="#E0E0E0"/>
<path d="M132.895 262.062L142.889 287.631L136.673 287.6L131.697 271.892L132.895 262.062Z" fill="#E0E0E0"/>
<path d="M98.7648 238.438L95.3242 287.426L130.796 288.164L134.789 238.438H98.7648Z" fill="#EBEBEB"/>
<path d="M102.308 242.381L99.4509 283.156L125.819 284.395L129.505 242.145L102.308 242.381Z" fill="#FAFAFA"/>
<path d="M108.093 248.146L105.953 276.807H120.504L123.064 248.146H108.093Z" fill="#E0E0E0"/>
<path d="M460.728 48.384H328.346V286.208H460.728V48.384Z" fill="#EBEBEB"/>
<path d="M454.072 55.2859H333.629V279.122H454.072V55.2859Z" fill="#FAFAFA"/>
<path d="M466.33 288.348L460.728 286.208V44.3494H466.33V288.348Z" fill="#E0E0E0"/>
<path d="M456.684 119.675H333.629V122.061H456.684V119.675Z" fill="#E0E0E0"/>
<path d="M456.684 172.984H333.629V175.37H456.684V172.984Z" fill="#E0E0E0"/>
<path d="M456.684 226.283H333.629V228.669H456.684V226.283Z" fill="#E0E0E0"/>
<path d="M390.814 120.872V285.47H396.896V120.872H390.814Z" fill="#E0E0E0"/>
<path d="M359.578 55.2859H356.823V120.873H359.578V55.2859Z" fill="#E0E0E0"/>
<path d="M383.355 55.2859H380.6V120.873H383.355V55.2859Z" fill="#E0E0E0"/>
<path d="M407.132 55.2859H404.378V120.873H407.132V55.2859Z" fill="#E0E0E0"/>
<path d="M430.909 55.2859H428.155V120.873H430.909V55.2859Z" fill="#E0E0E0"/>
<path d="M328.346 44.3494H322.744V287.672H328.346V44.3494Z" fill="#E0E0E0"/>
<path d="M466.33 41.9021H322.744V48.3943H466.33V41.9021Z" fill="#E0E0E0"/>
<path d="M470.118 289.157H318.771V295.199H470.118V289.157Z" fill="#E0E0E0"/>
<path d="M460.728 286.208L470.118 289.157H318.771L328.346 286.208H460.728Z" fill="#E0E0E0"/>
<path d="M123.525 56.6067C125.87 55.1936 128.358 54.1184 130.929 53.3914L132.454 46.0595L144.845 45.8445L146.627 53.1149C149.228 53.7498 151.757 54.743 154.143 56.0742L160.399 51.968L169.318 60.5798L165.437 66.9798C166.851 69.3248 167.926 71.8131 168.653 74.3936L175.985 75.9194L176.2 88.3098L168.929 90.0915C168.294 92.6822 167.301 95.2218 165.97 97.6077L170.076 103.875L161.475 112.794L155.075 108.913C152.73 110.326 150.241 111.401 147.661 112.128L146.135 119.46L133.745 119.675L131.963 112.404C129.362 111.77 126.833 110.776 124.447 109.445L118.19 113.551L109.271 104.94L113.152 98.5395C111.739 96.1946 110.664 93.7062 109.937 91.1258L102.605 89.6L102.39 77.2096L109.66 75.4278C110.295 72.8371 111.288 70.2976 112.62 67.9117L108.513 61.655L117.115 52.736L123.525 56.6067ZM130.12 73.1136C125.02 78.3974 125.164 86.8147 130.447 91.9142C135.731 97.0138 144.148 96.8602 149.248 91.5866C154.348 86.3027 154.204 77.8854 148.92 72.7859C143.636 67.6864 135.219 67.8298 130.12 73.1136Z" fill="#E0E0E0"/>
<path d="M130.12 73.1136C130.12 73.1136 130.816 72.1305 132.598 70.9427C134.349 69.7753 137.4 68.4851 141.271 68.8947C143.176 69.1097 145.265 69.7344 147.169 70.9837C149.053 72.2432 150.825 74.0352 151.931 76.3494C152.515 77.4861 152.924 78.7558 153.139 80.0768C153.375 81.3977 153.416 82.7904 153.211 84.1728C152.873 86.9478 151.562 89.6819 149.524 91.8323C147.446 93.952 144.763 95.3549 141.998 95.7952C140.626 96.041 139.233 96.0614 137.902 95.8669C136.571 95.6928 135.291 95.3344 134.134 94.7917C131.768 93.7677 129.925 92.0473 128.594 90.2144C127.273 88.3609 126.577 86.2925 126.29 84.3981C125.747 80.5478 126.935 77.4451 128.031 75.6633C129.167 73.8406 130.12 73.1136 130.12 73.1136C130.191 73.175 129.321 73.984 128.297 75.8067C127.293 77.5987 126.239 80.6297 126.822 84.3161C127.13 86.1286 127.816 88.0947 129.106 89.8457C130.386 91.5763 132.168 93.1942 134.41 94.1466C135.516 94.6586 136.735 94.9862 137.994 95.1398C139.254 95.3139 140.564 95.2934 141.865 95.0579C144.476 94.6381 147.005 93.3069 148.971 91.2998C150.897 89.2621 152.146 86.6918 152.474 84.0704C152.668 82.7597 152.637 81.4489 152.422 80.1997C152.218 78.9504 151.849 77.7421 151.296 76.6566C150.262 74.4448 148.593 72.7245 146.811 71.5059C145.009 70.2873 143.032 69.6627 141.199 69.4169C137.492 68.9561 134.502 70.1235 132.751 71.1885C130.97 72.2739 130.191 73.1853 130.12 73.1136Z" fill="#E0E0E0"/>
<path d="M123.515 56.6067C123.515 56.6169 123.372 56.5452 123.105 56.3916C122.808 56.2175 122.399 55.982 121.876 55.6851C120.76 55.0195 119.142 54.0671 117.053 52.8383L117.207 52.8179C115.016 55.1116 112.138 58.1324 108.657 61.7779L108.677 61.5423C109.926 63.4367 111.319 65.5359 112.804 67.7887L112.876 67.9014L112.814 68.0243C111.596 70.2259 110.572 72.7347 109.906 75.4892L109.875 75.6326L109.732 75.6735C107.469 76.2367 105.011 76.8409 102.461 77.4758L102.666 77.2095C102.748 81.111 102.83 85.2479 102.912 89.5999L102.676 89.3132C104.95 89.7843 107.448 90.2963 110.008 90.8287L110.193 90.8697L110.244 91.054C110.93 93.4502 111.985 95.9897 113.439 98.3756L113.541 98.5497L113.439 98.7238C112.241 100.71 110.92 102.902 109.568 105.134L109.517 104.714C112.323 107.418 115.343 110.326 118.446 113.306L118.006 113.265C119.951 111.985 122.092 110.582 124.262 109.158L124.447 109.035L124.641 109.138C126.822 110.356 129.382 111.401 132.065 112.056L132.28 112.107L132.332 112.323C132.895 114.596 133.499 117.084 134.124 119.593L133.755 119.306C137.677 119.235 141.885 119.163 146.145 119.081L145.777 119.378C146.258 117.064 146.78 114.565 147.302 112.046L147.354 111.821L147.579 111.759C150.016 111.073 152.545 109.998 154.89 108.585H154.9L155.105 108.462L155.3 108.585C157.45 109.885 159.58 111.186 161.7 112.466L161.229 112.527C164.137 109.517 167.004 106.547 169.841 103.619L169.8 104.09C168.417 101.98 167.055 99.8911 165.704 97.8227L165.581 97.6281L165.693 97.4335C167.014 95.0783 167.987 92.5695 168.622 90.0095L168.673 89.7945L168.888 89.7433C171.346 89.1391 173.773 88.5452 176.159 87.9615L175.882 88.3199C175.811 84.0908 175.739 79.9641 175.677 75.9295L175.954 76.2675C173.466 75.7452 171.028 75.2332 168.622 74.7315L168.417 74.6905L168.366 74.4959C167.629 71.8643 166.543 69.4067 165.192 67.1641L165.089 66.99L165.192 66.8159C166.523 64.6246 167.823 62.4947 169.083 60.4262L169.134 60.8153C166.001 57.7843 163.051 54.9171 160.236 52.1932L160.594 52.2239C158.392 53.6575 156.314 55.0092 154.327 56.3097L154.184 56.4019L154.04 56.3199C151.542 54.9273 149.043 53.9852 146.596 53.3708L146.452 53.3299L146.422 53.1865C145.787 50.5446 145.203 48.1587 144.66 45.9059L144.886 46.0799C140.083 46.1414 135.997 46.1926 132.495 46.2438L132.659 46.1107C132.035 49.0393 131.512 51.4355 131.082 53.4323L131.062 53.5039L130.99 53.5244C128.369 54.2515 126.525 55.1116 125.327 55.7055C124.754 56.0025 124.314 56.238 123.996 56.4019C123.658 56.5452 123.515 56.6169 123.515 56.6067C123.515 56.5964 123.658 56.5043 123.924 56.3302C124.211 56.1561 124.641 55.8899 125.235 55.5827C126.423 54.9478 128.256 54.0569 130.888 53.2787L130.806 53.3708C131.205 51.3638 131.697 48.9574 132.28 46.0287L132.311 45.8956H132.444C135.946 45.8239 140.032 45.7318 144.835 45.6191H145.009L145.05 45.7932C145.613 48.0358 146.196 50.4217 146.852 53.0636L146.668 52.8793C149.156 53.4835 151.706 54.4358 154.255 55.8387L153.969 55.8489C155.955 54.5382 158.024 53.1763 160.225 51.7324L160.42 51.6095L160.584 51.7734C163.41 54.487 166.369 57.3439 169.513 60.3647L169.697 60.5388L169.564 60.7539C168.305 62.8326 167.025 64.9625 165.693 67.1641V66.8262C167.076 69.1097 168.192 71.6287 168.96 74.3116L168.704 74.0659C171.11 74.5676 173.548 75.0694 176.036 75.5814L176.312 75.6428V75.9193C176.384 79.9436 176.466 84.0806 176.538 88.3097L176.548 88.5964L176.261 88.6681C173.865 89.2518 171.448 89.8559 168.991 90.4601L169.257 90.1939C168.612 92.8153 167.619 95.3855 166.267 97.8022L166.257 97.4131C167.608 99.4815 168.98 101.571 170.363 103.67L170.527 103.926L170.322 104.141C167.496 107.069 164.628 110.049 161.72 113.06L161.505 113.275L161.249 113.121C159.13 111.841 157 110.541 154.849 109.24H155.238H155.228C152.822 110.694 150.231 111.79 147.732 112.497L147.999 112.21C147.476 114.729 146.954 117.227 146.473 119.542L146.412 119.839L146.104 119.849C141.844 119.921 137.636 119.992 133.714 120.064L133.417 120.074L133.345 119.787C132.731 117.279 132.127 114.79 131.564 112.517L131.83 112.783C129.075 112.107 126.464 111.032 124.221 109.783L124.6 109.773C122.429 111.196 120.289 112.599 118.333 113.869L118.098 114.022L117.893 113.828C114.801 110.838 111.79 107.919 108.984 105.206L108.79 105.021L108.933 104.786C110.285 102.564 111.616 100.372 112.824 98.3961V98.734C111.35 96.2867 110.264 93.6857 109.578 91.2383L109.814 91.4636C107.254 90.9209 104.755 90.3987 102.482 89.9276L102.246 89.8764V89.6409C102.185 85.2889 102.113 81.1519 102.062 77.2505V77.0355L102.277 76.9843C104.827 76.3699 107.284 75.7759 109.558 75.223L109.373 75.4073C110.07 72.6118 111.124 70.0723 112.374 67.8399L112.384 68.0755C110.92 65.8124 109.537 63.703 108.308 61.7983L108.227 61.6652L108.329 61.5526C111.852 57.9379 114.77 54.958 116.982 52.6847L117.053 52.6131L117.135 52.6643C119.183 53.934 120.76 54.9171 121.856 55.6031C122.368 55.9308 122.767 56.1868 123.064 56.3711C123.382 56.5043 123.515 56.5964 123.515 56.6067Z" fill="#E0E0E0"/>
<path d="M199.772 32.3992C201.175 31.5493 202.67 30.9144 204.206 30.4741L205.117 26.0811L212.531 25.948L213.596 30.3C215.153 30.6789 216.668 31.2728 218.091 32.0715L221.839 29.6139L227.174 34.7646L224.85 38.5944C225.7 39.9973 226.345 41.4923 226.775 43.0283L231.168 43.9397L231.301 51.3534L226.949 52.4184C226.57 53.9749 225.976 55.4904 225.178 56.9138L227.635 60.6616L222.484 65.9966L218.655 63.6722C217.252 64.5221 215.757 65.157 214.221 65.5973L213.309 69.9902L205.896 70.1234L204.831 65.7714C203.274 65.3925 201.759 64.7986 200.335 63.9998L196.587 66.4574L191.252 61.3067L193.577 57.477C192.727 56.0741 192.082 54.579 191.652 53.043L187.259 52.1317L187.126 44.7179L191.478 43.653C191.857 42.0965 192.451 40.581 193.249 39.1576L190.792 35.4098L195.942 30.0747L199.772 32.3992ZM203.725 42.2808C200.673 45.445 200.765 50.483 203.919 53.5346C207.083 56.5861 212.122 56.4939 215.173 53.34C218.225 50.1758 218.132 45.1378 214.979 42.0862C211.814 39.0245 206.776 39.1166 203.725 42.2808Z" fill="#F5F5F5"/>
<path d="M203.725 42.281C203.725 42.281 204.145 41.6973 205.21 40.9805C206.254 40.2842 208.087 39.5059 210.401 39.7517C211.538 39.8848 212.787 40.2534 213.934 41.001C215.06 41.7587 216.125 42.8237 216.791 44.2163C217.139 44.9024 217.385 45.6602 217.518 46.4486C217.661 47.2371 217.682 48.0666 217.559 48.896C217.354 50.5549 216.576 52.1933 215.347 53.4835C214.108 54.7533 212.49 55.593 210.842 55.849C210.022 55.9923 209.183 56.0026 208.394 55.8899C207.596 55.7875 206.828 55.5725 206.141 55.2448C204.728 54.6304 203.622 53.6064 202.824 52.5107C202.035 51.3946 201.615 50.1658 201.452 49.0291C201.124 46.7251 201.841 44.8717 202.496 43.7965C203.151 42.711 203.725 42.281 203.725 42.281C203.766 42.3219 203.244 42.8032 202.629 43.8989C202.025 44.9741 201.4 46.7866 201.748 48.9882C201.933 50.0736 202.342 51.2512 203.11 52.2957C203.878 53.3299 204.943 54.3027 206.285 54.8659C206.95 55.1731 207.677 55.3677 208.425 55.4598C209.183 55.5622 209.961 55.552 210.739 55.4086C212.306 55.1526 213.821 54.3539 214.999 53.1661C216.156 51.9475 216.893 50.4115 217.088 48.8346C217.201 48.0563 217.19 47.2678 217.057 46.5203C216.934 45.7728 216.709 45.0458 216.381 44.4006C215.767 43.0797 214.764 42.0454 213.699 41.3184C212.623 40.5914 211.436 40.2125 210.34 40.0691C208.118 39.7926 206.336 40.489 205.281 41.1238C204.237 41.7792 203.766 42.3219 203.725 42.281Z" fill="#F5F5F5"/>
<path d="M199.772 32.3993C199.772 32.4095 199.69 32.3583 199.526 32.2661C199.342 32.1637 199.107 32.0204 198.789 31.8463C198.124 31.4469 197.151 30.8837 195.901 30.1362L195.994 30.126C194.683 31.4981 192.963 33.3106 190.874 35.4917L190.884 35.3484C191.631 36.485 192.461 37.7445 193.352 39.086L193.393 39.1577L193.352 39.2293C192.625 40.5503 192.01 42.0556 191.611 43.7042L191.59 43.7964L191.498 43.8169C190.147 44.1548 188.672 44.5132 187.146 44.8921L187.269 44.7282C187.32 47.0629 187.361 49.541 187.412 52.142L187.269 51.9679C188.631 52.2444 190.126 52.5516 191.662 52.869L191.775 52.8895L191.805 53.0021C192.215 54.4357 192.85 55.9513 193.72 57.3849L193.782 57.4873L193.72 57.5897C193.003 58.7775 192.205 60.0882 191.406 61.4297L191.375 61.1737C193.055 62.7916 194.867 64.5324 196.721 66.3141L196.454 66.2937C197.622 65.5257 198.902 64.686 200.202 63.8361L200.315 63.7644L200.428 63.8258C201.738 64.5529 203.264 65.1775 204.872 65.5666L205.005 65.5973L205.036 65.7305C205.373 67.0924 205.732 68.5772 206.111 70.0825L205.885 69.9084C208.23 69.8674 210.749 69.8162 213.299 69.7753L213.084 69.9596C213.371 68.5772 213.678 67.0719 213.996 65.5666L214.026 65.4335L214.159 65.3925C215.624 64.9829 217.129 64.3378 218.532 63.4879L218.655 63.4162L218.767 63.4879C220.058 64.2661 221.338 65.0444 222.597 65.8124L222.31 65.8533C224.051 64.0511 225.772 62.2693 227.461 60.5183L227.43 60.7948C226.601 59.5353 225.782 58.286 224.973 57.0469L224.901 56.9343L224.963 56.8114C225.751 55.3983 226.335 53.9033 226.714 52.3673L226.744 52.2341L226.877 52.2034C228.352 51.845 229.796 51.4866 231.229 51.1385L231.066 51.3535C231.025 48.8242 230.984 46.3461 230.943 43.9397L231.107 44.1445C229.622 43.8373 228.157 43.5301 226.714 43.2229L226.591 43.1922L226.56 43.0693C226.12 41.4924 225.464 40.0178 224.655 38.6764L224.594 38.574L224.655 38.4716C225.454 37.1609 226.232 35.8911 226.99 34.6418L227.021 34.8773C225.147 33.0649 223.375 31.3445 221.696 29.7164L221.911 29.7369C220.59 30.597 219.351 31.406 218.153 32.1842L218.112 32.2661L218.03 32.2149C216.535 31.3753 215.04 30.8121 213.576 30.4434L213.484 30.4229L213.463 30.3308C213.084 28.7436 212.736 27.3202 212.408 25.9685L212.541 26.0709C209.664 26.1119 207.217 26.1426 205.128 26.1733L205.23 26.0914C204.851 27.8425 204.544 29.2761 204.288 30.4741L204.278 30.5151L204.237 30.5253C202.67 30.9657 201.564 31.4777 200.847 31.8258C200.509 31.9999 200.243 32.1433 200.049 32.2457C199.854 32.3583 199.772 32.3993 199.772 32.3993C199.772 32.389 199.854 32.3378 200.018 32.2354C200.192 32.133 200.448 31.9794 200.796 31.7849C201.503 31.406 202.609 30.8735 204.186 30.4025L204.134 30.4537C204.38 29.2556 204.667 27.8117 205.015 26.0607L205.036 25.9788H205.117C207.217 25.9378 209.664 25.8764 212.531 25.8149H212.634L212.664 25.9173C213.002 27.2588 213.35 28.6821 213.75 30.2693L213.637 30.1567C215.132 30.5253 216.658 31.0885 218.184 31.9282L218.01 31.9385C219.197 31.15 220.436 30.341 221.747 29.4706L221.86 29.3989L221.962 29.5013C223.652 31.1295 225.423 32.8293 227.308 34.6418L227.42 34.7442L227.338 34.8773C226.591 36.1266 225.812 37.3964 225.024 38.7173V38.5125C225.853 39.8745 226.519 41.39 226.98 42.9977L226.826 42.8543C228.26 43.1513 229.724 43.4585 231.219 43.7657L231.383 43.7964V43.9602C231.424 46.3666 231.475 48.8447 231.516 51.374V51.5481L231.352 51.589C229.919 51.9372 228.475 52.2956 227 52.6642L227.164 52.5004C226.775 54.0671 226.181 55.6133 225.372 57.0572L225.362 56.8217C226.171 58.0607 226.99 59.31 227.82 60.5695L227.922 60.7231L227.799 60.8562C226.109 62.6073 224.389 64.389 222.648 66.1913L222.525 66.3244L222.372 66.2322C221.102 65.4642 219.822 64.686 218.542 63.9077H218.778C217.344 64.7781 215.788 65.4335 214.292 65.8533L214.456 65.6793C214.139 67.1845 213.832 68.6796 213.545 70.0722L213.504 70.2463H213.32C210.77 70.2873 208.251 70.3282 205.906 70.3692H205.732L205.691 70.1951C205.322 68.6898 204.964 67.205 204.626 65.8431L204.79 66.0069C203.141 65.5973 201.574 64.9625 200.233 64.2149L200.458 64.2047C199.158 65.0546 197.878 65.8943 196.71 66.6623L196.567 66.7545L196.444 66.6316C194.591 64.8396 192.788 63.0885 191.119 61.4706L191.007 61.358L191.089 61.2146C191.898 59.8834 192.696 58.5727 193.413 57.3849V57.5897C192.532 56.1253 191.887 54.5689 191.478 53.1045L191.621 53.2377C190.085 52.9202 188.59 52.6028 187.238 52.3161L187.095 52.2853V52.142C187.054 49.541 187.013 47.0629 186.982 44.7282V44.5951L187.105 44.5644C188.631 44.1957 190.106 43.8373 191.468 43.5097L191.355 43.6223C191.775 41.9532 192.41 40.4274 193.157 39.0962V39.2396C192.276 37.8879 191.457 36.6181 190.72 35.4815L190.669 35.3996L190.73 35.3381C192.84 33.1775 194.58 31.3855 195.912 30.0338L195.953 29.9929L196.004 30.0236C197.233 30.7813 198.175 31.3753 198.83 31.7849C199.137 31.9794 199.383 32.133 199.557 32.2457C199.69 32.3378 199.772 32.389 199.772 32.3993Z" fill="#F5F5F5"/>
<path d="M130.99 141.261H47.1655V228.649H130.99V141.261Z" fill="#E0E0E0"/>
<path d="M125.317 141.261H41.4925V228.649H125.317V141.261Z" fill="#EBEBEB"/>
<path d="M114.053 153.006H52.7565V216.893H114.053V153.006Z" fill="#FAFAFA"/>
<path d="M52.7565 217.323C52.7974 217.375 52.2138 218.03 51.2205 219.064C50.2374 220.088 48.855 221.491 47.319 223.007C45.7728 224.522 44.3597 225.884 43.3255 226.847C42.281 227.809 41.6154 228.393 41.5744 228.342C41.5335 228.301 42.1171 227.635 43.1002 226.611C44.0832 225.587 45.4656 224.184 47.0118 222.659C48.5581 221.133 49.9712 219.781 51.0157 218.808C52.0602 217.846 52.7155 217.272 52.7565 217.323Z" fill="#E0E0E0"/>
<path d="M114.053 217.17C114.104 217.129 114.76 217.713 115.794 218.706C116.818 219.689 118.221 221.071 119.736 222.607C121.252 224.154 122.614 225.567 123.576 226.601C124.539 227.646 125.123 228.311 125.071 228.352C125.03 228.393 124.365 227.809 123.341 226.826C122.317 225.843 120.914 224.461 119.388 222.915C117.862 221.368 116.511 219.955 115.538 218.911C114.575 217.866 114.002 217.211 114.053 217.17Z" fill="#E0E0E0"/>
<path d="M113.889 153.18C113.848 153.129 114.432 152.473 115.425 151.439C116.408 150.415 117.791 149.012 119.327 147.497C120.873 145.981 122.286 144.619 123.32 143.657C124.365 142.694 125.03 142.111 125.071 142.162C125.112 142.203 124.529 142.868 123.546 143.892C122.563 144.916 121.18 146.319 119.634 147.845C118.088 149.371 116.675 150.722 115.63 151.695C114.586 152.658 113.93 153.221 113.889 153.18Z" fill="#E0E0E0"/>
<path d="M52.5926 153.334C52.5414 153.375 51.8861 152.791 50.8518 151.798C49.8278 150.815 48.425 149.432 46.9094 147.896C45.3939 146.35 44.032 144.937 43.0694 143.903C42.1069 142.858 41.5232 142.193 41.5744 142.152C41.6154 142.111 42.281 142.694 43.305 143.677C44.329 144.66 45.7318 146.043 47.2576 147.589C48.7834 149.135 50.135 150.548 51.1078 151.593C52.0704 152.627 52.6438 153.293 52.5926 153.334Z" fill="#E0E0E0"/>
<path d="M113.889 216.893C113.889 216.893 113.879 216.781 113.879 216.586C113.879 216.371 113.869 216.074 113.869 215.695C113.859 214.897 113.859 213.75 113.848 212.255C113.838 209.234 113.818 204.831 113.797 199.24C113.777 188.047 113.736 172.104 113.695 153.006L113.9 153.211C96.0614 153.221 75.1002 153.231 52.777 153.242H52.7667L52.992 153.016C52.9818 176.466 52.9715 198.41 52.9613 216.904L52.7667 216.709C71.0861 216.75 86.3437 216.781 97.0342 216.811C102.38 216.832 106.578 216.852 109.466 216.863C110.899 216.873 111.995 216.883 112.753 216.883C113.121 216.883 113.398 216.893 113.603 216.893C113.787 216.893 113.889 216.893 113.889 216.893C113.889 216.893 113.797 216.904 113.613 216.904C113.418 216.904 113.142 216.914 112.783 216.914C112.036 216.924 110.95 216.924 109.537 216.934C106.67 216.945 102.482 216.965 97.1571 216.986C86.4358 217.006 71.1373 217.047 52.7667 217.088H52.5722V216.893C52.5619 198.39 52.5517 176.456 52.5414 153.006V152.781H52.7667H52.777C75.1002 152.791 96.0512 152.801 113.9 152.811H114.104V153.016C114.063 172.165 114.022 188.16 114.002 199.373C113.981 204.943 113.961 209.336 113.951 212.347C113.94 213.832 113.93 214.968 113.93 215.757C113.93 216.125 113.92 216.412 113.92 216.627C113.889 216.801 113.889 216.893 113.889 216.893Z" fill="#E0E0E0"/>
<path d="M68.9357 179.702C68.9357 179.702 67.625 195.522 84.7565 195.522C84.7565 187.074 77.7933 180.408 68.9357 179.702Z" fill="#EBEBEB"/>
<path d="M100.28 179.712C100.28 179.712 84.4595 178.401 84.4595 195.533C92.9075 195.533 99.5738 188.559 100.28 179.712Z" fill="#EBEBEB"/>
<path d="M83.9987 171.049C83.9987 171.049 71.0758 182.651 84.7053 195.512C91.0438 188.805 90.5011 178.268 83.9987 171.049Z" fill="#E0E0E0"/>
<path d="M394.998 427.715C377.549 418.284 357.929 401.111 350.3 381.614C369.172 391.342 385.065 407.736 394.998 427.715Z" fill="#1E5BFA"/>
<path d="M393.861 398.469C376.412 389.038 356.792 371.866 349.164 352.369C368.036 362.097 383.928 378.491 393.861 398.469Z" fill="#1E5BFA"/>
<path d="M391.26 369.869C373.811 360.438 354.191 343.265 346.563 323.768C365.425 333.507 381.327 349.901 391.26 369.869Z" fill="#1E5BFA"/>
<path d="M387.441 339.835C371.251 328.038 353.833 308.265 348.57 287.867C366.131 300.155 379.955 318.638 387.441 339.835Z" fill="#1E5BFA"/>
<path d="M382.515 316.662C371.558 299.131 362.209 273.715 364.349 252.652C376.412 271.196 382.863 293.96 382.515 316.662Z" fill="#1E5BFA"/>
<path d="M385.004 327.701C389.612 305.838 400.835 278.856 416.993 263.66C412.436 287.12 401.06 309.903 385.004 327.701Z" fill="#1E5BFA"/>
<path d="M388.598 352.43C395.203 330.066 409.108 302.94 427.192 288.522C420.516 312.556 406.784 335.289 388.598 352.43Z" fill="#1E5BFA"/>
<path d="M392.561 382.546C399.165 360.182 413.071 333.056 431.155 318.638C424.479 342.682 410.757 365.414 392.561 382.546Z" fill="#1E5BFA"/>
<path d="M394.557 419.256C401.162 396.892 415.068 369.767 433.152 355.349C426.476 379.382 412.754 402.115 394.557 419.256Z" fill="#1E5BFA"/>
<path d="M382.075 312.259C382.085 312.259 382.126 312.371 382.188 312.617C382.249 312.894 382.331 313.242 382.433 313.672C382.648 314.655 382.945 316.017 383.324 317.737C384.092 321.26 385.106 326.39 386.243 332.749C387.4 339.098 388.618 346.696 389.806 355.144C390.963 363.602 392.079 372.921 392.991 382.73C393.882 392.551 394.486 401.92 394.885 410.45C395.254 418.98 395.438 426.67 395.459 433.121C395.489 439.573 395.438 444.805 395.325 448.41C395.274 450.171 395.223 451.564 395.192 452.567C395.172 453.008 395.151 453.366 395.141 453.642C395.121 453.888 395.11 454.011 395.1 454.011C395.09 454.011 395.08 453.888 395.069 453.642C395.069 453.356 395.059 452.997 395.049 452.557C395.049 451.553 395.049 450.161 395.049 448.4C395.08 444.795 395.049 439.573 394.957 433.121C394.865 426.67 394.629 418.99 394.23 410.471C393.789 401.951 393.175 392.592 392.284 382.792C391.373 372.992 390.277 363.684 389.161 355.226C388.004 346.778 386.836 339.18 385.751 332.821C384.666 326.462 383.744 321.321 383.058 317.778C382.74 316.048 382.485 314.675 382.3 313.692C382.229 313.262 382.167 312.904 382.126 312.627C382.085 312.382 382.065 312.259 382.075 312.259Z" fill="#263238"/>
<g opacity="0.3">
<g opacity="0.3">
<path opacity="0.3" d="M394.998 427.715C377.549 418.284 357.929 401.111 350.3 381.614C369.172 391.342 385.065 407.736 394.998 427.715Z" fill="black"/>
</g>
</g>
<g opacity="0.3">
<g opacity="0.3">
<path opacity="0.3" d="M393.861 398.469C376.412 389.038 356.792 371.866 349.164 352.369C368.036 362.097 383.928 378.491 393.861 398.469Z" fill="black"/>
</g>
</g>
<g opacity="0.3">
<g opacity="0.3">
<path opacity="0.3" d="M391.26 369.869C373.811 360.438 354.191 343.265 346.563 323.768C365.425 333.507 381.327 349.901 391.26 369.869Z" fill="black"/>
</g>
</g>
<g opacity="0.3">
<g opacity="0.3">
<path opacity="0.3" d="M387.441 339.835C371.251 328.038 353.833 308.265 348.57 287.867C366.131 300.155 379.955 318.638 387.441 339.835Z" fill="black"/>
</g>
</g>
<g opacity="0.3">
<g opacity="0.3">
<path opacity="0.3" d="M382.515 316.662C371.558 299.131 362.209 273.715 364.349 252.652C376.412 271.196 382.863 293.96 382.515 316.662Z" fill="black"/>
</g>
</g>
<g opacity="0.3">
<g opacity="0.3">
<path opacity="0.3" d="M385.004 327.701C389.612 305.838 400.835 278.856 416.993 263.66C412.436 287.12 401.06 309.903 385.004 327.701Z" fill="black"/>
</g>
</g>
<g opacity="0.3">
<g opacity="0.3">
<path opacity="0.3" d="M388.598 352.43C395.203 330.066 409.108 302.94 427.192 288.522C420.516 312.556 406.784 335.289 388.598 352.43Z" fill="black"/>
</g>
</g>
<g opacity="0.3">
<g opacity="0.3">
<path opacity="0.3" d="M392.561 382.546C399.165 360.182 413.071 333.056 431.155 318.638C424.479 342.682 410.757 365.414 392.561 382.546Z" fill="black"/>
</g>
</g>
<g opacity="0.3">
<g opacity="0.3">
<path opacity="0.3" d="M394.557 419.256C401.162 396.892 415.068 369.767 433.152 355.349C426.476 379.382 412.754 402.115 394.557 419.256Z" fill="black"/>
</g>
</g>
<path d="M399.411 433.623C388.792 419.605 378.9 398.858 379.044 381.051C390.666 395.848 397.906 414.546 399.411 433.623Z" fill="#1E5BFA"/>
<path d="M407.624 410.952C397.005 396.933 387.113 376.187 387.256 358.38C398.879 373.187 406.118 391.885 407.624 410.952Z" fill="#1E5BFA"/>
<path d="M414.484 388.209C403.866 374.19 393.974 353.444 394.117 335.636C405.74 350.444 412.989 369.142 414.484 388.209Z" fill="#1E5BFA"/>
<path d="M420.864 363.899C411.965 348.58 404.582 326.718 406.845 309.156C416.655 325.386 421.642 344.853 420.864 363.899Z" fill="#1E5BFA"/>
<path d="M424.253 344.361C421.202 326.748 421.837 303.759 430.06 288.604C433.644 307.425 431.585 327.26 424.253 344.361Z" fill="#1E5BFA"/>
<path d="M422.748 353.721C433.132 338.924 450.232 322.837 467.507 317.645C456.673 333.681 440.75 346.512 422.748 353.721Z" fill="#1E5BFA"/>
<path d="M417.853 373.914C429.937 359.516 449.167 344.371 467.692 340.521C455.025 356.168 437.299 368.046 417.853 373.914Z" fill="#1E5BFA"/>
<path d="M411.566 398.357C423.649 383.959 442.88 368.814 461.404 364.964C448.737 380.611 431.012 392.479 411.566 398.357Z" fill="#1E5BFA"/>
<path d="M401.695 427.029C413.778 412.631 433.009 397.486 451.533 393.636C438.876 409.272 421.151 421.151 401.695 427.029Z" fill="#1E5BFA"/>
<path d="M425.277 340.838C425.288 340.838 425.277 340.941 425.257 341.146C425.226 341.381 425.175 341.678 425.124 342.026C424.991 342.856 424.796 343.992 424.561 345.426C424.069 348.375 423.27 352.625 422.195 357.857C420.055 368.323 416.655 382.71 411.965 398.336C409.61 406.149 407.163 413.522 404.818 420.188C402.432 426.844 400.189 432.794 398.172 437.75C396.175 442.706 394.486 446.689 393.267 449.413C392.673 450.734 392.202 451.779 391.854 452.547C391.701 452.874 391.578 453.14 391.475 453.356C391.383 453.54 391.332 453.622 391.322 453.622C391.311 453.622 391.342 453.519 391.414 453.325C391.496 453.1 391.608 452.823 391.731 452.485C392.049 451.707 392.479 450.642 393.032 449.3C394.179 446.546 395.797 442.532 397.742 437.565C399.698 432.599 401.9 426.629 404.244 419.973C406.559 413.307 408.986 405.934 411.341 398.131C416.021 382.525 419.492 368.179 421.755 357.745C422.881 352.522 423.752 348.293 424.325 345.364C424.612 343.941 424.837 342.815 425.011 341.996C425.093 341.647 425.155 341.361 425.206 341.125C425.236 340.941 425.267 340.838 425.277 340.838Z" fill="#263238"/>
<path d="M416.061 490.711H378.747L371.784 439.286H423.219L416.061 490.711Z" fill="#455A64"/>
<path d="M427.848 438.764H367.165V446.761H427.848V438.764Z" fill="#455A64"/>
<path d="M427.837 446.894C427.837 447.038 414.413 447.16 397.844 447.16C381.276 447.16 367.852 447.038 367.852 446.894C367.852 446.751 381.276 446.628 397.844 446.628C414.413 446.628 427.837 446.741 427.837 446.894Z" fill="#263238"/>
<path d="M342.446 490.035H178.657C164.321 490.035 152.699 478.413 152.699 464.077V88.8627C152.699 74.5267 164.321 62.9043 178.657 62.9043H342.446C356.782 62.9043 368.404 74.5267 368.404 88.8627V464.077C368.404 478.423 356.782 490.035 342.446 490.035Z" fill="#455A64"/>
<path d="M156.109 463.882V89.0675C156.109 76.4928 166.298 66.304 178.872 66.304H342.252C354.826 66.304 365.015 76.4928 365.015 89.0675V463.872C365.015 476.447 354.826 486.635 342.252 486.635H178.862C166.298 486.635 156.109 476.447 156.109 463.882Z" fill="#263238"/>
<path d="M245.064 79.7696C243.743 79.7696 242.668 78.6944 242.668 77.3735C242.668 76.0525 243.743 74.9773 245.064 74.9773H275.917C277.238 74.9773 278.313 76.0525 278.313 77.3735C278.313 78.6944 277.238 79.7696 275.917 79.7696H245.064Z" fill="#455A64"/>
<path d="M228.526 79.7696C227.205 79.7696 226.13 78.6944 226.13 77.3735C226.13 76.0525 227.205 74.9773 228.526 74.9773C229.847 74.9773 230.922 76.0525 230.922 77.3735C230.922 78.6944 229.847 79.7696 228.526 79.7696Z" fill="#455A64"/>
<path d="M237.353 79.7696C236.032 79.7696 234.957 78.6944 234.957 77.3735C234.957 76.0525 236.032 74.9773 237.353 74.9773C238.674 74.9773 239.749 76.0525 239.749 77.3735C239.749 78.6944 238.674 79.7696 237.353 79.7696Z" fill="#455A64"/>
<path d="M292.588 79.7696C291.267 79.7696 290.191 78.6944 290.191 77.3735C290.191 76.0525 291.267 74.9773 292.588 74.9773C293.908 74.9773 294.984 76.0525 294.984 77.3735C294.984 78.6944 293.908 79.7696 292.588 79.7696Z" fill="#455A64"/>
<path d="M283.761 79.7696C282.44 79.7696 281.364 78.6944 281.364 77.3735C281.364 76.0525 282.44 74.9773 283.761 74.9773C285.082 74.9773 286.157 76.0525 286.157 77.3735C286.157 78.6944 285.082 79.7696 283.761 79.7696Z" fill="#455A64"/>
<path d="M345.324 69.1917H307.988C305.172 69.1917 302.694 71.0553 301.906 73.7587L299.53 81.9404C298.65 84.9715 295.875 87.0502 292.721 87.0502H228.393C225.239 87.0502 222.464 84.9612 221.583 81.9404L219.208 73.7587C218.419 71.0553 215.941 69.1917 213.125 69.1917H184.084C171.315 69.1917 160.963 79.5443 160.963 92.3136V465.347C160.963 473.979 167.956 480.973 176.589 480.973H346.419C353.997 480.973 360.141 474.829 360.141 467.251V84.0089C360.141 75.8272 353.505 69.1917 345.324 69.1917Z" fill="#FAFAFA"/>
<path d="M353.475 76.0832C349.286 71.8336 343.46 69.2019 337.019 69.2019H303.227L298.045 87.0605H223.068L217.887 69.2019H176.077C167.731 69.2019 160.973 75.9705 160.973 84.3059V354.406L161.567 354.478C180.982 356.588 199.864 344.381 210.524 328.018C221.184 311.654 224.942 291.789 226.816 272.353C228.69 252.918 228.925 233.206 233.492 214.221C241.162 182.344 261.366 153.661 288.809 135.721C302.356 126.863 317.522 120.556 330.435 110.797C341.791 102.205 351.57 89.9277 353.475 76.0832Z" fill="#F5F5F5"/>
<path d="M360.141 471.603V352.092C329.472 355.195 300.78 373.77 285.368 400.466C271.473 424.54 268.718 454.676 277.596 480.983H350.771C355.942 480.973 360.141 476.785 360.141 471.603Z" fill="#F5F5F5"/>
<path d="M368.394 155.75H368.712C369.316 155.75 369.807 156.242 369.807 156.846V203.756C369.807 204.36 369.316 204.851 368.712 204.851H368.394V155.75Z" fill="#455A64"/>
<path d="M152.709 185.999H152.33C151.726 185.999 151.235 186.491 151.235 187.095V215.992C151.235 216.596 151.726 217.088 152.33 217.088H152.709V185.999Z" fill="#455A64"/>
<path d="M152.709 145.398H152.33C151.726 145.398 151.235 145.889 151.235 146.493V175.391C151.235 175.995 151.726 176.486 152.33 176.486H152.709V145.398Z" fill="#455A64"/>
<path d="M152.709 114.924H152.412C151.88 114.924 151.439 115.354 151.439 115.896V128.41C151.439 128.942 151.869 129.382 152.412 129.382H152.709V114.924Z" fill="#455A64"/>
<path d="M313.272 83.0874H311.788V85.1661H313.272V83.0874Z" fill="#263238"/>
<path d="M315.689 82.1658H314.204V85.1661H315.689V82.1658Z" fill="#263238"/>
<path d="M318.095 81.4695H316.611V85.1661H318.095V81.4695Z" fill="#263238"/>
<path d="M320.512 80.1279H319.027V85.166H320.512V80.1279Z" fill="#263238"/>
<path d="M342.374 85.2684H334.94C334.643 85.2684 334.408 85.0329 334.408 84.736V81.0393C334.408 80.7424 334.643 80.5068 334.94 80.5068H342.385C342.426 80.5068 342.456 80.5171 342.477 80.5478C342.497 80.5785 342.518 80.6092 342.518 80.64V81.8585H343.316C343.388 81.8585 343.45 81.92 343.45 81.9916V83.7734C343.45 83.8451 343.388 83.9065 343.316 83.9065H342.518V85.1251C342.508 85.207 342.456 85.2684 342.374 85.2684ZM342.241 80.7833H334.94C334.797 80.7833 334.684 80.896 334.684 81.0393V84.736C334.684 84.8793 334.797 84.992 334.94 84.992H342.241V83.7734C342.241 83.7017 342.303 83.6403 342.374 83.6403H343.173V82.135H342.374C342.303 82.135 342.241 82.0736 342.241 82.0019V80.7833Z" fill="#263238"/>
<path d="M335.288 84.398V81.3875H341.637V82.7494V83.0361V84.398H335.288Z" fill="#263238"/>
<path d="M327.598 84.9919C327.598 84.695 327.352 84.4492 327.055 84.4492C326.758 84.4492 326.513 84.695 326.513 84.9919C326.513 85.2889 326.758 85.5347 327.055 85.5347C327.352 85.5347 327.598 85.2889 327.598 84.9919Z" fill="#263238"/>
<path d="M325.202 83.6813L325.898 84.3776C326.195 84.0807 326.605 83.8964 327.055 83.8964C327.506 83.8964 327.916 84.0807 328.212 84.3776L328.909 83.6813C328.438 83.2103 327.782 82.9133 327.055 82.9133C326.328 82.9133 325.673 83.2 325.202 83.6813Z" fill="#263238"/>
<path d="M327.055 81.3669C325.908 81.3669 324.864 81.838 324.106 82.5855L324.803 83.2818C325.376 82.7084 326.175 82.35 327.055 82.35C327.936 82.35 328.735 82.7084 329.308 83.2818L330.004 82.5855C329.247 81.8277 328.202 81.3669 327.055 81.3669Z" fill="#263238"/>
<path d="M322.98 81.4591L323.676 82.1555C324.547 81.2851 325.734 80.7526 327.055 80.7526C328.376 80.7526 329.574 81.2851 330.435 82.1555L331.131 81.4591C330.086 80.4147 328.643 79.7695 327.055 79.7695C325.458 79.7695 324.024 80.4147 322.98 81.4591Z" fill="#263238"/>
<path d="M307.437 239.872C312.911 226.414 306.439 211.066 292.982 205.592C279.524 200.117 264.176 206.589 258.701 220.047C253.227 233.505 259.699 248.853 273.157 254.327C286.615 259.802 301.963 253.33 307.437 239.872Z" fill="#F5F5F5"/>
<path d="M190.167 177.295C190.167 170.609 193.679 166.625 198.533 166.625C203.387 166.625 206.93 170.609 206.93 177.295C206.93 183.982 203.387 187.965 198.533 187.965C193.669 187.965 190.167 183.982 190.167 177.295ZM204.708 177.295C204.708 171.684 202.189 168.602 198.533 168.602C194.877 168.602 192.358 171.694 192.358 177.295C192.358 182.907 194.877 185.989 198.533 185.989C202.189 185.989 204.708 182.897 204.708 177.295Z" fill="#263238"/>
<path d="M225.157 177.111C225.157 184.248 221.256 187.965 215.562 187.965C213.678 187.965 211.907 187.638 210.586 186.829L211.456 185.088C212.531 185.805 213.975 186.081 215.532 186.081C220.058 186.081 222.966 183.173 222.966 177.48C222.966 176.998 222.935 176.404 222.874 175.77C221.829 178.074 219.361 179.364 216.453 179.364C212.285 179.364 209.377 176.906 209.377 173.066C209.377 169.134 212.47 166.615 216.545 166.615C222.126 166.615 225.157 170.486 225.157 177.111ZM222.188 172.943C222.188 170.639 220.273 168.448 216.637 168.448C213.606 168.448 211.507 170.219 211.507 173.005C211.507 175.759 213.545 177.531 216.781 177.531C219.996 177.531 222.188 175.555 222.188 172.943Z" fill="#263238"/>
<path d="M228.301 173.517C228.301 172.585 229.018 171.899 229.888 171.899C230.758 171.899 231.506 172.585 231.506 173.517C231.506 174.449 230.758 175.165 229.888 175.165C229.028 175.165 228.301 174.438 228.301 173.517ZM228.301 186.286C228.301 185.354 229.018 184.668 229.888 184.668C230.758 184.668 231.506 185.354 231.506 186.286C231.506 187.218 230.758 187.935 229.888 187.935C229.028 187.935 228.301 187.218 228.301 186.286Z" fill="#263238"/>
<path d="M234.629 177.295C234.629 170.609 238.141 166.625 242.995 166.625C247.849 166.625 251.392 170.609 251.392 177.295C251.392 183.982 247.849 187.965 242.995 187.965C238.141 187.965 234.629 183.982 234.629 177.295ZM249.17 177.295C249.17 171.684 246.651 168.602 242.995 168.602C239.34 168.602 236.82 171.694 236.82 177.295C236.82 182.907 239.34 185.989 242.995 185.989C246.651 185.989 249.17 182.897 249.17 177.295Z" fill="#263238"/>
<path d="M254.484 177.295C254.484 170.609 257.997 166.625 262.851 166.625C267.704 166.625 271.247 170.609 271.247 177.295C271.247 183.982 267.704 187.965 262.851 187.965C257.987 187.965 254.484 183.982 254.484 177.295ZM269.025 177.295C269.025 171.684 266.506 168.602 262.851 168.602C259.195 168.602 256.676 171.694 256.676 177.295C256.676 182.907 259.195 185.989 262.851 185.989C266.506 185.989 269.025 182.897 269.025 177.295Z" fill="#263238"/>
<path d="M330.281 142.51H195.113C187.689 142.51 181.668 136.489 181.668 129.065C181.668 121.641 187.689 115.62 195.113 115.62H330.281C337.705 115.62 343.726 121.641 343.726 129.065C343.726 136.489 337.705 142.51 330.281 142.51Z" fill="#E0E0E0"/>
<path d="M326.769 134.195C323.942 134.195 321.638 131.891 321.638 129.065C321.638 126.239 323.942 123.935 326.769 123.935C329.595 123.935 331.899 126.239 331.899 129.065C331.899 131.891 329.605 134.195 326.769 134.195ZM326.769 124.959C324.506 124.959 322.662 126.802 322.662 129.065C322.662 131.328 324.506 133.171 326.769 133.171C329.032 133.171 330.875 131.328 330.875 129.065C330.875 126.802 329.042 124.959 326.769 124.959Z" fill="#263238"/>
<path d="M333.66 135.526C333.537 135.526 333.425 135.485 333.322 135.404L329.953 132.454C329.738 132.27 329.718 131.942 329.902 131.727C330.086 131.512 330.414 131.492 330.629 131.676L333.998 134.625C334.213 134.81 334.234 135.137 334.049 135.352C333.937 135.465 333.804 135.526 333.66 135.526Z" fill="#263238"/>
<path d="M325.99 185.672C325.99 185.651 326.369 185.713 327.076 185.62C327.772 185.528 328.817 185.242 329.851 184.412C330.363 184.003 330.865 183.46 331.244 182.753C331.448 182.415 331.581 182.016 331.704 181.606C331.807 181.187 331.858 180.746 331.858 180.296C331.848 179.835 331.786 179.364 331.653 178.903C331.52 178.432 331.325 177.971 331.059 177.531C330.537 176.65 329.738 175.851 328.714 175.391L328.663 175.37V175.309C328.724 173.906 327.916 172.39 326.523 171.684C325.14 170.977 323.236 171.243 322.058 172.431L321.925 172.564L321.884 172.39C321.413 170.138 319.642 168.059 317.307 167.147C316.703 166.922 316.088 166.738 315.453 166.687C315.3 166.666 315.136 166.646 314.982 166.656C314.829 166.656 314.665 166.646 314.511 166.646C314.204 166.676 313.887 166.676 313.58 166.748C312.351 166.963 311.235 167.557 310.323 168.315C309.422 169.093 308.705 170.045 308.244 171.08C307.794 172.114 307.579 173.22 307.63 174.275L307.64 174.397L307.517 174.367C306.268 174.059 304.968 174.275 303.913 174.797C303.38 175.063 302.909 175.391 302.49 175.759C302.08 176.138 301.742 176.568 301.455 177.019C301.199 177.48 300.995 177.951 300.892 178.432C300.79 178.913 300.749 179.395 300.79 179.855C300.851 180.777 301.148 181.586 301.537 182.251C302.305 183.593 303.37 184.299 304.118 184.637C304.876 184.975 305.336 185.006 305.326 185.037C305.326 185.037 305.295 185.037 305.244 185.027C305.183 185.016 305.101 184.996 305.009 184.986C304.906 184.965 304.773 184.945 304.62 184.883C304.466 184.832 304.292 184.791 304.097 184.689C303.34 184.361 302.254 183.665 301.455 182.303C301.056 181.637 300.749 180.808 300.677 179.866C300.626 179.395 300.677 178.903 300.769 178.411C300.882 177.91 301.076 177.418 301.343 176.947C301.629 176.486 301.978 176.046 302.397 175.647C302.828 175.258 303.319 174.92 303.862 174.653C304.947 174.121 306.278 173.885 307.579 174.203L307.466 174.295C307.405 173.21 307.62 172.073 308.081 171.018C308.552 169.963 309.279 168.98 310.211 168.182C311.153 167.403 312.289 166.789 313.559 166.564C313.876 166.492 314.194 166.482 314.522 166.451C314.685 166.451 314.849 166.461 315.003 166.461C315.167 166.461 315.331 166.472 315.484 166.502C316.14 166.564 316.774 166.748 317.389 166.984C319.795 167.915 321.597 170.045 322.089 172.37L321.925 172.319C323.174 171.069 325.161 170.803 326.615 171.54C328.079 172.288 328.909 173.865 328.847 175.339L328.796 175.258C329.851 175.749 330.67 176.568 331.203 177.48C331.469 177.94 331.663 178.411 331.796 178.893C331.93 179.374 331.991 179.855 332.001 180.326C332.001 180.797 331.94 181.248 331.837 181.678C331.715 182.098 331.571 182.497 331.356 182.845C330.967 183.552 330.445 184.105 329.923 184.525C328.858 185.354 327.803 185.631 327.096 185.713C326.738 185.754 326.461 185.754 326.287 185.733C326.083 185.682 325.99 185.672 325.99 185.672Z" fill="#263238"/>
<path d="M326.513 186.225C326.4 186.225 326.308 186.225 326.216 186.214C326.021 186.204 325.919 186.184 325.919 186.184C325.724 186.153 325.56 186.02 325.499 185.835C325.437 185.651 325.489 185.446 325.632 185.313C325.796 185.16 325.97 185.16 326.113 185.17C326.257 185.17 326.564 185.18 327.004 185.129C327.629 185.047 328.581 184.781 329.523 184.023C330.056 183.603 330.476 183.091 330.793 182.528C330.998 182.18 331.121 181.791 331.213 181.483C331.305 181.105 331.346 180.705 331.346 180.316C331.336 179.876 331.264 179.446 331.162 179.057C331.039 178.616 330.854 178.196 330.619 177.797C330.107 176.937 329.359 176.251 328.509 175.862C328.315 175.77 328.151 175.555 328.161 175.35C328.223 174.029 327.455 172.739 326.298 172.155C325.079 171.53 323.41 171.817 322.427 172.81L322.304 172.943C322.171 173.076 321.976 173.128 321.792 173.076C321.608 173.025 321.475 172.872 321.434 172.687L321.393 172.513C320.952 170.394 319.273 168.479 317.123 167.639C316.457 167.393 315.914 167.25 315.412 167.209C315.249 167.188 315.116 167.178 314.993 167.178H314.798C314.706 167.178 314.614 167.168 314.532 167.178L314.307 167.199C314.102 167.209 313.907 167.229 313.702 167.27C312.627 167.455 311.593 167.956 310.651 168.735C309.821 169.451 309.146 170.342 308.705 171.315C308.285 172.278 308.091 173.302 308.142 174.275L308.152 174.397C308.163 174.561 308.091 174.715 307.968 174.817C307.845 174.92 307.681 174.961 307.517 174.92L307.395 174.889C306.34 174.633 305.183 174.766 304.138 175.278C303.667 175.514 303.227 175.811 302.828 176.169C302.479 176.497 302.162 176.886 301.896 177.316C301.66 177.736 301.486 178.166 301.394 178.575C301.302 179.046 301.271 179.466 301.302 179.835C301.353 180.603 301.588 181.35 301.978 182.016C302.735 183.327 303.77 183.941 304.323 184.197C304.804 184.412 305.152 184.494 305.316 184.525C305.459 184.555 305.633 184.596 305.746 184.791C305.818 184.914 305.838 185.057 305.807 185.19C305.736 185.446 305.408 185.6 305.142 185.559L304.896 185.518C304.742 185.487 304.589 185.457 304.425 185.395L304.312 185.354C304.169 185.313 304.015 185.262 303.852 185.18C303.206 184.904 301.926 184.177 300.995 182.6C300.513 181.791 300.216 180.869 300.145 179.947C300.093 179.476 300.124 178.944 300.247 178.35C300.37 177.807 300.575 177.275 300.882 176.732C301.21 176.2 301.589 175.729 302.029 175.309C302.51 174.868 303.043 174.51 303.606 174.223C304.66 173.701 305.818 173.486 306.934 173.599C306.975 172.667 307.2 171.725 307.599 170.834C308.111 169.687 308.89 168.653 309.862 167.813C310.968 166.891 312.207 166.298 313.457 166.083C313.682 166.031 313.948 166.011 314.214 165.99L314.45 165.97C314.604 165.96 314.716 165.97 314.829 165.97H314.982C315.177 165.97 315.351 165.98 315.546 166.011C316.129 166.062 316.774 166.226 317.553 166.513C319.764 167.373 321.556 169.216 322.314 171.356C323.656 170.516 325.427 170.383 326.83 171.1C328.294 171.848 329.267 173.373 329.339 174.981C330.26 175.493 331.069 176.282 331.622 177.234C331.899 177.715 332.114 178.227 332.268 178.76C332.401 179.241 332.483 179.773 332.493 180.326C332.493 180.808 332.442 181.309 332.319 181.811C332.155 182.385 331.991 182.774 331.786 183.122C331.407 183.808 330.875 184.433 330.22 184.934C329.062 185.846 327.905 186.132 327.137 186.225C326.912 186.204 326.697 186.225 326.513 186.225Z" fill="#263238"/>
<path d="M313.846 182.006C313.897 182.036 313.262 183.183 312.422 184.566C311.593 185.948 310.876 187.054 310.825 187.023C310.774 186.993 311.409 185.846 312.248 184.463C313.088 183.081 313.795 181.975 313.846 182.006Z" fill="#263238"/>
<path d="M310.866 187.576C310.774 187.576 310.682 187.525 310.569 187.464C310.077 187.167 310.077 187.075 311.808 184.197C313.375 181.596 313.498 181.566 313.713 181.514C313.846 181.484 313.989 181.504 314.102 181.576C314.214 181.647 314.307 181.76 314.337 181.893C314.388 182.108 314.419 182.231 312.852 184.842C311.532 187.034 311.183 187.576 310.866 187.576Z" fill="#263238"/>
<path d="M318.566 182.006C318.618 182.036 317.983 183.183 317.143 184.566C316.314 185.948 315.597 187.054 315.546 187.023C315.494 186.993 316.129 185.846 316.969 184.463C317.809 183.081 318.515 181.975 318.566 182.006Z" fill="#263238"/>
<path d="M315.556 187.535C315.464 187.535 315.372 187.515 315.29 187.464C314.808 187.167 314.808 187.075 316.539 184.207C318.106 181.606 318.228 181.576 318.444 181.514C318.577 181.484 318.72 181.504 318.833 181.576C319.314 181.873 319.314 181.965 317.583 184.832C316.017 187.433 315.894 187.464 315.679 187.525C315.638 187.525 315.597 187.535 315.556 187.535Z" fill="#263238"/>
<path d="M323.287 182.006C323.338 182.036 322.703 183.183 321.864 184.566C321.034 185.948 320.317 187.054 320.266 187.023C320.215 186.993 320.85 185.846 321.69 184.463C322.529 183.081 323.236 181.975 323.287 182.006Z" fill="#263238"/>
<path d="M320.307 187.576C320.215 187.576 320.123 187.525 320.01 187.464C319.519 187.167 319.519 187.075 321.249 184.197C322.816 181.596 322.939 181.566 323.154 181.514C323.287 181.484 323.43 181.504 323.543 181.576C323.656 181.647 323.748 181.76 323.779 181.893C323.83 182.108 323.86 182.231 322.294 184.842C320.983 187.034 320.625 187.576 320.307 187.576Z" fill="#263238"/>
<path d="M308.378 189.041C308.429 189.071 307.794 190.218 306.954 191.601C306.125 192.983 305.408 194.089 305.357 194.058C305.306 194.028 305.94 192.881 306.78 191.498C307.62 190.106 308.326 189.01 308.378 189.041Z" fill="#263238"/>
<path d="M305.367 194.56C305.275 194.56 305.183 194.54 305.101 194.488C304.988 194.417 304.896 194.304 304.865 194.171C304.814 193.956 304.783 193.833 306.35 191.222C308.07 188.355 308.152 188.303 308.644 188.59C309.125 188.887 309.125 188.979 307.395 191.846C305.828 194.447 305.705 194.478 305.49 194.54C305.449 194.56 305.408 194.56 305.367 194.56Z" fill="#263238"/>
<path d="M313.098 189.04C313.149 189.071 312.515 190.218 311.675 191.6C310.845 192.983 310.129 194.089 310.077 194.058C310.026 194.027 310.661 192.88 311.501 191.498C312.34 190.105 313.057 189.01 313.098 189.04Z" fill="#263238"/>
<path d="M310.088 194.56C309.996 194.56 309.903 194.539 309.821 194.488C309.709 194.416 309.617 194.304 309.586 194.171C309.535 193.956 309.504 193.833 311.071 191.222C312.801 188.344 312.873 188.303 313.364 188.59C313.364 188.59 313.364 188.59 313.375 188.59C313.856 188.887 313.846 188.979 312.125 191.846C310.559 194.447 310.436 194.478 310.221 194.539C310.17 194.56 310.129 194.56 310.088 194.56Z" fill="#263238"/>
<path d="M317.819 189.041C317.87 189.071 317.235 190.218 316.396 191.601C315.566 192.983 314.849 194.089 314.798 194.058C314.747 194.028 315.382 192.881 316.221 191.498C317.061 190.106 317.778 189.01 317.819 189.041Z" fill="#263238"/>
<path d="M314.808 194.56C314.716 194.56 314.624 194.54 314.542 194.488C314.429 194.417 314.337 194.304 314.307 194.171C314.255 193.956 314.225 193.833 315.791 191.222C317.512 188.355 317.594 188.303 318.085 188.59C318.566 188.887 318.566 188.979 316.836 191.846C315.269 194.447 315.146 194.478 314.931 194.54C314.89 194.56 314.849 194.56 314.808 194.56Z" fill="#263238"/>
<path d="M322.755 189.143C322.806 189.174 322.171 190.321 321.331 191.703C320.502 193.085 319.785 194.191 319.734 194.161C319.683 194.13 320.317 192.983 321.157 191.601C321.987 190.218 322.703 189.112 322.755 189.143Z" fill="#263238"/>
<path d="M319.775 194.714C319.683 194.714 319.59 194.662 319.478 194.601C318.986 194.304 318.986 194.212 320.717 191.334C322.284 188.733 322.406 188.703 322.621 188.652C322.755 188.621 322.898 188.641 323.011 188.713C323.123 188.785 323.215 188.897 323.246 189.03C323.297 189.245 323.328 189.368 321.761 191.98C320.44 194.181 320.092 194.714 319.775 194.714Z" fill="#263238"/>
<path d="M241.674 403.087C244.072 403.087 246.016 401.143 246.016 398.746C246.016 396.348 244.072 394.404 241.674 394.404C239.276 394.404 237.332 396.348 237.332 398.746C237.332 401.143 239.276 403.087 241.674 403.087Z" fill="#EBEBEB"/>
<path d="M256.184 403.087C258.582 403.087 260.526 401.143 260.526 398.746C260.526 396.348 258.582 394.404 256.184 394.404C253.786 394.404 251.843 396.348 251.843 398.746C251.843 401.143 253.786 403.087 256.184 403.087Z" fill="#E0E0E0"/>
<path d="M270.694 403.087C273.092 403.087 275.036 401.143 275.036 398.746C275.036 396.348 273.092 394.404 270.694 394.404C268.297 394.404 266.353 396.348 266.353 398.746C266.353 401.143 268.297 403.087 270.694 403.087Z" fill="#E0E0E0"/>
<path d="M285.204 403.087C287.602 403.087 289.546 401.143 289.546 398.746C289.546 396.348 287.602 394.404 285.204 394.404C282.807 394.404 280.863 396.348 280.863 398.746C280.863 401.143 282.807 403.087 285.204 403.087Z" fill="#E0E0E0"/>
<path d="M205.507 455.301H189.112C183.982 455.301 179.825 451.144 179.825 446.013V429.619C179.825 424.489 183.982 420.332 189.112 420.332H205.507C210.637 420.332 214.794 424.489 214.794 429.619V446.013C214.794 451.144 210.637 455.301 205.507 455.301Z" fill="#1E5BFA"/>
<path d="M248.545 454.974H233.267C227.83 454.974 223.427 450.57 223.427 445.133V429.855C223.427 424.417 227.83 420.014 233.267 420.014H248.545C253.983 420.014 258.386 424.417 258.386 429.855V445.133C258.386 450.57 253.983 454.974 248.545 454.974Z" fill="#E0E0E0"/>
<path d="M291.574 454.656H277.402C271.657 454.656 266.998 449.997 266.998 444.252V430.08C266.998 424.335 271.657 419.676 277.402 419.676H291.574C297.318 419.676 301.978 424.335 301.978 430.08V444.252C301.978 449.997 297.318 454.656 291.574 454.656Z" fill="#455A64"/>
<path d="M335.043 455.301H321.116C315.3 455.301 310.589 450.591 310.589 444.774V430.848C310.589 425.032 315.3 420.321 321.116 420.321H335.043C340.859 420.321 345.569 425.032 345.569 430.848V444.774C345.569 450.591 340.859 455.301 335.043 455.301Z" fill="#263238"/>
<path d="M205.588 379.597H189.03C183.951 379.597 179.825 375.48 179.825 370.391V353.833C179.825 348.754 183.941 344.627 189.03 344.627H205.588C210.668 344.627 214.794 348.744 214.794 353.833V370.391C214.794 375.48 210.678 379.597 205.588 379.597Z" fill="#455A64"/>
<path d="M247.593 379.269H234.209C228.25 379.269 223.416 374.436 223.416 368.476V355.093C223.416 349.133 228.25 344.3 234.209 344.3H247.593C253.553 344.3 258.386 349.133 258.386 355.093V368.476C258.386 374.436 253.553 379.269 247.593 379.269Z" fill="#263238"/>
<path d="M292.424 378.941H276.552C271.278 378.941 266.998 374.661 266.998 369.388V353.516C266.998 348.242 271.278 343.962 276.552 343.962H292.424C297.697 343.962 301.978 348.242 301.978 353.516V369.388C301.978 374.671 297.697 378.941 292.424 378.941Z" fill="#E0E0E0"/>
<path d="M335.124 378.624H321.044C315.279 378.624 310.6 373.944 310.6 368.179V354.099C310.6 348.334 315.279 343.654 321.044 343.654H335.124C340.89 343.654 345.569 348.334 345.569 354.099V368.179C345.569 373.944 340.89 378.624 335.124 378.624Z" fill="#1E5BFA"/>
<path d="M193.546 355.881C194.109 355.543 194.703 355.287 195.308 355.113L195.676 353.362L198.625 353.311L199.045 355.041C199.66 355.195 200.264 355.43 200.837 355.748L202.332 354.775L204.452 356.823L203.53 358.349C203.868 358.912 204.124 359.506 204.298 360.11L206.049 360.479L206.1 363.428L204.37 363.848C204.216 364.462 203.981 365.066 203.663 365.64L204.636 367.135L202.588 369.254L201.062 368.333C200.499 368.671 199.905 368.927 199.301 369.101L198.932 370.852L195.983 370.903L195.564 369.173C194.949 369.019 194.345 368.783 193.772 368.466L192.277 369.449L190.157 367.401L191.078 365.875C190.741 365.312 190.485 364.718 190.31 364.114L188.559 363.745L188.508 360.796L190.239 360.366C190.392 359.752 190.628 359.148 190.945 358.574L189.973 357.079L192.021 354.959L193.546 355.881ZM194.54 359.445C193.065 360.97 193.106 363.407 194.632 364.882C196.157 366.357 198.595 366.316 200.069 364.79C201.544 363.264 201.503 360.827 199.977 359.352C198.451 357.868 196.014 357.909 194.54 359.445Z" fill="white"/>
<path d="M276.337 445.655L277.606 440.904C276.89 439.603 276.5 438.139 276.5 436.664C276.5 431.821 280.443 427.889 285.276 427.889C290.12 427.889 294.052 431.831 294.052 436.664C294.052 441.508 290.109 445.44 285.276 445.44C283.822 445.44 282.388 445.071 281.108 444.375L276.337 445.655ZM281.354 442.593L281.651 442.778C282.757 443.433 284.017 443.781 285.286 443.781C289.208 443.781 292.403 440.586 292.403 436.664C292.403 432.742 289.208 429.548 285.286 429.548C281.364 429.548 278.17 432.742 278.17 436.664C278.17 437.965 278.528 439.235 279.214 440.351L279.398 440.658L278.692 443.31L281.354 442.593Z" fill="white"/>
<path fill-rule="evenodd" clip-rule="evenodd" d="M288.451 437.934C288.092 437.719 287.621 437.473 287.191 437.647C286.863 437.781 286.659 438.293 286.444 438.549C286.331 438.682 286.208 438.702 286.034 438.641C284.805 438.149 283.873 437.33 283.197 436.204C283.085 436.03 283.105 435.886 283.238 435.733C283.443 435.497 283.699 435.221 283.75 434.893C283.802 434.565 283.658 434.186 283.515 433.9C283.341 433.531 283.156 433.009 282.778 432.794C282.44 432.599 281.989 432.712 281.692 432.958C281.17 433.388 280.914 434.053 280.924 434.709C280.924 434.893 280.945 435.087 280.996 435.262C281.098 435.702 281.303 436.101 281.528 436.49C281.702 436.777 281.887 437.064 282.081 437.34C282.737 438.231 283.556 439.009 284.498 439.583C284.969 439.87 285.481 440.126 286.003 440.3C286.597 440.494 287.119 440.699 287.754 440.576C288.42 440.453 289.075 440.033 289.341 439.388C289.423 439.194 289.454 438.989 289.413 438.784C289.352 438.374 288.788 438.129 288.451 437.934Z" fill="white"/>
<path fill-rule="evenodd" clip-rule="evenodd" d="M203.479 439.921C202.793 439.511 201.902 439.05 201.093 439.378C200.468 439.634 200.079 440.607 199.68 441.098C199.475 441.354 199.229 441.395 198.912 441.262C196.588 440.33 194.796 438.784 193.516 436.644C193.3 436.306 193.341 436.05 193.597 435.743C193.987 435.282 194.478 434.77 194.58 434.156C194.683 433.541 194.396 432.824 194.14 432.271C193.812 431.575 193.454 430.572 192.748 430.172C192.102 429.804 191.252 430.008 190.679 430.479C189.686 431.288 189.204 432.558 189.225 433.807C189.225 434.166 189.276 434.524 189.358 434.862C189.563 435.692 189.942 436.46 190.372 437.197C190.7 437.75 191.048 438.293 191.427 438.805C192.676 440.494 194.222 441.969 196.014 443.064C196.915 443.617 197.878 444.099 198.871 444.426C199.987 444.795 200.991 445.184 202.199 444.949C203.469 444.703 204.718 443.925 205.22 442.706C205.373 442.348 205.445 441.938 205.363 441.559C205.189 440.771 204.124 440.3 203.479 439.921Z" fill="white"/>
<path d="M333.558 432.22C332.995 432.22 332.534 432.681 332.534 433.244C332.534 433.807 332.995 434.268 333.558 434.268C334.121 434.268 334.582 433.807 334.582 433.244C334.582 432.671 334.121 432.22 333.558 432.22Z" fill="white"/>
<path d="M329.011 433.234C326.646 433.234 324.721 435.159 324.721 437.524C324.721 439.89 326.646 441.815 329.011 441.815C331.377 441.815 333.302 439.89 333.302 437.524C333.302 435.159 331.377 433.234 329.011 433.234ZM329.011 440.269C327.496 440.269 326.267 439.04 326.267 437.524C326.267 436.009 327.496 434.78 329.011 434.78C330.527 434.78 331.756 436.009 331.756 437.524C331.766 439.04 330.527 440.269 329.011 440.269Z" fill="white"/>
<path d="M332.421 446.536H325.468C322.58 446.536 320.236 444.191 320.236 441.303V434.35C320.236 431.462 322.58 429.117 325.468 429.117H332.421C335.309 429.117 337.654 431.462 337.654 434.35V441.303C337.654 444.18 335.309 446.536 332.421 446.536ZM325.468 430.746C323.482 430.746 321.874 432.353 321.874 434.34V441.293C321.874 443.279 323.482 444.887 325.468 444.887H332.421C334.408 444.887 336.015 443.279 336.015 441.293V434.34C336.015 432.353 334.397 430.746 332.421 430.746H325.468Z" fill="white"/>
<path d="M233.165 446.003C232.96 446.003 232.765 445.921 232.612 445.778C232.305 445.471 232.305 444.979 232.612 444.682L236.769 440.525C234.527 437.729 234.742 433.592 237.292 431.053C238.633 429.711 240.415 428.974 242.319 428.974C244.214 428.974 246.006 429.711 247.347 431.053C250.122 433.828 250.122 438.333 247.347 441.108C246.006 442.45 244.224 443.187 242.319 443.187C240.681 443.187 239.145 442.644 237.875 441.62L233.718 445.778C233.564 445.932 233.37 446.003 233.165 446.003ZM242.309 430.531C240.824 430.531 239.432 431.104 238.377 432.159C237.332 433.203 236.749 434.596 236.749 436.081C236.749 437.565 237.322 438.958 238.377 440.003C239.421 441.047 240.824 441.631 242.309 441.631C243.794 441.631 245.187 441.057 246.231 440.003C247.276 438.958 247.859 437.565 247.859 436.081C247.859 434.596 247.286 433.203 246.231 432.159C245.187 431.104 243.794 430.531 242.309 430.531Z" fill="white"/>
<path d="M265.052 197.908C265.052 198.052 248.648 198.175 228.413 198.175C208.169 198.175 191.775 198.052 191.775 197.908C191.775 197.765 208.179 197.642 228.413 197.642C248.648 197.642 265.052 197.765 265.052 197.908Z" fill="#263238"/>
<path d="M242.422 361.605C243.917 360.98 244.972 359.444 244.982 357.632C244.992 355.256 243.2 353.331 240.968 353.321C238.746 353.311 236.933 355.225 236.923 357.601C236.913 359.434 237.988 360.98 239.493 361.615C233.298 362.547 233.574 369.285 233.574 369.285L248.228 369.357C248.228 369.346 248.566 362.537 242.422 361.605Z" fill="white"/>
<path d="M295.967 367.073C296.745 365.261 296.274 363.356 294.994 361.851C293.714 360.346 291.553 359.639 289.638 360.11C289.3 358.195 287.969 356.495 286.198 355.697C284.426 354.898 282.266 355.041 280.607 356.055C278.948 357.069 277.852 358.932 277.76 360.878C276.449 361.093 275.251 361.943 274.596 363.1C273.94 364.257 273.848 365.722 274.34 366.961L295.967 367.073Z" fill="white"/>
<path d="M331.1 367.186C331.1 367.974 330.455 368.609 329.667 368.609C328.878 368.609 328.243 367.964 328.243 367.176C328.243 366.387 328.888 365.752 329.677 365.752C330.465 365.762 331.1 366.397 331.1 367.186Z" fill="white"/>
<path d="M326.82 365.353C328.387 363.704 330.926 363.663 332.534 365.281C333.261 366.019 334.397 364.882 333.67 364.155C331.469 361.933 327.854 361.943 325.683 364.216C324.987 364.964 326.113 366.101 326.82 365.353Z" fill="white"/>
<path d="M321.976 358.717C324.147 356.843 326.728 355.666 329.626 355.656C332.493 355.645 335.329 356.669 337.439 358.646C338.186 359.352 339.333 358.226 338.575 357.519C336.169 355.256 332.933 354.048 329.636 354.058C326.298 354.068 323.338 355.43 320.85 357.581C320.072 358.257 321.198 359.393 321.976 358.717Z" fill="white"/>
<path d="M323.891 362.393C325.345 360.827 327.383 359.833 329.533 359.792C331.745 359.741 333.875 360.653 335.421 362.23C336.138 362.967 337.285 361.841 336.558 361.103C334.735 359.229 332.165 358.134 329.544 358.185C326.984 358.246 324.506 359.373 322.765 361.257C322.058 362.015 323.185 363.151 323.891 362.393Z" fill="white"/>
<path d="M120.852 456.816L120.474 478.157C120.474 478.157 142.039 485.703 142.356 489.656L100.956 490.414L100.178 457.144L120.852 456.816Z" fill="#1E5BFA"/>
<path d="M107.643 476.6C106.844 476.836 106.312 477.747 106.506 478.556C106.711 479.365 107.633 479.918 108.431 479.693C109.23 479.477 109.906 478.402 109.619 477.624C109.332 476.846 108.216 476.252 107.489 476.661" fill="#E0E0E0"/>
<path d="M100.946 490.414L100.997 487.055L140.677 487.588C140.677 487.588 142.531 488.356 142.346 489.656L100.946 490.414Z" fill="#263238"/>
<path d="M121.139 477.931C121.139 478.136 120.125 478.249 119.142 478.914C118.139 479.56 117.647 480.44 117.453 480.368C117.268 480.338 117.545 479.119 118.753 478.331C119.951 477.532 121.18 477.747 121.139 477.931Z" fill="#263238"/>
<path d="M125.522 479.652C125.573 479.846 124.703 480.205 124.027 481.075C123.331 481.925 123.177 482.847 122.972 482.847C122.788 482.877 122.624 481.7 123.474 480.635C124.324 479.57 125.512 479.457 125.522 479.652Z" fill="#263238"/>
<path d="M128.082 484.802C127.898 484.853 127.601 483.84 128.102 482.724C128.594 481.607 129.536 481.147 129.628 481.321C129.741 481.484 129.147 482.089 128.748 483.01C128.317 483.932 128.276 484.782 128.082 484.802Z" fill="#263238"/>
<path d="M120.689 473.067C120.607 473.252 119.675 472.996 118.538 473.088C117.391 473.159 116.511 473.559 116.408 473.395C116.285 473.252 117.146 472.484 118.487 472.391C119.828 472.279 120.781 472.903 120.689 473.067Z" fill="#263238"/>
<path d="M96.7783 445.44L81.9712 460.8C81.9712 460.8 92.6208 481.014 90.153 484.127L59.3306 456.479L81.4285 431.585L96.7783 445.44Z" fill="#1E5BFA"/>
<path d="M73.6358 450.918C72.8883 450.55 71.8746 450.847 71.4752 451.574C71.0758 452.301 71.3728 453.335 72.1101 453.724C72.8474 454.113 74.0762 453.785 74.3936 453.017C74.711 452.249 74.2912 451.051 73.4925 450.857" fill="#E0E0E0"/>
<path d="M59.3306 456.479L61.655 454.062L90.3373 481.474C90.3373 481.474 91.177 483.307 90.153 484.127L59.3306 456.479Z" fill="#263238"/>
<path d="M82.6061 461.097C82.4627 461.24 81.6538 460.636 80.4762 460.452C79.3088 460.237 78.336 460.554 78.2541 460.37C78.1414 460.216 79.1757 459.52 80.5888 459.766C82.0224 459.991 82.7699 460.984 82.6061 461.097Z" fill="#263238"/>
<path d="M84.6439 465.336C84.5517 465.51 83.6608 465.183 82.5856 465.367C81.5002 465.51 80.7527 466.084 80.6093 465.941C80.4455 465.838 81.1315 464.865 82.4832 464.671C83.8247 464.456 84.7667 465.183 84.6439 465.336Z" fill="#263238"/>
<path d="M83.0054 470.845C82.8416 470.753 83.3024 469.811 84.4288 469.34C85.5552 468.859 86.5485 469.166 86.5075 469.35C86.4768 469.555 85.6269 469.586 84.7053 469.985C83.7837 470.374 83.1693 470.968 83.0054 470.845Z" fill="#263238"/>
<path d="M85.5962 457.216C85.4118 457.298 84.9101 456.468 83.9987 455.762C83.1078 455.035 82.1965 454.728 82.2272 454.533C82.2374 454.349 83.3843 454.369 84.439 455.219C85.504 456.048 85.7805 457.165 85.5962 457.216Z" fill="#263238"/>
<path d="M178.422 225.526L160.215 237.547L160.481 242.309L165.233 252.324C165.233 252.324 167.424 254.402 173.875 247.88C180.326 241.346 188.477 228.372 188.477 228.372L178.422 225.526Z" fill="#FFBE9D"/>
<path d="M209.07 200.479C208.865 199.997 208.415 199.67 207.882 199.598L198.963 198.4C198.175 198.308 197.386 198.543 196.792 199.055L171.254 220.989L172.411 222.116L181.985 224.42L209.234 200.878L209.07 200.479Z" fill="#263238"/>
<path d="M201.994 202.301C202.127 202.506 202.476 202.527 202.752 202.353C203.039 202.168 203.151 201.861 203.018 201.646C202.885 201.441 202.537 201.421 202.261 201.595C201.974 201.779 201.851 202.097 201.994 202.301Z" fill="white"/>
<path d="M209.244 200.878C209.234 200.919 208.62 200.868 207.493 200.745C206.285 200.602 204.677 200.417 202.742 200.192C201.728 200.069 200.632 199.926 199.465 199.782C198.912 199.68 198.349 199.823 197.919 200.182C197.448 200.591 196.956 201.011 196.465 201.441C194.447 203.172 192.246 205.076 189.942 207.063C185.303 211.036 181.074 214.62 178.002 217.19C176.507 218.419 175.278 219.443 174.346 220.211C173.476 220.918 172.984 221.297 172.954 221.266C172.933 221.235 173.373 220.805 174.203 220.058C175.104 219.259 176.302 218.194 177.746 216.904C180.757 214.262 184.934 210.637 189.583 206.664C191.908 204.687 194.12 202.803 196.137 201.073C196.639 200.642 197.141 200.223 197.622 199.823C198.154 199.373 198.912 199.219 199.526 199.342C200.694 199.516 201.789 199.67 202.793 199.813C204.718 200.11 206.316 200.356 207.524 200.54C208.64 200.735 209.254 200.847 209.244 200.878Z" fill="#455A64"/>
<path d="M199.977 205.466C199.977 205.466 199.168 205.076 198.042 207.278C196.915 209.49 193.526 215.777 193.526 215.777L189.706 212.142L183.89 211.302C183.89 211.302 182.344 212.091 183.071 212.951C183.798 213.821 187.167 215.45 187.167 215.45L188.723 219.945L182.231 214.221C182.231 214.221 179.548 214.17 179.845 215.91C180.152 217.641 183.869 223.846 183.869 223.846L180.193 222.505L176.486 218.532C176.486 218.532 175.094 218.204 175.278 219.525C175.462 220.836 178.924 226.365 178.924 226.365L183.798 230.687C183.798 230.687 186.941 231.311 187.494 230.492C188.047 229.673 188.477 228.403 188.477 228.403C188.477 228.403 190.239 228.424 190.761 227.717C191.293 227.01 191.447 225.7 191.447 225.7C191.447 225.7 193.884 226.867 194.601 225.526C195.318 224.184 195.84 221.297 195.891 220.119C195.942 218.941 200.161 209.101 200.141 208.763C200.131 208.415 201.769 205.24 199.977 205.466Z" fill="#FFBE9D"/>
<path d="M187.689 230.543C187.689 230.615 187.075 230.697 186.092 230.584C185.108 230.472 183.757 230.113 182.426 229.376C181.094 228.628 180.07 227.676 179.456 226.898C178.842 226.12 178.586 225.556 178.647 225.515C178.79 225.403 180.142 227.451 182.712 228.843C185.252 230.287 187.709 230.359 187.689 230.543Z" fill="#EB996E"/>
<path d="M186.921 228.147C186.798 228.249 185.948 227.451 185.119 226.273C184.3 225.096 183.829 224.02 183.972 223.938C184.115 223.856 184.801 224.778 185.61 225.925C186.419 227.082 187.054 228.034 186.921 228.147Z" fill="#EB996E"/>
<path d="M191.253 224.112C191.13 224.215 190.28 223.426 189.542 222.218C188.795 221.01 188.477 219.904 188.631 219.842C188.785 219.781 189.338 220.744 190.054 221.911C190.761 223.068 191.386 224 191.253 224.112Z" fill="#EB996E"/>
<path d="M195.471 221.071C195.297 221.092 195.031 219.873 194.458 218.47C193.894 217.057 193.249 215.992 193.393 215.89C193.516 215.787 194.417 216.75 195.021 218.245C195.625 219.73 195.635 221.051 195.471 221.071Z" fill="#EB996E"/>
<path d="M151.46 201.431C144.548 201.195 129.987 181.125 130.068 174.213L130.611 132.567C130.396 121.375 136.735 111.923 147.927 112.025L148.961 112.097C159.365 112.793 167.496 121.364 167.629 131.799C167.762 141.496 167.772 152.228 167.363 157.399C166.513 168.11 155.679 169.052 155.679 169.052C155.658 169.052 155.587 171.54 155.505 174.694C155.331 181.77 158.095 201.656 151.02 201.41L151.46 201.431Z" fill="#FFBE9D"/>
<path d="M155.699 169.031C155.699 169.031 148.92 168.97 142.019 163.963C142.019 163.963 144.835 172.247 155.597 172.001L155.699 169.031Z" fill="#EB996E"/>
<path d="M164.014 140.575C163.994 141.383 163.277 142.029 162.437 142.018C161.587 142.008 160.922 141.343 160.952 140.534C160.983 139.725 161.69 139.079 162.529 139.09C163.379 139.09 164.045 139.755 164.014 140.575Z" fill="#263238"/>
<path d="M165.048 136.366C164.844 136.55 163.748 135.618 162.099 135.506C160.451 135.373 159.191 136.141 159.027 135.926C158.945 135.833 159.16 135.485 159.713 135.137C160.256 134.789 161.167 134.482 162.191 134.553C163.215 134.625 164.055 135.065 164.526 135.485C164.997 135.905 165.151 136.284 165.048 136.366Z" fill="#263238"/>
<path d="M148.941 140.237C148.91 141.046 148.204 141.691 147.364 141.68C146.514 141.67 145.848 141.005 145.879 140.196C145.91 139.387 146.616 138.742 147.456 138.752C148.306 138.762 148.972 139.428 148.941 140.237Z" fill="#263238"/>
<path d="M148.879 135.659C148.675 135.844 147.569 134.912 145.93 134.799C144.282 134.666 143.022 135.434 142.858 135.219C142.776 135.127 142.991 134.779 143.544 134.431C144.087 134.082 144.998 133.775 146.022 133.847C147.046 133.919 147.886 134.359 148.357 134.779C148.828 135.199 148.972 135.577 148.879 135.659Z" fill="#263238"/>
<path d="M153.938 148.715C153.938 148.623 154.972 148.511 156.641 148.408C157.061 148.398 157.471 148.337 157.563 148.05C157.686 147.753 157.532 147.292 157.368 146.78C157.041 145.736 156.703 144.64 156.344 143.493C154.921 138.813 153.928 134.984 154.112 134.932C154.296 134.881 155.607 138.619 157.03 143.298C157.368 144.456 157.696 145.551 158.003 146.596C158.126 147.087 158.372 147.64 158.106 148.265C157.972 148.572 157.645 148.777 157.368 148.828C157.092 148.89 156.856 148.879 156.652 148.879C154.972 148.869 153.938 148.808 153.938 148.715Z" fill="#263238"/>
<path d="M149.146 129.495C148.89 129.905 147.323 129.352 145.377 129.178C143.442 128.963 141.793 129.198 141.619 128.747C141.548 128.532 141.906 128.174 142.612 127.887C143.319 127.59 144.374 127.396 145.541 127.508C146.708 127.621 147.712 128.031 148.337 128.451C148.982 128.881 149.258 129.3 149.146 129.495Z" fill="#263238"/>
<path d="M164.915 132.485C164.557 132.844 163.236 132.383 161.618 132.28C160.01 132.127 158.628 132.372 158.331 131.963C158.208 131.768 158.433 131.4 159.058 131.082C159.662 130.755 160.666 130.519 161.772 130.611C162.877 130.703 163.82 131.092 164.362 131.502C164.905 131.912 165.079 132.311 164.915 132.485Z" fill="#263238"/>
<path d="M130.959 140.554C130.785 140.462 123.74 137.882 123.484 145.224C123.228 152.566 130.652 151.316 130.673 151.101C130.693 150.897 130.959 140.554 130.959 140.554Z" fill="#FFBE9D"/>
<path d="M128.522 148.244C128.492 148.224 128.389 148.326 128.174 148.418C127.959 148.511 127.59 148.562 127.222 148.408C126.454 148.101 125.85 146.842 125.86 145.521C125.86 144.855 126.024 144.22 126.28 143.698C126.525 143.165 126.884 142.807 127.273 142.746C127.662 142.674 127.928 142.909 128.02 143.124C128.113 143.329 128.061 143.483 128.102 143.493C128.123 143.514 128.266 143.38 128.215 143.073C128.195 142.93 128.113 142.746 127.939 142.602C127.764 142.449 127.508 142.367 127.242 142.387C126.679 142.408 126.147 142.909 125.87 143.483C125.563 144.056 125.358 144.763 125.358 145.51C125.358 146.995 126.065 148.398 127.109 148.746C127.621 148.9 128.061 148.756 128.287 148.593C128.502 148.418 128.553 148.255 128.522 148.244Z" fill="#EB996E"/>
<path d="M149.381 149.483C149.279 149.494 149.207 149.893 149.34 150.528C149.453 151.163 149.862 152.043 150.61 152.719C151.347 153.405 152.146 153.784 152.719 154.02C153.303 154.245 153.682 154.317 153.733 154.225C153.784 154.132 153.477 153.876 152.975 153.538C152.474 153.19 151.777 152.75 151.132 152.156C149.821 150.989 149.617 149.432 149.381 149.483Z" fill="#263238"/>
<path d="M96.0717 277.156L91.3203 306.708L94.7917 331.131L94.935 336.435L98.4474 362.496C98.4474 362.496 97.1366 387.051 96.4915 392.376C95.8464 397.711 98.1504 472.75 98.1504 472.75L122.03 471.695C122.03 471.695 131.062 360.356 131.021 359.127C130.99 357.898 143.442 275.824 143.442 275.824L96.0717 277.156Z" fill="#263238"/>
<path d="M156.436 281.713C156.436 281.713 155.955 381.727 153.733 387.502C151.501 393.288 88.7603 455.455 88.7603 455.455L68.8947 439.972L119.624 371.712L122.747 276.418L156.436 281.713Z" fill="#263238"/>
<path d="M139.786 307.865C139.919 307.886 136.95 333.138 133.161 364.267C129.362 395.407 126.177 420.628 126.044 420.618C125.911 420.598 128.881 395.356 132.669 364.216C136.458 333.076 139.643 307.845 139.786 307.865Z" fill="#455A64"/>
<path d="M98.4474 362.496C98.4576 362.496 98.4576 362.578 98.4474 362.742C98.4371 362.936 98.4269 363.172 98.4064 363.469C98.3552 364.145 98.2938 365.066 98.2118 366.244C98.0173 368.65 97.792 372.132 97.5258 376.443C97.0445 385.065 96.6349 396.984 96.7475 410.153C96.8294 423.332 97.239 435.251 97.4643 443.883C97.5667 448.174 97.6486 451.656 97.6998 454.103C97.7101 455.281 97.7203 456.212 97.7306 456.888C97.7306 457.185 97.7306 457.421 97.7306 457.615C97.7306 457.779 97.7203 457.861 97.7101 457.861C97.6998 457.861 97.6896 457.779 97.6794 457.615C97.6691 457.421 97.6486 457.185 97.6384 456.888C97.6077 456.212 97.5667 455.291 97.5155 454.113C97.4234 451.656 97.2902 448.174 97.1162 443.894C96.7987 435.261 96.3379 423.342 96.256 410.153C96.1536 396.974 96.6042 385.034 97.1878 376.412C97.495 372.101 97.7715 368.619 98.0275 366.213C98.1504 365.046 98.2426 364.114 98.3142 363.448C98.345 363.162 98.3757 362.916 98.4064 362.732C98.4269 362.568 98.4474 362.486 98.4474 362.496Z" fill="#455A64"/>
<path d="M122.593 305.746C122.655 305.869 118.303 308.162 112.886 310.866C107.459 313.569 103.014 315.658 102.953 315.546C102.892 315.423 107.244 313.129 112.66 310.426C118.088 307.722 122.532 305.623 122.593 305.746Z" fill="#455A64"/>
<path d="M170.691 228.372L182.682 239.155C182.682 239.155 163.912 259.656 158.116 264.192C152.32 268.728 159.969 233.257 159.969 233.257L170.691 228.372Z" fill="#1E5BFA"/>
<path d="M129.976 164.26L124.989 171.172L105.585 178.35L96.7782 244.347L91.2281 303.268C91.2281 303.268 98.9901 292.188 104.94 292.035C110.889 291.881 140.974 300.288 143.012 301.824L146.985 288.481L150.2 303.933C150.2 303.933 155.853 305.203 158.802 296.755L157.553 267.469C157.553 267.469 161.526 214.671 161.311 206.715C161.085 198.758 155.699 176.64 155.699 176.64L153.692 183.163L136.223 168.264L129.976 164.26Z" fill="#1E5BFA"/>
<path d="M111.186 176.343C111.186 176.343 98.4371 176.302 94.3104 199.915C90.1837 223.539 84.2547 248.873 87.3062 258.355C90.3578 267.827 102.339 295.127 102.339 295.127L118.764 289.208L112.026 246.333L119.828 204.38C119.828 204.38 120.791 178.063 111.186 176.343Z" fill="#1E5BFA"/>
<path d="M125.85 298.68C125.85 298.68 118.026 289.474 117.432 289.69L104.428 294.379C104.428 294.379 103.946 298.987 104.52 304.425C105.021 309.227 105.851 314.378 105.851 314.378L122.962 305.254C122.962 305.254 123.679 308.818 124.631 310.804C125.583 312.791 128.881 310.681 128.881 310.681L125.85 298.68Z" fill="#FFBE9D"/>
<path d="M119.828 204.38C119.828 204.38 119.798 204.636 119.716 205.128C119.624 205.64 119.501 206.367 119.337 207.319C118.989 209.265 118.477 212.091 117.832 215.716C116.5 223.007 114.575 233.492 112.22 246.364V246.303C114.156 258.509 116.47 273.132 119.009 289.167L119.04 289.362L118.856 289.434C113.603 291.328 108.083 293.325 102.431 295.363L102.216 295.444L102.124 295.229C100.454 291.359 98.6931 287.273 96.9011 283.126C93.7677 275.702 90.7162 268.442 88.0845 261.304C87.7466 260.413 87.4598 259.512 87.1526 258.621C87.0093 258.171 86.9171 257.7 86.8045 257.239C86.6816 256.778 86.5792 256.317 86.5485 255.846C86.4358 254.915 86.3027 253.983 86.3027 253.051C86.2618 252.119 86.231 251.197 86.272 250.286C86.3539 246.62 86.7123 243.046 87.1731 239.575C88.0742 232.643 89.303 226.109 90.4192 220.006C91.5558 213.903 92.6208 208.22 93.5834 203.028C94.0237 200.428 94.5459 197.96 95.0579 195.635C95.3856 194.488 95.7133 193.372 96.0205 192.297C96.3891 191.232 96.7885 190.218 97.1571 189.235C98.775 185.344 100.854 182.282 103.045 180.265C105.216 178.227 107.356 177.224 108.841 176.763C109.588 176.527 110.172 176.435 110.572 176.384C110.756 176.374 110.909 176.364 111.022 176.353C111.124 176.353 111.176 176.364 111.176 176.364C111.176 176.364 110.971 176.384 110.582 176.435C110.193 176.507 109.609 176.609 108.872 176.855C107.407 177.336 105.308 178.36 103.178 180.398C101.028 182.405 98.9901 185.467 97.4131 189.338C97.0547 190.321 96.6554 191.324 96.297 192.379C95.9898 193.454 95.6826 194.56 95.3549 195.707C94.8531 198.021 94.3514 200.479 93.9213 203.09C92.969 208.282 91.9245 213.975 90.8083 220.078C89.7126 226.191 88.4941 232.714 87.6134 239.636C87.1526 243.087 86.8045 246.651 86.7226 250.296C86.6816 251.208 86.7123 252.119 86.7533 253.041C86.7533 253.962 86.8864 254.874 86.999 255.785C87.0298 256.246 87.1424 256.696 87.255 257.137C87.3677 257.587 87.4496 258.038 87.593 258.478C87.9002 259.369 88.1869 260.26 88.5248 261.151C91.1565 268.267 94.208 275.528 97.3414 282.941C99.1232 287.089 100.884 291.174 102.554 295.045L102.246 294.912C107.899 292.874 113.418 290.888 118.671 288.993L118.518 289.249C116.019 273.213 113.736 258.58 111.831 246.374V246.344L111.841 246.313C114.268 233.462 116.244 222.986 117.617 215.695C118.313 212.081 118.856 209.254 119.224 207.319C119.409 206.377 119.552 205.65 119.654 205.138C119.767 204.626 119.828 204.38 119.828 204.38Z" fill="#263238"/>
<path d="M153.682 183.163C153.702 183.173 153.569 183.48 153.303 184.044C152.996 184.668 152.596 185.457 152.115 186.429C151.03 188.539 149.555 191.386 147.825 194.724L147.661 195.052L147.446 194.755C145.92 192.666 144.169 190.392 142.244 188.088C138.465 183.542 134.717 179.712 131.922 177.039C130.529 175.698 129.362 174.643 128.573 173.906C127.775 173.179 127.334 172.759 127.355 172.739C127.375 172.708 127.857 173.077 128.696 173.763C129.536 174.459 130.734 175.473 132.157 176.783C135.025 179.395 138.834 183.204 142.623 187.771C144.558 190.095 146.309 192.379 147.814 194.488L147.436 194.519C149.228 191.212 150.753 188.396 151.88 186.307C152.412 185.365 152.842 184.586 153.18 183.982C153.487 183.439 153.661 183.153 153.682 183.163Z" fill="#263238"/>
<path d="M157.983 186.685C158.147 186.624 158.976 189.624 158.382 193.618L158.28 194.324L157.932 193.679C157.747 193.341 157.563 192.973 157.389 192.594C156.467 190.515 155.965 188.539 155.453 187.177C154.962 185.805 154.563 184.996 154.624 184.955C154.675 184.924 155.197 185.682 155.781 187.054C156.385 188.406 156.938 190.372 157.839 192.399C158.003 192.768 158.187 193.116 158.362 193.454L157.911 193.515C158.259 191.662 158.167 189.89 158.136 188.672C158.106 187.423 157.942 186.706 157.983 186.685Z" fill="#263238"/>
<path d="M154.522 186.573C154.532 186.573 154.542 186.665 154.542 186.839C154.542 187.044 154.552 187.3 154.552 187.617C154.563 188.303 154.552 189.307 154.542 190.597C154.501 193.188 154.399 196.925 154.143 201.544C153.651 210.79 152.525 223.519 151.368 237.578C150.17 251.627 149.074 264.346 148.285 273.592C147.866 278.17 147.528 281.887 147.292 284.498C147.169 285.757 147.067 286.751 146.995 287.457C146.954 287.775 146.934 288.02 146.903 288.225C146.883 288.399 146.862 288.491 146.852 288.481C146.842 288.481 146.842 288.389 146.852 288.215C146.862 288.01 146.872 287.754 146.893 287.437C146.944 286.72 147.005 285.727 147.098 284.467C147.302 281.846 147.579 278.129 147.927 273.551C148.685 264.305 149.719 251.587 150.866 237.527C152.023 223.467 153.201 210.739 153.784 201.513C154.081 196.905 154.245 193.167 154.337 190.577C154.378 189.317 154.419 188.314 154.44 187.597C154.45 187.279 154.47 187.023 154.481 186.819C154.501 186.655 154.511 186.573 154.522 186.573Z" fill="#263238"/>
<path d="M161.403 209.51C161.536 209.52 160.809 222.566 159.764 238.653C158.72 254.74 157.768 267.776 157.635 267.766C157.501 267.755 158.228 254.71 159.273 238.623C160.317 222.536 161.27 209.5 161.403 209.51Z" fill="#263238"/>
<path d="M123.023 193.73C122.931 193.73 122.931 192.553 122.47 190.74C122.02 188.938 120.975 186.501 119.05 184.402C117.125 182.303 114.78 181.064 113.019 180.449C111.247 179.824 110.07 179.732 110.09 179.64C110.09 179.609 110.387 179.599 110.92 179.661C111.452 179.712 112.21 179.845 113.132 180.121C114.954 180.654 117.412 181.893 119.419 184.064C121.416 186.245 122.44 188.795 122.819 190.658C123.013 191.6 123.085 192.368 123.095 192.901C123.085 193.433 123.054 193.73 123.023 193.73Z" fill="#263238"/>
<g opacity="0.3">
<g opacity="0.3">
<path opacity="0.3" d="M158.31 263.793C161.905 254.095 162.468 243.333 160.113 233.257C159.468 243.517 158.925 253.778 158.28 264.028" fill="black"/>
</g>
</g>
<g opacity="0.3">
<g opacity="0.3">
<path opacity="0.3" d="M119.153 208.036C114.944 229.898 111.524 250.634 112.005 247.767L118.774 289.208L122.767 295.127C119.286 267.315 116.419 235.735 119.153 208.036Z" fill="black"/>
</g>
</g>
<path d="M175.288 119.275C175.227 117.862 174.336 116.541 173.107 115.845C173.128 115.425 173.117 115.005 173.066 114.616C172.718 112.148 170.527 109.988 168.038 109.947C167.772 108.042 166.39 106.342 164.577 105.697C162.775 105.052 160.625 105.482 159.201 106.772C157.501 105.042 154.726 104.468 152.474 105.38C152.187 105.492 151.9 105.636 151.726 105.892C151.613 106.056 151.572 106.271 151.613 106.465C151.02 105.329 149.842 104.509 148.562 104.376C148.122 104.335 147.692 104.376 147.261 104.479C146.094 104.53 144.957 104.95 144.138 105.81C141.281 104.561 137.554 105.902 136.151 108.698C133.745 108.657 131.389 110.244 130.519 112.497C128.973 112.517 127.457 113.418 126.7 114.77C125.942 116.122 125.962 117.873 126.751 119.214C126.751 119.214 121.518 120.023 122.532 124.713C123.054 127.109 126.228 126.925 126.228 126.925L129.137 142.049C129.065 142.121 129.935 143.923 130.847 143.616C131.758 143.309 132.332 142.428 132.895 141.65C133.55 140.759 134.298 139.899 134.636 138.854C134.973 137.8 134.769 136.468 133.827 135.895C135.127 135.567 136.038 134.328 136.366 133.028C136.694 131.727 136.561 130.365 136.417 129.034C136.202 127.068 135.997 125.102 135.782 123.136C138.455 123.259 141.128 121.754 142.418 119.409C144.22 121.016 147.466 120.453 148.623 118.344C149.289 121.037 152.361 122.88 155.044 122.194C154.644 123.699 157.276 125.297 158.751 125.809C160.215 126.31 162.171 125.389 162.171 125.389C162.171 125.389 163.707 126.443 165.069 126.669C165.12 126.679 165.171 126.689 165.222 126.689C167.281 127.037 169.441 125.297 170.578 123.535C171.11 123.617 171.653 123.617 172.175 123.474C174.019 122.972 175.37 121.139 175.288 119.275Z" fill="#263238"/>
<path d="M115.476 229.274C115.436 229.345 114.094 228.721 111.892 227.809C109.691 226.898 106.588 225.761 103.086 224.789C99.5738 223.826 96.3379 223.212 93.9725 222.863C91.6173 222.505 90.1427 222.362 90.1427 222.28C90.1427 222.239 90.5216 222.239 91.1872 222.269C91.8528 222.29 92.8256 222.362 94.0237 222.495C96.4096 222.751 99.6864 223.314 103.229 224.287C106.762 225.27 109.865 226.478 112.046 227.482C113.142 227.983 114.002 228.413 114.596 228.741C115.18 229.038 115.497 229.233 115.476 229.274Z" fill="white"/>
<path d="M106.127 293.335C106.117 293.335 106.076 293.243 105.994 293.069C105.912 292.864 105.8 292.598 105.667 292.27C105.37 291.522 104.96 290.488 104.438 289.167C103.393 286.464 101.888 282.552 100.229 277.637C98.5805 272.722 96.768 266.803 95.5085 260.045C94.8838 256.665 94.3923 253.092 94.208 249.354C94.0237 245.616 94.1158 241.736 94.5254 237.793C95.3242 229.898 97.0547 222.536 98.6214 215.869C100.209 209.203 101.765 203.233 103.148 198.236C104.53 193.239 105.718 189.225 106.568 186.45C106.998 185.098 107.325 184.033 107.571 183.265C107.684 182.927 107.776 182.661 107.848 182.446C107.909 182.262 107.95 182.169 107.96 182.169C107.971 182.169 107.95 182.272 107.899 182.456C107.837 182.671 107.766 182.948 107.674 183.296C107.459 184.064 107.151 185.139 106.762 186.501C105.974 189.286 104.837 193.321 103.506 198.328C102.175 203.336 100.649 209.305 99.0925 215.972C97.5565 222.638 95.8464 229.99 95.0477 237.834C94.6381 241.756 94.5459 245.606 94.72 249.313C94.9043 253.02 95.3754 256.584 95.9898 259.942C97.2083 266.67 98.9799 272.589 100.588 277.504C102.195 282.419 103.649 286.351 104.632 289.075C105.114 290.406 105.492 291.461 105.759 292.219C105.871 292.557 105.964 292.823 106.045 293.038C106.107 293.232 106.138 293.335 106.127 293.335Z" fill="white"/>
<path d="M113.818 262.533C113.828 262.564 113.541 262.717 113.009 262.943C112.476 263.178 111.688 263.485 110.694 263.834C108.718 264.53 105.943 265.359 102.799 265.984C99.6557 266.609 96.7782 266.906 94.679 267.008C93.6346 267.059 92.7847 267.08 92.201 267.059C91.6173 267.049 91.2896 267.028 91.2896 266.988C91.2896 266.906 92.5799 266.824 94.6483 266.629C96.7168 266.435 99.5738 266.076 102.687 265.462C105.8 264.847 108.575 264.09 110.561 263.475C112.568 262.881 113.797 262.461 113.818 262.533Z" fill="white"/>
<path d="M122.532 197.622C122.45 197.683 121.62 196.393 119.921 194.632C119.081 193.751 117.985 192.789 116.695 191.816C115.384 190.874 113.879 189.942 112.2 189.153C110.51 188.385 108.82 187.832 107.254 187.443C105.687 187.085 104.243 186.87 103.025 186.808C100.588 186.655 99.072 186.86 99.0618 186.757C99.0618 186.716 99.4304 186.655 100.116 186.563C100.454 186.511 100.884 186.46 101.376 186.45C101.868 186.44 102.431 186.389 103.045 186.429C104.284 186.45 105.759 186.624 107.366 186.962C108.964 187.331 110.694 187.884 112.425 188.662C114.145 189.471 115.681 190.433 116.992 191.416C118.292 192.42 119.378 193.434 120.197 194.365C120.627 194.806 120.955 195.267 121.262 195.656C121.569 196.035 121.815 196.393 121.989 196.68C122.368 197.274 122.563 197.601 122.532 197.622Z" fill="white"/>
<path d="M131.297 296.97C131.287 296.97 131.277 296.858 131.277 296.643C131.277 296.397 131.277 296.079 131.267 295.67C131.277 294.779 131.277 293.54 131.287 291.942C131.328 288.676 131.4 284.006 131.471 278.252C131.686 266.66 131.973 250.706 132.291 233.083C132.454 224.266 132.577 215.859 132.291 208.23C132.157 204.411 131.912 200.796 131.584 197.417C131.256 194.038 130.816 190.904 130.058 188.129C129.311 185.354 128.256 182.948 127.017 181.033C125.778 179.108 124.396 177.685 123.146 176.681C121.887 175.677 120.781 175.084 120.013 174.735C119.245 174.377 118.815 174.244 118.825 174.223C118.825 174.223 119.265 174.316 120.054 174.643C120.842 174.971 121.979 175.534 123.279 176.527C124.559 177.521 125.993 178.954 127.263 180.879C128.553 182.805 129.649 185.231 130.417 188.037C131.205 190.833 131.676 193.997 132.024 197.376C132.372 200.765 132.639 204.39 132.782 208.22C133.089 215.869 132.987 224.287 132.823 233.103C132.444 250.726 132.096 266.68 131.85 278.262C131.697 284.017 131.574 288.686 131.492 291.953C131.441 293.54 131.4 294.789 131.369 295.67C131.348 296.069 131.338 296.387 131.328 296.632C131.318 296.858 131.308 296.97 131.297 296.97Z" fill="white"/>
<path d="M147.835 275.138C147.825 275.179 147.364 275.128 146.545 275.005C145.715 274.893 144.527 274.698 143.053 274.442C140.104 273.94 136.049 273.183 131.584 272.261C127.119 271.339 123.095 270.418 120.187 269.711C118.733 269.363 117.565 269.056 116.756 268.841C115.948 268.626 115.507 268.482 115.517 268.441C115.528 268.401 115.988 268.472 116.808 268.636C117.729 268.82 118.897 269.056 120.279 269.343C123.31 269.977 127.293 270.807 131.697 271.729C136.1 272.63 140.093 273.439 143.124 274.063C144.507 274.35 145.664 274.596 146.586 274.79C147.395 274.985 147.835 275.108 147.835 275.138Z" fill="white"/>
<path d="M150.61 238.418C150.6 238.561 142.377 238.07 132.25 237.312C122.122 236.554 113.92 235.817 113.93 235.674C113.94 235.53 122.163 236.022 132.291 236.779C142.418 237.537 150.62 238.274 150.61 238.418Z" fill="white"/>
<path d="M153.293 206.101C153.293 206.142 152.822 206.193 151.972 206.264C151.122 206.336 149.883 206.418 148.357 206.5C145.306 206.654 141.077 206.776 136.407 206.746C131.738 206.715 127.519 206.541 124.457 206.357C122.931 206.264 121.692 206.162 120.842 206.08C119.992 205.998 119.521 205.937 119.521 205.896C119.521 205.855 120.003 205.855 120.852 205.875C121.815 205.906 123.023 205.937 124.467 205.978C127.519 206.07 131.738 206.182 136.397 206.213C141.056 206.244 145.275 206.182 148.326 206.121C149.77 206.101 150.979 206.08 151.941 206.06C152.822 206.049 153.293 206.06 153.293 206.101Z" fill="white"/>
<path d="M131.492 175.913C131.502 175.995 130.56 176.159 129.045 176.486C127.529 176.804 125.461 177.306 123.218 178.022C120.975 178.749 118.999 179.548 117.586 180.173C116.173 180.797 115.302 181.207 115.272 181.135C115.241 181.074 116.04 180.541 117.432 179.825C118.815 179.108 120.791 178.237 123.064 177.51C125.327 176.783 127.447 176.333 128.983 176.108C130.519 175.882 131.482 175.852 131.492 175.913Z" fill="white"/>
<path d="M151.992 187.484C151.962 187.515 151.634 187.218 151.05 186.675C150.385 186.05 149.565 185.272 148.593 184.361C146.524 182.405 143.647 179.722 140.38 176.845C137.114 173.978 134.093 171.458 131.891 169.646C130.857 168.796 129.987 168.079 129.28 167.506C128.666 166.994 128.338 166.697 128.358 166.666C128.379 166.635 128.748 166.881 129.403 167.332C130.058 167.793 130.99 168.479 132.117 169.339C134.38 171.069 137.452 173.547 140.728 176.435C143.995 179.313 146.842 182.047 148.849 184.074C149.852 185.088 150.651 185.928 151.183 186.511C151.736 187.126 152.023 187.464 151.992 187.484Z" fill="white"/>
<path d="M145.285 176.435C145.398 176.538 143.995 178.237 142.172 180.245C140.339 182.252 138.772 183.798 138.66 183.695C138.547 183.593 139.95 181.893 141.773 179.886C143.606 177.879 145.172 176.333 145.285 176.435Z" fill="white"/>
<path d="M161.382 206.694C161.352 206.848 159.683 206.674 157.614 206.582C155.546 206.49 153.866 206.51 153.846 206.367C153.836 206.223 155.525 205.957 157.635 206.049C159.744 206.131 161.413 206.551 161.382 206.694Z" fill="white"/>
<path d="M158.966 240.855C158.966 240.998 157.245 241.08 155.136 241.029C153.027 240.978 151.316 240.824 151.316 240.671C151.316 240.527 153.037 240.445 155.146 240.497C157.256 240.548 158.966 240.701 158.966 240.855Z" fill="white"/>
<path d="M158.28 194.324C158.29 194.324 158.3 194.417 158.31 194.601C158.321 194.816 158.321 195.082 158.331 195.42C158.341 196.178 158.362 197.233 158.372 198.574C158.403 199.946 158.382 201.615 158.351 203.561C158.331 205.507 158.29 207.718 158.208 210.166C157.932 219.955 157.102 233.462 156.047 248.361C154.993 263.26 154.092 276.756 153.713 286.536C153.6 288.983 153.528 291.195 153.487 293.13C153.426 295.076 153.375 296.745 153.375 298.117C153.354 299.459 153.334 300.503 153.324 301.271C153.313 301.609 153.303 301.875 153.293 302.09C153.283 302.275 153.272 302.367 153.262 302.367C153.252 302.367 153.242 302.275 153.231 302.09C153.221 301.875 153.221 301.609 153.211 301.271C153.201 300.513 153.18 299.459 153.16 298.117C153.129 296.745 153.16 295.076 153.18 293.13C153.19 291.185 153.242 288.973 153.334 286.525C153.62 276.736 154.46 263.229 155.515 248.33C156.57 233.431 157.46 219.935 157.829 210.155C157.942 207.708 158.013 205.496 158.054 203.561C158.116 201.615 158.157 199.946 158.167 198.574C158.188 197.233 158.208 196.188 158.218 195.42C158.228 195.082 158.239 194.816 158.249 194.601C158.269 194.417 158.28 194.324 158.28 194.324Z" fill="white"/>
<path d="M157.778 274.995C157.809 275.139 155.638 275.661 152.945 276.152C150.252 276.644 148.05 276.931 148.019 276.787C147.988 276.644 150.159 276.122 152.852 275.63C155.546 275.139 157.747 274.852 157.778 274.995Z" fill="white"/>
<path d="M177.06 234.558C177.101 234.629 176.056 235.264 174.377 236.309C172.698 237.353 170.394 238.828 167.916 240.538C165.437 242.258 163.256 243.896 161.69 245.105C160.123 246.313 159.16 247.071 159.109 247.009C159.068 246.958 159.939 246.098 161.454 244.818C162.97 243.528 165.12 241.838 167.619 240.108C170.107 238.377 172.452 236.954 174.193 235.991C175.913 235.029 177.029 234.496 177.06 234.558Z" fill="white"/>
<path d="M173.793 248.299C173.722 248.33 173.21 247.419 172.37 245.954C171.53 244.48 170.363 242.463 169.001 240.281C167.639 238.1 166.328 236.155 165.376 234.762C164.424 233.369 163.83 232.499 163.891 232.458C163.942 232.417 164.649 233.195 165.683 234.547C166.717 235.888 168.079 237.803 169.452 240.005C170.824 242.207 171.95 244.265 172.698 245.791C173.455 247.296 173.855 248.269 173.793 248.299Z" fill="white"/>
<path d="M473.631 489.841C473.631 489.984 376.187 490.107 256.01 490.107C135.793 490.107 38.3693 489.984 38.3693 489.841C38.3693 489.697 135.793 489.574 256.01 489.574C376.187 489.574 473.631 489.697 473.631 489.841Z" fill="#263238"/>
</svg>
