<svg width="600" height="600" viewBox="0 0 600 600" fill="none" xmlns="http://www.w3.org/2000/svg">
<path d="M257.688 106.608H49.38V292.968H257.688V106.608Z" fill="#FAFAFA"/>
<path d="M257.688 292.968C257.688 292.968 257.652 291.768 257.64 289.512C257.628 287.22 257.604 283.884 257.58 279.528C257.556 270.78 257.508 257.988 257.46 241.692C257.4 209.124 257.316 162.6 257.22 106.608L257.688 107.076C197.7 107.1 126.108 107.124 49.404 107.16H49.38L49.932 106.608C49.908 174.408 49.884 238.212 49.86 292.968L49.368 292.476C111.516 292.584 163.524 292.668 200.028 292.728C218.292 292.788 232.68 292.824 242.52 292.86C247.428 292.884 251.196 292.908 253.764 292.92C255.024 292.932 255.984 292.944 256.668 292.944C257.34 292.956 257.688 292.968 257.688 292.968C257.688 292.968 257.376 292.992 256.74 292.992C256.08 293.004 255.132 293.004 253.896 293.016C251.34 293.028 247.608 293.052 242.748 293.076C232.932 293.112 218.58 293.148 200.364 293.208C163.776 293.268 111.66 293.352 49.38 293.46H48.888V292.968C48.864 238.212 48.84 174.408 48.816 106.608V106.056H49.368H49.392C126.096 106.092 197.688 106.116 257.676 106.14H258.144V106.608C258.048 162.732 257.964 209.364 257.904 241.992C257.856 258.24 257.808 270.996 257.784 279.72C257.76 284.04 257.748 287.352 257.724 289.62C257.724 291.852 257.688 292.968 257.688 292.968Z" fill="#E0E0E0"/>
<path d="M129.252 139.716C129.252 140.028 118.284 140.268 104.76 140.268C91.236 140.268 80.268 140.016 80.268 139.716C80.268 139.404 91.224 139.164 104.76 139.164C118.284 139.164 129.252 139.416 129.252 139.716Z" fill="#E0E0E0"/>
<path d="M217.512 153.72C217.512 154.032 187.392 154.272 150.24 154.272C113.076 154.272 82.968 154.02 82.968 153.72C82.968 153.408 113.088 153.168 150.24 153.168C187.392 153.156 217.512 153.408 217.512 153.72Z" fill="#E0E0E0"/>
<path d="M89.412 177.42H80.64V186.192H89.412V177.42Z" fill="#E0E0E0"/>
<path d="M111.012 177.42H102.24V186.192H111.012V177.42Z" fill="#E0E0E0"/>
<path d="M133.008 177.024H124.236V185.796H133.008V177.024Z" fill="#E0E0E0"/>
<path d="M154.212 177.42H145.44V186.192H154.212V177.42Z" fill="#E0E0E0"/>
<path d="M175.824 177.42H167.052V186.192H175.824V177.42Z" fill="#E0E0E0"/>
<path d="M197.424 177.42H188.652V186.192H197.424V177.42Z" fill="#E0E0E0"/>
<path d="M219.024 177.42H210.252V186.192H219.024V177.42Z" fill="#EBEBEB"/>
<path d="M89.412 196.08H80.64V204.852H89.412V196.08Z" fill="#EBEBEB"/>
<path d="M111.012 196.08H102.24V204.852H111.012V196.08Z" fill="#E0E0E0"/>
<path d="M132.612 196.08H123.84V204.852H132.612V196.08Z" fill="#EBEBEB"/>
<path d="M154.212 196.08H145.44V204.852H154.212V196.08Z" fill="#E0E0E0"/>
<path d="M175.824 196.08H167.052V204.852H175.824V196.08Z" fill="#E0E0E0"/>
<path d="M197.82 195.672H189.048V204.444H197.82V195.672Z" fill="#E0E0E0"/>
<path d="M219.024 196.08H210.252V204.852H219.024V196.08Z" fill="#E0E0E0"/>
<path d="M89.412 214.728H80.64V223.5H89.412V214.728Z" fill="#E0E0E0"/>
<path d="M111.408 214.332H102.636V223.104H111.408V214.332Z" fill="#E0E0E0"/>
<path d="M132.612 214.728H123.84V223.5H132.612V214.728Z" fill="#E0E0E0"/>
<path d="M154.212 214.728H145.44V223.5H154.212V214.728Z" fill="#EBEBEB"/>
<path d="M175.824 214.728H167.052V223.5H175.824V214.728Z" fill="#E0E0E0"/>
<path d="M197.424 214.728H188.652V223.5H197.424V214.728Z" fill="#E0E0E0"/>
<path d="M219.024 214.728H210.252V223.5H219.024V214.728Z" fill="#E0E0E0"/>
<path d="M89.412 233.388H80.64V242.16H89.412V233.388Z" fill="#E0E0E0"/>
<path d="M111.012 233.388H102.24V242.16H111.012V233.388Z" fill="#E0E0E0"/>
<path d="M132.612 233.388H123.84V242.16H132.612V233.388Z" fill="#E0E0E0"/>
<path d="M154.62 232.992H145.848V241.764H154.62V232.992Z" fill="#E0E0E0"/>
<path d="M175.824 233.388H167.052V242.16H175.824V233.388Z" fill="#E0E0E0"/>
<path d="M197.424 233.388H188.652V242.16H197.424V233.388Z" fill="#EBEBEB"/>
<path d="M219.024 233.388H210.252V242.16H219.024V233.388Z" fill="#E0E0E0"/>
<path d="M89.412 252.048H80.64V260.82H89.412V252.048Z" fill="#E0E0E0"/>
<path d="M111.012 252.048H102.24V260.82H111.012V252.048Z" fill="#EBEBEB"/>
<path d="M132.612 252.048H123.84V260.82H132.612V252.048Z" fill="#E0E0E0"/>
<path d="M154.212 252.048H145.44V260.82H154.212V252.048Z" fill="#E0E0E0"/>
<path d="M175.824 252.048H167.052V260.82H175.824V252.048Z" fill="#E0E0E0"/>
<path d="M197.82 251.652H189.048V260.424H197.82V251.652Z" fill="#E0E0E0"/>
<path d="M219.024 252.048H210.252V260.82H219.024V252.048Z" fill="#E0E0E0"/>
<path d="M492.921 62.2695L479.529 62.3413L479.886 128.953L493.278 128.882L492.921 62.2695Z" fill="#E0E0E0"/>
<path d="M398.223 62.4403L363.555 62.6257L363.752 99.3937L398.42 99.2083L398.223 62.4403Z" fill="#EBEBEB"/>
<path d="M432.735 62.2483L398.068 62.4338L398.264 99.2018L432.932 99.0163L432.735 62.2483Z" fill="#F5F5F5"/>
<path d="M363.612 72.7799C386.652 72.9719 409.74 72.8399 432.78 72.4559C433.248 72.4439 433.248 71.7239 432.78 71.7239C409.74 71.5919 386.652 71.7119 363.612 72.1439C363.204 72.1559 363.204 72.7799 363.612 72.7799Z" fill="#E0E0E0"/>
<path d="M404.937 98.5927L341.949 98.9302L342.11 128.894L405.098 128.557L404.937 98.5927Z" fill="#EBEBEB"/>
<path d="M467.626 98.2568L404.638 98.5942L404.799 128.558L467.787 128.221L467.626 98.2568Z" fill="#F5F5F5"/>
<path d="M341.988 107.268C383.832 107.736 425.82 107.316 467.652 106.644C468.12 106.632 468.12 105.912 467.652 105.912C425.808 105.696 383.82 105.72 341.988 106.632C341.58 106.644 341.58 107.268 341.988 107.268Z" fill="#E0E0E0"/>
<path d="M562.452 128.904H318.432V139.644H562.452V128.904Z" fill="#E0E0E0"/>
<path d="M368.28 134.064H358.38V170.7H368.28V134.064Z" fill="#E0E0E0"/>
<path d="M516.168 134.064H506.256V170.7H516.168V134.064Z" fill="#E0E0E0"/>
<path d="M505.994 37.4292L492.602 37.501L493.093 129.109L506.485 129.037L505.994 37.4292Z" fill="#EBEBEB"/>
<path d="M526.896 54.4733L506.1 54.585L506.499 128.829L527.295 128.717L526.896 54.4733Z" fill="#F5F5F5"/>
<path d="M526.752 68.7838C526.752 68.9878 522.096 69.1438 516.348 69.1438C510.6 69.1438 505.944 68.9878 505.944 68.7838C505.944 68.5798 510.6 68.4238 516.348 68.4238C522.096 68.4238 526.752 68.5798 526.752 68.7838Z" fill="#E0E0E0"/>
<path d="M526.752 65.664C526.752 65.868 522.096 66.0239 516.348 66.0239C510.6 66.0239 505.944 65.868 505.944 65.664C505.944 65.46 510.6 65.304 516.348 65.304C522.096 65.304 526.752 65.46 526.752 65.664Z" fill="#E0E0E0"/>
<path d="M526.752 117.552C526.752 117.756 522.096 117.912 516.348 117.912C510.6 117.912 505.944 117.756 505.944 117.552C505.944 117.348 510.6 117.192 516.348 117.192C522.096 117.192 526.752 117.348 526.752 117.552Z" fill="#E0E0E0"/>
<path d="M526.752 114.432C526.752 114.636 522.096 114.792 516.348 114.792C510.6 114.792 505.944 114.636 505.944 114.432C505.944 114.228 510.6 114.072 516.348 114.072C522.096 114.072 526.752 114.228 526.752 114.432Z" fill="#E0E0E0"/>
<path d="M516.684 107.628C516.48 107.628 516.324 100.14 516.324 90.8999C516.324 81.6599 516.48 74.1719 516.684 74.1719C516.888 74.1719 517.044 81.6599 517.044 90.8999C517.044 100.14 516.888 107.628 516.684 107.628Z" fill="#E0E0E0"/>
<path d="M549.624 72.708H526.98V128.748H549.624V72.708Z" fill="#EBEBEB"/>
<path d="M502.932 53.0639C502.932 55.1879 501.204 56.9159 499.08 56.9159C496.956 56.9159 495.228 55.1879 495.228 53.0639C495.228 50.9399 496.956 49.2119 499.08 49.2119C501.216 49.2119 502.932 50.9399 502.932 53.0639Z" fill="#E0E0E0"/>
<path d="M500.268 63.6479H497.892V118.152H500.268V63.6479Z" fill="#E0E0E0"/>
<path d="M89.112 411.396C95.388 408.156 102.792 407.736 109.764 408.888C113.508 409.512 117.42 410.628 119.964 413.436C122.508 416.244 123 421.2 120.072 423.624C118.332 425.064 115.896 425.28 113.64 425.256C108.18 425.196 102.132 424.236 97.764 427.512C95.28 429.384 93.624 432.504 90.648 433.416C87.744 434.316 84.456 432.6 82.908 429.972C81.36 427.344 81.312 424.068 82.032 421.104C82.032 421.116 82.788 414.66 89.112 411.396Z" fill="#1E5BFA"/>
<path d="M74.724 383.628C78.564 389.112 86.028 387.3 89.484 383.952C92.94 380.604 94.404 375.756 95.736 371.124C98.784 360.552 101.844 349.464 99.588 338.7C98.916 335.484 97.704 332.268 95.448 329.88C93.192 327.492 89.712 326.076 86.532 326.916C82.764 327.912 80.436 331.596 78.744 335.1C73.776 345.408 71.148 356.832 71.1 368.268C71.088 373.608 71.712 379.212 74.724 383.628Z" fill="#1E5BFA"/>
<path d="M64.188 391.5C68.352 386.556 69.144 379.332 67.296 373.14C65.436 366.936 61.248 361.668 56.424 357.36C50.76 352.308 44.1 348.384 36.948 345.864C34.128 344.868 31.164 344.088 28.188 344.376C25.212 344.664 22.224 346.176 20.832 348.828C18.78 352.74 20.748 357.48 22.872 361.344C26.616 368.16 30.9 374.676 35.664 380.82C39.504 385.764 43.896 390.636 49.74 392.88C55.584 395.112 61.656 394.848 64.752 390.804" fill="#1E5BFA"/>
<path d="M74.472 466.356C74.544 466.356 74.664 465.468 74.82 463.86C75 462.048 75.216 459.768 75.48 457.056C75.792 454.2 76.212 450.792 77.004 447.084C77.796 443.388 79.032 439.38 80.628 435.312C82.272 431.268 84.288 427.596 86.64 424.656C88.98 421.704 91.692 419.568 94.236 418.332C96.78 417.072 99.06 416.568 100.632 416.34C102.228 416.172 103.116 416.052 103.116 415.98C103.116 415.908 102.228 415.896 100.596 415.944C98.976 416.052 96.6 416.46 93.924 417.684C91.236 418.872 88.356 421.044 85.908 424.056C83.436 427.056 81.36 430.812 79.68 434.928C78.06 439.068 76.836 443.112 76.08 446.892C75.324 450.66 74.976 454.104 74.748 456.996C74.532 459.888 74.448 462.228 74.412 463.836C74.376 465.456 74.4 466.356 74.472 466.356Z" fill="#263238"/>
<path d="M74.94 461.124C74.976 461.124 75 460.728 75.012 459.972C75.012 459.108 75.012 458.004 75 456.66C74.988 453.792 74.988 449.64 75.144 444.504C75.396 434.244 76.284 423.204 77.988 407.652C79.608 393.024 81.768 375.984 84.06 364.92C84.552 362.4 85.044 360.132 85.512 358.152C85.956 356.16 86.34 354.444 86.7 353.064C87.012 351.756 87.264 350.7 87.468 349.848C87.636 349.104 87.708 348.72 87.672 348.708C87.636 348.696 87.504 349.068 87.276 349.788C87.024 350.616 86.712 351.672 86.316 352.956C85.884 354.336 85.452 356.04 84.96 358.02C84.444 360 83.892 362.256 83.364 364.776C81.096 374.808 78.708 388.836 76.98 404.436C75.276 420.036 74.496 434.232 74.436 444.516C74.376 449.652 74.484 453.816 74.616 456.696C74.7 458.04 74.76 459.132 74.82 459.996C74.856 460.728 74.904 461.124 74.94 461.124Z" fill="#263238"/>
<path d="M75 433.74C75.072 433.74 75.06 432.516 74.976 430.284C74.844 428.064 74.544 424.86 73.92 420.924C73.26 417 72.336 412.344 70.872 407.292C70.236 404.976 68.76 399.432 65.172 391.152C60.444 379.932 54.012 370.764 48.432 365.076C47.124 363.564 45.66 362.484 44.496 361.416C43.896 360.9 43.356 360.396 42.816 359.988C42.264 359.616 41.76 359.256 41.292 358.932C39.456 357.672 38.424 357.012 38.388 357.072C38.22 357.3 42.504 359.82 47.916 365.58C53.304 371.328 59.556 380.436 64.248 391.56C66.864 397.596 68.688 402.972 69.984 407.544C71.484 412.56 72.468 417.168 73.224 421.044C73.932 424.932 74.352 428.112 74.604 430.308C74.784 432.516 74.94 433.74 75 433.74Z" fill="#263238"/>
<path d="M48.528 482.052L51.276 519.648H99.576L102.324 482.052H48.528Z" fill="#263238"/>
<path d="M108.084 467.232H43.872V482.052H108.084V467.232Z" fill="#263238"/>
<path d="M43.872 518.208V522.312H46.884H107.028V518.208H43.872Z" fill="#455A64"/>
<path d="M49.848 529.548L46.884 522.312H104.724L101.268 529.548H49.848Z" fill="#455A64"/>
<path d="M101.424 494.34C101.436 494.352 101.364 494.472 101.196 494.688C101.004 494.94 100.764 495.252 100.476 495.648C99.792 496.524 98.844 497.736 97.668 499.248L97.548 499.404L97.428 499.236C95.664 496.788 93.3 493.524 90.516 489.672H90.912C88.86 492.588 86.568 495.828 84.108 499.308L83.892 499.608L83.652 499.32C81.144 496.332 78.408 493.092 75.576 489.72H76.044C75.9 489.9 75.756 490.092 75.6 490.272C73.092 493.416 70.68 496.452 68.388 499.32L68.148 499.62L67.92 499.308C65.472 495.84 63.18 492.6 61.116 489.672L61.512 489.696C58.152 493.524 55.308 496.764 53.124 499.248L52.98 499.416L52.872 499.224C51.768 497.364 50.88 495.888 50.244 494.808C49.968 494.328 49.752 493.944 49.572 493.632C49.428 493.368 49.356 493.224 49.368 493.212C49.38 493.2 49.476 493.332 49.644 493.584C49.836 493.884 50.088 494.256 50.388 494.712C51.06 495.768 51.984 497.22 53.148 499.044L52.884 499.02C55.032 496.5 57.828 493.224 61.14 489.348L61.344 489.108L61.536 489.372C63.624 492.288 65.928 495.516 68.4 498.96L67.932 498.948C70.212 496.068 72.636 493.032 75.132 489.888C75.288 489.696 75.432 489.504 75.576 489.336L75.804 489.048L76.044 489.336C78.864 492.708 81.588 495.96 84.096 498.96L83.64 498.972C86.124 495.504 88.44 492.276 90.516 489.384L90.72 489.108L90.912 489.384C93.636 493.272 95.952 496.572 97.68 499.044L97.44 499.032C98.676 497.556 99.648 496.38 100.368 495.528C100.68 495.156 100.944 494.856 101.148 494.616C101.316 494.424 101.412 494.328 101.424 494.34Z" fill="#E0E0E0"/>
<path d="M102.996 481.8C102.996 481.968 90.888 482.1 75.972 482.1C61.044 482.1 48.936 481.968 48.936 481.8C48.936 481.632 61.032 481.5 75.972 481.5C90.888 481.5 102.996 481.632 102.996 481.8Z" fill="#455A64"/>
<path d="M105.432 522.72C105.432 522.888 92.28 523.02 76.056 523.02C59.832 523.02 46.68 522.888 46.68 522.72C46.68 522.552 59.832 522.42 76.056 522.42C92.28 522.42 105.432 522.552 105.432 522.72Z" fill="#263238"/>
<path d="M566.1 530.232H417.564V389.088C417.564 379.068 425.688 370.932 435.72 370.932H547.956C557.976 370.932 566.112 379.056 566.112 389.088V530.232H566.1Z" fill="#455A64"/>
<path d="M553.608 371.748C553.776 371.748 553.92 407.208 553.92 450.948C553.92 494.7 553.776 530.148 553.608 530.148C553.44 530.148 553.296 494.688 553.296 450.948C553.296 407.208 553.44 371.748 553.608 371.748Z" fill="#263238"/>
<path d="M480.432 198C494.04 217.404 501.972 240.732 503.004 264.408C503.7 280.368 501.552 297.372 509.124 311.448C519.996 331.632 543.504 330.936 550.704 352.704C553.836 362.172 548.064 382.992 546.504 392.844C544.74 404.04 551.58 413.436 549.816 424.62C548.196 434.88 540.516 442.2 531.3 446.976C523.092 451.224 515.508 451.332 506.976 447.804C490.716 441.072 477.18 433.968 465.588 420.72C449.316 402.12 444.408 376.368 441.624 351.804C435.492 297.672 436.74 242.7 445.308 188.904" fill="#263238"/>
<path d="M515.22 450.084C515.22 450.084 515.4 450.024 515.748 449.952C516.096 449.868 516.624 449.784 517.284 449.592C518.628 449.232 520.584 448.596 522.9 447.348C525.204 446.1 527.928 444.264 530.316 441.396C531.492 439.968 532.572 438.252 533.22 436.248C533.832 434.244 534.108 431.988 534.24 429.648C534.468 424.944 533.76 419.796 532.68 414.36C531.636 408.912 530.22 403.104 529.872 396.816C529.704 393.684 529.848 390.42 530.556 387.192C531.228 383.952 532.392 380.796 533.604 377.616C534.828 374.436 536.112 371.232 537.036 367.872C537.912 364.512 538.452 360.948 537.864 357.432C537.348 353.904 535.908 350.616 533.976 347.736C532.044 344.844 529.632 342.336 527.172 340.032C522.216 335.4 516.852 331.584 512.268 327.288C503.016 318.768 496.788 309.072 492.852 300.48C490.884 296.172 489.384 292.14 488.388 288.516C487.812 286.728 487.488 285 487.068 283.44C486.756 281.856 486.48 280.416 486.228 279.12C485.844 276.504 485.568 274.464 485.496 273.072C485.448 272.4 485.4 271.872 485.376 271.488C485.352 271.128 485.352 270.948 485.352 270.948C485.352 270.948 485.388 271.128 485.436 271.488C485.484 271.872 485.544 272.388 485.616 273.06C485.736 274.452 486.048 276.468 486.468 279.084C486.732 280.38 487.032 281.82 487.368 283.38C487.8 284.928 488.136 286.644 488.724 288.42C489.756 292.02 491.28 296.028 493.26 300.3C497.232 308.82 503.46 318.432 512.664 326.868C517.224 331.116 522.6 334.932 527.604 339.588C530.088 341.916 532.536 344.448 534.504 347.4C536.484 350.34 537.972 353.724 538.5 357.36C539.112 360.984 538.548 364.644 537.648 368.052C536.7 371.46 535.404 374.688 534.18 377.856C532.968 381.024 531.804 384.156 531.144 387.336C530.448 390.504 530.304 393.708 530.46 396.804C530.784 403.02 532.176 408.816 533.196 414.288C534.24 419.748 534.948 424.944 534.684 429.696C534.54 432.072 534.252 434.316 533.604 436.392C532.932 438.456 531.804 440.196 530.592 441.636C528.132 444.54 525.36 446.352 523.02 447.576C520.668 448.812 518.676 449.412 517.32 449.724C515.952 450.036 515.22 450.084 515.22 450.084Z" fill="#455A64"/>
<path d="M291.792 492.96L349.38 465.612C349.38 465.612 371.808 356.724 376.044 348.54C380.28 340.368 398.016 333.3 398.016 333.3L395.052 480.756L389.796 514.764L308.58 522.456L291.792 492.96Z" fill="#1E5BFA"/>
<path d="M242.652 518.76C242.34 518.748 240.732 519.756 242.076 522.276C243.42 524.808 253.164 533.172 256.032 530.256C258.9 527.34 254.52 523.788 254.52 523.788L242.652 518.76Z" fill="#FFBE9D"/>
<path d="M254.928 523.896C254.928 523.896 266.7 525.384 271.236 527.1C276.156 528.972 282.156 527.7 286.188 524.964C290.22 522.228 292.572 519.756 292.572 519.756L307.596 519.516C307.596 519.516 314.808 512.04 310.524 500.904C309.78 498.96 308.976 497.424 307.08 495.036C305.292 493.104 302.472 491.544 297.612 490.704L279.768 494.556C279.768 494.556 252.12 492.576 247.2 494.904C247.2 494.904 241.02 498.564 239.112 500.1C238.392 500.676 236.208 507.72 240.696 511.368C240.696 511.368 236.784 514.488 238.896 517.272L239.916 518.508C239.916 518.508 237.288 521.916 238.632 523.404C239.988 524.892 251.82 531.816 256.044 530.172C260.292 528.54 256.8 524.616 254.928 523.896Z" fill="#FFBE9D"/>
<path d="M243.672 505.308C243.684 505.272 244.2 505.476 245.136 505.836C246.072 506.196 247.416 506.7 249.12 507.24C249.972 507.516 250.908 507.78 251.916 508.056C252.924 508.332 254.028 508.548 255.168 508.92C256.296 509.292 257.52 509.832 258.408 510.876C259.26 511.884 259.836 513.396 259.272 514.824C258.996 515.532 258.432 516.06 257.808 516.396C257.172 516.72 256.5 516.876 255.84 516.948C254.508 517.068 253.272 516.912 252.084 516.744C249.72 516.384 247.668 515.748 245.988 515.148C244.296 514.548 242.964 513.984 242.04 513.588C241.116 513.192 240.624 512.952 240.636 512.928C240.648 512.892 241.176 513.072 242.112 513.42C243.048 513.756 244.404 514.272 246.096 514.824C247.788 515.376 249.828 515.964 252.156 516.3C253.308 516.444 254.556 516.588 255.792 516.468C256.404 516.396 257.028 516.252 257.58 515.964C258.12 515.676 258.588 515.22 258.816 514.644C259.284 513.468 258.804 512.112 258.036 511.188C257.256 510.252 256.104 509.724 255.024 509.352C253.92 508.98 252.816 508.752 251.808 508.452C250.788 508.164 249.852 507.864 249.012 507.576C247.32 506.988 245.976 506.436 245.064 506.028C244.152 505.596 243.66 505.344 243.672 505.308Z" fill="#EB996E"/>
<path d="M244.728 496.8C244.74 496.764 245.256 496.968 246.18 497.328C247.104 497.688 248.448 498.204 250.14 498.756C251.82 499.32 253.848 499.932 256.128 500.472C257.256 500.76 258.552 500.988 259.62 501.888C260.148 502.332 260.544 502.98 260.64 503.7C260.748 504.408 260.628 505.14 260.34 505.8C259.752 507.144 258.504 508.008 257.256 508.428C255.996 508.86 254.688 508.884 253.5 508.728C251.112 508.368 249.156 507.516 247.464 506.976C245.844 506.412 244.5 505.944 243.48 505.584C242.544 505.248 242.028 505.044 242.04 505.008C242.052 504.972 242.58 505.116 243.54 505.404C244.572 505.728 245.928 506.148 247.572 506.652C249.276 507.144 251.268 507.96 253.56 508.284C254.7 508.428 255.924 508.392 257.1 507.984C258.252 507.588 259.368 506.796 259.884 505.62C260.424 504.456 260.244 503.028 259.296 502.272C258.384 501.492 257.136 501.228 256.008 500.94C253.716 500.364 251.688 499.716 250.008 499.116C248.328 498.504 246.996 497.94 246.096 497.532C245.208 497.088 244.716 496.824 244.728 496.8Z" fill="#EB996E"/>
<path d="M250.404 499.224C250.26 499.224 250.188 498.144 249.864 496.86C249.564 495.576 249.144 494.58 249.264 494.508C249.372 494.448 250.02 495.384 250.344 496.74C250.68 498.108 250.536 499.236 250.404 499.224Z" fill="#EB996E"/>
<path d="M291.96 499.584L281.46 495.54C281.46 495.54 252.312 481.932 251.82 482.676C251.328 483.408 249.744 483.336 250.092 486.888C250.44 490.44 267.42 497.604 267.96 498.84C268.5 500.076 267.6 506.292 273.876 510.756C280.152 515.22 284.676 515.316 284.676 515.316" fill="#FFBE9D"/>
<path d="M284.676 515.304C284.676 515.316 284.592 515.316 284.424 515.316C284.256 515.304 284.016 515.292 283.692 515.244C283.056 515.16 282.12 514.968 280.968 514.584C279.804 514.212 278.424 513.636 276.9 512.808C275.388 511.968 273.684 510.96 272.064 509.46C270.444 507.972 269.124 505.836 268.488 503.328C268.152 502.08 268.032 500.724 267.864 499.404C267.84 499.236 267.804 499.092 267.756 498.948C267.72 498.852 267.612 498.768 267.48 498.672C267.216 498.48 266.928 498.3 266.628 498.12C266.028 497.772 265.404 497.436 264.78 497.088C262.248 495.744 259.56 494.376 256.848 492.816C255.492 492.036 254.124 491.208 252.804 490.26C252.144 489.78 251.496 489.276 250.908 488.676C250.608 488.376 250.332 488.04 250.104 487.668C250.008 487.464 249.9 487.26 249.864 487.008C249.816 486.768 249.828 486.576 249.804 486.36C249.768 485.52 249.804 484.62 250.248 483.828C250.476 483.432 250.848 483.132 251.172 482.904C251.34 482.784 251.484 482.676 251.58 482.556C251.616 482.532 251.556 482.568 251.676 482.46C251.808 482.376 251.832 482.4 251.88 482.4C251.988 482.388 252.012 482.412 252.084 482.412C252.192 482.436 252.3 482.46 252.396 482.484C253.98 482.976 255.42 483.6 256.872 484.2C259.752 485.412 262.5 486.636 265.128 487.812C270.36 490.164 275.052 492.348 278.976 494.184C279.96 494.64 280.896 495.108 281.784 495.48C282.696 495.84 283.548 496.176 284.352 496.488C285.948 497.124 287.316 497.664 288.456 498.12C289.548 498.564 290.424 498.912 291.048 499.164C291.324 499.284 291.54 499.368 291.72 499.452C291.864 499.524 291.948 499.56 291.936 499.56C291.936 499.572 291.852 499.548 291.696 499.5C291.516 499.44 291.288 499.356 291.012 499.26C290.376 499.032 289.5 498.708 288.384 498.3C287.232 497.868 285.84 497.352 284.244 496.752C283.44 496.452 282.576 496.116 281.664 495.78C280.752 495.408 279.828 494.952 278.832 494.508C274.872 492.72 270.168 490.584 264.936 488.232C262.32 487.068 259.56 485.856 256.68 484.644C255.24 484.056 253.764 483.42 252.264 482.952C252.168 482.928 252.084 482.904 251.988 482.892C251.964 482.892 251.892 482.88 251.892 482.88C251.892 482.868 251.892 482.916 251.88 482.844C251.844 482.748 251.88 482.772 251.856 482.724C251.844 482.712 251.832 482.7 251.82 482.688C252.156 482.916 251.904 482.76 251.976 482.82L251.952 482.856C251.796 483.06 251.604 483.192 251.448 483.312C251.112 483.552 250.836 483.768 250.656 484.092C250.284 484.728 250.236 485.556 250.272 486.348C250.296 486.78 250.32 487.104 250.512 487.428C250.704 487.752 250.956 488.064 251.232 488.34C251.784 488.904 252.42 489.396 253.068 489.876C254.364 490.8 255.72 491.628 257.064 492.408C259.764 493.968 262.44 495.336 264.972 496.692C265.608 497.04 266.232 497.376 266.832 497.736C267.132 497.916 267.432 498.096 267.72 498.324C267.852 498.432 268.032 498.564 268.128 498.792C268.2 498.984 268.236 499.164 268.26 499.332C268.428 500.712 268.524 501.996 268.848 503.22C269.46 505.656 270.708 507.744 272.268 509.208C273.816 510.684 275.52 511.716 276.996 512.568C278.496 513.408 279.852 513.996 280.992 514.404C282.132 514.8 283.044 515.016 283.668 515.136C283.98 515.196 284.22 515.232 284.388 515.256C284.592 515.28 284.676 515.292 284.676 515.304Z" fill="#EB996E"/>
<path d="M252.528 516.672C252.54 516.648 252.948 516.72 253.644 516.996C254.34 517.272 255.324 517.752 256.392 518.58C256.92 519 257.472 519.492 257.976 520.116C258.456 520.74 258.948 521.58 258.828 522.564C258.696 523.56 257.844 524.352 256.884 524.664C255.888 525 254.82 524.844 253.824 524.568C249.912 523.38 246.516 521.94 244.164 520.692C242.988 520.068 242.064 519.504 241.452 519.084C240.828 518.664 240.504 518.412 240.528 518.388C240.552 518.352 240.912 518.556 241.548 518.928C242.196 519.288 243.132 519.804 244.32 520.392C246.696 521.556 250.104 522.936 253.956 524.112C254.904 524.376 255.888 524.508 256.728 524.22C257.568 523.956 258.264 523.296 258.372 522.516C258.492 521.724 258.096 520.968 257.652 520.38C257.196 519.78 256.656 519.288 256.164 518.856C254.136 517.176 252.48 516.768 252.528 516.672Z" fill="#EB996E"/>
<g opacity="0.3">
<path opacity="0.3" d="M389.376 514.8C379.944 482.988 371.628 442.02 362.196 410.208C358.752 439.572 363.06 478.344 368.472 507.42C369.108 510.828 369.396 514.164 372.036 516.408L389.376 514.8Z" fill="black"/>
</g>
<path d="M373.932 492.96C373.8 492.984 373.404 490.884 372.132 487.704C371.508 486.108 370.584 484.284 369.432 482.352C368.232 480.444 366.756 478.428 365.004 476.508C363.216 474.612 361.32 472.992 359.508 471.648C357.66 470.34 355.908 469.296 354.372 468.552C351.3 467.04 349.224 466.488 349.272 466.368C349.284 466.332 349.8 466.452 350.736 466.716C351.204 466.836 351.768 467.016 352.404 467.268C353.04 467.52 353.796 467.772 354.564 468.156C356.148 468.852 357.948 469.884 359.844 471.18C361.704 472.512 363.648 474.144 365.472 476.076C367.26 478.032 368.748 480.084 369.936 482.04C371.088 484.02 371.976 485.892 372.564 487.524C372.9 488.328 373.092 489.084 373.296 489.744C373.512 490.404 373.632 490.98 373.728 491.448C373.884 492.432 373.968 492.948 373.932 492.96Z" fill="#263238"/>
<path d="M391.908 331.812C391.908 331.812 361.74 399.192 361.74 411.564C361.74 423.936 384.348 509.892 384.348 509.892C384.132 513.3 383.256 530.436 383.256 530.436L509.964 530.868L511.896 503.628L502.008 477.672L511.884 404.304C511.884 404.304 518.532 361.704 519.12 349.788C519.864 334.884 469.356 317.604 470.736 315.54L462.012 303.864L412.056 344.424L402.18 315.912L390.348 327.096L391.908 331.812Z" fill="#1E5BFA"/>
<path d="M474.888 349.74C461.172 372.948 436.08 415.236 436.08 415.236L391.104 466.512C391.104 466.512 388.164 492.576 394.044 500.556C399.924 508.548 410.016 514.008 410.016 514.008C410.016 514.008 421.896 514.008 436.968 501.396C452.052 488.784 493.656 436.668 493.656 436.668L507.948 419.436C507.948 419.436 524.988 377.58 521.808 356.268C520.584 348.048 517.08 344.64 512.424 340.872C500.7 331.404 482.556 336.768 474.888 349.74Z" fill="#1E5BFA"/>
<path d="M513.24 404.88C513.252 404.88 513.18 405.048 513.036 405.36C512.868 405.696 512.652 406.152 512.376 406.728C511.776 407.928 510.864 409.668 509.616 411.876C507.132 416.304 503.28 422.568 498.228 430.104C495.696 433.872 492.876 437.964 489.78 442.308C486.708 446.676 483.144 451.128 480.228 456.36C477.252 461.544 474.684 467.304 471.504 473.028C468.324 478.74 464.568 484.416 460.08 489.72C455.58 495.012 450.492 499.62 444.924 503.112C439.38 506.628 433.332 508.908 427.38 509.904C421.428 510.936 415.56 510.6 410.388 509.184C407.784 508.5 405.384 507.456 403.2 506.268C401.004 505.092 399.012 503.748 397.284 502.26C395.532 500.796 394.032 499.2 392.82 497.532C391.56 495.9 390.636 494.184 389.868 492.54C388.392 489.216 387.768 486.132 387.456 483.612C387.204 481.08 387.192 479.1 387.252 477.768C387.288 477.12 387.324 476.616 387.336 476.244C387.36 475.908 387.372 475.728 387.384 475.728C387.396 475.728 387.396 475.908 387.396 476.244C387.384 476.616 387.384 477.12 387.372 477.756C387.348 479.088 387.396 481.056 387.696 483.564C388.056 486.06 388.704 489.12 390.192 492.384C390.972 493.992 391.896 495.684 393.144 497.28C394.344 498.912 395.844 500.472 397.572 501.9C399.288 503.364 401.268 504.672 403.44 505.824C405.612 506.988 407.964 507.996 410.532 508.668C415.644 510.036 421.428 510.348 427.296 509.316C433.176 508.308 439.128 506.064 444.6 502.572C450.096 499.116 455.136 494.544 459.6 489.288C464.052 484.02 467.796 478.38 470.976 472.704C474.156 467.028 476.724 461.256 479.736 456.048C482.676 450.78 486.288 446.316 489.36 441.984C492.48 437.652 495.324 433.584 497.868 429.84C502.956 422.34 506.868 416.124 509.412 411.744C510.696 409.56 511.644 407.832 512.268 406.656C512.568 406.092 512.808 405.648 512.988 405.324C513.132 405.024 513.228 404.88 513.24 404.88Z" fill="#263238"/>
<path d="M388.848 464.196C388.896 464.292 388.212 464.676 387.384 465.6C386.556 466.5 385.644 468.024 385.464 469.884C385.296 471.744 385.92 473.412 386.568 474.444C387.216 475.5 387.816 476.016 387.756 476.088C387.72 476.148 386.988 475.74 386.208 474.684C385.428 473.652 384.672 471.864 384.852 469.824C385.044 467.784 386.112 466.164 387.072 465.288C388.032 464.388 388.824 464.136 388.848 464.196Z" fill="#263238"/>
<path d="M397.116 477.804C397.128 477.78 397.368 477.84 397.824 477.972C398.052 478.032 398.328 478.128 398.664 478.2C399.012 478.26 399.396 478.332 399.828 478.416C401.58 478.704 404.208 478.668 407.244 477.732C410.268 476.76 413.64 474.9 416.796 472.116C419.952 469.332 422.784 465.612 425.748 461.736C428.7 457.836 431.676 454.176 434.964 451.428C436.596 450.06 438.192 448.848 439.536 447.54C440.868 446.244 441.936 444.84 442.536 443.4C443.664 440.448 442.908 437.664 441.84 436.32C440.736 434.928 439.62 434.784 439.668 434.7C439.668 434.676 439.92 434.736 440.364 434.904C440.796 435.108 441.432 435.456 442.02 436.176C443.196 437.556 444.072 440.424 442.932 443.568C442.32 445.104 441.228 446.568 439.884 447.912C438.54 449.268 436.932 450.504 435.324 451.872C432.108 454.596 429.18 458.22 426.228 462.12C423.264 466.008 420.396 469.74 417.168 472.56C413.94 475.368 410.472 477.228 407.364 478.164C404.244 479.076 401.544 479.04 399.78 478.668C399.348 478.572 398.964 478.476 398.616 478.392C398.28 478.296 398.004 478.176 397.788 478.104C397.344 477.924 397.116 477.828 397.116 477.804Z" fill="#263238"/>
<path d="M480.996 342.612C481.008 342.624 480.84 342.876 480.492 343.332C480.108 343.836 479.592 344.496 478.956 345.336C477.588 347.04 475.704 349.584 473.412 352.752C468.864 359.112 463.032 368.232 457.404 378.756C451.752 389.268 447.06 399.024 443.472 405.984C441.684 409.476 440.22 412.284 439.164 414.204C438.66 415.116 438.252 415.848 437.94 416.412C437.652 416.916 437.496 417.168 437.472 417.156C437.448 417.144 437.58 416.868 437.82 416.352C438.108 415.776 438.468 415.032 438.936 414.096C439.944 412.068 441.348 409.248 443.064 405.792C446.544 398.784 451.164 388.992 456.84 378.456C462.48 367.908 468.384 358.8 473.04 352.488C475.38 349.344 477.324 346.836 478.752 345.18C479.424 344.376 479.964 343.74 480.384 343.248C480.768 342.816 480.972 342.6 480.996 342.612Z" fill="#263238"/>
<g opacity="0.3">
<path opacity="0.3" d="M387.36 475.728C393.216 478.896 399.636 478.56 406.164 477.276C412.692 475.992 418.74 472.38 422.964 467.232C421.824 472.932 419.388 478.512 415.224 482.568C411.06 486.624 405.048 488.988 399.324 487.944C393.6 486.9 387.828 481.524 387.36 475.728Z" fill="black"/>
</g>
<g opacity="0.3">
<path opacity="0.3" d="M442.68 441.096C446.364 446.736 447.672 453.864 446.244 460.44C451.2 452.856 452.364 443.244 451.032 434.28C449.7 425.316 446.052 416.868 441.996 408.756C441.996 408.756 437.52 416.304 437.484 417.144C437.268 421.5 438.876 429.72 439.716 434.004C441.972 436.128 443.04 439.44 442.44 442.476" fill="black"/>
</g>
<g opacity="0.3">
<path opacity="0.3" d="M407.184 507.12C419.112 516.42 436.8 516.852 449.856 509.22C462.42 501.864 470.16 488.616 477.336 475.956C488.448 456.348 502.02 432.096 509.964 411C509.964 411 487.704 441.372 480.996 454.464C475.932 464.34 472.044 470.856 465.816 480.036C453.288 498.492 430.608 509.532 408.348 508.032" fill="black"/>
</g>
<path d="M383.256 530.424C383.244 530.424 383.232 530.292 383.232 530.052C383.232 529.764 383.244 529.404 383.256 528.96C383.292 527.94 383.34 526.548 383.412 524.796C383.58 521.148 383.82 516.024 384.096 509.868L384.108 509.952C381.948 502.752 379.428 494.028 376.824 484.596C373.368 472.092 370.452 460.716 368.484 452.448C367.5 448.308 366.744 444.96 366.264 442.632C366.036 441.516 365.856 440.616 365.712 439.956C365.592 439.344 365.544 439.02 365.568 439.008C365.592 439.008 365.688 439.32 365.844 439.92C366.012 440.58 366.228 441.468 366.504 442.572C367.092 444.936 367.908 448.26 368.916 452.34C370.992 460.584 373.968 471.924 377.424 484.428C380.028 493.86 382.512 502.596 384.6 509.808L384.612 509.856V509.892C384.24 516.048 383.928 521.16 383.712 524.808C383.592 526.548 383.496 527.94 383.424 528.96C383.388 529.404 383.352 529.752 383.328 530.052C383.292 530.304 383.268 530.424 383.256 530.424Z" fill="#263238"/>
<path d="M510.012 340.152C509.976 340.248 508.716 339.804 506.628 339.288C504.552 338.772 501.624 338.244 498.36 338.148C495.096 338.052 492.144 338.4 490.032 338.796C487.92 339.192 486.636 339.552 486.612 339.456C486.6 339.42 486.912 339.276 487.476 339.072C488.04 338.856 488.892 338.616 489.948 338.352C492.06 337.836 495.06 337.416 498.384 337.512C501.708 337.62 504.672 338.22 506.748 338.856C507.792 339.168 508.608 339.468 509.172 339.72C509.736 339.96 510.036 340.104 510.012 340.152Z" fill="#263238"/>
<path d="M469.884 318.024C469.908 318.036 469.788 318.252 469.56 318.648C469.296 319.104 468.948 319.668 468.54 320.364C467.64 321.852 466.308 323.976 464.616 326.58C461.22 331.788 456.36 338.868 450.624 346.416C446.004 352.5 441.528 357.948 437.856 362.232L437.604 362.532L437.436 362.172C435.696 358.356 434.256 355.188 433.2 352.896C432.732 351.84 432.36 350.976 432.072 350.316C431.82 349.716 431.7 349.404 431.724 349.392C431.748 349.38 431.916 349.68 432.216 350.256C432.54 350.904 432.96 351.744 433.476 352.776C434.568 355.044 436.08 358.176 437.904 361.968L437.484 361.908C441.084 357.588 445.524 352.116 450.132 346.044C455.868 338.508 460.776 331.476 464.256 326.34C465.948 323.82 467.34 321.744 468.348 320.232C468.804 319.56 469.176 319.008 469.464 318.576C469.716 318.204 469.86 318.012 469.884 318.024Z" fill="#263238"/>
<path d="M499.056 511.524C498.888 511.5 499.44 505.272 500.28 497.616C501.132 489.948 501.96 483.756 502.128 483.768C502.296 483.792 501.744 490.02 500.904 497.676C500.052 505.344 499.224 511.536 499.056 511.524Z" fill="#263238"/>
<path d="M412.2 509.88C412.368 509.856 413.016 514.548 413.628 520.332C414.252 526.128 414.612 530.832 414.432 530.856C414.264 530.88 413.616 526.188 413.004 520.404C412.392 514.62 412.032 509.904 412.2 509.88Z" fill="#263238"/>
<path d="M476.292 372.828C476.136 371.832 474.756 371.292 473.964 371.904L473.88 371.976C473.136 372.648 473.412 374.1 474.36 374.436C475.308 374.76 476.448 373.824 476.292 372.828Z" fill="white"/>
<path d="M463.776 342.324C463.62 341.328 462.24 340.788 461.448 341.4L461.364 341.472C460.62 342.144 460.896 343.596 461.844 343.932C462.804 344.268 463.932 343.32 463.776 342.324Z" fill="white"/>
<path d="M435.06 366.888C434.904 365.892 433.524 365.352 432.732 365.964L432.648 366.036C431.904 366.708 432.18 368.16 433.128 368.496C434.088 368.82 435.216 367.884 435.06 366.888Z" fill="white"/>
<path d="M404.016 354.552C403.86 353.556 402.48 353.016 401.688 353.628L401.604 353.7C400.86 354.372 401.136 355.824 402.084 356.16C403.044 356.496 404.184 355.548 404.016 354.552Z" fill="white"/>
<path d="M398.532 342.396C398.376 341.4 396.996 340.86 396.204 341.472L396.12 341.544C395.376 342.216 395.652 343.668 396.6 344.004C397.548 344.34 398.688 343.392 398.532 342.396Z" fill="white"/>
<path d="M400.92 328.356C400.764 327.36 399.384 326.82 398.592 327.432L398.508 327.504C397.764 328.176 398.04 329.628 398.988 329.964C399.936 330.288 401.076 329.34 400.92 328.356Z" fill="white"/>
<path d="M383.724 347.676C383.568 346.68 382.188 346.14 381.396 346.752L381.312 346.824C380.568 347.496 380.844 348.948 381.792 349.284C382.74 349.608 383.88 348.66 383.724 347.676Z" fill="white"/>
<path d="M423.54 353.244C423.384 352.248 422.004 351.708 421.212 352.32L421.128 352.392C420.384 353.064 420.66 354.516 421.608 354.852C422.568 355.176 423.708 354.24 423.54 353.244Z" fill="white"/>
<path d="M389.832 378.288C389.676 377.292 388.296 376.752 387.504 377.364L387.42 377.436C386.676 378.108 386.952 379.56 387.9 379.896C388.848 380.22 389.988 379.272 389.832 378.288Z" fill="white"/>
<path d="M358.968 450.312C358.812 449.316 357.432 448.776 356.64 449.388L356.556 449.46C355.812 450.132 356.088 451.584 357.036 451.92C357.984 452.244 359.124 451.296 358.968 450.312Z" fill="white"/>
<path d="M369.984 408.768C369.828 407.772 368.448 407.232 367.656 407.844L367.572 407.916C366.828 408.588 367.104 410.04 368.052 410.376C369 410.712 370.14 409.764 369.984 408.768Z" fill="white"/>
<path d="M451.152 335.832C450.996 334.836 449.616 334.296 448.824 334.908L448.74 334.98C447.996 335.652 448.272 337.104 449.22 337.44C450.168 337.764 451.308 336.816 451.152 335.832Z" fill="white"/>
<path d="M489.888 418.536C489.732 417.54 488.352 417 487.56 417.612L487.476 417.684C486.732 418.356 487.008 419.808 487.956 420.144C488.904 420.48 490.044 419.532 489.888 418.536Z" fill="white"/>
<path d="M504.972 347.364C504.816 346.368 503.436 345.828 502.644 346.44L502.56 346.512C501.816 347.184 502.092 348.636 503.04 348.972C504 349.296 505.14 348.348 504.972 347.364Z" fill="white"/>
<path d="M499.056 393.972C498.9 392.976 497.52 392.436 496.728 393.048L496.644 393.12C495.9 393.792 496.176 395.244 497.124 395.58C498.072 395.916 499.212 394.968 499.056 393.972Z" fill="white"/>
<path d="M465.204 427.632C465.048 426.636 463.668 426.096 462.876 426.708L462.792 426.78C462.048 427.452 462.324 428.904 463.272 429.24C464.22 429.576 465.36 428.628 465.204 427.632Z" fill="white"/>
<path d="M466.632 399.612C466.476 398.616 465.096 398.076 464.304 398.688L464.22 398.76C463.476 399.432 463.752 400.884 464.7 401.22C465.648 401.556 466.788 400.608 466.632 399.612Z" fill="white"/>
<path d="M487.044 347.604C486.888 346.608 485.508 346.068 484.716 346.68L484.632 346.752C483.888 347.424 484.164 348.876 485.112 349.212C486.072 349.536 487.212 348.6 487.044 347.604Z" fill="white"/>
<path d="M459.552 320.46C459.396 319.464 458.016 318.924 457.224 319.536L457.14 319.608C456.396 320.28 456.672 321.732 457.62 322.068C458.58 322.392 459.72 321.444 459.552 320.46Z" fill="white"/>
<path d="M458.556 364.224C458.4 363.228 457.02 362.688 456.228 363.3L456.144 363.372C455.4 364.044 455.676 365.496 456.624 365.832C457.584 366.156 458.712 365.208 458.556 364.224Z" fill="white"/>
<path d="M423.468 497.724C423.312 496.728 421.932 496.188 421.14 496.8L421.056 496.872C420.312 497.544 420.588 498.996 421.536 499.332C422.484 499.656 423.624 498.708 423.468 497.724Z" fill="white"/>
<path d="M383.208 475.764C383.052 474.768 381.672 474.228 380.88 474.84L380.796 474.912C380.052 475.584 380.328 477.036 381.276 477.372C382.224 477.696 383.364 476.76 383.208 475.764Z" fill="white"/>
<path d="M350.652 486.528C350.496 485.532 349.116 484.992 348.324 485.604L348.24 485.676C347.496 486.348 347.772 487.8 348.72 488.136C349.68 488.46 350.808 487.512 350.652 486.528Z" fill="white"/>
<path d="M347.172 505.068C347.016 504.072 345.636 503.532 344.844 504.144L344.76 504.216C344.016 504.888 344.292 506.34 345.24 506.676C346.188 507 347.328 506.052 347.172 505.068Z" fill="white"/>
<path d="M377.688 511.272C377.532 510.276 376.152 509.736 375.36 510.348L375.276 510.42C374.532 511.092 374.808 512.544 375.756 512.88C376.716 513.216 377.844 512.268 377.688 511.272Z" fill="white"/>
<path d="M367.488 469.752C367.332 468.756 365.952 468.216 365.16 468.828L365.076 468.9C364.332 469.572 364.608 471.024 365.556 471.36C366.504 471.696 367.644 470.748 367.488 469.752Z" fill="white"/>
<path d="M404.928 480.312C404.772 479.316 403.392 478.776 402.6 479.388L402.516 479.46C401.772 480.132 402.048 481.584 402.996 481.92C403.944 482.256 405.084 481.296 404.928 480.312Z" fill="white"/>
<path d="M493.932 469.692C493.776 468.696 492.396 468.156 491.604 468.768L491.52 468.84C490.776 469.512 491.052 470.964 492 471.3C492.96 471.624 494.1 470.676 493.932 469.692Z" fill="white"/>
<path d="M438.864 522.456C438.708 521.46 437.328 520.92 436.536 521.532L436.452 521.604C435.708 522.276 435.984 523.728 436.932 524.064C437.88 524.4 439.02 523.452 438.864 522.456Z" fill="white"/>
<path d="M462.348 493.08C462.192 492.084 460.812 491.544 460.02 492.156L459.936 492.228C459.192 492.9 459.468 494.352 460.416 494.688C461.376 495.024 462.516 494.076 462.348 493.08Z" fill="white"/>
<path d="M476.304 516.972C476.148 515.976 474.768 515.436 473.976 516.048L473.892 516.12C473.148 516.792 473.424 518.244 474.372 518.58C475.332 518.916 476.46 517.968 476.304 516.972Z" fill="white"/>
<path d="M437.484 391.86C437.328 390.864 435.948 390.324 435.156 390.936L435.072 391.008C434.328 391.68 434.604 393.132 435.552 393.468C436.5 393.792 437.64 392.856 437.484 391.86Z" fill="white"/>
<path d="M469.08 452.856C468.924 451.86 467.544 451.32 466.752 451.932L466.668 452.004C465.924 452.676 466.2 454.128 467.148 454.464C468.096 454.788 469.236 453.84 469.08 452.856Z" fill="white"/>
<path d="M458.832 475.956C458.676 474.96 457.296 474.42 456.504 475.032L456.42 475.104C455.676 475.776 455.952 477.228 456.9 477.564C457.848 477.888 458.988 476.952 458.832 475.956Z" fill="white"/>
<path d="M492.516 494.508C492.36 493.512 490.98 492.972 490.188 493.584L490.104 493.656C489.36 494.328 489.636 495.78 490.584 496.116C491.532 496.44 492.672 495.504 492.516 494.508Z" fill="white"/>
<path d="M400.344 521.304C400.188 520.308 398.808 519.768 398.016 520.38L397.932 520.452C397.188 521.124 397.464 522.576 398.412 522.912C399.36 523.236 400.5 522.288 400.344 521.304Z" fill="white"/>
<path d="M323.544 514.284C323.388 513.288 322.008 512.748 321.216 513.36L321.132 513.432C320.388 514.104 320.664 515.556 321.612 515.892C322.56 516.228 323.7 515.28 323.544 514.284Z" fill="white"/>
<path d="M391.176 501.672C391.02 500.676 389.64 500.136 388.848 500.748L388.764 500.82C388.02 501.492 388.296 502.944 389.244 503.28C390.192 503.616 391.332 502.668 391.176 501.672Z" fill="white"/>
<path d="M326.388 487.956C326.232 486.96 324.852 486.42 324.06 487.032L323.976 487.104C323.232 487.776 323.508 489.228 324.456 489.564C325.404 489.888 326.544 488.94 326.388 487.956Z" fill="white"/>
<path d="M434.64 444.396C434.484 443.4 433.104 442.86 432.312 443.472L432.228 443.544C431.484 444.216 431.76 445.668 432.708 446.004C433.656 446.328 434.796 445.392 434.64 444.396Z" fill="white"/>
<path d="M411.984 378.288C411.828 377.292 410.448 376.752 409.656 377.364L409.572 377.436C408.828 378.108 409.104 379.56 410.052 379.896C411 380.22 412.14 379.272 411.984 378.288Z" fill="white"/>
<path d="M406.32 435.612C406.164 434.616 404.784 434.076 403.992 434.688L403.908 434.76C403.164 435.432 403.44 436.884 404.388 437.22C405.348 437.556 406.476 436.608 406.32 435.612Z" fill="white"/>
<path d="M397.104 416.916C396.948 415.92 395.568 415.38 394.776 415.992L394.692 416.064C393.948 416.736 394.224 418.188 395.172 418.524C396.132 418.848 397.26 417.912 397.104 416.916Z" fill="white"/>
<path d="M437.868 475.692C437.712 474.696 436.332 474.156 435.54 474.768L435.456 474.84C434.712 475.512 434.988 476.964 435.936 477.3C436.884 477.636 438.024 476.688 437.868 475.692Z" fill="white"/>
<path d="M409.128 464.16C408.972 463.164 407.592 462.624 406.8 463.236L406.716 463.308C405.972 463.98 406.248 465.432 407.196 465.768C408.156 466.104 409.296 465.156 409.128 464.16Z" fill="white"/>
<path d="M421.428 400.86C421.272 399.864 419.892 399.324 419.1 399.936L419.016 400.008C418.272 400.68 418.548 402.132 419.496 402.468C420.456 402.792 421.596 401.844 421.428 400.86Z" fill="white"/>
<path d="M377.688 445.68C377.532 444.684 376.152 444.144 375.36 444.756L375.276 444.828C374.532 445.5 374.808 446.952 375.756 447.288C376.716 447.612 377.844 446.676 377.688 445.68Z" fill="white"/>
<path d="M445.212 425.112C445.056 424.116 443.676 423.575 442.884 424.187L442.8 424.259C442.056 424.931 442.332 426.384 443.28 426.72C444.228 427.044 445.368 426.096 445.212 425.112Z" fill="white"/>
<path d="M507.828 371.4C507.672 370.404 506.292 369.864 505.5 370.476L505.416 370.548C504.672 371.22 504.948 372.672 505.896 373.008C506.844 373.344 507.984 372.396 507.828 371.4Z" fill="white"/>
<path d="M482.4 330.732C482.244 329.736 480.864 329.196 480.072 329.808L479.988 329.88C479.244 330.552 479.52 332.004 480.468 332.34C481.416 332.676 482.556 331.728 482.4 330.732Z" fill="white"/>
<path d="M433.128 335.832C432.972 334.836 431.592 334.296 430.8 334.908L430.716 334.98C429.972 335.652 430.248 337.104 431.196 337.44C432.144 337.764 433.284 336.816 433.128 335.832Z" fill="white"/>
<path d="M382.86 189.852C373.404 195.864 369.636 208.464 371.436 215.916C372.348 219.672 374.052 223.452 373.308 227.232C372.66 230.508 370.308 233.124 368.544 235.956C362.664 245.412 363.708 258.636 370.992 267.06C378.276 275.472 391.212 278.412 401.412 273.948" fill="#263238"/>
<path d="M377.268 239.04C354.276 188.472 408.96 163.068 438.804 171.492C466.848 179.412 478.812 193.368 483.42 212.124C488.04 230.892 487.812 251.208 480.456 269.088C476.832 277.896 470.304 286.848 460.836 287.952" fill="#263238"/>
<path d="M404.208 362.532C403.812 338.376 403.536 305.184 403.524 305.316C403.524 305.316 382.752 301.872 378.456 274.776C376.32 261.3 376.992 239.208 378.132 221.148C379.152 204.888 389.928 184.944 406.128 186.66L456.708 199.44C461.628 199.956 465.336 204.156 465.24 209.112L461.94 313.728" fill="#FFBE9D"/>
<path d="M387.168 237.696C387.084 239.52 388.56 241.092 390.456 241.224C392.352 241.344 393.972 239.976 394.056 238.152C394.14 236.328 392.664 234.756 390.768 234.624C388.86 234.492 387.252 235.872 387.168 237.696Z" fill="#263238"/>
<path d="M423.072 237.696C422.988 239.52 424.464 241.092 426.36 241.224C428.256 241.344 429.876 239.976 429.96 238.152C430.044 236.328 428.568 234.756 426.672 234.624C424.776 234.492 423.156 235.872 423.072 237.696Z" fill="#263238"/>
<path d="M383.424 231.384C383.844 231.852 386.532 229.992 390.276 230.124C394.008 230.208 396.684 232.224 397.116 231.78C397.32 231.588 396.912 230.748 395.748 229.848C394.596 228.948 392.628 228.036 390.3 227.964C387.972 227.904 385.98 228.696 384.828 229.536C383.64 230.364 383.22 231.168 383.424 231.384Z" fill="#263238"/>
<path d="M418.92 232.272C419.352 232.728 421.98 230.76 425.712 230.76C429.444 230.7 432.204 232.608 432.6 232.152C432.792 231.948 432.36 231.132 431.16 230.268C429.984 229.404 427.968 228.576 425.64 228.588C423.312 228.612 421.356 229.476 420.228 230.364C419.088 231.252 418.704 232.068 418.92 232.272Z" fill="#263238"/>
<path d="M406.104 261.072C406.116 260.856 403.8 260.46 400.032 259.98C399.072 259.884 398.172 259.692 398.016 259.044C397.788 258.348 398.196 257.328 398.652 256.212C399.552 253.896 400.488 251.484 401.472 248.94C405.396 238.584 408.228 230.076 407.808 229.92C407.388 229.764 403.872 238.032 399.948 248.388C399 250.944 398.1 253.38 397.248 255.708C396.888 256.788 396.264 258.024 396.756 259.452C397.008 260.16 397.716 260.688 398.328 260.844C398.94 261.036 399.48 261.036 399.948 261.072C403.74 261.264 406.092 261.276 406.104 261.072Z" fill="#263238"/>
<path d="M403.524 305.316C403.524 305.316 421.752 306.492 439.812 295.632C439.812 295.632 430.644 314.484 403.524 311.952V305.316Z" fill="#EB996E"/>
<path d="M417.996 226.956C418.368 227.976 422.1 227.496 426.48 228.024C430.884 228.468 434.412 229.752 435 228.84C435.264 228.408 434.64 227.448 433.212 226.464C431.796 225.48 429.528 224.544 426.9 224.256C424.272 223.968 421.86 224.388 420.252 225.036C418.644 225.672 417.84 226.476 417.996 226.956Z" fill="#263238"/>
<path d="M384.288 221.976C384.948 222.828 387.528 221.94 390.624 221.904C393.72 221.76 396.348 222.48 396.948 221.592C397.212 221.16 396.804 220.308 395.652 219.504C394.524 218.7 392.628 218.052 390.504 218.112C388.38 218.184 386.532 218.952 385.452 219.816C384.36 220.692 384 221.568 384.288 221.976Z" fill="#263238"/>
<path d="M460.572 244.776C460.968 244.584 475.08 238.344 475.236 254.568C475.404 270.792 459.084 267.612 459.048 267.144C459.024 266.688 460.572 244.776 460.572 244.776Z" fill="#FFBE9D"/>
<path d="M463.944 260.952C464.016 260.904 464.232 261.144 464.712 261.36C465.18 261.564 465.984 261.708 466.824 261.384C468.528 260.736 469.944 258 469.992 255.072C470.016 253.596 469.692 252.192 469.164 251.028C468.66 249.852 467.88 249.024 467.016 248.88C466.152 248.688 465.552 249.216 465.36 249.672C465.144 250.128 465.252 250.452 465.168 250.476C465.12 250.512 464.82 250.212 464.94 249.54C465 249.216 465.192 248.832 465.564 248.52C465.948 248.196 466.524 248.028 467.124 248.088C468.372 248.16 469.512 249.3 470.1 250.572C470.76 251.844 471.156 253.428 471.12 255.084C471.048 258.348 469.404 261.432 467.064 262.128C465.924 262.44 464.976 262.104 464.472 261.72C463.98 261.348 463.896 260.976 463.944 260.952Z" fill="#EB996E"/>
<path d="M400.716 178.656C391.692 183.324 387.972 201.78 391.716 211.236C395.448 220.68 405.516 225.3 415.44 227.472C425.364 229.644 435.096 229.908 444.876 227.184C445.56 233.76 449.508 240.528 455.892 242.256C464.352 244.56 472.872 236.808 474.744 228.252C476.628 219.696 473.808 210.888 471.024 202.572" fill="#263238"/>
<path d="M472.296 237.516C472.332 237.564 471.888 237.984 471.048 238.704C470.196 239.412 468.96 240.42 467.304 241.524C465.648 242.616 463.572 243.828 460.992 244.572C458.46 245.304 455.34 245.568 452.388 244.44C449.436 243.312 447.252 241.08 445.872 238.812C444.48 236.508 443.844 234.156 443.532 232.188C443.232 230.208 443.232 228.6 443.28 227.484C443.328 226.38 443.436 225.768 443.496 225.768C443.676 225.768 443.484 228.228 444.192 232.056C444.576 233.952 445.248 236.196 446.604 238.344C447.948 240.468 450.012 242.532 452.724 243.552C455.424 244.584 458.328 244.38 460.764 243.72C463.224 243.06 465.276 241.944 466.944 240.936C470.256 238.896 472.2 237.384 472.296 237.516Z" fill="#263238"/>
<path d="M407.208 271.488C407.748 272.868 408.312 274.272 409.224 275.436C410.136 276.6 411.468 277.536 412.956 277.596C414.54 277.668 416.052 276.732 416.94 275.424C417.816 274.116 418.116 272.472 418.044 270.9C417.984 269.472 417.324 267.768 415.908 267.6C415.32 267.528 414.732 267.756 414.18 267.984C411.696 268.992 409.212 270 406.716 271.008" fill="#EB996E"/>
<path d="M410.184 277.62C410.22 277.392 411.864 278.052 414.168 277.128C415.284 276.684 416.508 275.796 417.18 274.392C417.852 273.012 417.984 271.14 417.276 269.508C417.108 269.1 416.868 268.728 416.628 268.392C416.328 268.08 416.388 268.092 416.064 268.14C415.764 268.224 415.272 268.452 414.864 268.608C414.444 268.776 414.036 268.944 413.64 269.112C412.044 269.76 410.592 270.324 409.38 270.78C406.932 271.692 405.396 272.172 405.312 272.004C405.24 271.836 406.656 271.044 409.008 269.916C410.184 269.352 411.588 268.692 413.16 267.984C413.556 267.804 413.952 267.624 414.372 267.444C414.804 267.264 415.14 267.072 415.74 266.88C416.028 266.796 416.448 266.748 416.844 266.916C417.24 267.072 417.48 267.348 417.672 267.564C418.008 268.008 418.296 268.464 418.512 268.98C419.388 271.02 419.172 273.276 418.284 274.944C417.372 276.648 415.812 277.608 414.492 278.004C413.148 278.412 411.996 278.316 411.264 278.124C410.508 277.956 410.16 277.704 410.184 277.62Z" fill="#263238"/>
<path d="M478.764 233.676C477.096 233.556 463.704 235.296 464.76 260.196C465.744 283.464 482.064 278.34 487.272 269.58C492.204 261.288 495.06 234.816 478.764 233.676Z" fill="#455A64"/>
<path d="M487.044 236.616C487.032 236.616 487.008 236.388 486.984 235.956C486.96 235.476 486.936 234.84 486.9 234.06C486.852 232.344 486.78 229.944 486.696 226.968C486.576 220.848 486.408 212.352 486.204 202.536L486.504 202.836C484.296 202.836 481.968 202.848 479.592 202.848L479.904 202.524C479.952 204.384 480.012 206.34 480.06 208.32C480.288 217.668 480.504 226.368 480.684 233.652V233.868L480.48 233.916C477.372 234.648 474.912 236.448 473.364 238.5C471.78 240.552 471 242.724 470.52 244.512C470.04 246.312 469.884 247.776 469.788 248.76C469.74 249.252 469.716 249.636 469.704 249.9C469.692 250.152 469.68 250.296 469.668 250.296C469.656 250.296 469.632 250.164 469.62 249.9C469.608 249.636 469.608 249.252 469.62 248.76C469.656 247.764 469.776 246.276 470.22 244.44C470.664 242.616 471.42 240.384 473.016 238.248C474.576 236.112 477.132 234.192 480.348 233.412L480.144 233.676C479.94 226.392 479.688 217.692 479.412 208.344C479.364 206.364 479.304 204.408 479.256 202.548L479.244 202.224H479.568C481.944 202.224 484.26 202.236 486.48 202.236H486.78V202.536C486.888 212.352 486.984 220.848 487.044 226.968C487.056 229.944 487.056 232.344 487.068 234.06C487.056 234.84 487.056 235.476 487.044 235.956C487.08 236.388 487.068 236.616 487.044 236.616Z" fill="#455A64"/>
<path d="M478.764 202.536C478.764 202.536 471.756 186.132 455.064 178.044C446.976 174.12 440.928 172.104 435.06 170.628C435.06 170.628 444.804 168.312 460.56 175.332C467.724 178.524 474.936 182.664 479.712 188.892C482.748 192.84 486.528 200.568 486.516 202.548H478.764V202.536Z" fill="#455A64"/>
<path d="M435.54 401.1C435.528 401.088 435.636 400.98 435.84 400.776C436.044 400.56 436.356 400.26 436.752 399.84C437.544 399.012 438.672 397.74 439.992 396C441.324 394.26 442.8 392.004 444.372 389.28C445.932 386.556 447.564 383.352 449.328 379.764C452.868 372.588 456.96 363.9 461.196 353.94C463.32 348.96 465.48 343.668 467.628 338.1C468.156 336.708 468.696 335.292 469.248 333.876C469.788 332.448 470.34 330.984 471.18 329.628C471.996 328.26 473.196 327.06 474.66 326.316C475.392 325.944 476.208 325.656 477.096 325.692C477.54 325.728 477.996 325.872 478.368 326.16C478.752 326.436 478.98 326.844 479.172 327.24L479.208 327.324L479.184 327.42C479.064 327.972 478.896 328.524 478.536 329.016C478.188 329.508 477.624 329.868 477.036 330C475.836 330.24 474.696 329.868 473.688 329.388C471.516 328.488 470.232 325.92 470.724 323.568C470.952 322.392 471.684 321.312 472.668 320.64C473.652 319.956 474.864 319.596 476.076 319.668C477.264 319.74 478.56 320.232 479.22 321.408C479.556 321.984 479.52 322.836 479.1 323.364C478.704 323.904 478.152 324.228 477.576 324.48C475.548 325.284 473.112 324.576 471.828 322.848C471.18 321.984 470.916 320.868 471.048 319.824C471.156 318.78 471.612 317.784 472.296 316.992C472.98 316.2 473.928 315.636 474.996 315.504C476.04 315.396 477.156 315.696 477.912 316.512C478.296 316.908 478.5 317.484 478.488 318.048C478.488 318.624 478.2 319.164 477.792 319.524C476.988 320.256 475.884 320.52 474.852 320.316C473.784 320.088 473.016 319.284 472.512 318.432C472.02 317.568 471.768 316.608 471.636 315.66C471.396 313.788 471.42 311.82 472.272 310.068C472.728 309.216 473.364 308.436 474.312 308.052C475.248 307.68 476.28 307.776 477.168 308.148C478.02 308.52 478.884 309.3 478.92 310.368C478.992 311.412 478.272 312.336 477.396 312.708C476.532 313.116 475.476 313.14 474.636 312.672C473.796 312.216 473.22 311.412 472.932 310.572C472.62 309.732 472.632 308.76 472.764 307.944C472.872 307.104 473.028 306.264 473.316 305.448C473.592 304.644 474.084 303.852 474.768 303.324C475.44 302.796 476.196 302.4 477.024 302.196C477.42 302.112 477.888 302.028 478.344 302.184C478.776 302.328 479.136 302.58 479.448 302.88C479.748 303.18 479.988 303.54 480.156 303.948C480.324 304.344 480.384 304.836 480.192 305.28C479.832 306.192 478.824 306.492 478.044 306.468C477.216 306.48 476.436 306.156 475.788 305.712C474.504 304.8 473.676 303.396 473.376 301.932C473.052 300.48 473.22 298.944 473.88 297.66C474.228 297.036 474.648 296.436 475.224 296.016C475.788 295.584 476.46 295.308 477.144 295.188C477.828 295.08 478.56 295.128 479.184 295.476C479.796 295.824 480.252 296.472 480.288 297.18C480.336 298.608 479.232 299.724 478.02 300.06C476.724 300.396 475.488 299.7 474.756 298.836C473.988 297.948 473.604 296.844 473.52 295.764C473.412 293.58 474.276 291.744 474.696 290.016C475.188 288.288 475.632 286.716 476.028 285.288C476.832 282.468 477.468 280.284 477.9 278.76C478.116 278.04 478.284 277.476 478.404 277.068C478.524 276.684 478.596 276.492 478.596 276.492C478.596 276.492 478.56 276.696 478.464 277.08C478.356 277.488 478.212 278.064 478.02 278.796C477.612 280.32 477.024 282.528 476.268 285.36C475.884 286.788 475.452 288.372 474.984 290.1C474.576 291.84 473.748 293.688 473.868 295.74C473.94 296.748 474.324 297.78 475.032 298.596C475.704 299.388 476.844 299.988 477.912 299.688C478.956 299.412 479.928 298.356 479.856 297.228C479.832 296.676 479.46 296.148 478.968 295.872C478.464 295.584 477.816 295.548 477.216 295.644C476.604 295.752 476.004 296.004 475.5 296.4C474.996 296.772 474.6 297.324 474.288 297.9C473.688 299.076 473.532 300.504 473.844 301.86C474.12 303.216 474.9 304.512 476.064 305.328C476.652 305.724 477.324 306 478.032 305.988C478.728 306 479.472 305.736 479.688 305.124C479.928 304.548 479.544 303.792 479.052 303.3C478.8 303.048 478.488 302.844 478.164 302.736C477.864 302.628 477.492 302.688 477.12 302.76C475.656 303.144 474.264 304.14 473.796 305.676C473.532 306.42 473.376 307.236 473.28 308.052C473.148 308.892 473.148 309.66 473.424 310.428C473.688 311.172 474.18 311.856 474.864 312.216C475.536 312.588 476.4 312.576 477.108 312.24C477.828 311.916 478.356 311.22 478.296 310.452C478.272 309.684 477.624 309.06 476.88 308.736C476.124 308.424 475.236 308.352 474.48 308.652C473.736 308.94 473.136 309.648 472.752 310.392C471.984 311.952 471.948 313.848 472.188 315.636C472.32 316.524 472.548 317.424 472.992 318.192C473.424 318.936 474.108 319.62 474.924 319.776C475.74 319.944 476.7 319.704 477.312 319.14C477.96 318.6 477.96 317.592 477.396 316.992C476.832 316.368 475.872 316.092 475.008 316.188C474.132 316.296 473.304 316.788 472.704 317.472C471.492 318.828 471.144 321.06 472.272 322.548C473.352 324.036 475.56 324.672 477.288 323.964C477.768 323.76 478.248 323.46 478.536 323.064C478.824 322.68 478.848 322.188 478.62 321.768C478.14 320.88 477.036 320.424 475.98 320.364C473.856 320.22 471.636 321.684 471.264 323.772C470.844 325.836 471.948 328.116 473.892 328.908C474.828 329.364 475.896 329.676 476.832 329.484C477.804 329.304 478.332 328.368 478.512 327.384L478.536 327.564C478.26 326.88 477.684 326.436 476.976 326.388C476.268 326.352 475.524 326.592 474.852 326.94C473.484 327.636 472.38 328.74 471.6 330.024C470.796 331.32 470.256 332.748 469.716 334.176C469.164 335.604 468.624 337.008 468.096 338.412C465.936 343.992 463.752 349.284 461.616 354.252C457.344 364.212 453.192 372.9 449.604 380.052C447.816 383.628 446.16 386.832 444.564 389.556C442.968 392.28 441.444 394.512 440.088 396.252C437.436 399.6 435.54 401.1 435.54 401.1Z" fill="white"/>
<path d="M493.308 222C493.2 222.024 493.356 220.296 492.216 217.56C491.112 214.872 488.376 211.224 483.6 208.932C481.224 207.816 478.38 207.108 475.296 206.904C472.2 206.7 468.876 207 465.444 207.66C458.568 208.92 451.344 211.896 443.256 213.108C439.2 213.636 435.192 213.612 431.376 213.096C427.56 212.556 423.984 211.476 420.696 210.204C414.156 207.504 408.876 203.736 405.144 199.932C401.388 196.14 398.964 192.504 397.608 189.852C397.224 189.216 396.948 188.616 396.72 188.088C396.492 187.572 396.3 187.14 396.132 186.756C395.988 186.42 395.88 186.156 395.784 185.94C395.712 185.748 395.676 185.652 395.688 185.652C395.7 185.652 395.748 185.736 395.844 185.916C395.952 186.132 396.084 186.384 396.252 186.708C396.432 187.068 396.636 187.5 396.888 188.004C397.128 188.52 397.416 189.108 397.824 189.732C399.228 192.336 401.7 195.9 405.456 199.608C409.2 203.34 414.444 207.024 420.912 209.664C424.164 210.912 427.692 211.968 431.46 212.484C435.228 212.988 439.176 213 443.172 212.484C451.152 211.284 458.388 208.332 465.348 207.084C468.816 206.436 472.188 206.148 475.344 206.376C478.488 206.604 481.38 207.348 483.804 208.524C488.664 210.924 491.388 214.692 492.456 217.452C493.032 218.844 493.176 220.008 493.296 220.788C493.308 221.148 493.32 221.448 493.332 221.676C493.32 221.892 493.32 222 493.308 222Z" fill="#455A64"/>
<path d="M475.2 196.14C475.2 196.164 474.9 196.212 474.336 196.296C473.772 196.368 472.932 196.5 471.864 196.68C469.728 197.04 466.656 197.712 462.888 198.66C459.12 199.596 454.608 200.724 449.472 201.264C444.348 201.804 438.624 201.756 432.732 200.904C426.84 200.052 421.344 198.48 416.568 196.56C411.78 194.628 407.688 192.408 404.436 190.26C402.828 189.168 401.376 188.16 400.164 187.2C398.976 186.216 397.908 185.412 397.116 184.668C396.36 183.96 395.748 183.384 395.292 182.952C394.884 182.556 394.668 182.34 394.68 182.328C394.692 182.316 394.932 182.496 395.376 182.868C395.856 183.276 396.492 183.816 397.272 184.488C398.088 185.208 399.168 185.976 400.38 186.936C401.604 187.86 403.068 188.844 404.676 189.9C411.168 194.052 421.092 198.636 432.828 200.304C438.672 201.156 444.324 201.216 449.412 200.712C454.5 200.22 459 199.14 462.792 198.252C466.572 197.364 469.668 196.752 471.828 196.464C472.908 196.32 473.748 196.224 474.324 196.188C474.888 196.128 475.2 196.116 475.2 196.14Z" fill="#455A64"/>
<path d="M476.976 276.54C476.964 276.564 476.808 276.516 476.508 276.408C476.208 276.288 475.776 276.096 475.26 275.76C474.228 275.112 472.86 273.912 471.744 272.016C470.616 270.132 469.872 267.576 469.584 264.708C469.308 261.852 469.308 258.696 469.572 255.396C469.848 252.096 470.4 248.988 471.108 246.216C471.804 243.444 472.644 240.96 473.784 239.088C474.912 237.204 476.28 235.992 477.312 235.368C477.828 235.044 478.26 234.852 478.56 234.732C478.86 234.624 479.028 234.588 479.028 234.6C479.052 234.648 478.416 234.876 477.444 235.56C476.472 236.244 475.2 237.456 474.156 239.304C473.088 241.152 472.32 243.588 471.66 246.348C470.988 249.096 470.46 252.18 470.184 255.432C469.92 258.684 469.908 261.816 470.148 264.636C470.4 267.444 471.072 269.928 472.116 271.776C473.136 273.636 474.42 274.848 475.38 275.544C476.364 276.252 477.012 276.48 476.976 276.54Z" fill="#263238"/>
<path d="M424.428 279.984L412.116 282.396C410.256 282.756 408.468 281.556 408.096 279.696L408.012 279.24C407.652 277.38 408.852 275.592 410.712 275.22L423.024 272.808C424.884 272.448 426.672 273.648 427.044 275.508L427.128 275.964C427.488 277.824 426.276 279.624 424.428 279.984Z" fill="#455A64"/>
<path d="M425.364 274.656L482.304 256.8C483.708 256.356 485.208 257.136 485.664 258.54C486.132 260.004 485.292 261.552 483.804 261.948L425.58 277.68L425.364 274.656Z" fill="#455A64"/>
<path d="M467.448 266.808C467.436 266.772 468.108 266.532 469.332 266.148C470.664 265.74 472.416 265.212 474.54 264.564C476.724 263.892 479.412 263.184 482.244 262.248C482.928 261.984 483.6 261.624 484.104 261.096C484.596 260.58 484.92 259.848 484.908 259.116C484.908 258.384 484.44 257.724 483.732 257.484C483.024 257.244 482.172 257.352 481.356 257.556C474.732 259.68 468.756 261.612 464.28 263.052C462.168 263.712 460.416 264.252 459.084 264.66C457.848 265.02 457.164 265.212 457.152 265.164C457.14 265.128 457.8 264.864 459.012 264.42C460.332 263.964 462.06 263.352 464.148 262.62C468.504 261.144 474.48 259.092 481.2 256.944C482.064 256.728 483.012 256.584 483.936 256.896C484.872 257.196 485.532 258.156 485.52 259.104C485.532 260.028 485.136 260.892 484.536 261.516C483.924 262.128 483.18 262.512 482.448 262.788C479.508 263.724 476.88 264.36 474.66 264.996C472.524 265.56 470.748 266.028 469.404 266.388C468.156 266.7 467.46 266.856 467.448 266.808Z" fill="#263238"/>
<path d="M374.352 223.2C376.296 230.04 369.348 235.908 366.9 242.592C364.536 249.048 366.552 256.284 369.468 262.524C372.384 268.752 376.224 274.668 377.712 281.388C381.396 297.948 366.42 315.792 369.276 332.508C370.32 338.604 372.768 344.952 374.892 350.76C377.016 356.556 376.872 361.872 374.892 367.716C371.652 377.292 366.156 381.804 362.292 391.152C360.312 395.928 360.468 401.28 360.564 406.44C360.66 411.6 360.624 417 358.332 421.632C356.028 426.264 350.772 429.84 345.78 428.496C351 434.64 360.648 436.476 367.764 432.684C374.328 429.18 378 422.076 381.144 415.332C396.36 382.68 404.412 379.92 403.992 343.896C403.968 341.58 403.536 305.496 403.536 305.496C403.536 305.496 397.836 303.972 394.548 301.704C377.544 289.968 376.932 269.064 377.064 252.864" fill="#263238"/>
<path d="M408.36 332.496V346.092C408.36 346.092 397.908 399.432 394.764 429.06C391.632 458.688 391.092 466.512 391.092 466.512C391.092 466.512 398.592 478.212 414.276 458.34C429.96 438.468 432.756 435.336 439.02 434.988C439.02 434.988 431.352 351.672 431.7 348.54C432.048 345.408 434.484 342.612 434.484 342.612L408.36 332.496Z" fill="#FFBE9D"/>
<path d="M428.928 301.824C428.928 301.824 411.852 324.48 410.448 327.624C409.056 330.756 408.36 332.508 408.36 332.508L434.508 342.612L459.96 314.724L469.368 289.98L466.584 260.7C466.584 260.7 461.004 260.352 459.96 265.236C458.916 270.12 459.264 274.644 459.264 274.644L451.452 268.368L438.864 264.528C438.864 264.528 435.9 269.412 440.784 271.848C445.668 274.284 447.06 274.284 447.06 274.284L451.452 281.952L449.532 290.544L440.64 282.204C438.852 280.524 436.128 280.356 434.148 281.796L428.4 285.972L423.012 283.56L412.56 292.752L408.372 296.592C408.372 296.592 411.156 301.824 416.736 299.376C422.316 296.94 422.316 296.94 422.316 296.94L428.928 301.824Z" fill="#FFBE9D"/>
<path d="M408.36 337.092C408.36 337.092 408.336 336.852 408.348 336.372C408.36 335.892 408.408 335.172 408.516 334.248C408.636 333.312 408.816 332.16 409.176 330.828C409.56 329.508 410.004 327.948 411.012 326.436C414.924 320.436 421.08 312.084 428.748 301.704L428.796 302.016C426.732 300.492 424.488 298.848 422.16 297.144L422.4 297.168C421.272 297.66 420.12 298.164 418.956 298.68C417.78 299.172 416.628 299.796 415.284 300.108C413.964 300.408 412.464 300.312 411.204 299.64C409.92 299.004 408.888 297.972 408.132 296.712L408.024 296.544L408.18 296.4C412.68 292.176 417.672 287.916 422.808 283.356L422.964 283.224L423.144 283.332C424.584 284.184 426.18 285.12 427.788 286.068L427.476 286.08C429.264 284.904 431.076 283.716 432.912 282.504C433.848 281.904 434.712 281.292 435.732 280.68C436.824 280.128 438.228 280.236 439.224 280.992C442.68 283.908 446.208 286.896 449.808 289.932L449.304 290.1C449.88 287.52 450.504 284.724 451.128 281.892L451.164 282.108C449.772 279.684 448.284 277.068 446.772 274.44L447.048 274.596C446.22 274.5 445.596 274.26 444.876 274.008C444.192 273.756 443.508 273.468 442.824 273.168C442.14 272.868 441.468 272.532 440.784 272.208C440.448 272.04 440.1 271.824 439.764 271.62C439.464 271.356 439.116 271.152 438.864 270.828C438.06 269.976 437.592 268.788 437.652 267.624C437.676 266.46 438.024 265.368 438.576 264.36L438.696 264.144L438.936 264.216C443.184 265.512 447.384 266.796 451.512 268.056L451.572 268.068L451.62 268.104C454.26 270.228 456.864 272.316 459.432 274.38L458.94 274.644C458.772 271.488 459 268.38 459.6 265.368C459.864 263.832 460.776 262.308 462.144 261.504C463.488 260.676 465.036 260.352 466.584 260.388H466.836L466.86 260.652C467.844 271.056 468.768 280.872 469.62 289.932V289.992L469.596 290.052C466.104 299.172 462.948 307.452 460.14 314.784L460.128 314.82L460.104 314.844C451.74 323.952 445.008 331.284 440.34 336.348C438.024 338.856 436.224 340.8 434.976 342.132C434.376 342.78 433.908 343.272 433.572 343.62C433.26 343.956 433.08 344.112 433.08 344.112C433.08 344.112 433.224 343.92 433.524 343.572C433.848 343.212 434.292 342.708 434.88 342.036C436.104 340.68 437.868 338.712 440.16 336.168C444.78 331.068 451.464 323.688 459.78 314.532L459.732 314.604C462.516 307.26 465.648 298.968 469.104 289.836L469.092 289.956C468.216 280.884 467.28 271.08 466.272 260.676L466.548 260.94C465.156 260.916 463.668 261.216 462.468 261.972C461.244 262.704 460.452 264.012 460.2 265.452C459.612 268.392 459.396 271.488 459.552 274.56L459.588 275.244L459.06 274.812C456.492 272.748 453.888 270.66 451.248 268.536L451.356 268.596C447.216 267.336 443.028 266.064 438.768 264.768L439.128 264.636C438.636 265.524 438.312 266.568 438.288 267.588C438.24 268.62 438.636 269.616 439.332 270.36C439.548 270.648 439.872 270.828 440.136 271.056C440.448 271.236 440.748 271.428 441.084 271.596C441.756 271.932 442.428 272.256 443.1 272.544C444.42 273.12 445.836 273.732 447.06 273.924L447.264 273.96L447.336 274.092C448.848 276.72 450.336 279.336 451.728 281.76L451.788 281.868L451.764 281.988C451.128 284.808 450.504 287.604 449.928 290.196L449.82 290.688L449.436 290.364C445.848 287.328 442.332 284.352 438.9 281.436C438.084 280.824 436.92 280.728 436.02 281.184C435.12 281.712 434.172 282.384 433.26 282.96C431.424 284.16 429.612 285.36 427.824 286.524L427.668 286.62L427.512 286.524C425.904 285.564 424.308 284.628 422.88 283.776L423.216 283.74C418.08 288.288 413.064 292.536 408.564 296.748L408.624 296.436C409.296 297.564 410.292 298.584 411.456 299.148C412.62 299.76 413.964 299.856 415.2 299.58C416.436 299.304 417.6 298.68 418.788 298.188C419.964 297.672 421.116 297.18 422.244 296.688L422.364 296.628L422.472 296.712C424.788 298.428 427.02 300.084 429.084 301.608L429.264 301.74L429.132 301.92C421.416 312.264 415.2 320.58 411.252 326.52C410.256 327.984 409.788 329.532 409.392 330.828C409.02 332.148 408.816 333.288 408.684 334.212C408.552 335.136 408.492 335.844 408.456 336.324C408.384 336.84 408.36 337.092 408.36 337.092Z" fill="#EB996E"/>
<path d="M440.712 307.068C440.592 307.044 441.048 305.22 441.24 302.244C441.3 300.768 441.216 298.968 440.412 297.204C439.62 295.44 438.048 293.916 436.248 292.524C432.624 289.728 429.144 287.484 426.576 285.936C425.376 285.228 424.356 284.628 423.516 284.136C422.796 283.716 422.388 283.464 422.412 283.428C422.436 283.392 422.868 283.56 423.624 283.92C424.392 284.28 425.472 284.832 426.792 285.552C429.432 287.016 432.984 289.212 436.632 292.032C438.456 293.436 440.1 295.056 440.94 296.964C441.768 298.872 441.804 300.768 441.684 302.268C441.552 303.792 441.288 304.98 441.096 305.808C440.892 306.636 440.76 307.08 440.712 307.068Z" fill="#EB996E"/>
<path d="M459.012 296.196C458.916 296.172 459.168 294.984 459.456 293.064C459.744 291.144 460.02 288.456 459.996 285.492C459.972 282.528 459.648 279.852 459.324 277.932C459.012 276.012 458.736 274.824 458.832 274.8C458.904 274.776 459.324 275.928 459.768 277.848C460.2 279.768 460.596 282.48 460.62 285.492C460.644 288.504 460.296 291.216 459.888 293.148C459.492 295.068 459.084 296.208 459.012 296.196Z" fill="#EB996E"/>
<path d="M342.48 207.276L329.976 185.232C335.508 176.244 338.712 165.672 338.712 154.356C338.712 121.788 312.312 95.3882 279.744 95.3882C247.176 95.3882 220.776 121.788 220.776 154.356C220.776 186.924 247.176 213.324 279.744 213.324C293.34 213.324 305.856 208.704 315.828 200.976L315.804 201L342.48 207.276Z" fill="white"/>
<path d="M342.48 207.276C341.388 207.024 332.832 205.056 315.768 201.144L315.528 201.096L315.672 200.904L315.696 200.88L315.912 201.096C312.552 203.7 308.52 206.268 303.78 208.404C299.04 210.504 293.604 212.22 287.616 213.012C284.628 213.396 281.496 213.636 278.28 213.48C276.672 213.384 275.04 213.348 273.396 213.216C271.764 212.964 270.096 212.712 268.416 212.46C261.744 211.14 254.916 208.608 248.556 204.66C242.196 200.724 236.304 195.384 231.588 188.808C226.872 182.256 223.296 174.48 221.628 166.044C219.972 157.608 220.116 148.572 222.324 139.824C224.556 131.112 228.72 122.592 234.96 115.584L237.372 112.932C238.164 112.044 239.112 111.312 239.964 110.484C240.864 109.716 241.668 108.84 242.64 108.156C243.588 107.448 244.524 106.74 245.472 106.044C246.384 105.3 247.392 104.712 248.4 104.112C249.396 103.5 250.392 102.9 251.388 102.3C252.432 101.796 253.476 101.28 254.52 100.776C255.576 100.296 256.584 99.7199 257.676 99.3719C266.232 95.9759 275.364 94.68 284.1 95.316C292.824 95.94 301.188 98.448 308.352 102.48C315.54 106.476 321.6 111.828 326.28 117.792C330.972 123.768 334.284 130.344 336.336 136.908C338.376 143.496 338.928 150.036 338.904 156.084C338.736 162.144 337.632 167.736 336.024 172.644C334.416 177.552 332.304 181.776 330.12 185.328V185.172C338.04 199.344 341.964 206.352 342.48 207.276C341.952 206.352 337.944 199.392 329.844 185.304L329.796 185.232L329.844 185.16C331.992 181.608 334.08 177.396 335.652 172.512C337.224 167.628 338.304 162.084 338.448 156.06C338.448 150.048 337.884 143.568 335.844 137.04C333.792 130.536 330.504 124.02 325.836 118.116C321.192 112.212 315.168 106.932 308.052 102.972C300.948 98.9879 292.68 96.5159 284.04 95.9039C275.4 95.2919 266.364 96.576 257.892 99.936C256.8 100.284 255.804 100.848 254.76 101.328C253.728 101.832 252.696 102.324 251.664 102.828C250.68 103.428 249.696 104.028 248.712 104.628C247.716 105.228 246.72 105.816 245.82 106.548C244.884 107.244 243.96 107.94 243.024 108.636C242.064 109.308 241.272 110.184 240.384 110.94C239.532 111.744 238.596 112.476 237.816 113.352L235.44 115.968C229.272 122.904 225.144 131.328 222.936 139.944C220.74 148.596 220.596 157.548 222.228 165.888C223.872 174.252 227.4 181.944 232.068 188.436C236.736 194.94 242.556 200.244 248.856 204.156C255.156 208.08 261.912 210.612 268.524 211.932C270.192 212.184 271.836 212.448 273.456 212.688C275.088 212.832 276.708 212.868 278.304 212.964C281.496 213.132 284.592 212.892 287.568 212.52C293.52 211.752 298.92 210.06 303.636 207.996C308.352 205.896 312.36 203.364 315.732 200.796L316.68 200.076L315.96 201.012L315.936 201.036L315.852 200.784C332.856 204.96 341.4 207.024 342.48 207.276Z" fill="#263238"/>
<path d="M266.964 154.356C266.964 156.996 264.816 159.144 262.176 159.144C259.536 159.144 257.388 156.996 257.388 154.356C257.388 151.716 259.536 149.568 262.176 149.568C264.816 149.568 266.964 151.716 266.964 154.356Z" fill="#263238"/>
<path d="M286.116 154.356C286.116 156.996 283.968 159.144 281.328 159.144C278.688 159.144 276.54 156.996 276.54 154.356C276.54 151.716 278.688 149.568 281.328 149.568C283.98 149.568 286.116 151.716 286.116 154.356Z" fill="#263238"/>
<path d="M305.232 151.956C306.552 154.248 305.772 157.176 303.48 158.496C301.188 159.816 298.26 159.036 296.94 156.744C295.62 154.452 296.4 151.524 298.692 150.204C300.984 148.884 303.912 149.676 305.232 151.956Z" fill="#263238"/>
<path d="M578.448 530.568C578.448 530.736 456.456 530.88 306.012 530.88C155.508 530.88 33.54 530.736 33.54 530.568C33.54 530.4 155.508 530.256 306.012 530.256C456.456 530.256 578.448 530.4 578.448 530.568Z" fill="#263238"/>
<path d="M424.26 530.868C424.26 530.868 432.396 516.972 449.928 516.372C467.46 515.772 476.22 530.868 476.22 530.868H424.26Z" fill="#455A64"/>
<path d="M457.86 530.424C457.728 530.424 457.704 529.392 457.344 527.808C456.996 526.224 456.228 524.088 454.848 522.036C453.456 519.996 451.752 518.496 450.396 517.584C449.052 516.672 448.104 516.264 448.152 516.144C448.176 516.072 449.208 516.3 450.684 517.128C452.16 517.944 454.008 519.468 455.472 521.604C456.924 523.752 457.656 526.044 457.872 527.712C458.1 529.392 457.932 530.436 457.86 530.424Z" fill="#263238"/>
<path d="M413.412 530.232V530.124C413.352 526.452 410.352 523.5 406.68 523.5H257.472C253.752 523.5 250.74 526.512 250.74 530.232H413.412Z" fill="#455A64"/>
<path d="M127.764 268.848C127.764 271.992 130.116 459.384 130.116 459.384L269.304 492.876H280.812L273.492 231.252H263.028L127.764 268.848Z" fill="#263238"/>
<path d="M157.2 451.548L114.06 530.616H153.492C146.436 529.908 215.928 530.616 215.928 530.616L153.492 514.056L173.016 469.716L171.348 451.548H157.2Z" fill="#263238"/>
<path d="M158.16 466.14L153.492 318.78L195.876 314.724L201.096 472.056L185.964 472.824L158.16 466.14Z" fill="#263238"/>
<path d="M207.024 477.888C207.024 477.888 207.012 477.66 207 477.204C206.988 476.736 206.988 476.064 206.976 475.188C206.964 473.388 206.952 470.76 206.928 467.364C206.904 460.512 206.88 450.564 206.844 438.06C206.82 413.016 206.772 377.772 206.736 336.9L207.036 337.2C191.352 337.2 174.48 337.212 157.032 337.212L157.344 336.9C157.344 339.048 157.344 341.376 157.344 343.704C157.32 383.556 157.308 420.66 157.296 451.56V451.632L157.26 451.692C144.276 475.488 133.512 495.228 125.976 509.04C122.208 515.916 119.244 521.316 117.216 525.012C116.208 526.836 115.428 528.24 114.9 529.2C114.372 530.148 114.084 530.628 114.084 530.628C114.084 530.628 114.324 530.124 114.828 529.164C115.344 528.192 116.1 526.776 117.084 524.94C119.076 521.232 122.004 515.808 125.712 508.896C133.2 495.06 143.904 475.284 156.804 451.44L156.768 451.56C156.756 420.648 156.732 383.556 156.72 343.704C156.72 341.376 156.72 339.06 156.72 336.9V336.588H157.032C174.48 336.588 191.352 336.6 207.036 336.6H207.336V336.9C207.288 377.772 207.252 413.016 207.228 438.06C207.192 450.564 207.156 460.524 207.144 467.364C207.12 470.772 207.108 473.4 207.096 475.188C207.084 476.064 207.072 476.736 207.072 477.204C207.036 477.66 207.024 477.888 207.024 477.888Z" fill="#455A64"/>
<path d="M173.016 469.716C173.172 469.788 167.172 483.66 159.612 500.712C152.052 517.764 145.788 531.528 145.632 531.456C145.476 531.384 151.476 517.512 159.036 500.46C166.596 483.408 172.86 469.644 173.016 469.716Z" fill="#455A64"/>
<path d="M269.304 492.876C269.304 492.876 269.28 492.648 269.268 492.204C269.256 491.736 269.244 491.076 269.232 490.224C269.208 488.46 269.184 485.904 269.136 482.616C269.088 476.016 268.932 466.452 268.704 454.656C268.26 431.04 267.192 398.436 265.884 362.424C264.576 326.4 263.58 293.784 263.244 270.156C263.064 258.348 262.992 248.784 263.016 242.184C263.028 238.896 263.04 236.34 263.04 234.576C263.052 233.724 263.052 233.064 263.064 232.596C263.076 232.152 263.088 231.924 263.088 231.924C263.088 231.924 263.112 232.152 263.124 232.596C263.136 233.064 263.148 233.724 263.16 234.576C263.184 236.34 263.208 238.896 263.256 242.184C263.304 248.784 263.46 258.348 263.688 270.144C264.132 293.76 265.2 326.364 266.508 362.4C267.816 398.412 268.812 431.028 269.148 454.644C269.328 466.452 269.4 476.016 269.376 482.616C269.364 485.904 269.352 488.46 269.352 490.224C269.34 491.076 269.34 491.736 269.328 492.204C269.328 492.648 269.304 492.876 269.304 492.876Z" fill="#455A64"/>
<path d="M199.428 335.796C199.596 335.796 199.74 367.14 199.74 405.792C199.74 444.456 199.596 475.788 199.428 475.788C199.26 475.788 199.116 444.456 199.116 405.792C199.116 367.14 199.26 335.796 199.428 335.796Z" fill="#455A64"/>
<path d="M124.44 518.268C124.428 518.28 124.212 517.992 123.84 517.428C123.648 517.128 123.42 516.792 123.156 516.384C122.868 515.976 122.58 515.496 122.292 514.92C120.996 512.712 119.52 509.256 118.488 504.78C117.468 500.304 117.12 494.772 117.744 488.736C118.428 482.712 120.048 476.16 122.94 469.776C124.392 466.572 126.276 463.668 128.376 461.124C128.88 460.464 129.408 459.84 129.96 459.252C130.512 458.652 131.04 458.052 131.592 457.488C132.744 456.396 133.836 455.28 135.024 454.332C137.304 452.328 139.728 450.732 141.996 449.28C143.184 448.632 144.288 447.948 145.416 447.396C146.556 446.88 147.612 446.292 148.692 445.896C152.94 444.168 156.6 443.328 159.156 443.112C160.428 442.896 161.424 442.98 162.096 442.932C162.768 442.92 163.128 442.92 163.128 442.944C163.128 442.968 162.78 443.004 162.108 443.064C161.436 443.148 160.44 443.112 159.192 443.364C156.66 443.652 153.06 444.552 148.872 446.316C147.804 446.712 146.772 447.312 145.644 447.828C144.54 448.38 143.436 449.064 142.272 449.724C140.028 451.176 137.652 452.772 135.408 454.776C134.232 455.724 133.164 456.828 132.024 457.92C131.484 458.484 130.956 459.084 130.416 459.672C129.864 460.248 129.348 460.884 128.856 461.532C126.792 464.052 124.932 466.92 123.504 470.064C120.648 476.376 119.016 482.868 118.308 488.832C117.648 494.808 117.948 500.28 118.908 504.72C119.868 509.16 121.272 512.604 122.496 514.836C122.76 515.412 123.036 515.904 123.3 516.324C123.54 516.732 123.756 517.092 123.936 517.392C124.284 517.944 124.452 518.256 124.44 518.268Z" fill="#455A64"/>
</svg>
