<svg width="504" height="504" viewBox="0 0 504 504" fill="none" xmlns="http://www.w3.org/2000/svg">
<path d="M484.799 445.732H446.165V446.024H484.799V445.732Z" fill="#EBEBEB"/>
<path d="M346.361 448.905H336.224V449.197H346.361V448.905Z" fill="#EBEBEB"/>
<path d="M444.998 434.907H422.614V435.199H444.998V434.907Z" fill="#EBEBEB"/>
<path d="M71.5738 436.867H21.1935V437.158H71.5738V436.867Z" fill="#EBEBEB"/>
<path d="M89.3507 436.867H81.9669V437.158H89.3507V436.867Z" fill="#EBEBEB"/>
<path d="M222.633 441.789H113.357V442.081H222.633V441.789Z" fill="#EBEBEB"/>
<path d="M238.088 374.938H12.8415C9.16709 374.938 6.18091 371.952 6.18091 368.278V51.6606C6.18091 47.9862 9.16709 45 12.8415 45H238.088C241.763 45 244.749 47.9862 244.749 51.6606V368.278C244.749 371.952 241.763 374.938 238.088 374.938ZM12.8415 45.2916C9.3304 45.2916 6.47253 48.1495 6.47253 51.6606V368.278C6.47253 371.789 9.3304 374.647 12.8415 374.647H238.088C241.6 374.647 244.457 371.789 244.457 368.278V51.6606C244.457 48.1495 241.6 45.2916 238.088 45.2916H12.8415Z" fill="#EBEBEB"/>
<path d="M490.398 374.938H265.151C261.476 374.938 258.49 371.952 258.49 368.278V51.6606C258.49 47.9862 261.476 45 265.151 45H490.398C494.072 45 497.058 47.9862 497.058 51.6606V368.278C497.058 371.952 494.072 374.938 490.398 374.938ZM265.151 45.2916C261.64 45.2916 258.782 48.1495 258.782 51.6606V368.278C258.782 371.789 261.64 374.647 265.151 374.647H490.398C493.909 374.647 496.767 371.789 496.767 368.278V51.6606C496.767 48.1495 493.909 45.2916 490.398 45.2916H265.151Z" fill="#EBEBEB"/>
<path d="M112.435 119.06L120.939 113.601L125.582 122.582L135.683 122.116L135.217 132.218L144.199 136.86L138.739 145.364L144.199 153.879L135.217 158.522L135.683 168.623L125.582 168.157L120.939 177.139L112.435 171.68L103.92 177.139L99.2775 168.157L89.1758 168.623L89.6424 158.522L80.6605 153.879L86.1196 145.364L80.6605 136.86L89.6424 132.218L89.1758 122.116L99.2775 122.582L103.92 113.601L112.435 119.06Z" fill="#E6E6E6"/>
<path d="M109.204 158.358L99.091 148.245C97.9362 147.09 97.9362 145.212 99.091 144.057C100.246 142.903 102.124 142.903 103.279 144.057L109.204 149.983L121.581 137.607C122.735 136.452 124.614 136.452 125.768 137.607C126.923 138.762 126.923 140.64 125.768 141.794L109.204 158.358Z" fill="#FAFAFA"/>
<path d="M428.761 208.342L435.433 204.061L439.084 211.107L447.005 210.733L446.631 218.654L453.677 222.305L449.396 228.977L453.677 235.649L446.631 239.289L447.005 247.209L439.084 246.847L435.433 253.893L428.761 249.612L422.089 253.893L418.449 246.847L410.529 247.209L410.891 239.289L403.845 235.649L408.126 228.977L403.845 222.305L410.891 218.654L410.529 210.733L418.449 211.107L422.089 204.061L428.761 208.342Z" fill="#E6E6E6"/>
<path d="M426.23 239.16L418.298 231.228C417.388 230.318 417.388 228.849 418.298 227.939C419.207 227.029 420.677 227.029 421.587 227.939L426.23 232.581L435.935 222.876C436.845 221.966 438.314 221.966 439.224 222.876C440.134 223.786 440.134 225.256 439.224 226.166L426.23 239.16Z" fill="#FAFAFA"/>
<path d="M113.287 320.324L126.293 326.961C128.486 328.081 131.157 327.614 132.849 325.806L142.799 315.121C143.977 313.85 144.502 312.1 144.199 310.397L139.019 281.06C138.168 276.266 133.595 273.058 128.801 273.91L112.33 276.814C107.536 277.654 104.328 282.238 105.18 287.033L110.359 316.37C110.662 318.073 111.747 319.531 113.287 320.324ZM128.101 318.049C129.606 317.781 131.041 318.784 131.309 320.301C131.577 321.805 130.574 323.24 129.058 323.508C127.553 323.777 126.118 322.774 125.85 321.257C125.593 319.752 126.596 318.318 128.101 318.049Z" fill="#E6E6E6"/>
<path d="M113.942 311.245L139.111 306.808L138.631 304.086L113.462 308.522L113.942 311.245Z" fill="#FAFAFA"/>
<path d="M109.679 287.051L134.848 282.615L134.368 279.892L109.199 284.329L109.679 287.051Z" fill="#FAFAFA"/>
<path d="M157.741 130.374L166.688 139.975C168.205 141.596 170.608 142.016 172.579 141.013L184.279 135.052C185.667 134.34 186.647 133.022 186.915 131.494L191.569 105.109C192.328 100.793 189.446 96.6866 185.142 95.9283L170.328 93.3154C166.012 92.5572 161.906 95.4384 161.148 99.7427L156.493 126.128C156.213 127.668 156.68 129.243 157.741 130.374ZM170.958 133.011C172.311 133.244 173.221 134.539 172.976 135.892C172.742 137.245 171.448 138.155 170.094 137.91C168.741 137.677 167.831 136.382 168.076 135.029C168.31 133.676 169.605 132.777 170.958 133.011Z" fill="#F0F0F0"/>
<path d="M161.076 122.919L183.707 126.908L184.138 124.461L161.508 120.472L161.076 122.919Z" fill="#FAFAFA"/>
<path d="M164.912 101.159L187.542 105.148L187.974 102.702L165.343 98.7123L164.912 101.159Z" fill="#FAFAFA"/>
<path d="M374.543 101.924C371.09 96.99 364.278 95.7885 359.344 99.2413L354.725 102.484L351.482 97.8649C348.029 92.9307 341.217 91.7292 336.283 95.182C331.349 98.6348 330.147 105.447 333.6 110.381L349.359 132.894L371.872 117.135C376.806 113.671 378.008 106.858 374.543 101.924Z" fill="#EBEBEB"/>
<path d="M406.901 104.024C405.21 101.609 401.874 101.014 399.459 102.706L397.196 104.292L395.61 102.029C393.918 99.6145 390.582 99.0196 388.168 100.711C385.753 102.402 385.158 105.739 386.85 108.153L394.572 119.176L405.595 111.466C408.009 109.775 408.604 106.438 406.901 104.024Z" fill="#EBEBEB"/>
<path d="M61.9035 211.118C46.226 215.609 37.1625 231.975 41.6534 247.652C44.5696 257.836 62.4284 274.913 74.5948 285.621C80.0189 290.392 88.5692 287.942 90.6339 281.025C95.2648 265.499 101.365 241.552 98.4376 231.368C93.9467 215.691 77.5927 206.627 61.9035 211.118ZM73.8016 252.61C66.5694 254.686 59.0106 250.498 56.946 243.266C54.8696 236.034 59.0573 228.475 66.2895 226.411C73.5216 224.334 81.0804 228.522 83.1451 235.754C85.2331 242.986 81.0454 250.533 73.8016 252.61Z" fill="#E0E0E0"/>
<path d="M66.5228 209.8C50.8454 214.291 41.7818 230.657 46.2728 246.334C49.189 256.517 67.0477 273.595 79.2141 284.303C84.6382 289.074 93.1885 286.624 95.2532 279.707C99.8841 264.181 105.985 240.233 103.057 230.05C98.566 214.361 82.212 205.297 66.5228 209.8ZM78.4209 251.292C71.1887 253.368 63.63 249.18 61.5536 241.948C59.4773 234.716 63.665 227.157 70.8971 225.093C78.1293 223.016 85.6881 227.204 87.7527 234.436C89.8174 241.668 85.6647 249.215 78.4209 251.292Z" fill="#F5F5F5"/>
<path d="M406.656 136.079C393.008 132.159 378.766 140.056 374.846 153.716C372.303 162.581 377.611 183.426 381.647 196.957C383.443 202.988 390.885 205.123 395.61 200.958C406.201 191.626 421.75 176.765 424.293 167.889C428.201 154.229 420.316 139.986 406.656 136.079ZM396.298 172.205C389.999 170.397 386.348 163.829 388.156 157.519C389.964 151.22 396.531 147.569 402.842 149.377C409.141 151.185 412.792 157.752 410.984 164.063C409.176 170.373 402.597 174.013 396.298 172.205Z" fill="#E0E0E0"/>
<path d="M410.68 137.233C397.033 133.314 382.79 141.211 378.87 154.871C376.328 163.736 381.635 184.581 385.671 198.112C387.467 204.143 394.91 206.277 399.634 202.113C410.225 192.781 425.775 177.92 428.318 169.043C432.225 155.384 424.328 141.141 410.68 137.233ZM400.322 173.359C394.023 171.551 390.372 164.984 392.18 158.673C393.988 152.374 400.555 148.723 406.866 150.531C413.165 152.339 416.816 158.907 415.008 165.217C413.188 171.528 406.621 175.167 400.322 173.359Z" fill="#F5F5F5"/>
<path d="M251.62 479C376.529 479 477.788 473.088 477.788 465.795C477.788 458.503 376.529 452.591 251.62 452.591C126.71 452.591 25.451 458.503 25.451 465.795C25.451 473.088 126.71 479 251.62 479Z" fill="#F5F5F5"/>
<path d="M179.881 200.048H192.363C195.034 200.048 197.017 202.218 196.772 204.889L194.474 231.217C194.241 233.888 191.884 236.057 189.213 236.057H176.732C174.061 236.057 172.078 233.888 172.323 231.217L174.621 204.889C174.854 202.218 177.21 200.048 179.881 200.048Z" fill="#407BFF"/>
<path opacity="0.2" d="M319.509 194.426H339.013C343.189 194.426 346.28 197.809 345.906 201.985L343.503 229.478C343.142 233.654 339.456 237.037 335.28 237.037H315.776C311.6 237.037 308.509 233.654 308.882 229.478L311.285 201.985C311.659 197.809 315.333 194.426 319.509 194.426Z" fill="black"/>
<path opacity="0.2" d="M315.508 240.105H335.011C339.187 240.105 342.278 243.488 341.905 247.664L339.502 275.158C339.141 279.334 335.455 282.717 331.279 282.717H311.775C307.599 282.717 304.508 279.334 304.881 275.158L307.284 247.664C307.657 243.5 311.332 240.105 315.508 240.105Z" fill="black"/>
<path d="M214.887 142.891H323.556C338.662 142.891 349.826 155.127 348.507 170.233L325.318 435.222C324 450.328 310.678 462.564 295.584 462.564H186.915C171.809 462.564 160.646 450.328 161.964 435.222L185.142 170.233C186.472 155.127 199.781 142.891 214.887 142.891Z" fill="#407BFF"/>
<path opacity="0.2" d="M214.887 142.891H323.556C338.662 142.891 349.826 155.127 348.507 170.233L325.318 435.222C324 450.328 310.678 462.564 295.584 462.564H186.915C171.809 462.564 160.646 450.328 161.964 435.222L185.142 170.233C186.472 155.127 199.781 142.891 214.887 142.891Z" fill="black"/>
<path d="M211.376 142.891H320.045C335.151 142.891 346.314 155.127 344.996 170.233L321.818 435.222C320.5 450.328 307.179 462.564 292.085 462.564H183.416C168.31 462.564 157.147 450.328 158.465 435.222L181.654 170.233C182.961 155.127 196.282 142.891 211.376 142.891Z" fill="#407BFF"/>
<path d="M341.742 170.233L318.564 435.21C317.398 448.508 305.674 459.298 292.377 459.298H183.707C170.41 459.298 160.565 448.52 161.731 435.21L184.909 170.233C186.075 156.935 197.799 146.145 211.096 146.145H319.766C333.063 146.145 342.908 156.923 341.742 170.233Z" fill="white"/>
<g opacity="0.1">
<path opacity="0.1" d="M183.696 459.286H224.896L291.455 146.145H238.963L172.964 456.638C176.114 458.318 179.741 459.286 183.696 459.286Z" fill="black"/>
<path opacity="0.1" d="M316.651 146.145H306.666L240.095 459.286H250.092L316.651 146.145Z" fill="black"/>
</g>
<path d="M233.574 145.364C233.213 149.621 236.362 153.062 240.62 153.086H289.029C293.286 153.074 297.031 149.621 297.416 145.364H233.574Z" fill="#407BFF"/>
<path d="M317.794 154.672H328.782C329.704 154.672 330.381 155.419 330.299 156.329L329.879 161.123C329.797 162.044 328.992 162.779 328.071 162.779H317.083C316.161 162.779 315.485 162.033 315.566 161.123L315.986 156.329C316.068 155.419 316.873 154.672 317.794 154.672Z" fill="#407BFF"/>
<path d="M200.47 154.672H215.179C216.217 154.672 216.975 155.512 216.894 156.55L216.509 160.913C216.416 161.951 215.506 162.791 214.468 162.791H199.758C198.72 162.791 197.962 161.951 198.044 160.913L198.428 156.55C198.522 155.512 199.432 154.672 200.47 154.672Z" fill="#407BFF"/>
<path opacity="0.4" d="M200.47 154.672H215.179C216.217 154.672 216.975 155.512 216.894 156.55L216.509 160.913C216.416 161.951 215.506 162.791 214.468 162.791H199.758C198.72 162.791 197.962 161.951 198.044 160.913L198.428 156.55C198.522 155.512 199.432 154.672 200.47 154.672Z" fill="white"/>
<path d="M314.866 156.06H316.593C316.931 156.06 317.176 156.329 317.152 156.667L316.791 160.796C316.756 161.134 316.464 161.403 316.126 161.403H314.4C314.061 161.403 313.816 161.134 313.84 160.796L314.201 156.667C314.236 156.329 314.528 156.06 314.866 156.06Z" fill="#407BFF"/>
<path d="M326.601 156.06H328.327C328.666 156.06 328.911 156.329 328.887 156.667L328.526 160.796C328.491 161.134 328.199 161.403 327.861 161.403H326.134C325.796 161.403 325.551 161.134 325.575 160.796L325.936 156.667C325.971 156.329 326.274 156.06 326.601 156.06Z" fill="white"/>
<path d="M322.88 156.06H324.606C324.945 156.06 325.19 156.329 325.166 156.667L324.805 160.796C324.77 161.134 324.478 161.403 324.14 161.403H322.413C322.075 161.403 321.83 161.134 321.853 160.796L322.215 156.667C322.25 156.329 322.553 156.06 322.88 156.06Z" fill="white"/>
<path d="M342.407 229.292L340.039 256.389C342.314 255.969 344.192 253.998 344.402 251.642L345.941 234.051C346.14 231.671 344.612 229.712 342.407 229.292Z" fill="#407BFF"/>
<path opacity="0.2" d="M342.407 229.292L340.039 256.389C342.314 255.969 344.192 253.998 344.402 251.642L345.941 234.051C346.14 231.671 344.612 229.712 342.407 229.292Z" fill="black"/>
<path d="M344.961 200.048L342.594 227.146C344.868 226.726 346.746 224.754 346.956 222.398L348.496 204.808C348.694 202.44 347.166 200.48 344.961 200.048Z" fill="#407BFF"/>
<path opacity="0.2" d="M344.961 200.048L342.594 227.146C344.868 226.726 346.746 224.754 346.956 222.398L348.496 204.808C348.694 202.44 347.166 200.48 344.961 200.048Z" fill="black"/>
<path d="M279.044 164.762H242.696C236.619 164.762 231.253 169.696 230.717 175.774L228.839 197.295C228.302 203.373 232.805 208.307 238.882 208.307H249.287L248.552 216.682C248.365 218.759 250.792 219.797 252.39 218.327L263.285 208.307H275.229C281.307 208.307 286.673 203.373 287.209 197.295L289.087 175.774C289.624 169.696 285.121 164.762 279.044 164.762Z" fill="#407BFF"/>
<path d="M268.172 175.051C267.227 175.051 266.761 175.051 265.816 175.051C263.273 175.051 261.99 175.051 259.447 175.051C258.502 175.051 258.035 175.051 257.091 175.051C254.548 175.051 253.276 175.051 250.722 175.051C250.675 173.604 250.652 172.881 250.605 171.435C246.767 171.435 244.843 171.435 241.005 171.435C241.133 172.263 241.203 172.671 241.331 173.499C244.108 173.499 245.484 173.499 248.26 173.499C248.295 174.117 248.319 174.432 248.365 175.051C248.564 178.107 248.657 179.635 248.855 182.691C248.914 183.519 248.937 183.928 248.984 184.756C249.182 187.812 249.275 189.34 249.474 192.396C249.579 194.029 249.637 194.846 249.742 196.479C257.406 196.479 261.232 196.479 268.895 196.479C269.164 195.651 269.292 195.242 269.549 194.414C262.258 194.414 258.619 194.414 251.317 194.414C251.293 193.609 251.282 193.201 251.258 192.396C253.183 192.396 254.151 192.396 256.076 192.396C256.787 192.396 257.149 192.396 257.861 192.396C259.785 192.396 260.753 192.396 262.678 192.396C263.39 192.396 263.751 192.396 264.463 192.396C267.111 192.396 268.429 192.396 271.077 192.396C272.103 189.34 272.605 187.812 273.631 184.756C273.911 183.928 274.051 183.519 274.32 182.691C275.346 179.635 275.848 178.107 276.874 175.051C273.41 175.051 271.672 175.051 268.172 175.051ZM250.792 177.115C253.265 177.115 254.501 177.115 256.974 177.115C256.846 179.343 256.787 180.463 256.659 182.691C254.384 182.691 253.253 182.691 250.978 182.691C250.897 180.451 250.862 179.343 250.792 177.115ZM251.212 190.32C251.142 188.092 251.107 186.972 251.037 184.744C253.241 184.744 254.338 184.744 256.542 184.744C256.414 186.972 256.356 188.092 256.227 190.32C254.221 190.32 253.218 190.32 251.212 190.32ZM263.075 190.32C261.068 190.32 260.065 190.32 258.07 190.32C258.269 188.092 258.374 186.972 258.572 184.744C260.777 184.744 261.873 184.744 264.078 184.744C263.681 186.984 263.483 188.092 263.075 190.32ZM264.451 182.691C262.176 182.691 261.033 182.691 258.759 182.691C258.957 180.463 259.062 179.343 259.26 177.115C261.733 177.115 262.97 177.115 265.443 177.115C265.046 179.343 264.848 180.451 264.451 182.691ZM269.934 190.32C267.927 190.32 266.924 190.32 264.929 190.32C265.408 188.092 265.641 186.972 266.108 184.744C268.312 184.744 269.409 184.744 271.613 184.744C270.948 186.984 270.61 188.092 269.934 190.32ZM272.243 182.691C269.969 182.691 268.837 182.691 266.562 182.691C267.041 180.463 267.274 179.343 267.741 177.115C270.214 177.115 271.45 177.115 273.923 177.115C273.246 179.343 272.908 180.451 272.243 182.691Z" fill="white"/>
<path d="M250.78 198.404C249.427 198.404 248.237 199.5 248.109 200.853C247.992 202.206 248.995 203.303 250.348 203.303C251.701 203.303 252.891 202.206 253.02 200.853C253.136 199.5 252.133 198.404 250.78 198.404Z" fill="white"/>
<path d="M268.195 198.404C266.842 198.404 265.652 199.5 265.524 200.853C265.408 202.206 266.411 203.303 267.764 203.303C269.117 203.303 270.307 202.206 270.435 200.853C270.552 199.5 269.549 198.404 268.195 198.404Z" fill="white"/>
<path d="M305.161 317.058H263.599V358.619H305.161V317.058Z" fill="#407BFF"/>
<path d="M330.672 317.058H305.149V358.619H330.672V317.058Z" fill="#407BFF"/>
<path d="M297.217 306.629H255.656L263.599 317.058H305.149L297.217 306.629Z" fill="#407BFF"/>
<path opacity="0.3" d="M330.672 317.058H305.149V358.619H330.672V317.058Z" fill="white"/>
<path opacity="0.4" d="M297.217 306.629H255.656L263.599 317.058H305.149L297.217 306.629Z" fill="white"/>
<path d="M312.673 306.629H338.196L330.684 317.058H305.149L312.673 306.629Z" fill="#407BFF"/>
<path opacity="0.6" d="M305.161 317.058H263.599V358.619H305.161V317.058Z" fill="white"/>
<path opacity="0.2" d="M312.673 306.629H338.196L330.684 317.058H305.149L312.673 306.629Z" fill="white"/>
<path d="M422.1 357.593H317.351V462.343H422.1V357.593Z" fill="#407BFF"/>
<path opacity="0.4" d="M422.1 357.593H317.351V462.343H422.1V357.593Z" fill="white"/>
<path d="M317.327 357.593H252.984V462.343H317.327V357.593Z" fill="#407BFF"/>
<path opacity="0.6" d="M317.327 357.593H252.984V462.343H317.327V357.593Z" fill="white"/>
<path opacity="0.5" d="M272.861 357.593V385.728L275.416 387.07L277.62 385.238L281.108 387.07L284.421 385.238L286.987 387.07L289.927 385.238L291.595 386.743V357.593H272.861Z" fill="white"/>
<path opacity="0.5" d="M291.595 462.343V434.207L289.04 432.854L286.836 434.697L283.348 432.854L280.035 434.697L277.469 432.854L274.529 434.697L272.861 433.192V462.343H291.595Z" fill="white"/>
<path d="M360.079 400.309C360.674 402.701 360.965 403.902 361.56 406.293C361.724 406.935 361.805 407.262 361.957 407.915C362.552 410.306 362.843 411.508 363.438 413.899C365.515 413.899 366.553 413.899 368.617 413.899C369.177 413.899 369.457 413.899 370.017 413.899C371.534 413.899 372.28 413.899 373.797 413.899C374.357 413.899 374.636 413.899 375.196 413.899C376.713 413.899 377.459 413.899 378.976 413.899C378.906 414.529 378.859 414.844 378.789 415.485C373.073 415.485 370.216 415.485 364.5 415.485C364.651 416.127 364.721 416.453 364.873 417.107C370.88 417.107 373.878 417.107 379.886 417.107C380.084 415.824 380.177 415.182 380.376 413.91C380.737 411.519 380.924 410.318 381.285 407.926C381.379 407.285 381.437 406.958 381.53 406.305C381.892 403.914 382.079 402.712 382.44 400.321C382.51 399.831 382.545 399.598 382.627 399.108C384.797 399.108 385.881 399.108 388.051 399.108C388.214 398.466 388.296 398.14 388.448 397.486C385.438 397.486 383.933 397.486 380.924 397.486C380.784 398.618 380.726 399.19 380.586 400.321C378.591 400.321 377.588 400.321 375.593 400.321C374.858 400.321 374.485 400.321 373.75 400.321C371.755 400.321 370.752 400.321 368.757 400.321C368.023 400.321 367.649 400.321 366.914 400.321C364.185 400.309 362.82 400.309 360.079 400.309ZM379.886 406.293C378.101 406.293 377.214 406.293 375.43 406.293C375.488 404.544 375.511 403.669 375.558 401.931C377.494 401.931 378.463 401.931 380.399 401.931C380.189 403.669 380.096 404.544 379.886 406.293ZM375.243 412.277C375.301 410.528 375.325 409.653 375.371 407.903C377.098 407.903 377.961 407.903 379.687 407.903C379.477 409.653 379.372 410.528 379.162 412.277C377.599 412.277 376.818 412.277 375.243 412.277ZM369.469 407.915C371.195 407.915 372.059 407.915 373.785 407.915C373.785 409.664 373.797 410.539 373.797 412.289C372.222 412.289 371.44 412.289 369.877 412.289C369.702 410.528 369.621 409.653 369.469 407.915ZM368.909 401.919C370.845 401.919 371.814 401.919 373.762 401.919C373.762 403.669 373.773 404.544 373.773 406.282C371.989 406.282 371.102 406.282 369.317 406.282C369.154 404.544 369.072 403.669 368.909 401.919ZM363.555 407.915C365.281 407.915 366.145 407.915 367.871 407.915C368.093 409.664 368.198 410.539 368.419 412.289C366.844 412.289 366.063 412.289 364.5 412.289C364.115 410.528 363.928 409.653 363.555 407.915ZM362.272 401.919C364.208 401.919 365.176 401.919 367.113 401.919C367.334 403.669 367.439 404.544 367.661 406.282C365.876 406.282 364.99 406.282 363.205 406.282C362.832 404.544 362.645 403.669 362.272 401.919Z" fill="white"/>
<path d="M378.953 422.461C380.015 422.461 380.877 421.599 380.877 420.536C380.877 419.473 380.015 418.611 378.953 418.611C377.89 418.611 377.028 419.473 377.028 420.536C377.028 421.599 377.89 422.461 378.953 422.461Z" fill="white"/>
<path d="M365.293 422.461C366.356 422.461 367.218 421.599 367.218 420.536C367.218 419.473 366.356 418.611 365.293 418.611C364.23 418.611 363.368 419.473 363.368 420.536C363.368 421.599 364.23 422.461 365.293 422.461Z" fill="white"/>
<g opacity="0.5">
<path opacity="0.5" d="M270.971 400.309C271.566 402.701 271.858 403.902 272.453 406.293C272.616 406.935 272.698 407.262 272.85 407.915C273.444 410.306 273.736 411.508 274.331 413.899C276.407 413.899 277.445 413.899 279.51 413.899C280.07 413.899 280.35 413.899 280.91 413.899C282.426 413.899 283.173 413.899 284.689 413.899C285.249 413.899 285.529 413.899 286.089 413.899C287.605 413.899 288.352 413.899 289.868 413.899C289.798 414.529 289.752 414.844 289.682 415.485C283.966 415.485 281.108 415.485 275.392 415.485C275.544 416.127 275.614 416.453 275.766 417.107C281.773 417.107 284.771 417.107 290.778 417.107C290.977 415.824 291.07 415.182 291.268 413.91C291.63 411.519 291.816 410.318 292.178 407.926C292.271 407.285 292.33 406.958 292.423 406.305C292.785 403.914 292.971 402.712 293.333 400.321C293.403 399.831 293.45 399.598 293.52 399.108C295.689 399.108 296.774 399.108 298.944 399.108C299.107 398.466 299.189 398.14 299.34 397.486C296.331 397.486 294.826 397.486 291.816 397.486C291.676 398.618 291.618 399.19 291.478 400.321C289.484 400.321 288.48 400.321 286.486 400.321C285.751 400.321 285.378 400.321 284.643 400.321C282.648 400.321 281.645 400.321 279.65 400.321C278.915 400.321 278.542 400.321 277.807 400.321C275.078 400.309 273.701 400.309 270.971 400.309ZM290.778 406.293C288.994 406.293 288.107 406.293 286.322 406.293C286.381 404.544 286.404 403.669 286.451 401.931C288.387 401.931 289.355 401.931 291.292 401.931C291.082 403.669 290.977 404.544 290.778 406.293ZM286.136 412.277C286.194 410.528 286.217 409.653 286.264 407.903C287.99 407.903 288.854 407.903 290.58 407.903C290.37 409.653 290.265 410.528 290.055 412.277C288.492 412.277 287.71 412.277 286.136 412.277ZM280.362 407.915C282.088 407.915 282.951 407.915 284.678 407.915C284.678 409.664 284.689 410.539 284.689 412.289C283.115 412.289 282.333 412.289 280.77 412.289C280.595 410.528 280.513 409.653 280.362 407.915ZM279.802 401.919C281.738 401.919 282.706 401.919 284.654 401.919C284.654 403.669 284.666 404.544 284.666 406.282C282.881 406.282 281.995 406.282 280.21 406.282C280.047 404.544 279.965 403.669 279.802 401.919ZM274.448 407.915C276.174 407.915 277.037 407.915 278.764 407.915C278.985 409.664 279.09 410.539 279.312 412.289C277.737 412.289 276.956 412.289 275.392 412.289C275.008 410.528 274.821 409.653 274.448 407.915ZM273.164 401.919C275.101 401.919 276.069 401.919 278.005 401.919C278.227 403.669 278.332 404.544 278.554 406.282C276.769 406.282 275.882 406.282 274.098 406.282C273.724 404.544 273.538 403.669 273.164 401.919Z" fill="white"/>
<path opacity="0.5" d="M289.845 422.461C290.908 422.461 291.77 421.599 291.77 420.536C291.77 419.473 290.908 418.611 289.845 418.611C288.782 418.611 287.92 419.473 287.92 420.536C287.92 421.599 288.782 422.461 289.845 422.461Z" fill="white"/>
<path opacity="0.5" d="M276.186 422.461C277.249 422.461 278.11 421.599 278.11 420.536C278.11 419.473 277.249 418.611 276.186 418.611C275.123 418.611 274.261 419.473 274.261 420.536C274.261 421.599 275.123 422.461 276.186 422.461Z" fill="white"/>
</g>
<path d="M383.852 274.236C383.852 274.236 387.48 300.354 390.746 304.856C394.012 309.359 408.686 321.817 408.686 321.817L417.96 320.464L424.177 326.343L419.674 329.457L414.717 327.23C414.717 327.23 411.019 327.731 406.295 327.428C401.559 327.136 383.07 314.643 379.653 308.053C376.246 301.474 372.397 277.281 372.397 277.281L383.852 274.236Z" fill="#FF8B7B"/>
<path d="M386.966 281.784L386.045 281.947C385.403 275.811 382.837 257.159 375.803 261.953C369.049 266.561 370.939 279.626 371.931 284.513L370.811 284.711L371.837 287.931L387.386 284.945L386.966 281.784Z" fill="#407BFF"/>
<path opacity="0.2" d="M381.099 269.454L379.384 265.779L373.995 271.18C373.995 271.18 372.467 273.478 370.916 275.846C370.997 279.334 371.522 282.588 371.907 284.525L370.787 284.723L371.814 287.942L380.586 286.263C382.196 277.141 381.099 269.454 381.099 269.454Z" fill="black"/>
<path d="M381.635 222.585C381.635 222.585 400.182 226.586 390.326 235.404L382.184 228.277L381.635 222.585Z" fill="#263238"/>
<path d="M407.38 418.425L395.575 447.342L387.386 444.157L393.988 415.415L407.38 418.425Z" fill="#FF8B7B"/>
<path opacity="0.2" d="M394.572 413.374L389.917 433.636L400.008 435.887L407.963 416.372L394.572 413.374Z" fill="black"/>
<path d="M397.465 446.665C398.969 450.071 399.984 452.894 406.131 456.534C407.473 457.303 405.21 460.85 401.862 459.345C396.333 456.849 397.779 456.802 393.032 454.749C389.054 452.999 386.103 451.926 382.849 450.585C382.767 450.55 382.685 450.503 382.615 450.445C382.604 450.445 382.604 450.433 382.592 450.433C382.02 450.001 381.904 449.185 382.335 448.613L387.118 442.069C387.328 441.766 387.724 441.661 388.063 441.801L395.808 445.137C396.543 445.44 397.126 445.977 397.465 446.665Z" fill="#263238"/>
<path d="M433.8 350.466C432.296 369.141 405.49 430.824 405.49 430.824L389.579 426.392C389.579 426.392 401.734 367.123 409.666 357.313C409.666 357.313 407.076 357.36 402.912 357.395C388.413 357.523 354.806 357.5 345.113 354.922C338.196 353.079 323.743 349.381 327.557 326.238L345.475 325.62L366.343 324.896C366.343 324.896 435.865 324.955 433.8 350.466Z" fill="#263238"/>
<path opacity="0.2" d="M402.912 357.395C388.413 357.523 354.806 357.5 345.113 354.922C338.196 353.079 323.743 349.381 327.557 326.238L345.475 325.62C359.577 327.288 378.008 330.076 390.571 335.476C396.683 338.101 400.929 342.837 402.177 348.413C402.539 350.046 402.807 353.977 402.912 357.395Z" fill="black"/>
<path d="M379.711 417.398L373.808 446.875L364.932 446.467L365.981 416.99L379.711 417.398Z" fill="#FF8B7B"/>
<path opacity="0.2" d="M379.711 417.398L365.981 416.99L365.375 434.616L376.188 434.989L379.711 417.398Z" fill="black"/>
<path d="M375.161 447.575C376.608 451.121 377.553 454.014 383.712 457.91C385.042 458.773 382.627 462.331 379.279 460.674C373.727 457.957 375.196 457.968 370.437 455.717C366.413 453.804 363.438 452.626 360.184 451.156L359.927 451.028C359.344 450.573 359.239 449.733 359.694 449.15L364.768 442.606C365.001 442.314 365.398 442.209 365.736 442.372L373.505 446C374.228 446.303 374.823 446.863 375.161 447.575Z" fill="#263238"/>
<path d="M317.141 326.215C317.141 326.215 312.078 344.447 320.454 351.644C332.177 361.722 374.532 358.654 374.532 358.654C367.218 382.077 363.952 428.585 363.952 428.585H379.827C379.827 428.585 401.454 364.965 398.258 348.506C395.062 332.059 338.324 326.238 338.324 326.238L317.141 326.215Z" fill="#263238"/>
<path d="M388.168 428.235L406.178 432.772L409.853 425.062L390.069 419.451L388.168 428.235Z" fill="#407BFF"/>
<path d="M362.377 430.789L380.749 431.734L382.65 423.651L362.377 422.717V430.789Z" fill="#407BFF"/>
<path d="M370.799 300.972C375.418 287.219 381.309 276.756 381.962 265.033C365.993 241.983 334.766 255.608 334.766 255.608C315.869 291.057 317.129 326.215 317.129 326.215C360.067 326.215 362.529 325.48 362.529 325.48C362.529 325.48 362.692 319.414 370.799 300.972Z" fill="#407BFF"/>
<path opacity="0.2" d="M356.381 254.931C357.069 258.979 358.504 266.316 360.207 267.377C362.575 268.801 366.063 266.806 366.063 266.806C366.063 266.806 368.898 270.644 371.919 268.089C373.598 266.479 374.917 264.52 375.768 262.35C374.882 263.855 373.773 265.208 372.467 266.363C369.434 268.906 366.6 265.091 366.6 265.091C366.6 265.091 363.1 267.062 360.744 265.663C359.216 264.73 357.419 258.932 356.381 254.931Z" fill="black"/>
<path d="M360.23 249.332L364.5 250.79L361.152 253.718L360.23 249.332Z" fill="#407BFF"/>
<path opacity="0.2" d="M360.23 249.332L364.5 250.79L361.152 253.718L360.23 249.332Z" fill="black"/>
<path d="M373.762 253.718L374.94 257.159C374.94 257.159 368.851 263.528 367.101 263.598C365.352 263.668 360.219 251.618 360.219 251.618C366.996 248.551 366.366 245.179 366.366 245.179L373.762 253.718Z" fill="#FF8B7B"/>
<path opacity="0.2" d="M371.545 260.472C373.342 258.827 374.94 257.159 374.94 257.159L373.762 253.718L367.171 246.101C366.331 249.414 365.491 256.343 371.545 260.472Z" fill="black"/>
<path d="M377.238 259.644C376.141 262.21 374.508 264.52 372.467 266.421C369.434 268.964 366.6 265.149 366.6 265.149C366.6 265.149 363.112 267.121 360.756 265.721C358.388 264.31 355.436 251.408 355.436 251.408L360.231 249.344L366.833 263.295L375.733 255.934L377.238 259.644Z" fill="#407BFF"/>
<path d="M366.121 233.41C366.11 231.345 366.646 229.304 367.673 227.507C370.904 221.838 378.113 219.855 383.782 223.086C392.239 227.659 392.472 240.98 389.964 248.784C389.288 251.058 387.923 253.065 386.068 254.546C381.029 258.571 373.68 257.754 369.656 252.715C365.491 247.606 366.04 242.368 366.145 233.375L366.121 233.41Z" fill="#FF8B7B"/>
<path d="M381.892 238.985C382.382 239.02 382.674 239.697 382.557 240.408C382.44 241.12 381.997 241.61 381.519 241.552C381.041 241.505 380.737 240.84 380.854 240.128C380.959 239.405 381.402 238.95 381.892 238.985Z" fill="#263238"/>
<path d="M389.976 240.502C390.466 240.548 390.769 241.202 390.652 241.925C390.536 242.648 390.092 243.126 389.602 243.068C389.112 243.021 388.832 242.368 388.937 241.645C389.054 240.933 389.486 240.443 389.976 240.502Z" fill="#263238"/>
<path d="M379.722 237.282C380.562 236.629 381.682 236.419 382.697 236.722H382.709C382.93 236.792 383.164 236.676 383.234 236.466C383.304 236.244 383.187 236.011 382.977 235.929C381.659 235.521 380.224 235.801 379.139 236.676C378.964 236.827 378.941 237.084 379.081 237.259C379.139 237.306 379.198 237.329 379.268 237.352C379.431 237.422 379.606 237.399 379.722 237.282Z" fill="#263238"/>
<path d="M392.017 239.557C392.215 239.429 392.274 239.172 392.157 238.974C391.492 237.761 390.279 236.944 388.903 236.757C388.716 236.769 388.564 236.897 388.518 237.072C388.518 237.072 388.518 237.072 388.518 237.084C388.459 237.317 388.611 237.551 388.833 237.597C389.941 237.772 390.909 238.449 391.434 239.44C391.504 239.557 391.632 239.639 391.772 239.65C391.865 239.65 391.947 239.615 392.017 239.557Z" fill="#263238"/>
<path d="M385.181 248.457C386.301 248.97 387.584 248.97 388.704 248.445C387.619 246.276 386.838 243.966 386.348 241.598L385.181 248.457Z" fill="#BA4D3C"/>
<path d="M365.562 239.23C362.074 226.504 367.719 223.191 373.832 220.917C379.944 218.642 383.327 220.823 385.287 222.97C385.893 223.635 387.106 225.676 383.187 225.944C380.807 226.037 378.428 225.851 376.095 225.396C375.15 225.221 374.182 225.606 373.61 226.376C372.257 228.137 370.064 231.45 370.087 234.354C370.262 236.582 369.434 238.775 367.824 240.327L365.562 239.23Z" fill="#263238"/>
<path d="M361.152 303.13H361.164C362.015 303.142 362.704 303.83 362.692 304.681C362.68 305.533 361.992 306.221 361.14 306.209C360.289 306.198 359.601 305.51 359.612 304.658C359.624 303.806 360.312 303.13 361.152 303.13Z" fill="#407BFF"/>
<path d="M357.793 319.414C357.804 319.414 357.804 319.414 357.816 319.414C358.668 319.426 359.356 320.114 359.344 320.965C359.333 321.817 358.644 322.505 357.793 322.494C356.941 322.482 356.253 321.794 356.265 320.942C356.253 320.091 356.941 319.414 357.793 319.414Z" fill="#407BFF"/>
<path d="M365.667 236.326C368.128 236.781 369.318 240.269 369.341 242.555C369.364 245.016 367.591 246.859 365.41 245.389C363.753 244.246 362.587 242.532 362.155 240.56C361.666 238.134 363.194 235.871 365.667 236.326Z" fill="#FF8B7B"/>
<path d="M376.946 248.329C376.946 248.329 379.139 248.784 384.703 251.35C383.28 252.727 381.437 253.531 378.591 252.19C375.768 250.849 376.946 248.329 376.946 248.329Z" fill="#263238"/>
<path d="M380.527 251.478C379.163 250.825 378.019 250.685 377.051 250.86C377.32 251.338 377.809 251.805 378.603 252.19C379.967 252.832 381.099 252.983 382.079 252.808C381.799 252.318 381.321 251.852 380.527 251.478Z" fill="#A02724"/>
<path d="M377.226 248.399C377.214 248.83 377.214 249.262 377.716 249.635C378.836 250.254 381.962 251.292 382.837 251.49C383.385 251.642 383.898 251.665 384.47 251.245C380.177 249.274 377.949 248.597 377.226 248.399Z" fill="white"/>
<path d="M386.126 333.99L407.24 334.102L407.258 330.708L386.144 330.595L386.126 333.99Z" fill="#263238"/>
<path d="M361.012 333.867L387.876 334.007L387.9 330.612L359.449 330.461L359.438 332.257C359.426 333.144 360.137 333.855 361.012 333.867Z" fill="#263238"/>
<path opacity="0.3" d="M361.012 333.867L387.876 334.007L387.9 330.612L359.449 330.461L359.438 332.257C359.426 333.144 360.137 333.855 361.012 333.867Z" fill="white"/>
<path d="M380.224 332.864L383.618 332.883L383.625 331.681L380.23 331.663L380.224 332.864Z" fill="#263238"/>
<path d="M374.939 332.843L378.334 332.861L378.34 331.66L374.946 331.641L374.939 332.843Z" fill="#263238"/>
<path d="M391.924 330.636L389.673 330.624L398.654 300.039L400.906 300.051L391.924 330.636Z" fill="#263238"/>
<path opacity="0.3" d="M391.924 330.636L389.673 330.624L398.654 300.039L400.906 300.051L391.924 330.636Z" fill="white"/>
<path d="M391.096 330.636L430.721 330.846L439.703 300.249L400.077 300.039L391.096 330.636Z" fill="#263238"/>
<path opacity="0.6" d="M391.096 330.636L430.721 330.846L439.703 300.249L400.077 300.039L391.096 330.636Z" fill="white"/>
<path d="M389.159 330.624C389.591 330.624 429.974 330.846 430.406 330.846C431.106 330.846 431.666 331.615 431.654 332.549C431.654 333.482 431.083 334.24 430.383 334.24C429.683 334.24 389.824 334.018 389.136 334.018C388.436 334.018 387.876 333.249 387.888 332.315C387.888 331.382 388.459 330.624 389.159 330.624Z" fill="#263238"/>
<path opacity="0.5" d="M389.159 330.624C389.591 330.624 429.974 330.846 430.406 330.846C431.106 330.846 431.666 331.615 431.654 332.549C431.654 333.482 431.083 334.24 430.383 334.24C429.683 334.24 389.824 334.018 389.136 334.018C388.436 334.018 387.876 333.249 387.888 332.315C387.888 331.382 388.459 330.624 389.159 330.624Z" fill="white"/>
<path d="M387.888 332.315C387.888 333.249 388.448 334.018 389.136 334.018C389.836 334.018 390.396 333.272 390.407 332.327C390.407 331.394 389.847 330.624 389.159 330.624C388.459 330.624 387.899 331.382 387.888 332.315Z" fill="#263238"/>
<path opacity="0.3" d="M387.888 332.315C387.888 333.249 388.448 334.018 389.136 334.018C389.836 334.018 390.396 333.272 390.407 332.327C390.407 331.394 389.847 330.624 389.159 330.624C388.459 330.624 387.899 331.382 387.888 332.315Z" fill="white"/>
<path opacity="0.2" d="M348.939 302.302C347.038 299.677 345.02 290.007 343.608 282.005L345.44 281.655L345.008 278.342L344.052 278.517C343.398 272.253 340.809 253.461 333.787 257.532C331.745 261.51 329.961 265.488 328.386 269.43C328.141 274.026 328.876 278.657 329.389 281.177L328.234 281.387L329.307 284.735L331.78 284.256C333.273 291.979 335.42 301.742 337.438 305.626C340.074 310.712 351.4 319.204 359.041 323.345C367.591 321.829 369.562 320.756 369.562 320.756C369.562 320.756 369.283 320.417 368.979 319.706L367.603 319.904C367.579 319.916 352.334 306.979 348.939 302.302Z" fill="black"/>
<path d="M346.851 270.632C346.851 270.632 349.347 297.904 352.52 302.722C355.693 307.551 370.309 321.187 370.309 321.187L379.991 320.242L386.15 326.646L381.332 329.656L376.293 327.101C376.293 327.101 372.432 327.439 367.544 326.903C362.657 326.366 344.075 312.508 340.855 305.51C337.636 298.511 334.825 273.233 334.825 273.233L346.851 270.632Z" fill="#FF8B7B"/>
<path d="M349.021 276.511L348.064 276.686C347.399 270.317 344.728 250.942 337.426 255.923C330.415 260.705 332.375 274.283 333.402 279.357L332.247 279.567L333.308 282.915L349.452 279.824L349.021 276.511Z" fill="#407BFF"/>
<path d="M432.762 261.883H409.853C406.015 261.883 402.912 264.986 402.912 268.824V282.39C402.912 286.228 406.015 289.331 409.853 289.331H416.408V294.603C416.408 295.91 417.995 296.574 418.916 295.641L425.238 289.319H432.762C436.6 289.319 439.703 286.216 439.703 282.378V268.812C439.703 264.986 436.6 261.883 432.762 261.883Z" fill="#407BFF"/>
<path d="M427.222 268.369C426.627 268.369 426.335 268.369 425.74 268.369C424.13 268.369 423.337 268.369 421.727 268.369C421.133 268.369 420.841 268.369 420.246 268.369C418.636 268.369 417.843 268.369 416.233 268.369C416.128 267.459 416.07 267.004 415.965 266.094C413.539 266.094 412.337 266.094 409.911 266.094C410.039 266.619 410.109 266.876 410.238 267.401C411.987 267.401 412.862 267.401 414.6 267.401C414.659 267.786 414.694 267.984 414.752 268.381C415.044 270.305 415.195 271.274 415.487 273.198C415.568 273.723 415.603 273.98 415.685 274.505C415.977 276.429 416.128 277.398 416.42 279.322C416.572 280.349 416.653 280.862 416.817 281.888C421.646 281.888 424.06 281.888 428.89 281.888C429.006 281.364 429.065 281.107 429.193 280.582C424.597 280.582 422.299 280.582 417.703 280.582C417.645 280.069 417.61 279.824 417.551 279.311C418.765 279.311 419.371 279.311 420.596 279.311C421.051 279.311 421.273 279.311 421.716 279.311C422.929 279.311 423.535 279.311 424.76 279.311C425.215 279.311 425.437 279.311 425.892 279.311C427.56 279.311 428.388 279.311 430.056 279.311C430.534 277.386 430.768 276.418 431.246 274.493C431.374 273.968 431.444 273.711 431.572 273.187C432.051 271.262 432.284 270.294 432.762 268.369C430.523 268.369 429.426 268.369 427.222 268.369ZM416.385 269.664C417.948 269.664 418.718 269.664 420.281 269.664C420.328 271.064 420.339 271.775 420.386 273.175C418.951 273.175 418.24 273.175 416.805 273.175C416.63 271.775 416.548 271.075 416.385 269.664ZM417.376 277.992C417.213 276.593 417.12 275.881 416.957 274.481C418.345 274.481 419.033 274.481 420.421 274.481C420.468 275.881 420.479 276.593 420.526 277.992C419.266 277.992 418.636 277.992 417.376 277.992ZM424.854 277.992C423.594 277.992 422.964 277.992 421.704 277.992C421.704 276.593 421.716 275.881 421.716 274.481C423.104 274.481 423.792 274.481 425.18 274.481C425.04 275.881 424.982 276.581 424.854 277.992ZM425.297 273.175C423.862 273.175 423.151 273.175 421.716 273.175C421.716 271.775 421.727 271.064 421.727 269.664C423.29 269.664 424.06 269.664 425.623 269.664C425.484 271.075 425.425 271.775 425.297 273.175ZM429.17 277.992C427.91 277.992 427.28 277.992 426.02 277.992C426.195 276.593 426.288 275.881 426.463 274.481C427.851 274.481 428.54 274.481 429.928 274.481C429.624 275.881 429.473 276.581 429.17 277.992ZM430.208 273.175C428.773 273.175 428.061 273.175 426.627 273.175C426.802 271.775 426.895 271.064 427.07 269.664C428.633 269.664 429.403 269.664 430.966 269.664C430.651 271.075 430.499 271.775 430.208 273.175Z" fill="white"/>
<path d="M417.54 283.078C416.688 283.078 416 283.767 416 284.618C416 285.47 416.688 286.158 417.54 286.158C418.391 286.158 419.079 285.47 419.079 284.618C419.091 283.778 418.403 283.078 417.54 283.078Z" fill="white"/>
<path d="M428.528 286.169C429.378 286.169 430.068 285.48 430.068 284.63C430.068 283.779 429.378 283.09 428.528 283.09C427.678 283.09 426.988 283.779 426.988 284.63C426.988 285.48 427.678 286.169 428.528 286.169Z" fill="white"/>
<path d="M113.065 369.993L110.278 369.841L110.942 357.196C111.397 348.588 118.758 341.589 127.366 341.589C131.566 341.589 135.427 343.222 138.25 346.196C141.073 349.171 142.507 353.137 142.286 357.336L141.621 369.981L138.833 369.829L139.498 357.185C139.673 353.755 138.518 350.536 136.22 348.121C133.934 345.706 130.784 344.377 127.366 344.377C120.228 344.377 114.104 350.186 113.73 357.336L113.065 369.993Z" fill="#263238"/>
<path d="M172.871 364.37H90.4357L87.6361 462.179L99.8608 459.38L112.086 462.179H175.67L172.871 364.37Z" fill="#407BFF"/>
<path opacity="0.6" d="M172.871 364.37H90.4357L87.6361 462.179L99.8608 459.38L112.086 462.179H175.67L172.871 364.37Z" fill="white"/>
<path d="M112.086 462.179L99.8608 459.38L87.6361 462.179L90.4357 364.37H109.298L112.086 462.179Z" fill="#407BFF"/>
<path opacity="0.3" d="M112.086 462.179L99.8608 459.38L87.6361 462.179L90.4357 364.37H109.298L112.086 462.179Z" fill="white"/>
<path d="M155.42 369.993L154.755 357.348C154.382 350.209 148.27 344.388 141.119 344.388C137.701 344.388 134.552 345.718 132.266 348.133C129.968 350.547 128.813 353.767 128.988 357.196L129.653 369.841L126.865 369.993L126.2 357.348C125.978 353.149 127.413 349.183 130.236 346.208C133.059 343.234 136.92 341.6 141.119 341.6C149.728 341.6 157.088 348.599 157.543 357.208L158.208 369.853L155.42 369.993Z" fill="#263238"/>
<g opacity="0.2">
<path opacity="0.2" d="M155.42 369.993L154.755 357.348C154.382 350.209 148.27 344.388 141.119 344.388C137.701 344.388 134.552 345.718 132.266 348.133C129.968 350.547 128.813 353.767 128.988 357.196L129.653 369.841L126.865 369.993L126.2 357.348C125.978 353.149 127.413 349.183 130.236 346.208C133.059 343.234 136.92 341.6 141.119 341.6C149.728 341.6 157.088 348.599 157.543 357.208L158.208 369.853L155.42 369.993Z" fill="white"/>
</g>
<path d="M161.731 409.408H123.412C122.549 409.408 121.849 408.708 121.849 407.845V401.662C121.849 400.799 122.549 400.099 123.412 400.099H161.731C162.594 400.099 163.294 400.799 163.294 401.662V407.845C163.294 408.708 162.594 409.408 161.731 409.408Z" fill="white"/>
<path d="M75.1781 400.379L73.3117 400.286L73.755 391.806C74.0582 386.043 78.9925 381.342 84.7665 381.342C87.5777 381.342 90.1673 382.439 92.0687 384.434C93.9584 386.428 94.9266 389.088 94.7749 391.899L94.3317 400.379L92.4653 400.286L92.9085 391.806C93.0252 389.508 92.2436 387.35 90.7156 385.728C89.1758 384.107 87.0762 383.22 84.7782 383.22C79.9956 383.22 75.8896 387.116 75.6447 391.911L75.1781 400.379Z" fill="#263238"/>
<path d="M115.27 396.612H60.0022L58.1242 462.179L66.3245 460.301L74.5249 462.179H117.148L115.27 396.612Z" fill="#407BFF"/>
<path d="M74.5249 462.179L66.3245 460.301L58.1242 462.179L60.0022 396.612H72.6469L74.5249 462.179Z" fill="#407BFF"/>
<path opacity="0.2" d="M74.5249 462.179L66.3245 460.301L58.1242 462.179L60.0022 396.612H72.6469L74.5249 462.179Z" fill="black"/>
<path d="M103.57 400.379L103.127 391.899C102.882 387.105 98.7759 383.209 93.9934 383.209C91.6954 383.209 89.5958 384.095 88.056 385.717C86.5163 387.338 85.7347 389.496 85.863 391.794L86.3063 400.274L84.4399 400.368L83.9967 391.887C83.845 389.064 84.8132 386.417 86.7029 384.422C88.5926 382.427 91.1822 381.331 93.9934 381.331C99.7675 381.331 104.702 386.02 105.005 391.794L105.448 400.274L103.57 400.379Z" fill="#263238"/>
<g opacity="0.2">
<path opacity="0.2" d="M103.57 400.379L103.127 391.899C102.882 387.105 98.7759 383.209 93.9934 383.209C91.6954 383.209 89.5958 384.095 88.056 385.717C86.5163 387.338 85.7347 389.496 85.863 391.794L86.3063 400.274L84.4399 400.368L83.9967 391.887C83.845 389.064 84.8132 386.417 86.7029 384.422C88.5926 382.427 91.1822 381.331 93.9934 381.331C99.7675 381.331 104.702 386.02 105.005 391.794L105.448 400.274L103.57 400.379Z" fill="white"/>
</g>
<path d="M107.28 426.8H82.6203C81.7571 426.8 81.0572 426.1 81.0572 425.237V422.122C81.0572 421.259 81.7571 420.559 82.6203 420.559H107.28C108.143 420.559 108.843 421.259 108.843 422.122V425.237C108.854 426.1 108.143 426.8 107.28 426.8Z" fill="white"/>
<path d="M160.261 455.775L151.384 454.854L151.827 434.114L160.704 435.035L160.261 455.775Z" fill="#B55B52"/>
<path d="M235.359 426.03L227.415 430.078L215.471 412.954L223.426 408.906L235.359 426.03Z" fill="#B55B52"/>
<path d="M225.759 428.97L233.924 423.149C234.216 422.939 234.613 422.974 234.857 423.231L240.398 429.028C240.97 429.635 240.853 430.673 240.153 431.151C237.272 433.134 235.779 433.939 232.186 436.505C229.982 438.08 226.914 440.611 223.869 442.792C220.883 444.915 218.503 442.069 219.577 440.891C224.394 435.607 224.091 433.274 224.861 430.299C225.001 429.751 225.327 429.285 225.759 428.97Z" fill="#263238"/>
<path d="M150.626 453.734L160.599 454.772C160.961 454.807 161.229 455.087 161.241 455.449L161.556 463.462C161.591 464.291 160.798 464.991 159.969 464.897C156.493 464.477 154.849 464.092 150.463 463.637C147.768 463.357 139.988 462.821 136.255 462.436C132.616 462.051 132.721 458.342 134.307 458.167C141.422 457.397 146.543 455.845 149.086 454.119C149.541 453.816 150.101 453.676 150.626 453.734Z" fill="#263238"/>
<g opacity="0.2">
<path opacity="0.2" d="M151.827 434.114L151.594 444.811L160.471 445.732L160.704 435.047L151.827 434.114Z" fill="black"/>
<path opacity="0.2" d="M223.426 408.906L215.471 412.966L221.63 421.784L229.585 417.736L223.426 408.906Z" fill="black"/>
</g>
<path d="M156.073 254.943C156.073 254.943 146.87 323.438 146.59 350.664C146.31 378.986 149.903 442.548 149.903 442.548L161.906 443.807C161.906 443.807 166.77 381.284 168.718 353.522C170.841 323.263 182.599 255.771 182.599 255.771L156.073 254.943Z" fill="#263238"/>
<path d="M162.909 444.344L148.818 442.874L148.258 438.278L164.087 439.375L162.909 444.344Z" fill="#407BFF"/>
<path opacity="0.6" d="M171.168 272.533C161.707 290.159 167.785 323.042 170.549 335.29C172.742 317.093 176.16 294.871 178.796 278.564C177.735 269.244 175.53 264.415 171.168 272.533Z" fill="black"/>
<path d="M165.639 255.246C165.639 255.246 171.588 326.95 177.07 350.081C183.567 377.54 218.772 420.921 218.772 420.921L229.62 415.392C229.62 415.392 205.765 367.193 200.598 352.67C189.551 321.677 201.275 276.371 192.304 256.086L165.639 255.246Z" fill="#263238"/>
<path d="M231.16 415.334L217.698 422.181L214.117 418.681L229.585 409.909L231.16 415.334Z" fill="#407BFF"/>
<path d="M222.621 432.632C222.586 432.632 222.551 432.632 222.516 432.621C222.119 432.574 221.804 432.329 221.583 431.909C221.419 431.594 221.489 431.338 221.583 431.186C222.154 430.206 225.374 430.054 225.747 430.031C225.84 430.031 225.91 430.078 225.945 430.148C225.98 430.229 225.969 430.311 225.91 430.381C225.152 431.256 223.741 432.667 222.621 432.632ZM225.246 430.486C223.962 430.579 222.248 430.883 221.944 431.396C221.909 431.466 221.874 431.559 221.956 431.711C222.108 432.002 222.306 432.166 222.574 432.201C223.169 432.271 224.161 431.641 225.246 430.486Z" fill="#407BFF"/>
<path d="M225.444 430.463C224.336 430.428 222.318 429.833 221.944 428.993C221.863 428.818 221.793 428.456 222.178 428.095C222.423 427.862 222.726 427.768 223.064 427.803C224.359 427.943 225.852 430.02 225.922 430.113C225.969 430.171 225.969 430.253 225.945 430.323C225.91 430.393 225.852 430.44 225.771 430.451C225.677 430.463 225.561 430.475 225.444 430.463ZM222.959 428.235C222.773 428.223 222.609 428.293 222.458 428.422C222.259 428.608 222.283 428.736 222.318 428.83C222.574 429.401 224.242 429.985 225.327 430.043C224.791 429.378 223.787 428.317 223.018 428.235C222.994 428.235 222.983 428.235 222.959 428.235Z" fill="#407BFF"/>
<path d="M147.138 454.936C146.252 454.842 145.458 454.621 145.039 454.166C144.77 453.874 144.689 453.512 144.77 453.104C144.817 452.859 144.957 452.673 145.19 452.579C146.345 452.101 149.693 454.271 150.066 454.527C150.136 454.574 150.171 454.667 150.159 454.761C150.136 454.842 150.066 454.912 149.973 454.924C149.191 454.982 148.106 455.041 147.138 454.936ZM145.738 452.929C145.575 452.918 145.435 452.918 145.342 452.964C145.249 452.999 145.202 453.069 145.179 453.174C145.12 453.454 145.179 453.687 145.353 453.874C145.843 454.411 147.29 454.656 149.296 454.527C148.13 453.827 146.578 453.023 145.738 452.929Z" fill="#407BFF"/>
<path d="M149.914 454.912C149.879 454.912 149.856 454.901 149.833 454.889C148.83 454.306 146.928 452.171 147.196 451.18C147.255 450.946 147.465 450.666 148.048 450.666C148.48 450.666 148.865 450.83 149.18 451.156C150.194 452.206 150.159 454.609 150.148 454.714C150.148 454.784 150.101 454.854 150.043 454.889C150.008 454.901 149.961 454.912 149.914 454.912ZM148.176 451.086C148.13 451.086 148.095 451.075 148.048 451.075C147.663 451.075 147.616 451.226 147.605 451.273C147.441 451.868 148.701 453.524 149.716 454.282C149.681 453.571 149.541 452.113 148.876 451.424C148.678 451.226 148.445 451.121 148.176 451.086Z" fill="#407BFF"/>
<path d="M152.247 218.525C148.876 222.981 145.342 226.959 141.189 230.773C139.113 232.675 136.908 234.494 134.214 236.104C132.861 236.897 131.379 237.679 129.489 238.204C128.545 238.46 127.471 238.659 126.235 238.647C125.628 238.647 124.963 238.565 124.299 238.425C123.96 238.344 123.622 238.25 123.295 238.134C122.945 237.994 122.701 237.912 122.187 237.632C121.289 237.142 120.554 236.454 120.076 235.824C119.586 235.194 119.248 234.564 119.014 234.016C118.536 232.896 118.35 231.951 118.21 231.077C117.965 229.327 117.976 227.822 118.035 226.352C118.175 223.436 118.641 220.73 119.154 218.047C120.228 212.716 121.721 207.63 123.54 202.568L128.37 203.816C127.67 208.89 127.04 214.069 126.655 219.085C126.457 221.593 126.363 224.089 126.468 226.399C126.515 227.542 126.643 228.65 126.853 229.49C126.958 229.898 127.086 230.237 127.156 230.307C127.215 230.423 127.168 230.062 126.468 229.619C126.235 229.502 126.305 229.525 126.258 229.502C126.235 229.49 126.212 229.479 126.2 229.467C126.177 229.444 126.165 229.444 126.212 229.42C126.282 229.397 126.503 229.35 126.818 229.234C127.425 229 128.288 228.545 129.139 227.962C130.866 226.784 132.662 225.198 134.4 223.529C136.138 221.85 137.806 220.007 139.463 218.14C141.119 216.297 142.752 214.291 144.245 212.448L152.247 218.525Z" fill="#FFC3BD"/>
<path d="M150.299 205.682C146.637 204.679 135.8 218.514 135.8 218.514L146.158 230.073C146.158 230.073 158.313 219.109 157.846 214.198C157.38 209.065 155.642 207.152 150.299 205.682Z" fill="#407BFF"/>
<path d="M128.486 202.51L128.078 195.242L121.068 201.016C121.068 201.016 122.129 206.651 125.663 207.77L127.845 204.703C128.3 204.061 128.521 203.291 128.486 202.51Z" fill="#FFC3BD"/>
<path d="M123.517 189.27L117.918 194.426L121.067 201.005L128.078 195.242L123.517 189.27Z" fill="#FFC3BD"/>
<path d="M120.671 203.326L119.061 202.743C118.151 202.416 117.614 201.471 117.789 200.527L120.251 187.439L124.672 189.048L123.307 201.681C123.179 202.964 121.872 203.769 120.671 203.326Z" fill="#263238"/>
<path d="M132.324 186.704C132.604 185.946 132.86 185.199 133.117 184.453C132.429 183.158 131.052 181.77 129.209 180.44C128.626 181.875 128.043 183.379 127.471 184.931C126.9 186.482 126.386 188.01 125.908 189.492C128.171 189.655 130.119 189.48 131.484 188.932C131.776 188.197 132.055 187.462 132.324 186.704Z" fill="#263238"/>
<path d="M129.396 185.642C130.166 183.519 130.679 181.525 130.877 180.02L116.378 174.736L112.435 185.572L126.946 190.856C127.751 189.585 128.638 187.742 129.396 185.642Z" fill="#407BFF"/>
<path opacity="0.6" d="M129.396 185.642C130.166 183.519 130.679 181.525 130.877 180.02L116.378 174.736L112.435 185.572L126.946 190.856C127.751 189.585 128.638 187.742 129.396 185.642Z" fill="white"/>
<path d="M120.146 175.097C119.481 174.852 103.85 158.732 102.065 158.078C100.164 157.378 96.0814 163.782 92.9552 172.368C89.8291 180.953 88.8376 188.465 90.7506 189.165C92.547 189.818 114.873 187.52 115.538 187.765C116.32 188.045 117.976 185.444 119.248 181.945C120.519 178.445 120.927 175.377 120.146 175.097Z" fill="#407BFF"/>
<path opacity="0.4" d="M120.146 175.097C119.481 174.852 103.85 158.732 102.065 158.078C100.164 157.378 96.0814 163.782 92.9552 172.368C89.8291 180.953 88.8376 188.465 90.7506 189.165C92.547 189.818 114.873 187.52 115.538 187.765C116.32 188.045 117.976 185.444 119.248 181.945C120.519 178.445 120.927 175.377 120.146 175.097Z" fill="white"/>
<path d="M99.8608 174.876C96.7346 183.461 92.6519 189.853 90.7506 189.165C88.8492 188.465 89.8291 180.953 92.9552 172.368C96.0814 163.782 100.164 157.39 102.065 158.078C103.978 158.778 102.987 166.29 99.8608 174.876Z" fill="#407BFF"/>
<path d="M95.2531 173.196C95.0431 173.768 94.8448 174.327 94.6582 174.887C95.3814 175.937 96.7462 177.092 98.5426 178.247C98.9975 177.174 99.4408 176.054 99.8607 174.876C100.281 173.709 100.666 172.566 101.016 171.446C98.9042 171.178 97.1078 171.19 95.883 171.528C95.6614 172.076 95.4514 172.636 95.2531 173.196Z" fill="#263238"/>
<path opacity="0.7" d="M95.2531 173.196C95.0431 173.768 94.8448 174.327 94.6582 174.887C95.3814 175.937 96.7462 177.092 98.5426 178.247C98.9975 177.174 99.4408 176.054 99.8607 174.876C100.281 173.709 100.666 172.566 101.016 171.446C98.9042 171.178 97.1078 171.19 95.883 171.528C95.6614 172.076 95.4514 172.636 95.2531 173.196Z" fill="white"/>
<path opacity="0.2" d="M147.243 213.813C147.78 221.57 145.96 226.189 144.689 228.417L146.158 230.062C146.158 230.062 153.017 223.879 156.225 218.724C152.621 213.358 146.683 205.659 147.243 213.813Z" fill="black"/>
<path d="M188.023 169.697C192.887 169.697 196.83 165.754 196.83 160.89C196.83 156.026 192.887 152.083 188.023 152.083C183.159 152.083 179.216 156.026 179.216 160.89C179.216 165.754 183.159 169.697 188.023 169.697Z" fill="#263238"/>
<path d="M187.078 164.902C187.078 167.959 184.605 170.431 181.549 170.431C178.493 170.431 176.02 167.959 176.02 164.902C176.02 161.846 178.493 159.373 181.549 159.373C184.594 159.373 187.078 161.846 187.078 164.902Z" fill="#407BFF"/>
<path d="M163.947 158.032C163.947 158.032 152.247 157.075 152.259 177.139C152.271 190.88 158.931 197.237 167.108 192.618C167.108 192.618 185.142 191.136 187.218 174.631C189.306 158.137 176.557 151.978 163.947 158.032Z" fill="#263238"/>
<path d="M147.92 206.219C147.92 206.219 143.79 208.015 156.085 259.644C170.433 258.606 185.259 257.521 192.246 257.019C190.566 242.345 189.89 233.281 194.731 202.568C194.731 202.568 187.032 201.471 179.228 201.658C173.127 201.81 168.123 201.973 162.816 202.848C155.793 204.003 147.92 206.219 147.92 206.219Z" fill="#407BFF"/>
<path d="M176.242 183.274C175.589 188.629 175.262 198.38 179.216 201.646C179.216 201.646 178.167 207.106 168.345 207.829C157.555 208.61 162.792 202.848 162.792 202.848C168.578 201.017 168.112 196.654 166.782 192.63L176.242 183.274Z" fill="#FFC3BD"/>
<path opacity="0.2" d="M172.392 187.089L166.793 192.606C167.108 193.563 167.377 194.531 167.517 195.487C169.745 194.998 172.661 192.303 172.719 189.935C172.754 188.745 172.626 187.625 172.392 187.089Z" fill="black"/>
<path d="M182.284 174.362C180.266 182.983 179.59 186.681 174.422 190.402C166.653 196.001 156.505 191.626 155.91 182.574C155.374 174.421 158.768 161.695 167.901 159.677C176.883 157.693 184.314 165.742 182.284 174.362Z" fill="#FFC3BD"/>
<path d="M167.412 174.304C167.295 175.016 166.817 175.529 166.35 175.447C165.883 175.366 165.604 174.724 165.732 174.024C165.848 173.313 166.327 172.799 166.793 172.881C167.26 172.963 167.54 173.593 167.412 174.304Z" fill="#263238"/>
<path d="M159.398 172.939C159.281 173.651 158.803 174.164 158.336 174.083C157.87 174.001 157.59 173.359 157.718 172.659C157.835 171.948 158.313 171.435 158.78 171.516C159.235 171.586 159.515 172.228 159.398 172.939Z" fill="#263238"/>
<path d="M158.978 171.586L157.357 170.805C157.357 170.793 157.998 172.274 158.978 171.586Z" fill="#263238"/>
<path d="M162.221 174.631C162.221 174.631 160.494 177.477 158.92 178.725C159.713 179.763 161.369 179.635 161.369 179.635L162.221 174.631Z" fill="#D8A39D"/>
<path d="M183.287 182.761C182.377 184.359 180.814 185.386 179.356 185.759C177.152 186.319 176.102 184.347 176.755 182.294C177.338 180.451 179.193 177.932 181.386 178.282C183.532 178.608 184.325 180.93 183.287 182.761Z" fill="#FFC3BD"/>
<path d="M170.911 173.219C170.736 173.219 170.573 173.103 170.514 172.916C169.943 171.05 167.552 170.245 167.528 170.245C167.307 170.175 167.19 169.93 167.26 169.708C167.33 169.486 167.575 169.37 167.796 169.44C167.913 169.475 170.631 170.385 171.331 172.671C171.401 172.893 171.273 173.126 171.051 173.196C171.004 173.219 170.958 173.219 170.911 173.219Z" fill="#263238"/>
<path d="M157.613 168.822C157.473 168.822 157.333 168.74 157.252 168.612C157.135 168.413 157.205 168.145 157.403 168.04C159.433 166.874 161.183 167.749 161.253 167.784C161.463 167.889 161.544 168.145 161.439 168.355C161.334 168.565 161.078 168.647 160.868 168.542C160.809 168.518 159.445 167.854 157.823 168.775C157.765 168.798 157.695 168.822 157.613 168.822Z" fill="#263238"/>
<path d="M166.992 172.951L165.37 172.17C165.37 172.17 166.023 173.651 166.992 172.951Z" fill="#263238"/>
<path d="M162.069 181.84C162.069 181.84 164.414 181.175 171.074 180.86C170.386 182.901 169.01 184.604 165.604 184.732C162.197 184.861 162.069 181.84 162.069 181.84Z" fill="#263238"/>
<path d="M167.108 183.088C165.464 183.146 164.285 183.589 163.434 184.231C163.935 184.558 164.635 184.767 165.592 184.733C167.237 184.674 168.403 184.243 169.255 183.589C168.765 183.251 168.065 183.041 167.108 183.088Z" fill="#A02724"/>
<path d="M162.372 181.77C162.582 182.189 162.792 182.609 163.469 182.714C164.857 182.738 168.391 182.178 169.336 181.933C169.943 181.805 170.456 181.571 170.794 180.883C165.662 181.128 163.177 181.595 162.372 181.77Z" fill="white"/>
<path d="M157.415 168.029C157.415 168.029 161.894 166.209 164.11 162.791C164.11 162.791 164.157 168.997 166.642 168.518C169.138 168.04 165.37 162.779 165.37 162.779C165.37 162.779 171.214 165.369 173.197 170.432C175.18 175.506 177.467 181.011 181.958 179.647C186.46 178.27 185.457 163.923 178.831 160.341L169.453 158.662L166.7 159.058C165.289 159.268 163.935 159.758 162.722 160.505C160.879 161.636 159.433 163.316 158.581 165.299L157.415 168.029Z" fill="#263238"/>
<path d="M179.193 168.775C178.761 167.865 176.697 167.935 174.574 168.938C172.451 169.941 172.369 170.886 172.801 171.796C173.232 172.706 174.014 173.243 176.137 172.239C178.26 171.236 179.625 169.685 179.193 168.775ZM174.189 171.143C173.886 170.49 173.944 169.813 175.46 169.102C176.977 168.39 178.458 168.332 178.761 168.985C179.065 169.638 178.085 170.746 176.58 171.458C175.064 172.181 174.504 171.796 174.189 171.143Z" fill="#407BFF"/>
<path opacity="0.2" d="M190.729 214.524L187.988 212.168L185.959 213.078C185.959 213.078 184.314 223.168 191.126 233.433C191.301 229.549 191.674 225.174 192.281 219.948C191.429 216.834 190.729 214.524 190.729 214.524Z" fill="black"/>
<path d="M227.684 242.951L226.202 243.103L225.502 236.419C225.024 231.87 228.313 227.577 232.828 226.866C235.032 226.516 237.19 227.052 238.917 228.382C240.643 229.712 241.728 231.672 241.961 233.888L242.661 240.572L241.18 240.723L240.48 234.04C240.293 232.22 239.407 230.633 238.007 229.549C236.607 228.475 234.846 228.032 233.049 228.324C229.305 228.919 226.575 232.476 226.972 236.256L227.684 242.951Z" fill="#263238"/>
<path d="M200.19 212.985C200.388 213.988 200.679 215.224 200.936 216.367C201.216 217.522 201.519 218.689 201.846 219.832C202.499 222.13 203.187 224.416 204.016 226.621C205.672 231.018 207.678 235.253 210.303 238.635L210.548 238.95L210.676 239.114C210.641 239.079 210.583 239.02 210.536 238.974C210.338 238.787 210.058 238.67 209.895 238.612C209.545 238.507 209.556 238.612 209.778 238.612C210.245 238.647 211.236 238.437 212.193 238.099C214.164 237.411 216.345 236.372 218.445 235.218C222.679 232.908 226.96 230.225 231.101 227.519L234.321 231.322C230.658 235.089 226.832 238.519 222.516 241.657C220.335 243.196 218.095 244.713 215.377 245.949C213.989 246.556 212.543 247.162 210.478 247.419C209.451 247.524 208.157 247.547 206.617 246.999C205.859 246.731 205.042 246.253 204.366 245.646C204.202 245.494 204.027 245.331 203.887 245.179L203.701 244.981L203.327 244.573C201.344 242.403 199.711 240.047 198.323 237.644C196.9 235.241 195.745 232.756 194.719 230.237C193.704 227.717 192.794 225.186 192.059 222.608C191.698 221.313 191.359 220.018 191.044 218.712C190.729 217.382 190.473 216.146 190.228 214.653L200.19 212.985Z" fill="#FFC3BD"/>
<path d="M194.719 202.556C198.417 203.396 204.902 216.764 204.902 216.764L190.356 226.609C190.356 226.609 184.477 216.566 185.655 211.771C186.88 206.791 190.496 201.6 194.719 202.556Z" fill="#407BFF"/>
<path d="M230.506 227.542L238.952 222.888L237.179 231.788C237.179 231.788 231.72 233.515 229.06 230.937L230.506 227.542Z" fill="#FFC3BD"/>
<path d="M246.359 224.078L244.469 231.462L237.179 231.788L238.952 222.888L246.359 224.078Z" fill="#FFC3BD"/>
<path d="M249.905 239.429L248.505 232.85C247.712 229.129 244.026 226.586 240.281 227.181C238.485 227.46 236.945 228.429 235.942 229.875C234.939 231.333 234.601 233.118 234.974 234.903L236.374 241.482L234.916 241.797L233.516 235.218C233.049 233.025 233.481 230.832 234.706 229.035C235.942 227.239 237.832 226.061 240.037 225.711C244.551 224.999 248.995 228.055 249.952 232.535L251.351 239.114L249.905 239.429Z" fill="#263238"/>
<g opacity="0.3">
<path opacity="0.3" d="M249.905 239.429L248.505 232.85C247.712 229.129 244.026 226.586 240.281 227.181C238.485 227.46 236.945 228.429 235.942 229.875C234.939 231.333 234.601 233.118 234.974 234.903L236.374 241.482L234.916 241.797L233.516 235.218C233.049 233.025 233.481 230.832 234.706 229.035C235.942 227.239 237.832 226.061 240.037 225.711C244.551 224.999 248.995 228.055 249.952 232.535L251.351 239.114L249.905 239.429Z" fill="white"/>
</g>
<path d="M258.607 235.031L215.342 241.878L222.003 293.437L228.185 290.952L234.834 291.407L268.195 286.123L258.607 235.031Z" fill="#407BFF"/>
<path opacity="0.6" d="M258.607 235.031L215.342 241.878L222.003 293.437L228.185 290.952L234.834 291.407L268.195 286.123L258.607 235.031Z" fill="white"/>
<path d="M234.834 291.407L228.185 290.952L222.003 293.437L215.342 241.878L225.246 240.315L234.834 291.407Z" fill="#407BFF"/>
<path opacity="0.3" d="M234.834 291.407L228.185 290.952L222.003 293.437L215.342 241.878L225.246 240.315L234.834 291.407Z" fill="white"/>
<path d="M254.933 260.88L237.039 263.715C236.082 263.866 235.172 263.213 235.021 262.245L234.997 262.093C234.846 261.137 235.499 260.227 236.467 260.075L254.361 257.241C255.318 257.089 256.227 257.742 256.379 258.71L256.402 258.862C256.554 259.83 255.901 260.728 254.933 260.88Z" fill="white"/>
</svg>
