<svg width="504" height="433" viewBox="0 0 504 433" fill="none" xmlns="http://www.w3.org/2000/svg">
<g clip-path="url(#clip0_24_6544)">
<path d="M518.7 401.891H-6.3V402.154H518.7V401.891Z" fill="#EBEBEB"/>
<path d="M344.221 411.003H309.445V411.266H344.221V411.003Z" fill="#EBEBEB"/>
<path d="M417.784 419.495H408.66V419.758H417.784V419.495Z" fill="#EBEBEB"/>
<path d="M366.219 415.554H346.069V415.817H366.219V415.554Z" fill="#EBEBEB"/>
<path d="M94.1325 410.814H48.783V411.077H94.1325V410.814Z" fill="#EBEBEB"/>
<path d="M257.25 410.814H250.604V411.077H257.25V410.814Z" fill="#EBEBEB"/>
<path d="M190.05 415.386H142.474V415.648H190.05V415.386Z" fill="#EBEBEB"/>
<path d="M242.561 355.018H39.816C36.5085 355.018 33.8205 352.327 33.8205 349.017V63.7519C33.8205 60.4413 36.5085 57.7508 39.816 57.7508H242.571C245.879 57.7508 248.566 60.4413 248.566 63.7519V349.017C248.556 352.327 245.868 355.018 242.561 355.018ZM39.816 58.0136C36.6555 58.0136 34.083 60.5885 34.083 63.7519V349.017C34.083 352.18 36.6555 354.755 39.816 354.755H242.571C245.732 354.755 248.304 352.18 248.304 349.017V63.7519C248.304 60.5885 245.732 58.0136 242.571 58.0136H39.816Z" fill="#EBEBEB"/>
<path d="M469.676 355.018H266.92C263.613 355.018 260.925 352.327 260.925 349.017V63.7519C260.925 60.4413 263.613 57.7508 266.92 57.7508H469.676C472.983 57.7508 475.671 60.4413 475.671 63.7519V349.017C475.671 352.327 472.983 355.018 469.676 355.018ZM266.92 58.0136C263.76 58.0136 261.187 60.5885 261.187 63.7519V349.017C261.187 352.18 263.76 354.755 266.92 354.755H469.676C472.836 354.755 475.408 352.18 475.408 349.017V63.7519C475.408 60.5885 472.836 58.0136 469.676 58.0136H266.92Z" fill="#EBEBEB"/>
<path d="M358.491 101.566C358.418 93.1686 351.603 86.3793 343.193 86.3793C341.166 86.3793 339.234 86.7787 337.47 87.4933C334.467 81.3451 328.157 77.0992 320.849 77.0992C312.018 77.0992 304.637 83.2999 302.799 91.5816C294.494 92.1176 287.921 99.0225 287.921 107.472C287.921 116.269 295.039 123.394 303.828 123.394H354.459C360.686 123.394 365.736 118.339 365.736 112.107C365.747 107.304 362.733 103.195 358.491 101.566Z" fill="white"/>
<path d="M421.145 312.37C421.103 307.241 416.934 303.089 411.789 303.089C410.55 303.089 409.374 303.331 408.293 303.773C406.455 300.01 402.602 297.425 398.129 297.425C392.732 297.425 388.217 301.219 387.093 306.284C382.011 306.61 378 310.835 378 315.995C378 321.376 382.358 325.727 387.723 325.727H418.677C422.489 325.727 425.576 322.638 425.576 318.823C425.586 315.869 423.738 313.357 421.145 312.37Z" fill="white" fill-opacity="0.18"/>
<path d="M174.436 55.9852C174.478 50.8355 178.657 46.6736 183.813 46.6736C185.052 46.6736 186.238 46.9153 187.32 47.3567C189.157 43.5838 193.032 40.9879 197.505 40.9879C202.912 40.9879 207.438 44.7924 208.561 49.8686C213.654 50.1944 217.675 54.4298 217.675 59.6111C217.675 65.0025 213.307 69.3746 207.921 69.3746H176.883C173.061 69.3746 169.974 66.2742 169.974 62.4592C169.984 59.4955 171.832 56.9731 174.436 55.9852Z" fill="#F5F5F5"/>
<path d="M36.582 164.246H73.9305C78.2145 164.246 81.7215 167.756 81.7215 172.044V194.43V201.692L74.466 194.43H36.582C32.298 194.43 28.791 190.919 28.791 186.631V172.044C28.791 167.756 32.298 164.246 36.582 164.246Z" fill="white"/>
<path d="M37.884 174.945H73.1745C73.8885 174.945 74.4765 174.356 74.4765 173.641C74.4765 172.927 73.8885 172.338 73.1745 172.338H37.884C37.17 172.338 36.582 172.927 36.582 173.641C36.582 174.356 37.17 174.945 37.884 174.945Z" fill="#1E5BFA"/>
<path d="M37.884 180.935H73.1745C73.8885 180.935 74.4765 180.347 74.4765 179.632C74.4765 178.917 73.8885 178.329 73.1745 178.329H37.884C37.17 178.329 36.582 178.917 36.582 179.632C36.582 180.347 37.17 180.935 37.884 180.935Z" fill="#1E5BFA"/>
<path d="M49.896 186.926H73.1745C73.8885 186.926 74.4765 186.337 74.4765 185.622C74.4765 184.908 73.8885 184.319 73.1745 184.319H49.896C49.182 184.319 48.594 184.908 48.594 185.622C48.6045 186.337 49.182 186.926 49.896 186.926Z" fill="#1E5BFA"/>
<path d="M450.114 77.1097H407.442C402.549 77.1097 398.538 81.1244 398.538 86.022V104.771V113.063L406.823 104.771H450.114C455.007 104.771 459.018 100.757 459.018 95.859V86.022C459.018 81.1244 455.017 77.1097 450.114 77.1097Z" fill="white"/>
<path d="M448.634 89.322H408.314C407.495 89.322 406.833 88.6494 406.833 87.8401C406.833 87.0204 407.505 86.3583 408.314 86.3583H448.634C449.453 86.3583 450.114 87.0309 450.114 87.8401C450.114 88.6599 449.453 89.322 448.634 89.322Z" fill="#1E5BFA"/>
<path d="M434.91 96.1848H408.324C407.505 96.1848 406.844 95.5122 406.844 94.703C406.844 93.8832 407.516 93.2211 408.324 93.2211H434.91C435.729 93.2211 436.391 93.8937 436.391 94.703C436.391 95.5122 435.719 96.1848 434.91 96.1848Z" fill="#1E5BFA"/>
<path d="M203.752 281.072C203.752 312.664 184.695 339.81 157.447 351.602C151.956 353.977 146.128 355.733 140.059 356.773C135.817 357.498 131.46 357.877 127.018 357.877C125.517 357.877 124.026 357.835 122.545 357.74C117.306 357.446 112.213 356.626 107.32 355.323C74.487 346.621 50.2845 316.668 50.2845 281.072C50.2845 238.654 84.6405 204.267 127.018 204.267C169.396 204.267 203.752 238.654 203.752 281.072Z" fill="white"/>
<path d="M149.237 241.545H149.268C140.553 238.402 151.231 222.795 135.544 215.67C119.49 208.365 103.246 218.171 106.291 226.421C101.01 227.924 99.624 240.683 106.06 246.642C103.992 249.322 102.753 252.664 102.753 256.3C102.753 264.414 108.853 271.087 116.697 271.991C116.707 271.991 116.708 271.991 116.718 271.991C116.771 272.012 116.823 272.012 116.865 272.012H116.875C117.421 272.075 117.967 272.107 118.534 272.107C119.437 272.107 120.319 272.033 121.181 271.876H121.191C122.031 271.739 122.86 271.529 123.648 271.245H123.658C126.63 270.226 129.192 268.334 131.061 265.896C132.878 268.26 135.356 270.1 138.212 271.14C138.212 271.14 138.212 271.14 138.222 271.15C138.422 271.214 138.611 271.287 138.821 271.34C139.514 271.571 140.238 271.75 140.973 271.865C141.823 272.012 142.685 272.086 143.577 272.086C144.837 272.086 146.065 271.939 147.241 271.655C154.193 270.005 159.369 263.752 159.369 256.279C159.369 249.553 155.159 243.825 149.237 241.545Z" fill="#263238"/>
<path d="M113.473 286.484C113.442 285.78 113.41 285.191 113.337 284.319C113.064 281.261 110.418 278.928 107.331 279.085C104.464 279.232 102.196 281.45 101.902 284.204C101.892 284.214 101.892 284.225 101.902 284.235C101.86 284.529 101.86 284.824 101.871 285.118L101.881 285.36C101.902 285.696 101.923 286.316 101.923 286.82L101.934 288.46C101.934 289.553 101.892 290.678 101.829 291.792C101.734 293.557 101.587 295.344 101.377 297.109C101.325 297.572 101.272 298.045 101.209 298.507C100.621 302.984 99.7185 307.419 98.4375 311.749C98.133 312.832 97.7445 313.893 97.419 314.976C97.0725 316.048 96.642 317.088 96.2535 318.15L95.8125 319.359C95.7075 319.621 95.6025 319.81 95.6025 319.873C95.4345 319.831 95.2455 319.758 95.046 319.653C94.311 319.327 93.471 318.78 92.6415 318.16C90.9825 316.931 89.2395 315.312 87.696 313.778L87.5595 313.652C87.4965 313.599 87.4545 313.557 87.3915 313.494H87.381C86.562 312.821 85.4175 312.611 84.378 313.063C82.929 313.704 82.257 315.407 82.8975 316.868C83.391 317.982 83.9055 318.949 84.483 319.947C84.567 320.105 84.6615 320.262 84.756 320.42C85.4175 321.566 86.1945 322.669 87.0555 323.762C87.9375 324.845 88.9245 325.917 90.2055 326.936C91.4865 327.903 93.072 328.964 95.55 329.343C96.789 329.5 98.2485 329.385 99.5715 328.88C100.894 328.397 101.986 327.609 102.816 326.81C103.656 326.011 104.244 325.191 104.737 324.403C104.979 324.014 105.199 323.625 105.388 323.247C105.493 323.047 105.567 322.879 105.63 322.732C105.64 322.722 105.63 322.722 105.63 322.722C105.693 322.585 105.756 322.469 105.819 322.322C106.932 319.979 107.94 317.593 108.801 315.155C108.99 314.629 109.168 314.104 109.347 313.568C109.441 313.294 109.536 313.011 109.62 312.727C110.911 308.765 111.877 304.708 112.528 300.599C112.549 300.441 112.581 300.294 112.602 300.136C112.654 299.779 112.707 299.422 112.759 299.064V298.991C112.791 298.823 112.822 298.633 112.843 298.455V298.423C113.116 296.426 113.305 294.419 113.4 292.401C113.421 292.033 113.442 291.655 113.452 291.287C113.494 290.352 113.515 289.416 113.515 288.481C113.526 287.819 113.505 287.157 113.473 286.484Z" fill="#FF8B7B"/>
<path d="M107.278 273.872C115.731 269.963 121.307 286.789 119.774 300.578C107.762 302.27 97.734 294.976 97.734 294.976C97.734 294.976 97.398 278.444 107.278 273.872Z" fill="#407BFF"/>
<path d="M101.902 282.333C101.787 290.699 103.005 307.703 108.612 342.186H154.297C153.604 325.286 153.521 314.272 160.157 283.815C161.364 278.276 157.574 272.895 151.946 272.17C149.184 271.813 146.097 271.508 142.989 271.35C135.303 270.982 129.003 270.73 122.241 271.35C118.009 271.739 113.505 272.412 109.945 273C105.378 273.778 101.976 277.698 101.902 282.333Z" fill="#407BFF"/>
<path opacity="0.2" d="M150.948 288.849L158.634 291.045C157.584 296.248 156.744 300.83 156.093 304.96C150.423 303.142 145.183 293.042 150.948 288.849Z" fill="black"/>
<path d="M84.1575 306.4L80.073 301.702C78.981 300.441 76.9335 300.798 76.3245 302.354L73.9515 308.407C73.668 309.143 73.7835 309.973 74.277 310.593L78.393 315.838C78.393 315.838 81.753 319.989 86.415 320.315L88.2105 315.333L84.1575 306.4Z" fill="#FF8B7B"/>
<path d="M118.324 289.164L119.416 290.846L121.149 289.847C130.315 284.529 136.574 278.686 139.493 275.67C140.658 274.472 141.151 272.832 140.941 271.266C134.179 270.951 128.404 270.804 122.272 271.361C120.508 271.518 118.702 271.729 116.938 271.97C116.833 272.096 116.718 272.222 116.623 272.359C115.185 274.419 112.507 280.199 118.324 289.164Z" fill="white"/>
<path d="M137.277 248.817C136.248 254.776 135.313 265.118 138.463 270.404C139.188 271.623 138.957 273.179 137.97 274.198C135.103 277.162 129.013 282.837 120.078 288.019C115.028 280.22 117.033 275.428 118.335 273.536C118.713 272.99 119.248 272.58 119.878 272.38C126.493 270.268 126.147 264.95 124.792 259.979L137.277 248.817Z" fill="#FF8B7B"/>
<path opacity="0.2" d="M134.116 254.146L124.803 259.968C125.139 261.187 125.412 262.427 125.527 263.636C127.69 263.583 132.898 261.376 134.358 257.751C134.904 256.363 134.368 254.839 134.116 254.146Z" fill="black"/>
<path d="M138.253 230.551C141.036 241.376 142.443 245.896 138.841 253.074C133.434 263.878 119.553 264.929 113.599 255.155C108.244 246.358 104.601 230.142 113.61 222.554C122.493 215.081 135.471 219.726 138.253 230.551Z" fill="#FF8B7B"/>
<path d="M130.462 226.295C132.3 233.915 140.123 238.076 140.123 238.076C140.123 238.076 143.504 232.159 141.183 226.295C138.863 220.431 130.462 226.295 130.462 226.295Z" fill="#263238"/>
<path d="M135.986 231.518C133.539 234.083 133.865 238.076 133.865 238.076C133.865 238.076 136.941 237.919 138.6 235.596C140.259 233.284 135.986 231.518 135.986 231.518Z" fill="#263238"/>
<path d="M136.112 229.627C133.13 231.529 132.5 235.491 132.5 235.491C132.5 235.491 135.524 236.069 137.687 234.209C139.86 232.359 136.112 229.627 136.112 229.627Z" fill="#263238"/>
<path d="M108.885 226.474C106.68 233.568 142.065 231.203 138.894 225.423C135.712 219.642 127.491 216.668 122.199 217.194C116.896 217.719 110.575 221.482 108.885 226.474Z" fill="#263238"/>
<path d="M110.197 224.614C107.457 225.192 105.735 235.649 107.509 235.123C109.273 234.598 119.71 222.606 110.197 224.614Z" fill="#263238"/>
<path d="M142.065 342.186C142.065 342.186 141.96 342.911 141.771 344.246C141.445 346.642 140.836 351.014 140.059 356.773C135.817 357.498 131.46 357.877 127.018 357.877C125.517 357.877 124.026 357.835 122.545 357.74C117.306 357.446 112.213 356.626 107.32 355.323C107.803 350.289 108.181 346.432 108.402 344.246C108.538 342.911 108.612 342.186 108.612 342.186H142.065Z" fill="#263238"/>
<path opacity="0.1" d="M142.065 342.186C142.065 342.186 141.96 342.911 141.771 344.246C141.445 346.642 140.836 351.014 140.059 356.773C135.817 357.498 131.46 357.877 127.018 357.877C125.517 357.877 124.026 357.835 122.545 357.74C117.306 357.446 112.213 356.626 107.32 355.323C107.803 350.289 108.181 346.432 108.402 344.246C108.538 342.911 108.612 342.186 108.612 342.186H142.065Z" fill="white"/>
<path d="M155.19 344.246C156.104 346.495 156.839 348.954 157.448 351.602C151.956 353.977 146.129 355.733 140.06 356.773C135.818 357.498 131.46 357.877 127.019 357.877C125.517 357.877 124.026 357.835 122.545 357.74C121.779 351.529 121.212 346.778 120.918 344.246C120.761 342.911 120.676 342.186 120.676 342.186H154.298C154.612 342.848 154.917 343.541 155.19 344.246Z" fill="#263238"/>
<path opacity="0.1" d="M155.19 344.246C156.104 346.495 156.839 348.954 157.448 351.602C151.956 353.977 146.129 355.733 140.06 356.773C135.818 357.498 131.46 357.877 127.019 357.877C125.517 357.877 124.026 357.835 122.545 357.74C121.779 351.529 121.212 346.778 120.918 344.246C120.761 342.911 120.676 342.186 120.676 342.186H154.298C154.612 342.848 154.917 343.541 155.19 344.246Z" fill="white"/>
<path d="M122.167 239.348C122.451 240.21 122.22 241.061 121.653 241.24C121.086 241.419 120.404 240.872 120.131 240.01C119.858 239.148 120.078 238.297 120.645 238.118C121.201 237.929 121.884 238.486 122.167 239.348Z" fill="#263238"/>
<path d="M112.413 242.512C112.696 243.373 112.465 244.225 111.898 244.403C111.331 244.582 110.649 244.035 110.376 243.174C110.092 242.312 110.323 241.461 110.89 241.282C111.447 241.093 112.129 241.65 112.413 242.512Z" fill="#263238"/>
<path d="M111.153 241.24L108.885 241.313C108.885 241.313 110.47 242.596 111.153 241.24Z" fill="#263238"/>
<path d="M115.836 242.858C115.836 242.858 115.573 247.052 114.544 249.374C116.025 250.068 117.81 248.954 117.81 248.954L115.836 242.858Z" fill="#FF5652"/>
<path d="M123.952 250.446C123.532 250.667 123.06 250.867 122.545 251.035C122.409 251.077 122.251 251.003 122.209 250.867C122.167 250.73 122.241 250.583 122.377 250.53C126.168 249.311 127.081 246.085 127.092 246.053C127.134 245.906 127.281 245.822 127.417 245.864C127.564 245.906 127.648 246.053 127.606 246.19C127.564 246.316 126.829 248.912 123.952 250.446Z" fill="#263238"/>
<path d="M142.506 237.561C142.737 239.863 141.887 242.06 140.669 243.52C138.821 245.707 136.301 244.445 135.471 241.87C134.726 239.548 134.778 235.607 137.277 234.356C139.724 233.126 142.233 234.934 142.506 237.561Z" fill="#FF8B7B"/>
<path d="M124.582 234.135C124.446 234.156 124.299 234.125 124.173 234.03C122.293 232.569 120.435 233.2 120.414 233.2C120.141 233.295 119.836 233.147 119.731 232.874C119.637 232.601 119.784 232.296 120.057 232.191C120.151 232.159 122.482 231.371 124.813 233.179C125.044 233.358 125.086 233.694 124.908 233.925C124.834 234.051 124.708 234.114 124.582 234.135Z" fill="#263238"/>
<path d="M107.877 240.63C107.761 240.683 107.614 240.693 107.478 240.651C107.194 240.557 107.047 240.252 107.142 239.979C108.087 237.183 110.46 236.542 110.565 236.521C110.848 236.447 111.142 236.616 111.216 236.91C111.289 237.194 111.121 237.488 110.838 237.561C110.743 237.582 108.906 238.108 108.16 240.326C108.108 240.462 108.003 240.578 107.877 240.63Z" fill="#263238"/>
<path d="M164.356 298.623C163.894 296.122 163.369 293.631 162.792 291.171C162.592 290.31 162.382 289.458 162.172 288.607C161.595 286.369 161.028 284.183 160.377 281.965V281.954C160.062 280.882 159.726 279.81 159.358 278.707C158.403 275.796 155.295 274.125 152.323 274.976C149.268 275.848 147.493 279.033 148.375 282.091L148.396 282.175C149.047 284.487 149.74 286.894 150.381 289.311C150.57 290.026 150.759 290.751 150.937 291.466C151.42 293.358 151.882 295.26 152.334 297.152C152.628 298.392 152.911 299.632 153.184 300.872C153.394 301.839 153.594 302.795 153.783 303.762C154.224 305.938 154.623 308.103 154.969 310.268C155.032 310.709 155.095 311.161 155.158 311.602C155.379 313.231 155.578 314.85 155.725 316.447C155.368 316.405 155.001 316.342 154.633 316.269C154.476 316.237 154.318 316.206 154.161 316.174C151.567 315.586 148.753 314.661 145.992 313.62C143.22 312.59 140.427 311.434 137.644 310.247C134.977 309.133 132.31 307.913 129.696 306.736C129.57 306.684 129.444 306.621 129.318 306.568L129.265 306.547C128.068 306.011 126.619 306.348 125.8 307.451C124.855 308.712 125.118 310.509 126.388 311.455C126.724 311.707 127.06 311.96 127.407 312.191C127.417 312.191 127.417 312.191 127.417 312.191C129.643 313.82 131.912 315.302 134.211 316.784C136.888 318.455 139.618 320.042 142.474 321.534C145.341 322.984 148.26 324.393 151.609 325.465C152.397 325.706 153.184 325.938 154.035 326.127C155.032 326.358 156.124 326.537 157.384 326.6C158.571 326.621 159.946 326.631 161.794 325.854C162.697 325.454 163.716 324.824 164.535 323.857C165.354 322.921 165.879 321.797 166.162 320.788C166.246 320.441 166.309 320.063 166.32 319.695V319.495C166.477 312.243 165.585 305.37 164.356 298.623Z" fill="#FF8B7B"/>
<path d="M149.803 271.918C159.054 272.948 161.595 275.796 166.341 288.828C156.334 295.68 146.632 299.916 146.632 299.916C146.632 299.916 138.988 270.709 149.803 271.918Z" fill="#407BFF"/>
<path d="M154.98 339.506L156.145 343.594C156.303 343.909 155.925 344.235 155.4 344.235H108.381C107.971 344.235 107.625 344.035 107.604 343.773L107.194 339.684C107.163 339.401 107.52 339.159 107.971 339.159H154.234C154.57 339.159 154.875 339.306 154.98 339.506Z" fill="#263238"/>
<path d="M148.764 344.687H150.003C150.255 344.687 150.433 344.561 150.423 344.403L149.846 339.085C149.825 338.928 149.614 338.801 149.363 338.801H148.124C147.872 338.801 147.693 338.928 147.704 339.085L148.281 344.403C148.302 344.561 148.522 344.687 148.764 344.687Z" fill="#263238"/>
<path opacity="0.1" d="M148.764 344.687H150.003C150.255 344.687 150.433 344.561 150.423 344.403L149.846 339.085C149.825 338.928 149.614 338.801 149.363 338.801H148.124C147.872 338.801 147.693 338.928 147.704 339.085L148.281 344.403C148.302 344.561 148.522 344.687 148.764 344.687Z" fill="white"/>
<path d="M111.867 344.687H113.106C113.358 344.687 113.536 344.561 113.526 344.403L112.948 339.085C112.927 338.928 112.717 338.801 112.465 338.801H111.226C110.985 338.801 110.796 338.928 110.806 339.085L111.384 344.403C111.405 344.561 111.625 344.687 111.867 344.687Z" fill="#263238"/>
<path opacity="0.1" d="M111.867 344.687H113.106C113.358 344.687 113.536 344.561 113.526 344.403L112.948 339.085C112.927 338.928 112.717 338.801 112.465 338.801H111.226C110.985 338.801 110.796 338.928 110.806 339.085L111.384 344.403C111.405 344.561 111.625 344.687 111.867 344.687Z" fill="white"/>
<path d="M130.316 344.687H131.555C131.807 344.687 131.985 344.561 131.975 344.403L131.397 339.085C131.376 338.928 131.166 338.801 130.914 338.801H129.675C129.423 338.801 129.245 338.928 129.255 339.085L129.833 344.403C129.854 344.561 130.074 344.687 130.316 344.687Z" fill="#263238"/>
<path opacity="0.1" d="M130.316 344.687H131.555C131.807 344.687 131.985 344.561 131.975 344.403L131.397 339.085C131.376 338.928 131.166 338.801 130.914 338.801H129.675C129.423 338.801 129.245 338.928 129.255 339.085L129.833 344.403C129.854 344.561 130.074 344.687 130.316 344.687Z" fill="white"/>
<path d="M120.498 313.809H111.363C110.47 313.809 109.683 313.189 109.473 312.317L104.885 293.147C104.654 292.17 105.347 291.277 106.333 291.277H115.458C116.361 291.277 117.148 291.897 117.369 292.779L121.957 311.939C122.178 312.916 121.485 313.809 120.498 313.809Z" fill="black"/>
<path d="M119.417 313.809H110.292C109.389 313.809 108.601 313.189 108.381 312.307L103.792 293.147C103.561 292.17 104.254 291.277 105.241 291.277H114.366C115.269 291.277 116.056 291.897 116.277 292.779L120.865 311.939C121.096 312.916 120.403 313.809 119.417 313.809Z" fill="#263238"/>
<path d="M130.263 311.707L129.99 307.073L123.448 299.621C122.493 298.528 121.191 297.793 119.763 297.519L115.552 296.731C114.072 296.458 112.707 297.614 112.759 299.127L112.938 305.086C112.969 306.011 113.536 306.841 114.397 307.199L121.8 310.257C123.805 311.424 127.375 313.021 130.263 311.707Z" fill="#FF8B7B"/>
<path d="M120.907 238.087L118.639 238.161C118.639 238.161 120.225 239.432 120.907 238.087Z" fill="#263238"/>
<path d="M127.018 358.402C84.42 358.402 49.7595 323.71 49.7595 281.072C49.7595 238.434 84.42 203.741 127.018 203.741C169.617 203.741 204.277 238.434 204.277 281.072C204.277 323.71 169.617 358.402 127.018 358.402ZM127.018 204.792C84.9975 204.792 50.8095 239.012 50.8095 281.072C50.8095 323.132 84.9975 357.351 127.018 357.351C169.039 357.351 203.227 323.132 203.227 281.072C203.227 239.012 169.039 204.792 127.018 204.792Z" fill="#407BFF"/>
<path d="M462.115 206.348C462.115 242.68 436.905 273.126 403.032 281.103C397.373 282.448 391.461 283.153 385.382 283.153C372.488 283.153 360.339 279.968 349.671 274.345C325.279 261.482 308.648 235.859 308.648 206.348C308.648 163.93 343.004 129.543 385.382 129.543C427.76 129.543 462.115 163.93 462.115 206.348Z" fill="white"/>
<path d="M382.641 151.256C373.223 146.327 367.678 158.581 369.957 167.167C372.235 175.754 378.179 181.208 378.179 181.208C378.179 181.208 387.167 168.229 387.198 162.133C387.24 154.587 386.148 153.095 382.641 151.256Z" fill="#263238"/>
<path d="M377.192 177.73C376.898 175.859 371.417 177.057 372.761 179.085C374.115 181.114 377.328 178.613 377.192 177.73Z" fill="#263238"/>
<path d="M376.74 178.003C375.007 177.246 373.076 182.522 375.501 182.47C377.926 182.417 377.548 178.36 376.74 178.003Z" fill="#263238"/>
<path d="M380.026 153.389C375.637 149.038 385.854 145.307 395.797 147.052C405.741 148.807 408.964 157.53 405.468 161.807C402.675 165.213 385.413 158.728 380.026 153.389Z" fill="#263238"/>
<path d="M379.617 150.772C381.182 149.711 377.769 145.255 376.519 147.336C375.259 149.417 378.882 151.266 379.617 150.772Z" fill="#263238"/>
<path d="M408.87 234.514C408.838 235.491 408.807 236.5 408.765 237.53C408.733 238.087 408.712 238.665 408.681 239.243C408.597 240.746 408.502 242.291 408.387 243.878C408.345 244.55 408.292 245.223 408.229 245.906C408.229 246.001 408.219 246.095 408.208 246.19C408.156 246.884 408.104 247.588 408.03 248.302C407.799 250.877 407.516 253.557 407.18 256.332C406.266 263.857 404.922 272.117 403.032 281.103C397.372 282.448 391.461 283.153 385.381 283.153C372.487 283.153 360.339 279.968 349.671 274.345C350.269 269.332 351.057 262.806 351.708 255.26C352.065 251.161 352.39 246.747 352.621 242.123C352.632 241.776 352.653 241.419 352.663 241.072C352.716 239.947 352.769 238.812 352.811 237.667C352.832 236.962 352.853 236.258 352.874 235.544C352.905 234.587 352.926 233.62 352.947 232.643L352.979 230.247V229.238C352.989 228.702 352.989 228.155 352.989 227.609C352.989 225.77 352.968 223.92 352.926 222.049V221.955C352.821 217.12 352.569 212.191 352.128 207.22C352.107 206.926 352.086 206.621 352.055 206.327C351.824 203.825 352.632 201.461 354.113 199.663C355.667 197.761 357.987 196.49 360.633 196.321C360.685 196.321 360.748 196.321 360.801 196.311C362.008 196.237 363.3 196.185 364.602 196.143C365.788 196.111 366.996 196.09 368.204 196.101H368.886C369.527 196.111 370.209 196.122 370.902 196.143C371.637 196.164 372.404 196.185 373.181 196.206C373.832 196.216 374.482 196.237 375.144 196.258C378.882 196.395 382.861 196.605 386.358 196.92C386.589 196.941 386.82 196.962 387.04 196.983C388.384 197.11 389.634 197.257 390.768 197.414C390.988 197.446 391.209 197.477 391.419 197.509C392.332 197.646 393.236 197.803 394.118 197.982C394.264 198.003 394.412 198.034 394.548 198.066C395.997 198.35 397.383 198.665 398.674 198.97C403.2 200.073 406.486 201.198 406.486 201.198C406.486 201.198 406.497 201.219 406.507 201.261C406.623 201.744 407.41 204.971 408.061 210.825C408.502 214.829 408.891 220.073 408.954 226.495C408.954 226.495 408.954 226.495 408.954 226.505C408.986 228.996 408.964 231.666 408.87 234.514Z" fill="#263238"/>
<path d="M425.45 255.691C425.355 254.293 425.166 253.379 424.956 252.485C424.515 250.636 424.137 249.616 423.749 248.271L421.418 240.557L416.766 225.076C415.212 219.916 413.606 214.745 411.947 209.637L397.551 214.009C399.053 219.285 400.68 224.466 402.402 229.637C404.114 234.818 405.909 239.968 407.799 245.097C407.904 245.391 408.02 245.685 408.125 245.98L403.253 250.32C404.681 252.885 406.256 255.186 408.083 257.509C409.028 258.644 409.973 259.811 411.191 260.946C411.8 261.524 412.461 262.112 413.354 262.743C413.826 263.058 414.341 263.405 415.149 263.752C415.349 263.836 415.559 263.92 415.832 264.004L416.22 264.13L416.724 264.246C417.365 264.372 418.362 264.519 419.696 264.246C420.053 264.172 420.399 264.067 420.746 263.941C421.134 263.794 421.512 263.605 421.88 263.384C422.573 262.974 423.308 262.322 423.728 261.765C424.736 260.483 424.977 259.537 425.208 258.696C425.555 257.183 425.471 256.426 425.45 255.691Z" fill="#FFC3BD"/>
<path d="M396.364 206.821C392.479 215.481 404.754 240.326 404.754 240.326L421.428 235.722C421.428 235.722 422.037 220.935 415.842 210.32C409.479 199.432 400.627 197.309 396.364 206.821Z" fill="#263238"/>
<path d="M397.194 200.252C396.763 199.117 395.745 198.297 394.558 198.066C394.411 198.034 394.275 198.013 394.128 197.982C393.246 197.803 392.343 197.656 391.419 197.509C385.297 196.563 375.007 196.185 368.214 196.101C368.214 196.111 368.214 196.101 368.214 196.111L370.356 198.686C373.233 202.112 378.577 208.492 388.573 209.742C389.329 209.837 390.043 209.889 390.715 209.889C394.6 209.889 396.354 208.239 397.141 206.842C398.265 204.834 398.002 202.364 397.194 200.252Z" fill="#407BFF"/>
<path opacity="0.2" d="M362.166 218.171L352.936 221.755C352.936 221.86 352.947 221.944 352.926 222.049C353.041 227.42 352.989 232.653 352.8 237.667C362.429 233.673 362.586 221.681 362.166 218.171Z" fill="black"/>
<path d="M377.087 182.438C377.454 187.651 376.53 193.2 372.582 196.784C372.246 197.089 372.193 197.593 372.487 197.94C376.005 202.049 380.688 206.61 388.836 207.64C397.173 208.691 396.47 202.974 394.59 199.6C394.495 199.432 394.328 199.306 394.139 199.233C387.387 196.826 388.143 192.16 388.931 187.031C389.099 185.948 388.553 184.876 387.576 184.372L380.016 180.483C378.63 179.79 376.971 180.872 377.087 182.438Z" fill="#FFC3BD"/>
<path opacity="0.2" d="M388.889 187.346L380.688 187.052C380.814 187.43 380.972 187.819 381.129 188.187C382.242 190.877 385.371 193.042 388.71 194.198C388.164 192.17 388.521 189.805 388.889 187.346Z" fill="black"/>
<path d="M379.061 162.627C376.268 172.086 374.147 177.477 377.087 183.92C381.507 193.62 394.454 193.536 400.019 185.107C405.027 177.519 408.755 163.331 401.048 156.353C393.456 149.49 381.854 153.179 379.061 162.627Z" fill="#FFC3BD"/>
<path d="M376.792 171.718C383.481 175.281 392.511 151.76 382.862 151.76C373.212 151.76 373.663 170.047 376.792 171.718Z" fill="#263238"/>
<path d="M371.963 167.651C371.868 170.31 373.013 172.759 374.535 174.335C376.814 176.7 378.767 174.913 379.523 171.897C380.205 169.175 380.678 164.813 377.717 163.573C374.808 162.354 372.068 164.614 371.963 167.651Z" fill="#FFC3BD"/>
<path d="M391.661 169.889C391.388 170.646 391.566 171.403 392.06 171.582C392.553 171.76 393.172 171.298 393.445 170.541C393.718 169.784 393.54 169.028 393.046 168.849C392.553 168.67 391.934 169.143 391.661 169.889Z" fill="#263238"/>
<path d="M400.932 173.526C400.659 174.283 400.838 175.039 401.331 175.218C401.825 175.397 402.444 174.934 402.717 174.177C402.99 173.421 402.812 172.664 402.318 172.485C401.835 172.307 401.215 172.769 400.932 173.526Z" fill="#263238"/>
<path d="M397.803 172.811C397.803 172.811 397.929 177.782 399.052 180.557C397.267 181.314 395.21 179.926 395.21 179.926L397.803 172.811Z" fill="#ED847E"/>
<path d="M393.172 182.039C390.327 180.872 389.487 178.476 389.455 178.36C389.413 178.234 389.476 178.108 389.602 178.066C389.728 178.024 389.854 178.087 389.896 178.213C389.907 178.245 390.883 181.03 394.285 181.913C394.411 181.944 394.485 182.07 394.453 182.196C394.422 182.322 394.296 182.396 394.17 182.364C393.802 182.28 393.477 182.165 393.172 182.039Z" fill="#263238"/>
<path d="M391.283 166.253C391.209 166.222 391.157 166.159 391.104 166.095C390.968 165.875 391.031 165.58 391.241 165.444C393.425 164.025 395.42 164.887 395.504 164.929C395.745 165.034 395.85 165.318 395.745 165.549C395.64 165.791 395.367 165.896 395.126 165.791C395.063 165.759 393.498 165.108 391.755 166.232C391.608 166.327 391.43 166.327 391.283 166.253Z" fill="#263238"/>
<path d="M406.508 171.97C406.371 171.897 406.277 171.76 406.256 171.603C406.046 169.532 404.555 168.733 404.492 168.691C404.261 168.576 404.177 168.292 404.292 168.061C404.408 167.83 404.691 167.745 404.922 167.861C405.006 167.903 406.927 168.923 407.19 171.508C407.221 171.771 407.032 172.002 406.77 172.023C406.686 172.033 406.592 172.012 406.508 171.97Z" fill="#263238"/>
<path d="M384.93 230.037C381.57 231.487 378.168 233.021 374.745 234.398C371.343 235.827 367.941 237.194 364.55 238.465C361.158 239.705 357.767 240.893 354.522 241.681C353.798 241.86 353.073 242.028 352.38 242.154C352.664 241.061 352.989 239.958 353.336 238.854C354.354 235.68 355.709 232.517 357.168 229.374C358.67 226.243 360.308 223.132 362.082 220.084C362.954 218.549 363.857 217.036 364.791 215.544L366.208 213.326C366.66 212.611 367.185 211.813 367.574 211.245L355.394 202.396C354.69 203.352 354.165 204.109 353.577 204.95C353.021 205.78 352.485 206.621 351.95 207.462C350.889 209.143 349.871 210.846 348.884 212.569C346.952 216.038 345.167 219.611 343.602 223.331C342.027 227.041 340.694 230.909 339.654 234.945C339.119 236.962 338.73 239.043 338.426 241.166C338.342 241.692 338.279 242.228 338.226 242.774L338.142 243.584L338.1 243.983L338.048 244.698C337.985 245.622 338.048 246.831 338.352 248.124C338.688 249.469 339.423 251.014 340.547 252.244C341.681 253.505 343.014 254.251 344.18 254.713C345.377 255.186 346.322 255.323 347.246 255.428C349.01 255.586 350.364 255.438 351.624 255.249C354.113 254.85 356.15 254.209 358.145 253.515C362.061 252.075 365.621 250.415 369.065 248.597C375.973 244.992 382.379 240.935 388.658 236.447L384.93 230.037Z" fill="#FFC3BD"/>
<path d="M358.963 196.763C349.555 198.003 341.943 225.633 341.943 225.633L360.927 231.834C360.927 231.834 363.793 225.938 369.631 215.134C376.005 203.373 370.366 195.26 358.963 196.763Z" fill="#263238"/>
<path d="M396.123 224.971L391.356 224.687C390.506 224.635 389.676 224.918 389.036 225.475L382.158 231.413L384.857 236.805C388.878 239.642 395.577 233.274 395.577 233.274L398.024 232.695C399.945 232.244 400.827 230.005 399.725 228.355L398.297 226.232C397.814 225.486 397.005 225.034 396.123 224.971Z" fill="#FFC3BD"/>
<path d="M402.056 248.239L394.002 247.01C393.172 246.884 392.679 246.001 393.005 245.223L400.953 226.274C401.184 225.728 401.751 225.402 402.339 225.496L410.393 226.726C411.222 226.852 411.716 227.735 411.39 228.513L403.442 247.462C403.221 248.008 402.644 248.334 402.056 248.239Z" fill="white"/>
<path d="M403.137 248.397L395.084 247.167C394.254 247.041 393.761 246.158 394.086 245.381L402.035 226.432C402.266 225.885 402.833 225.559 403.421 225.654L411.474 226.884C412.304 227.01 412.797 227.893 412.472 228.67L404.523 247.619C404.303 248.166 403.725 248.481 403.137 248.397Z" fill="#407BFF"/>
<path d="M410.414 246.327L402.087 236.237L397.456 246.558C397.456 246.558 400.208 250.425 404.754 251.024L410.414 246.327Z" fill="#FFC3BD"/>
<path d="M392.616 237.656L393.11 241.061C393.267 242.123 393.771 243.1 394.559 243.825L397.467 246.547L402.098 236.227L395.651 234.818C393.929 234.451 392.364 235.911 392.616 237.656Z" fill="#FFC3BD"/>
<path d="M393.929 157.688C391.167 163.72 409.489 170.846 409.468 162.322C409.437 153.799 395.22 154.861 393.929 157.688Z" fill="#263238"/>
<path d="M382.578 154.167C380.205 161.366 413.469 165.244 411.842 155.722C410.204 146.201 383.691 150.793 382.578 154.167Z" fill="#263238"/>
<path d="M392.49 156.227C395.251 162.259 412.608 153.042 406.15 147.483C399.693 141.934 391.198 153.4 392.49 156.227Z" fill="#263238"/>
<path d="M385.381 283.678C342.783 283.678 308.122 248.986 308.122 206.348C308.122 163.71 342.783 129.017 385.381 129.017C427.98 129.017 462.64 163.71 462.64 206.348C462.64 248.986 427.98 283.678 385.381 283.678ZM385.381 130.068C343.36 130.068 309.172 164.288 309.172 206.348C309.172 248.407 343.36 282.627 385.381 282.627C427.402 282.627 461.59 248.407 461.59 206.348C461.59 164.288 427.402 130.068 385.381 130.068Z" fill="#407BFF"/>
<path d="M182.962 140.273H181.86V126.768C181.86 117.414 189.462 109.795 198.818 109.795V110.898C190.082 110.898 182.962 118.014 182.962 126.768V140.273Z" fill="#407BFF"/>
<path d="M182.963 148.618H181.86V157.372H182.963V148.618Z" fill="#407BFF"/>
<path d="M313.582 370.089H198.818C191.531 370.089 185.566 364.119 185.566 356.826V126.768C185.566 119.474 191.531 113.505 198.818 113.505H313.582C320.869 113.505 326.833 119.474 326.833 126.768V356.826C326.833 364.119 320.869 370.089 313.582 370.089Z" fill="#174CD5"/>
<path d="M313.583 370.646H198.818C191.205 370.646 185.01 364.445 185.01 356.826V126.768C185.01 119.149 191.205 112.948 198.818 112.948H313.583C321.195 112.948 327.39 119.149 327.39 126.768V356.826C327.39 364.445 321.195 370.646 313.583 370.646ZM198.818 114.062C191.814 114.062 186.113 119.769 186.113 126.779V356.836C186.113 363.846 191.814 369.553 198.818 369.553H313.583C320.586 369.553 326.288 363.846 326.288 356.836V126.779C326.288 119.769 320.586 114.062 313.583 114.062H198.818Z" fill="#407BFF"/>
<path d="M313.583 113.505H198.818C191.531 113.505 185.566 119.474 185.566 126.768H326.844C326.834 119.474 320.87 113.505 313.583 113.505Z" fill="#1E5BFA"/>
<path d="M207.228 120.147C207.228 122.375 205.432 124.172 203.206 124.172C200.98 124.172 199.185 122.375 199.185 120.147C199.185 117.919 200.98 116.122 203.206 116.122C205.422 116.111 207.228 117.919 207.228 120.147Z" fill="white"/>
<path d="M311.136 120.147C311.136 120.651 310.727 121.051 310.233 121.051C309.729 121.051 309.33 120.641 309.33 120.147C309.33 119.643 309.74 119.243 310.233 119.243C310.737 119.233 311.136 119.643 311.136 120.147Z" fill="white"/>
<path d="M311.136 123.416C311.136 123.92 310.727 124.319 310.233 124.319C309.729 124.319 309.33 123.909 309.33 123.416C309.33 122.911 309.74 122.512 310.233 122.512C310.737 122.501 311.136 122.911 311.136 123.416Z" fill="white"/>
<path d="M310.233 117.772C310.732 117.772 311.136 117.367 311.136 116.868C311.136 116.369 310.732 115.964 310.233 115.964C309.734 115.964 309.33 116.369 309.33 116.868C309.33 117.367 309.734 117.772 310.233 117.772Z" fill="white"/>
<path opacity="0.2" d="M239.673 122.039H212.846C211.806 122.039 210.945 121.187 210.945 120.136C210.945 119.096 211.796 118.234 212.846 118.234H239.673C240.712 118.234 241.574 119.086 241.574 120.136C241.574 121.187 240.723 122.039 239.673 122.039Z" fill="white"/>
<path d="M313.782 176.258H241.72C239.085 176.258 236.943 174.114 236.943 171.476V145.065C236.943 142.428 239.085 140.284 241.72 140.284H313.782C316.418 140.284 318.56 142.428 318.56 145.065V171.476C318.56 174.114 316.428 176.258 313.782 176.258Z" fill="#1E5BFA"/>
<path d="M270.68 203.027H198.618C195.983 203.027 193.841 200.883 193.841 198.245V188.954C193.841 186.306 195.983 184.172 198.618 184.172H270.68C273.315 184.172 275.457 186.316 275.457 188.954V198.245C275.468 200.883 273.326 203.027 270.68 203.027Z" fill="white"/>
<path d="M270.68 300.021H198.618C195.983 300.021 193.841 297.877 193.841 295.239V242.491C193.841 239.853 195.983 237.709 198.618 237.709H270.68C273.315 237.709 275.457 239.853 275.457 242.491V295.239C275.468 297.877 273.326 300.021 270.68 300.021Z" fill="white"/>
<path d="M313.782 325.99H284.96C282.314 325.99 280.182 323.846 280.182 321.208V311.918C280.182 309.28 282.324 307.136 284.96 307.136H313.782C316.418 307.136 318.56 309.28 318.56 311.918V321.208C318.56 323.857 316.428 325.99 313.782 325.99Z" fill="#1E5BFA"/>
<path d="M301.791 315.344C301.791 316.679 300.709 317.772 299.365 317.772C298.021 317.772 296.94 316.689 296.94 315.344C296.94 314.009 298.021 312.916 299.365 312.916C300.709 312.916 301.791 313.999 301.791 315.344Z" fill="white"/>
<path d="M293.758 316.563C293.758 317.898 292.677 318.991 291.333 318.991C289.999 318.991 288.907 317.908 288.907 316.563C288.907 315.228 289.989 314.135 291.333 314.135C292.666 314.146 293.758 315.228 293.758 316.563Z" fill="white"/>
<path d="M309.834 317.793C309.834 319.127 308.752 320.22 307.409 320.22C306.075 320.22 304.983 319.138 304.983 317.793C304.983 316.447 306.065 315.365 307.409 315.365C308.742 315.365 309.834 316.458 309.834 317.793Z" fill="white"/>
<path d="M313.782 229.795H241.72C239.085 229.795 236.943 227.651 236.943 225.013V215.722C236.943 213.084 239.085 210.94 241.72 210.94H313.782C316.418 210.94 318.56 213.084 318.56 215.722V225.013C318.56 227.651 316.428 229.795 313.782 229.795Z" fill="#1E5BFA"/>
<path d="M198.219 361.807C200.637 361.807 202.598 359.845 202.598 357.425C202.598 355.004 200.637 353.042 198.219 353.042C195.801 353.042 193.841 355.004 193.841 357.425C193.841 359.845 195.801 361.807 198.219 361.807Z" fill="#407BFF"/>
<path d="M211.449 361.807C213.867 361.807 215.827 359.845 215.827 357.425C215.827 355.004 213.867 353.042 211.449 353.042C209.031 353.042 207.07 355.004 207.07 357.425C207.07 359.845 209.031 361.807 211.449 361.807Z" fill="white"/>
<path d="M224.69 361.807C227.108 361.807 229.068 359.845 229.068 357.425C229.068 355.004 227.108 353.042 224.69 353.042C222.271 353.042 220.311 355.004 220.311 357.425C220.311 359.845 222.271 361.807 224.69 361.807Z" fill="white"/>
<path d="M314.181 361.807H278.376C275.971 361.807 273.997 359.831 273.997 357.425C273.997 355.018 275.971 353.042 278.376 353.042H314.181C316.586 353.042 318.56 355.018 318.56 357.425C318.56 359.842 316.596 361.807 314.181 361.807Z" fill="white"/>
<path d="M326.844 338.938H185.566V340.042H326.844V338.938Z" fill="#407BFF"/>
</g>
<defs>
<clipPath id="clip0_24_6544">
<rect width="504" height="433" fill="white"/>
</clipPath>
</defs>
</svg>
