<svg width="504" height="504" viewBox="0 0 504 504" fill="none" xmlns="http://www.w3.org/2000/svg">
<path d="M440.322 127.261V123.537C440.322 115.513 433.817 109 425.785 109H78.7055C70.6813 109 64.1684 115.505 64.1684 123.537V127.027C144.978 126.769 385.104 127.169 440.322 127.261Z" fill="white"/>
<path d="M334.587 192.064L248.007 192.273C240.76 192.29 234.873 186.428 234.856 179.189C234.84 171.941 240.701 166.055 247.941 166.038L334.52 165.829C341.768 165.812 347.655 171.674 347.671 178.913C347.697 186.153 341.835 192.039 334.587 192.064Z" fill="#2C54AC"/>
<path d="M248.291 190.061C240.743 190.061 234.581 183.915 234.564 176.367C234.547 168.793 240.693 162.623 248.258 162.606L332.892 162.406C340.474 162.406 346.636 168.551 346.653 176.1C346.661 179.765 345.242 183.214 342.653 185.819C340.065 188.416 336.625 189.852 332.959 189.86L248.291 190.061Z" fill="white"/>
<path d="M332.926 163.015C340.157 163.015 346.027 168.869 346.043 176.1C346.06 183.347 340.198 189.234 332.959 189.251L248.325 189.451C248.316 189.451 248.3 189.451 248.291 189.451C241.06 189.451 235.19 183.598 235.174 176.367C235.157 169.119 241.019 163.232 248.258 163.216L332.892 163.015C332.901 163.015 332.917 163.015 332.926 163.015ZM332.926 161.796H332.892L248.258 161.997C244.425 162.005 240.835 163.508 238.13 166.222C235.424 168.935 233.946 172.542 233.955 176.367C233.971 184.249 240.401 190.67 248.291 190.67L332.959 190.47C340.866 190.453 347.279 184.007 347.262 176.1C347.246 168.209 340.808 161.796 332.926 161.796Z" fill="#55A3F3"/>
<path d="M332.592 188.048L248.675 188.249C242.096 188.265 236.752 182.946 236.735 176.367C236.718 169.787 242.037 164.443 248.617 164.426L332.533 164.226C339.113 164.209 344.457 169.528 344.473 176.108C344.49 182.679 339.171 188.032 332.592 188.048Z" stroke="#55A3F3" stroke-width="0.2915" stroke-miterlimit="10" stroke-dasharray="0.93 0.93"/>
<path d="M250.646 175.999C253.886 175.991 256.716 177.778 258.186 180.433C258.862 179.197 259.246 177.786 259.246 176.283C259.238 171.532 255.38 167.691 250.629 167.708C245.878 167.716 242.037 171.574 242.054 176.325C242.054 177.828 242.446 179.239 243.131 180.467C244.584 177.811 247.398 176.008 250.646 175.999Z" fill="#F0F0F0"/>
<path d="M250.663 184.9C253.902 184.892 256.725 183.088 258.186 180.433C256.716 177.786 253.886 175.991 250.646 175.999C247.406 176.008 244.584 177.811 243.123 180.467C244.592 183.113 247.423 184.909 250.663 184.9Z" fill="#1E5BFA"/>
<path d="M253.953 172.76C253.961 174.68 252.408 176.242 250.487 176.242C248.567 176.25 247.005 174.697 247.005 172.776C246.997 170.856 248.55 169.294 250.471 169.294C252.391 169.294 253.953 170.839 253.953 172.76Z" fill="#1E5BFA"/>
<path d="M270.185 169.896L272.297 174.146L276.99 173.945V174.814L273.6 178.137L274.418 181.936V182.813L270.21 180.617L266.018 182.83V181.961L266.811 178.154L263.405 174.847V173.979L268.097 174.154L270.185 169.896Z" fill="#A58A00"/>
<path d="M270.185 169.027L272.297 173.277L276.99 173.945L273.6 177.26L274.418 181.936L270.21 179.74L266.018 181.961L266.803 177.277L263.405 173.979L268.097 173.286L270.185 169.027Z" fill="#EAE104"/>
<path d="M285.782 169.862L287.886 174.112L292.587 173.904V174.78L289.197 178.104L290.007 181.903V182.771L285.807 180.575L281.616 182.796L281.607 181.919L282.401 178.112L278.994 174.814V173.937L283.695 174.121L285.782 169.862Z" fill="#A58A00"/>
<path d="M285.782 168.985L287.886 173.235L292.587 173.903L289.197 177.227L290.007 181.903L285.807 179.707L281.607 181.919L282.401 177.243L278.994 173.937L283.686 173.244L285.782 168.985Z" fill="#EAE104"/>
<path d="M301.371 169.82L303.484 174.071L308.177 173.87L308.185 174.739L304.795 178.062L305.605 181.861V182.738L301.397 180.542L297.205 182.754V181.886L297.998 178.078L294.591 174.772V173.904L299.284 174.079L301.371 169.82Z" fill="#A58A00"/>
<path d="M301.371 168.952L303.484 173.202L308.177 173.87L304.787 177.193L305.605 181.861L301.397 179.665L297.205 181.886L297.998 177.202L294.591 173.903L299.284 173.21L301.371 168.952Z" fill="#EAE104"/>
<path d="M316.969 169.787L319.082 174.037L323.774 173.828V174.705L320.384 178.028L321.194 181.828L321.202 182.696L316.994 180.5L312.802 182.721V181.844L313.587 178.045L310.189 174.739L310.181 173.862L314.882 174.045L316.969 169.787Z" fill="#A58A00"/>
<path d="M316.969 168.91L319.073 173.16L323.774 173.828L320.384 177.152L321.194 181.828L316.994 179.632L312.802 181.844L313.587 177.168L310.181 173.862L314.873 173.169L316.969 168.91Z" fill="#EAE104"/>
<path d="M332.567 169.745L334.671 173.995L339.363 173.795L339.372 174.672L335.982 177.987L336.792 181.786V182.662L332.592 180.466L328.392 182.679V181.811L329.185 178.003L325.778 174.697V173.828L330.471 174.004L332.567 169.745Z" fill="#A58A00"/>
<path d="M332.558 168.877L334.671 173.127L339.363 173.795L335.982 177.118L336.792 181.786L332.583 179.59L328.392 181.811L329.185 177.127L325.778 173.828L330.471 173.135L332.558 168.877Z" fill="#EAE104"/>
<path d="M334.587 267.021L248.007 267.23C240.76 267.247 234.873 261.385 234.856 254.146C234.84 246.898 240.701 241.011 247.941 240.995L334.52 240.786C341.768 240.769 347.655 246.631 347.671 253.87C347.697 261.11 341.835 266.996 334.587 267.021Z" fill="#2C54AC"/>
<path d="M248.291 265.017C240.743 265.017 234.581 258.872 234.564 251.324C234.547 243.75 240.693 237.58 248.258 237.563L332.892 237.363C340.474 237.363 346.636 243.508 346.653 251.056C346.661 254.722 345.242 258.17 342.653 260.776C340.065 263.372 336.625 264.809 332.959 264.817L248.291 265.017Z" fill="white"/>
<path d="M332.926 237.972C340.157 237.972 346.027 243.825 346.043 251.056C346.06 258.304 340.198 264.191 332.959 264.207L248.325 264.408C248.316 264.408 248.3 264.408 248.291 264.408C241.06 264.408 235.19 258.554 235.174 251.324C235.157 244.076 241.019 238.189 248.258 238.172L332.892 237.972C332.901 237.972 332.917 237.972 332.926 237.972ZM332.926 236.753H332.892L248.258 236.953C244.425 236.962 240.835 238.465 238.13 241.178C235.424 243.892 233.946 247.499 233.955 251.324C233.971 259.206 240.401 265.627 248.291 265.627L332.959 265.426C340.866 265.41 347.279 258.964 347.262 251.056C347.246 243.166 340.808 236.753 332.926 236.753Z" fill="#55A3F3"/>
<path d="M332.592 263.005L248.675 263.205C242.096 263.222 236.752 257.903 236.735 251.324C236.718 244.744 242.037 239.4 248.617 239.383L332.533 239.183C339.113 239.166 344.457 244.485 344.473 251.065C344.49 257.636 339.171 262.988 332.592 263.005Z" stroke="#55A3F3" stroke-width="0.2915" stroke-miterlimit="10" stroke-dasharray="0.93 0.93"/>
<path d="M250.646 250.956C253.886 250.948 256.716 252.735 258.186 255.39C258.862 254.154 259.246 252.743 259.246 251.24C259.238 246.489 255.38 242.648 250.629 242.665C245.878 242.673 242.037 246.531 242.054 251.282C242.054 252.785 242.446 254.196 243.131 255.423C244.584 252.768 247.398 250.964 250.646 250.956Z" fill="#F0F0F0"/>
<path d="M250.663 259.857C253.902 259.849 256.725 258.045 258.186 255.39C256.716 252.743 253.886 250.948 250.646 250.956C247.406 250.965 244.584 252.768 243.123 255.423C244.592 258.07 247.423 259.866 250.663 259.857Z" fill="#1E5BFA"/>
<path d="M253.953 247.716C253.961 249.637 252.408 251.198 250.487 251.198C248.567 251.207 247.005 249.654 247.005 247.733C246.997 245.813 248.55 244.251 250.471 244.251C252.391 244.251 253.953 245.796 253.953 247.716Z" fill="#1E5BFA"/>
<path d="M270.185 244.852L272.297 249.102L276.99 248.902V249.77L273.6 253.094L274.418 256.893V257.77L270.21 255.574L266.018 257.786V256.918L266.811 253.11L263.405 249.804V248.935L268.097 249.111L270.185 244.852Z" fill="#A58A00"/>
<path d="M270.185 243.984L272.297 248.234L276.99 248.902L273.6 252.217L274.418 256.893L270.21 254.697L266.018 256.918L266.803 252.234L263.405 248.935L268.097 248.242L270.185 243.984Z" fill="#EAE104"/>
<path d="M285.782 244.819L287.886 249.069L292.587 248.86V249.737L289.197 253.06L290.007 256.859V257.728L285.807 255.532L281.616 257.753L281.607 256.876L282.401 253.069L278.994 249.77V248.894L283.695 249.077L285.782 244.819Z" fill="#A58A00"/>
<path d="M285.782 243.942L287.886 248.192L292.587 248.86L289.197 252.184L290.007 256.86L285.807 254.663L281.607 256.876L282.401 252.2L278.994 248.894L283.686 248.201L285.782 243.942Z" fill="#EAE104"/>
<path d="M301.371 244.777L303.484 249.027L308.177 248.827L308.185 249.695L304.795 253.019L305.605 256.818V257.694L301.397 255.498L297.205 257.711V256.843L297.998 253.035L294.591 249.729V248.86L299.284 249.036L301.371 244.777Z" fill="#A58A00"/>
<path d="M301.371 243.909L303.484 248.159L308.177 248.827L304.787 252.15L305.605 256.818L301.397 254.622L297.205 256.843L297.998 252.159L294.591 248.86L299.284 248.167L301.371 243.909Z" fill="#EAE104"/>
<path d="M316.969 244.744L319.082 248.994L323.774 248.785V249.662L320.384 252.985L321.194 256.784L321.202 257.653L316.994 255.457L312.802 257.678V256.801L313.587 253.002L310.189 249.695L310.181 248.819L314.882 249.002L316.969 244.744Z" fill="#A58A00"/>
<path d="M316.969 243.867L319.073 248.117L323.774 248.785L320.384 252.108L321.194 256.784L316.994 254.588L312.802 256.801L313.587 252.125L310.181 248.819L314.873 248.126L316.969 243.867Z" fill="#EAE104"/>
<path d="M332.567 244.702L334.671 248.952L339.363 248.752L339.372 249.628L335.982 252.943L336.792 256.743V257.619L332.592 255.423L328.392 257.636V256.768L329.185 252.96L325.778 249.653V248.785L330.471 248.96L332.567 244.702Z" fill="#A58A00"/>
<path d="M332.558 243.834L334.671 248.084L339.363 248.752L335.982 252.075L336.792 256.743L332.583 254.547L328.392 256.768L329.185 252.083L325.778 248.785L330.471 248.092L332.558 243.834Z" fill="#EAE104"/>
<path d="M432.79 133.215H74.2049V153.371H432.79V133.215Z" fill="white"/>
<path d="M422.069 118.06C422.069 115.329 424.282 113.116 427.012 113.116C429.742 113.116 431.955 115.329 431.955 118.06C431.955 120.79 429.742 123.003 427.012 123.003C424.282 123.003 422.069 120.79 422.069 118.06Z" fill="#FF675D"/>
<path d="M408.008 118.06C408.008 115.329 410.22 113.116 412.951 113.116C415.681 113.116 417.894 115.329 417.894 118.06C417.894 120.79 415.681 123.003 412.951 123.003C410.22 123.003 408.008 120.79 408.008 118.06Z" fill="#55A3F3"/>
<path d="M393.938 118.06C393.938 115.329 396.151 113.116 398.881 113.116C401.612 113.116 403.824 115.329 403.824 118.06C403.824 120.79 401.612 123.003 398.881 123.003C396.151 123.003 393.938 120.79 393.938 118.06Z" fill="#55A3F3"/>
<path d="M427.775 198.477H240.564C237.25 198.477 234.564 201.164 234.564 204.477V217.677C234.564 220.991 237.25 223.677 240.564 223.677H427.775C431.089 223.677 433.775 220.991 433.775 217.677V204.477C433.775 201.164 431.089 198.477 427.775 198.477Z" fill="white"/>
<path d="M427.775 274.436H240.564C237.25 274.436 234.564 277.122 234.564 280.436V293.636C234.564 296.95 237.25 299.636 240.564 299.636H427.775C431.089 299.636 433.775 296.95 433.775 293.636V280.436C433.775 277.122 431.089 274.436 427.775 274.436Z" fill="white"/>
<path opacity="0.7" d="M114.352 139.936H115.762L119.357 148.882L122.945 139.936H124.361L119.9 150.91H118.799L114.352 139.936ZM113.893 139.936H115.136L115.34 146.629V150.91H113.893V139.936ZM123.57 139.936H124.814V150.91H123.367V146.629L123.57 139.936ZM131.567 140.908L127.934 150.91H126.449L130.632 139.936H131.589L131.567 140.908ZM134.612 150.91L130.971 140.908L130.949 139.936H131.906L136.104 150.91H134.612ZM134.423 146.847V148.038H128.258V146.847H134.423ZM138.034 139.936H139.443L143.038 148.882L146.626 139.936H148.043L143.581 150.91H142.48L138.034 139.936ZM137.574 139.936H138.817L139.021 146.629V150.91H137.574V139.936ZM147.251 139.936H148.495V150.91H147.048V146.629L147.251 139.936ZM159.491 139.936V150.91H158.029L152.505 142.446V150.91H151.05V139.936H152.505L158.052 148.423V139.936H159.491ZM168.347 139.936H169.794V147.36C169.794 148.184 169.611 148.87 169.244 149.418C168.877 149.965 168.39 150.377 167.782 150.654C167.179 150.925 166.523 151.061 165.815 151.061C165.071 151.061 164.398 150.925 163.795 150.654C163.197 150.377 162.722 149.965 162.37 149.418C162.024 148.87 161.85 148.184 161.85 147.36V139.936H163.29V147.36C163.29 147.933 163.395 148.405 163.606 148.777C163.817 149.149 164.111 149.425 164.488 149.606C164.87 149.787 165.312 149.877 165.815 149.877C166.322 149.877 166.764 149.787 167.141 149.606C167.523 149.425 167.82 149.149 168.031 148.777C168.242 148.405 168.347 147.933 168.347 147.36V139.936ZM180.519 139.936V150.91H179.057L173.533 142.446V150.91H172.078V139.936H173.533L179.08 148.423V139.936H180.519ZM114.352 157.936H115.762L119.357 166.882L122.945 157.936H124.361L119.9 168.91H118.799L114.352 157.936ZM113.893 157.936H115.136L115.34 164.629V168.91H113.893V157.936ZM123.57 157.936H124.814V168.91H123.367V164.629L123.57 157.936ZM128.929 157.936V168.91H127.474V157.936H128.929ZM136.179 165.707V157.936H137.627V165.707C137.627 166.43 137.478 167.041 137.182 167.538C136.885 168.036 136.476 168.415 135.953 168.676C135.436 168.932 134.84 169.061 134.167 169.061C133.494 169.061 132.896 168.945 132.373 168.714C131.851 168.483 131.441 168.131 131.145 167.659C130.848 167.186 130.7 166.591 130.7 165.872H132.155C132.155 166.335 132.24 166.714 132.411 167.011C132.582 167.307 132.818 167.526 133.119 167.666C133.426 167.807 133.775 167.877 134.167 167.877C134.549 167.877 134.891 167.797 135.192 167.636C135.499 167.47 135.74 167.227 135.916 166.905C136.092 166.578 136.179 166.179 136.179 165.707ZM148.54 163.076V163.77C148.54 164.594 148.437 165.332 148.231 165.986C148.025 166.639 147.729 167.194 147.342 167.651C146.955 168.108 146.49 168.458 145.947 168.699C145.41 168.94 144.807 169.061 144.138 169.061C143.49 169.061 142.895 168.94 142.352 168.699C141.815 168.458 141.347 168.108 140.95 167.651C140.558 167.194 140.254 166.639 140.038 165.986C139.822 165.332 139.714 164.594 139.714 163.77V163.076C139.714 162.252 139.82 161.516 140.031 160.868C140.247 160.215 140.551 159.659 140.943 159.202C141.335 158.74 141.8 158.388 142.337 158.147C142.88 157.906 143.475 157.785 144.123 157.785C144.792 157.785 145.395 157.906 145.932 158.147C146.475 158.388 146.94 158.74 147.327 159.202C147.719 159.659 148.018 160.215 148.224 160.868C148.435 161.516 148.54 162.252 148.54 163.076ZM147.101 163.77V163.061C147.101 162.408 147.033 161.83 146.897 161.328C146.766 160.825 146.573 160.403 146.317 160.061C146.06 159.72 145.746 159.461 145.375 159.285C145.008 159.109 144.591 159.021 144.123 159.021C143.671 159.021 143.262 159.109 142.895 159.285C142.533 159.461 142.222 159.72 141.96 160.061C141.704 160.403 141.506 160.825 141.365 161.328C141.224 161.83 141.154 162.408 141.154 163.061V163.77C141.154 164.428 141.224 165.011 141.365 165.518C141.506 166.021 141.707 166.445 141.968 166.792C142.234 167.134 142.548 167.392 142.91 167.568C143.277 167.744 143.686 167.832 144.138 167.832C144.611 167.832 145.03 167.744 145.397 167.568C145.764 167.392 146.073 167.134 146.324 166.792C146.58 166.445 146.774 166.021 146.905 165.518C147.035 165.011 147.101 164.428 147.101 163.77ZM157.901 167.727V168.91H150.47V167.727H157.901ZM157.66 158.991L150.816 168.91H149.919V167.825L156.755 157.936H157.66V158.991ZM157.042 157.936V159.127H150.017V157.936H157.042ZM166.448 167.727V168.91H160.961V167.727H166.448ZM161.247 157.936V168.91H159.793V157.936H161.247ZM172.327 158.908L168.694 168.91H167.209L171.392 157.936H172.349L172.327 158.908ZM175.372 168.91L171.731 158.908L171.709 157.936H172.666L176.864 168.91H175.372ZM175.183 164.847V166.038H169.018V164.847H175.183ZM178.334 157.936H181.966C182.791 157.936 183.486 158.062 184.054 158.313C184.627 158.564 185.062 158.936 185.358 159.428C185.66 159.916 185.81 160.516 185.81 161.23C185.81 161.732 185.707 162.192 185.501 162.609C185.3 163.021 185.009 163.373 184.627 163.664C184.25 163.951 183.798 164.164 183.27 164.305L182.863 164.463H179.449L179.434 163.28H182.012C182.534 163.28 182.969 163.189 183.316 163.008C183.662 162.822 183.924 162.574 184.099 162.262C184.275 161.951 184.363 161.607 184.363 161.23C184.363 160.808 184.28 160.438 184.115 160.122C183.949 159.805 183.687 159.562 183.331 159.391C182.979 159.215 182.524 159.127 181.966 159.127H179.788V168.91H178.334V157.936ZM184.748 168.91L182.08 163.935L183.594 163.928L186.3 168.819V168.91H184.748Z" fill="#2562A0"/>
<path d="M270.978 392.119L233.495 391.075L240.509 473.472H341.2C341.2 473.472 330.212 456.079 314.648 456.079C299.084 456.079 291.761 463.861 291.761 463.861L269.951 452.413L270.978 392.119Z" fill="#FF8B7B"/>
<path d="M206.542 262.228C203.728 271.28 199.378 280.556 191.27 285.466C182.736 290.635 171.673 289.808 162.396 286.126C159.173 284.848 156.042 283.228 153.378 281.007C148.894 277.267 145.947 272.023 143.576 266.687C137.898 253.945 134.942 240.001 134.967 226.048C134.975 217.515 136.169 208.748 140.378 201.325C144.82 193.476 152.46 187.664 160.968 184.683C169.477 181.702 178.812 181.443 187.663 183.13C190.911 183.748 194.151 184.641 197.006 186.295C199.436 187.706 201.54 189.635 203.361 191.772C206.141 195.037 208.304 198.82 209.757 202.853C211.143 206.702 211.034 210.025 211.335 213.983C212.145 224.429 212.128 234.741 210.5 245.128C209.606 250.906 208.287 256.634 206.542 262.228Z" fill="#FF8B7B"/>
<path d="M133.973 246.155C138.44 247.09 143.225 246.422 147.266 244.301C146.531 237.07 145.454 230.173 144.277 223.001C157.537 221.598 169.594 215.135 177.869 204.673C177.618 205.808 177.034 207.011 176.783 208.146C176.491 209.482 176.199 210.86 176.424 212.213C176.649 213.565 177.526 214.901 178.845 215.252C180.307 215.645 181.793 214.759 183.012 213.866C187.504 210.568 191.42 206.476 194.51 201.834C195.128 209.065 198.276 216.146 204.329 220.162C206.559 221.64 208.805 222.817 211.435 222.333C211.66 225.89 211.66 229.589 211.66 233.146C216.787 229.681 220.804 223.627 222.14 217.59C223.476 211.545 222.666 205.107 220.219 199.429C219.067 196.749 217.555 194.219 215.652 192.014C211.911 187.698 206.792 184.792 201.499 182.621C193.424 179.314 184.724 177.536 175.998 177.427C168.391 177.327 160.342 178.671 154.514 183.556C154.723 182.804 154.547 182.078 154.756 181.327C154.906 180.784 155.057 180.224 155.015 179.657C154.973 179.089 154.714 178.513 154.213 178.245C153.52 177.87 152.644 178.22 152.026 178.713C150.222 180.158 149.562 182.587 148.143 184.408C147.867 183.155 147.258 181.894 146.698 180.742C146.481 180.291 146.231 179.84 145.822 179.548C145.413 179.264 144.803 179.197 144.436 179.531C144.227 179.723 144.127 180.007 144.052 180.291C143.509 182.32 143.91 184.583 145.129 186.303C135.284 187.723 127.051 196.173 124.029 205.65C120.998 215.118 122.367 225.564 125.891 234.866C127.477 239.066 129.581 245.236 133.973 246.155Z" fill="#0A2A6B"/>
<path d="M122.968 244.786C123.444 249.612 126.175 254.171 130.266 256.968C131.543 257.845 132.988 258.571 134.558 258.73C138.098 259.097 141.446 256.409 142.682 253.186C143.926 249.962 143.467 246.38 142.557 243.074C141.371 238.807 138.916 234.29 134.483 233.121C127.343 231.259 122.375 238.807 122.968 244.786Z" fill="#FF8B7B"/>
<path d="M138.933 254.714C137.405 254.204 136.027 253.277 135.025 252.067C134.825 251.824 134.625 251.557 134.591 251.24C134.516 250.647 135.025 250.138 135.485 249.729C136.42 248.902 137.355 248.084 138.29 247.257C138.474 247.09 138.674 246.915 138.749 246.689C138.833 246.439 138.774 246.163 138.708 245.904C137.856 242.623 136.829 239.074 134.007 237.062C133.247 236.519 132.353 236.102 131.402 236.052C129.99 235.976 128.629 236.72 127.669 237.73C126.709 238.74 126.099 240.001 125.523 241.254C125.523 241.254 124.438 248.184 129.256 252.551C134.073 256.91 138.933 254.714 138.933 254.714Z" fill="#FF8B7B"/>
<path d="M125.523 241.254C125.957 239.893 126.492 238.515 127.485 237.354C128.471 236.227 129.957 235.317 131.669 235.434C132.504 235.492 133.289 235.776 133.973 236.177C134.658 236.578 135.259 237.07 135.81 237.63C136.896 238.757 137.631 240.126 138.198 241.496C138.741 242.882 139.117 244.301 139.459 245.696C139.501 245.871 139.559 246.105 139.559 246.414C139.576 246.714 139.426 247.14 139.234 247.357C138.841 247.817 138.607 247.925 138.332 248.184C137.789 248.643 137.23 249.094 136.67 249.537C136.128 249.988 135.485 250.43 135.217 250.823C135.084 251.031 135.05 251.148 135.134 251.374C135.217 251.599 135.451 251.891 135.66 252.15C136.512 253.219 137.647 254.079 138.941 254.697C137.53 254.421 136.178 253.712 135.075 252.693C134.808 252.426 134.541 252.2 134.291 251.783C134.023 251.374 134.04 250.697 134.274 250.288C134.491 249.862 134.783 249.57 135.05 249.303L135.827 248.56C136.336 248.059 136.854 247.566 137.38 247.082C137.622 246.856 137.973 246.547 138.031 246.447C138.056 246.389 138.031 246.456 138.031 246.397C138.031 246.347 137.998 246.23 137.948 246.063C137.564 244.694 137.196 243.349 136.67 242.089C136.178 240.819 135.535 239.634 134.666 238.665C133.823 237.688 132.704 236.887 131.527 236.686C130.358 236.503 129.039 237.02 128.045 237.905C127.018 238.79 126.275 240.034 125.523 241.254Z" fill="#0A2A6B"/>
<path d="M180.95 234.273C182.528 235.501 183.855 237.087 184.899 238.824C185.96 240.561 186.761 242.448 187.362 244.393C187.98 246.33 188.348 248.326 188.657 250.305C188.932 252.292 189.124 254.279 189.258 256.258L189.299 256.935L188.707 257.118C186.903 257.669 185.033 257.995 183.154 258.045C181.284 258.112 179.405 257.903 177.635 257.369C179.48 257.411 181.284 257.277 183.045 256.976C184.807 256.659 186.519 256.191 188.181 255.565L187.63 256.425C187.346 254.463 187.129 252.509 186.828 250.572C186.561 248.635 186.185 246.731 185.734 244.844C184.799 241.103 183.346 237.471 180.95 234.273Z" fill="#0A2A6B"/>
<path d="M154.439 235.292C154.723 233.112 155.608 231 156.793 229.079L157.77 227.693C158.121 227.251 158.488 226.825 158.856 226.382C159.24 225.965 159.657 225.581 160.058 225.172C160.467 224.779 160.918 224.429 161.344 224.053C162.238 223.343 163.131 222.625 164.1 221.982C165.068 221.356 166.137 220.872 167.256 220.579C169.494 220.02 171.948 219.911 174.153 220.872V221.222L168.458 223.911C167.565 224.345 166.663 224.729 165.728 225.088C164.793 225.439 163.857 225.848 162.981 226.366C162.555 226.641 162.112 226.892 161.695 227.184C161.294 227.485 160.868 227.777 160.467 228.094C160.083 228.42 159.674 228.737 159.29 229.079L158.188 230.157C156.743 231.635 155.591 233.396 154.773 235.375L154.439 235.292Z" fill="#0A2A6B"/>
<path d="M205.757 230.474C204.546 228.921 203.185 227.543 201.641 226.433L200.48 225.623L199.278 224.896L198.05 224.237L196.781 223.669C196.347 223.51 195.913 223.36 195.47 223.226L194.134 222.909C193.683 222.825 193.249 222.725 192.815 222.6C192.381 222.5 191.946 222.375 191.521 222.224C189.792 221.656 188.039 221.164 186.01 220.396L185.968 220.045C187.847 218.851 190.076 218.559 192.205 218.751C192.731 218.817 193.266 218.918 193.783 219.043C194.293 219.21 194.794 219.394 195.286 219.602L196.706 220.346C197.157 220.629 197.616 220.888 198.067 221.155L199.378 222.024L200.622 222.976L201.774 224.028L202.843 225.147C204.179 226.716 205.315 228.437 206.058 230.307L205.757 230.474Z" fill="#0A2A6B"/>
<path d="M169.627 237.88C169.343 239.659 168.041 240.92 166.721 240.711C165.402 240.494 164.567 238.891 164.859 237.112C165.143 235.334 166.446 234.073 167.765 234.281C169.076 234.49 169.911 236.102 169.627 237.88Z" fill="#0A2A6B"/>
<path d="M197.157 237.329C196.873 239.108 195.57 240.368 194.251 240.16C192.932 239.943 192.097 238.339 192.389 236.561C192.673 234.782 193.975 233.522 195.295 233.73C196.606 233.947 197.441 235.559 197.157 237.329Z" fill="#0A2A6B"/>
<path d="M171.18 263.89C173.143 266.879 176.967 271.18 182.544 270.854C183.221 270.812 183.864 270.712 184.473 270.562C180.849 267.071 176.148 264.7 171.18 263.89Z" fill="#FF4648"/>
<path d="M194.284 260.533C194.284 260.533 189.55 264.433 183.446 264.809C177.342 265.184 169.636 261.118 169.636 261.118C169.636 261.118 170.153 262.32 171.18 263.882C176.148 264.692 180.849 267.063 184.473 270.553C191.537 268.85 194.284 260.533 194.284 260.533Z" fill="#0A2A6B"/>
<path d="M191.47 449.374C233.537 446.109 244.559 434.261 244.559 434.261L247.005 392.662L279.662 391.793C279.662 391.793 261.292 311.493 235.015 304.253C208.738 297.014 193.917 297.857 193.917 297.857L185.751 328.485L158.797 297.857C158.797 297.857 132.278 299.552 112.464 311.835C92.6581 324.118 77.8788 390.925 77.8788 390.925L121.24 392.111L122.041 435.488C122.05 435.488 149.412 452.647 191.47 449.374Z" fill="#55A3F3"/>
<path d="M193.925 297.866L189.024 276.632L161.661 279.079L158.806 297.866L185.759 328.493L193.925 297.866Z" fill="#FF8B7B"/>
<path d="M191.47 449.374C149.404 452.639 122.041 435.488 122.041 435.488L110.61 503.607H263.755L244.559 434.261C244.567 434.269 233.537 446.109 191.47 449.374Z" fill="#263238"/>
<path d="M194.51 458.501C194.493 455.762 194.485 453.031 194.51 450.301L194.435 442.101L194.326 433.91L194.117 425.719C193.767 414.806 193.274 403.901 192.497 393.013C191.763 382.124 190.752 371.253 189.592 360.39L188.673 352.248L187.655 344.124L186.602 335.991C186.21 333.286 185.834 330.581 185.475 327.867C186.026 330.547 186.569 333.227 187.087 335.908L188.556 343.982L189.842 352.09L191.02 360.214C192.514 371.061 193.583 381.957 194.36 392.879C195.094 403.801 195.537 414.747 195.545 425.694L195.503 433.902L195.345 442.11L195.002 450.309C194.852 453.048 194.685 455.77 194.51 458.501Z" fill="#0A2A6B"/>
<path d="M205.29 350.896C205.29 352.549 203.945 353.893 202.292 353.893C200.639 353.893 199.294 352.549 199.294 350.896C199.294 349.242 200.639 347.898 202.292 347.898C203.954 347.898 205.29 349.234 205.29 350.896Z" fill="#0A2A6B"/>
<path d="M208.604 385.898C208.604 387.552 207.26 388.896 205.607 388.896C203.954 388.896 202.609 387.552 202.609 385.898C202.609 384.245 203.954 382.901 205.607 382.901C207.26 382.901 208.604 384.237 208.604 385.898Z" fill="#0A2A6B"/>
<path d="M209.322 424.951C209.322 426.604 207.978 427.948 206.325 427.948C204.672 427.948 203.327 426.604 203.327 424.951C203.327 423.297 204.672 421.953 206.325 421.953C207.978 421.953 209.322 423.297 209.322 424.951Z" fill="#0A2A6B"/>
<path d="M158.806 297.866C155.549 301.256 152.226 304.587 148.936 307.944L143.96 312.946L138.966 317.922L138.641 316.77C142.741 317.563 146.84 318.398 150.932 319.241C155.023 320.085 159.106 320.97 163.189 321.847L164.534 322.13L163.757 323.274C162.822 324.66 161.895 326.08 161.018 327.508C160.584 328.217 160.158 328.944 159.783 329.662C159.599 330.021 159.415 330.388 159.29 330.706C159.265 330.781 159.232 330.856 159.223 330.914C159.207 330.948 159.223 331.031 159.198 330.839C159.19 330.806 159.182 330.773 159.165 330.739C159.148 330.689 159.115 330.631 159.081 330.581C158.998 330.464 158.848 330.355 158.722 330.313C158.614 330.28 158.672 330.297 158.681 330.297L158.722 330.305L158.797 330.322L159.106 330.405C162.396 331.307 165.653 332.2 168.909 333.152C172.174 334.079 175.422 335.039 178.67 336.016C181.91 337.027 185.166 337.987 188.389 339.056C185.058 338.388 181.76 337.611 178.445 336.893C175.138 336.133 171.84 335.357 168.542 334.555L158.672 332.117L158.363 332.042L158.288 332.025L158.246 332.017C158.221 332.008 158.255 332.025 158.129 331.983C157.946 331.925 157.754 331.783 157.645 331.616C157.595 331.549 157.553 331.457 157.52 331.39C157.495 331.332 157.478 331.274 157.47 331.215C157.403 330.806 157.478 330.681 157.503 330.505C157.537 330.355 157.578 330.23 157.62 330.105C157.795 329.637 157.987 329.236 158.196 328.844C158.605 328.059 159.031 327.316 159.474 326.581C160.359 325.111 161.277 323.675 162.221 322.247L162.797 323.675C158.714 322.773 154.631 321.88 150.564 320.953C146.49 320.026 142.423 319.083 138.357 318.097L137.121 317.797L138.031 316.945L143.192 312.144L148.377 307.36C151.842 304.187 155.29 300.989 158.806 297.866Z" fill="#0A2A6B"/>
<path d="M204.204 298.074C207.452 299.36 210.642 300.755 213.865 302.091C217.063 303.468 220.261 304.855 223.442 306.282L224.82 306.9L223.45 307.602C220.57 309.071 217.664 310.491 214.767 311.927L206.041 316.169L206.166 314.574L210.834 317.814L215.493 321.07L216.595 321.838L215.476 322.548L208.771 326.773L202.033 330.94C199.77 332.309 197.524 333.695 195.245 335.031C192.965 336.375 190.702 337.736 188.398 339.047C190.527 337.478 192.698 335.966 194.852 334.438C197.006 332.902 199.186 331.407 201.357 329.904L207.911 325.445L214.508 321.045L214.483 322.523L209.798 319.308L205.122 316.085L203.803 315.175L205.256 314.49L214.023 310.349C216.963 308.996 219.885 307.61 222.833 306.291L222.841 307.602C219.71 306.065 216.604 304.504 213.489 302.926C210.383 301.306 207.268 299.744 204.204 298.074Z" fill="#0A2A6B"/>
<path d="M120.697 442.753C125.665 445.166 130.767 447.262 135.969 449.073C141.154 450.927 146.415 452.53 151.758 453.841C157.102 455.119 162.48 456.229 167.924 456.914C173.36 457.632 178.829 458.066 184.306 458.041C189.784 458.075 195.236 457.607 200.689 456.906C206.133 456.229 211.527 455.186 216.854 453.883C222.173 452.547 227.4 450.819 232.402 448.572C234.915 447.462 237.37 446.226 239.716 444.79C240.893 444.072 242.037 443.32 243.148 442.502C244.258 441.692 245.344 440.841 246.312 439.855C244.484 441.934 242.263 443.638 239.983 445.199C237.687 446.761 235.274 448.138 232.794 449.391C227.809 451.846 222.565 453.741 217.221 455.261C211.878 456.789 206.417 457.858 200.923 458.651C195.437 459.427 189.867 459.903 184.306 459.912C173.168 459.87 162.087 458.2 151.399 455.236C146.056 453.749 140.795 451.979 135.652 449.934C133.088 448.89 130.55 447.779 128.053 446.594C125.54 445.408 123.077 444.155 120.697 442.753Z" fill="white"/>
<path d="M194.485 503.69C194.652 500.701 194.902 497.72 195.178 494.739C195.437 491.758 195.762 488.785 196.096 485.813L196.113 485.671L196.205 485.562C198.409 482.999 200.639 480.461 202.901 477.947L206.325 474.198C207.486 472.971 208.629 471.727 209.823 470.516C208.805 471.869 207.736 473.18 206.684 474.507L203.469 478.432C201.315 481.037 199.119 483.609 196.898 486.155L197.006 485.905C196.647 488.877 196.288 491.841 195.854 494.806C195.445 497.778 195.011 500.742 194.485 503.69Z" fill="white"/>
<path d="M160.668 285.583C170.754 289.349 182.294 290.56 191.128 285.892L192.406 291.286C192.406 291.286 181.008 294.484 171.631 291.578C162.254 288.664 160.668 285.583 160.668 285.583Z" fill="#0A2A6B"/>
<path d="M236.017 321.462C238.438 328.969 240.434 336.626 241.996 344.375C243.582 352.115 244.734 359.947 245.544 367.813C246.321 375.678 246.755 383.585 246.747 391.484C246.772 399.383 246.337 407.282 245.461 415.123C245.578 407.232 245.494 399.367 245.219 391.51C244.918 383.652 244.4 375.812 243.599 368.005C242.831 360.189 241.77 352.407 240.501 344.65C239.198 336.893 237.712 329.169 236.017 321.462Z" fill="#0A2A6B"/>
<path d="M131.026 392.119L93.5432 391.075L91.9567 458.985C91.3221 466.792 97.4843 473.472 105.317 473.472H247.189C247.189 473.472 236.201 456.079 220.637 456.079C205.072 456.079 197.75 463.861 197.75 463.861L125.114 452.413L131.026 392.119Z" fill="#FF8B7B"/>
<path d="M236.092 473.656C234.055 472.278 231.984 471.1 229.83 470.098C227.676 469.096 225.454 468.287 223.192 467.577C220.92 466.875 218.616 466.274 216.27 465.723C213.932 465.164 211.56 464.646 209.197 463.961C211.652 463.836 214.099 463.936 216.537 464.22C218.975 464.504 221.405 464.972 223.768 465.715C226.139 466.45 228.435 467.46 230.548 468.762C232.669 470.073 234.606 471.693 236.092 473.656Z" fill="#0A2A6B"/>
<path d="M214.065 459.619C216.821 459.519 219.585 459.853 222.282 460.496C224.979 461.122 227.6 462.099 230.105 463.302C232.594 464.537 234.965 466.007 237.119 467.752C239.282 469.489 241.244 471.459 242.847 473.697C240.66 472.027 238.48 470.441 236.226 468.988C233.963 467.543 231.65 466.207 229.245 465.055C226.857 463.861 224.377 462.859 221.856 461.957C219.317 461.072 216.729 460.329 214.065 459.619Z" fill="#0A2A6B"/>
<path d="M388.987 467.41H182.236V474.19H388.987V467.41Z" fill="white"/>
<path d="M268.54 371.47H426.828L388.995 469.764H230.698L268.54 371.47Z" fill="white"/>
<path d="M392.535 467.41H185.784V474.19H392.535V467.41Z" fill="#0044F4"/>
<path d="M272.088 371.47H430.377L392.544 469.764H234.255L272.088 371.47Z" fill="#0044F4"/>
<path d="M392.544 467.427C385.338 467.594 378.132 467.669 370.926 467.786L349.308 467.994C334.896 468.12 320.484 468.103 306.064 468.17C291.652 468.111 277.24 468.12 262.82 468.003L241.194 467.786C233.988 467.66 226.782 467.594 219.576 467.418C226.782 467.251 233.988 467.176 241.194 467.051L262.812 466.842C277.224 466.725 291.636 466.733 306.056 466.675C320.468 466.733 334.879 466.725 349.3 466.85L370.918 467.059C378.123 467.184 385.338 467.251 392.544 467.427Z" fill="#0A2A6B"/>
<path d="M348.172 424.299C347.045 431.931 340.883 438.118 334.42 438.118C327.957 438.118 323.641 431.931 324.768 424.299C325.895 416.668 332.057 410.48 338.52 410.48C344.983 410.48 349.3 416.668 348.172 424.299Z" fill="#55A3F3"/>
<path d="M77.8872 390.925L111.011 391.192L144.135 391.551L143.559 392.119C143.459 389.347 143.325 386.566 143.175 383.794L142.741 375.469C142.432 369.925 142.073 364.389 141.522 358.878C140.954 353.401 139.918 347.965 138.758 342.538C137.53 337.127 136.186 331.733 134.716 326.355C136.804 331.524 138.566 336.826 140.044 342.212C141.547 347.589 142.766 353.075 143.409 358.669C144.043 364.23 144.361 369.808 144.578 375.378C144.661 378.166 144.745 380.955 144.745 383.736C144.745 386.525 144.728 389.305 144.686 392.102L144.678 392.687L144.11 392.67L110.994 391.835L77.8872 390.925Z" fill="#0A2A6B"/>
<path d="M132.345 453.549C129.706 453.491 127.126 453.415 124.555 453.449C121.983 453.499 119.428 453.624 116.898 453.933C114.359 454.2 111.846 454.651 109.333 455.186C106.819 455.737 104.331 456.413 101.785 457.081C104.006 455.662 106.419 454.559 108.932 453.716C111.437 452.856 114.05 452.305 116.681 451.988C119.319 451.704 121.983 451.662 124.621 451.929C127.252 452.18 129.848 452.697 132.345 453.549Z" fill="#0A2A6B"/>
<path d="M352.297 354.428H286.985C279.896 354.428 274.151 348.683 274.151 341.594V305.69C274.151 298.6 279.896 292.856 286.985 292.856H352.297C359.386 292.856 365.131 298.6 365.131 305.69V341.594C365.131 348.683 359.378 354.428 352.297 354.428Z" fill="#0044F4"/>
<path d="M319.641 362.803L315.065 353.651H324.217L319.641 362.803Z" fill="#0044F4"/>
<path d="M289.531 328.794L298.073 337.336L325.486 309.923" stroke="#EAE004" stroke-width="5" stroke-miterlimit="10"/>
<path d="M315.783 328.794L324.325 337.336L351.738 309.923" stroke="#EAE004" stroke-width="5" stroke-miterlimit="10"/>
<path d="M417.719 359.463H381.088C377.113 359.463 373.89 356.24 373.89 352.265V332.125C373.89 328.151 377.113 324.928 381.088 324.928H417.719C421.693 324.928 424.916 328.151 424.916 332.125V352.265C424.925 356.24 421.701 359.463 417.719 359.463Z" fill="#0044F4"/>
<path d="M399.407 364.164L396.844 359.028H401.971L399.407 364.164Z" fill="#0044F4"/>
<path d="M399.591 354.828C406.384 354.828 411.89 349.322 411.89 342.529C411.89 335.736 406.384 330.23 399.591 330.23C392.798 330.23 387.292 335.736 387.292 342.529C387.292 349.322 392.798 354.828 399.591 354.828Z" fill="#EAE104"/>
<path d="M394.965 341.87C395.698 341.87 396.293 341.275 396.293 340.542C396.293 339.809 395.698 339.214 394.965 339.214C394.232 339.214 393.638 339.809 393.638 340.542C393.638 341.275 394.232 341.87 394.965 341.87Z" fill="white"/>
<path d="M405.135 341.87C405.869 341.87 406.463 341.275 406.463 340.542C406.463 339.809 405.869 339.214 405.135 339.214C404.402 339.214 403.808 339.809 403.808 340.542C403.808 341.275 404.402 341.87 405.135 341.87Z" fill="white"/>
<path d="M395.792 343.69C396.201 344.642 396.76 345.502 397.478 346.128C398.197 346.754 399.098 347.063 400.034 347.055C400.969 347.046 401.862 346.729 402.589 346.103C403.307 345.477 403.883 344.625 404.317 343.69C404.217 344.725 403.783 345.752 403.048 346.57C402.313 347.405 401.161 347.873 400.042 347.881C398.923 347.89 397.754 347.431 397.028 346.587C396.276 345.769 395.867 344.725 395.792 343.69Z" fill="white"/>
</svg>
