<svg width="129" height="58" viewBox="0 0 129 58" fill="none" xmlns="http://www.w3.org/2000/svg">
<path opacity="0.33" d="M37.7978 37.2835C35.5735 39.5194 32.4963 40.9024 29.0964 40.9024C22.3197 40.9024 16.8338 35.4164 16.8338 28.6397C16.8338 25.6202 17.9978 22.8772 19.7611 20.722C20.9251 19.3044 22.2851 18.1174 24.0023 17.3567C25.5236 16.6883 27.3331 16.3771 29.0964 16.3771C32.4617 16.3771 35.5158 17.737 37.7286 19.9268L49.392 8.29803C44.2288 3.16939 37.1178 0 29.2808 0C13.5145 0 0.733276 12.7813 0.733276 28.5475C0.733276 44.3138 13.5145 57.095 29.2808 57.095C37.1178 57.095 43.7678 53.0382 49.3689 48.8316L37.7978 37.2835Z" fill="#1E5BFA"/>
<path d="M54.3247 35.6931C52.0082 35.6931 50.095 34.9209 48.5622 33.3765C47.0409 31.8322 46.2802 29.9421 46.2802 27.7062C46.2802 25.4704 47.0409 23.5918 48.5622 22.0359C50.0835 20.4915 52.0082 19.7194 54.3247 19.7194C56.307 19.7194 58.0012 20.2726 59.4072 21.379C60.8133 22.4854 61.7122 23.903 62.1271 25.6432H58.5544C58.2432 24.7789 57.7246 24.0874 56.9754 23.5687C56.2263 23.0501 55.3389 22.785 54.3247 22.785C52.9763 22.785 51.8699 23.246 51.0055 24.168C50.1411 25.09 49.7147 26.2656 49.7147 27.6947C49.7147 29.1238 50.1411 30.2994 51.0055 31.2214C51.8699 32.1434 52.9763 32.6044 54.3247 32.6044C55.3504 32.6044 56.2378 32.3393 56.9754 31.8207C57.7246 31.302 58.2547 30.6105 58.5544 29.7462H62.1156C61.7007 31.4864 60.8018 32.904 59.3957 34.0104C58.0012 35.1399 56.307 35.6931 54.3247 35.6931Z" fill="black"/>
<path d="M72.0617 35.6929C69.9757 35.6929 68.2239 34.9208 66.7948 33.3649C65.3772 31.809 64.6627 29.9304 64.6627 27.7176C64.6627 25.5048 65.3772 23.6262 66.7948 22.0703C68.2124 20.5145 69.9757 19.7423 72.0617 19.7423C73.1105 19.7423 74.0671 19.9728 74.943 20.4338C75.8189 20.8948 76.4989 21.448 76.9714 22.1049V20.0419H80.3482V35.3933H76.9714V33.3303C76.4989 33.9872 75.8304 34.5404 74.943 35.0014C74.0671 35.4624 73.1105 35.6929 72.0617 35.6929ZM69.3879 31.2097C70.2523 32.1548 71.3472 32.6273 72.6726 32.6273C73.9979 32.6273 75.0928 32.1548 75.9572 31.2097C76.8216 30.2646 77.248 29.1006 77.248 27.7061C77.248 26.3116 76.8216 25.1475 75.9572 24.2025C75.0928 23.2574 73.9979 22.7849 72.6726 22.7849C71.3472 22.7849 70.2523 23.2574 69.3879 24.2025C68.5235 25.1475 68.0971 26.3116 68.0971 27.7061C68.0971 29.1006 68.5351 30.2762 69.3879 31.2097Z" fill="black"/>
<path d="M83.7595 35.3934V12.3663H87.1364V35.3934H83.7595Z" fill="black"/>
<path d="M90.548 35.3934V12.3663H93.9248V35.3934H90.548Z" fill="black"/>
<path d="M111.27 33.3304V35.3934H97.3938V34.4714C97.3938 33.7108 97.5091 32.9962 97.7511 32.3278C97.9816 31.6478 98.2582 31.0715 98.5809 30.5875C98.9036 30.1034 99.3415 29.5848 99.9178 29.0316C100.494 28.4784 100.99 28.052 101.405 27.7408C101.819 27.4296 102.407 27.0147 103.145 26.4846C103.882 25.9544 104.424 25.551 104.77 25.286C105.611 24.6521 106.21 24.1796 106.579 23.8569C106.948 23.5342 107.34 23.1423 107.766 22.6583C108.181 22.1742 108.458 21.6902 108.596 21.1831C108.734 20.6875 108.792 20.0767 108.792 19.3506C108.792 18.1404 108.389 17.1608 107.582 16.4232C106.775 15.6741 105.738 15.3053 104.47 15.3053C103.099 15.3053 101.946 15.7087 101.013 16.5154C100.079 17.3222 99.5951 18.4862 99.549 19.996H97.3362C97.3362 17.9676 98.0046 16.331 99.3531 15.0863C100.69 13.8416 102.373 13.2193 104.378 13.2193C106.257 13.2193 107.835 13.7725 109.103 14.8673C110.371 15.9622 111.005 17.5066 111.005 19.4889C111.005 20.9871 110.636 22.2664 109.887 23.3382C109.138 24.4101 107.789 25.6663 105.853 27.0954C105.461 27.3835 104.908 27.7754 104.194 28.2594C103.479 28.755 102.937 29.1353 102.58 29.4119C102.223 29.6885 101.819 30.0458 101.37 30.4722C100.92 30.8987 100.575 31.3481 100.344 31.8091C100.114 32.2701 99.9408 32.7772 99.8371 33.3304H111.27Z" fill="black"/>
<path d="M122.841 35.3588V29.1584H111.016V27.4065L123.141 13.5535H124.985V27.1069H128.05V29.1699H124.985V35.3704H122.841V35.3588ZM113.909 27.1069H122.841V16.9188L113.909 27.1069Z" fill="black"/>
<path opacity="0.33" d="M37.8094 37.2949C35.585 39.5192 32.5079 40.9022 29.108 40.9138C32.5079 40.9022 35.585 39.5192 37.8094 37.2949Z" fill="url(#paint0_linear_1_1861)"/>
<path opacity="0.33" d="M43.6871 52.5542C43.1455 52.8192 42.5923 53.0613 42.0621 53.2687C26.5379 59.3424 13.722 43.8182 14.6901 34.2524C15.1166 30.0343 17.1104 24.5714 19.3001 21.2867C20.9598 19.2929 23.3685 16.3656 29.0964 16.3771C32.0468 16.3886 35.2969 17.472 37.7287 19.9268L38.0168 19.6387C34.3288 16.0544 29.2924 13.8531 23.7488 13.8531C12.4082 13.8531 3.22272 23.0501 3.22272 34.3792C3.22272 44.9707 13.1804 53.6836 21.5014 56.0232C22.0892 56.1846 22.6539 56.3574 23.2187 56.4612C24.5556 56.7032 25.8464 56.9222 27.0219 57.0144C31.4591 57.3832 34.8359 56.7032 38.6853 55.1704C40.852 54.306 43.3875 52.9114 45.243 51.7359" fill="url(#paint1_linear_1_1861)"/>
<path opacity="0.33" d="M37.8208 37.2834C35.5965 39.5193 32.5193 40.9138 29.1194 40.9138C22.3427 40.9138 16.8568 35.4279 16.8568 28.6512C16.8568 27.0262 17.2832 25.0669 17.9401 23.6608C17.8594 23.8222 17.7788 23.9951 17.6981 24.1564C17.5483 24.4676 17.3984 24.7903 17.2601 25.113C17.1449 25.3781 17.0296 25.6431 16.9259 25.9082C16.7991 26.2079 16.6839 26.5075 16.5686 26.8072C16.4073 27.2336 16.2575 27.6715 16.1076 28.098C15.9117 28.6742 15.7388 29.262 15.5775 29.8383C15.3239 30.7372 15.1165 31.6246 14.9666 32.466C14.8514 33.0768 14.7707 33.6761 14.7131 34.2408C14.6439 35.0015 14.6555 35.9004 14.7477 36.6496C14.8744 37.8251 15.151 38.8624 15.5083 39.9457C17.9516 47.0567 25.489 54.5595 34.9511 54.6401C35.9883 54.6517 37.0601 54.571 38.1435 54.3866C38.8465 54.2713 39.5495 54.11 40.2641 53.9025C40.9671 53.7066 41.6702 53.4646 42.3847 53.1649C43.1915 52.8422 44.0097 52.4504 44.828 52.0009C46.1649 51.1711 47.7669 50.0532 49.3804 48.843L37.8208 37.2834Z" fill="url(#paint2_linear_1_1861)"/>
<defs>
<linearGradient id="paint0_linear_1_1861" x1="36.5336" y1="36.022" x2="30.3783" y2="42.1773" gradientUnits="userSpaceOnUse">
<stop stop-color="#7166CF"/>
<stop offset="0.4693" stop-color="#3B44B9"/>
<stop offset="1" stop-color="#D3E6F7"/>
</linearGradient>
<linearGradient id="paint1_linear_1_1861" x1="37.846" y1="25.1857" x2="9.13127" y2="53.9005" gradientUnits="userSpaceOnUse">
<stop offset="0.4928" stop-color="#3B44B9"/>
<stop offset="1" stop-color="#D3E6F7"/>
</linearGradient>
<linearGradient id="paint2_linear_1_1861" x1="7.33425" y1="39.1494" x2="47.6705" y2="39.1494" gradientUnits="userSpaceOnUse">
<stop stop-color="#3B44B9"/>
<stop offset="0.5084" stop-color="#3B44B9"/>
<stop offset="1" stop-color="#99C6EF"/>
</linearGradient>
</defs>
</svg>
