<svg width="36" height="36" viewBox="0 0 36 36" fill="none" xmlns="http://www.w3.org/2000/svg">
<g clip-path="url(#clip0)">
<path d="M20.1106 18.0098L35.5424 2.57807C36.138 2.00285 36.1545 1.05376 35.5793 0.45816C35.0041 -0.137439 34.055 -0.153954 33.4594 0.421264C33.4469 0.433299 33.4346 0.445598 33.4225 0.45816L17.9906 15.8899L2.5589 0.458072C1.9633 -0.117146 1.01421 -0.100631 0.438991 0.494968C-0.122173 1.07598 -0.122173 1.99705 0.438991 2.57807L15.8707 18.0098L0.438991 33.4415C-0.14633 34.0269 -0.14633 34.976 0.438991 35.5614C1.0244 36.1467 1.97349 36.1467 2.5589 35.5614L17.9906 20.1297L33.4224 35.5614C34.018 36.1366 34.9671 36.1201 35.5423 35.5245C36.1034 34.9435 36.1034 34.0224 35.5423 33.4415L20.1106 18.0098Z" fill="#1C1C1C"/>
</g>
<defs>
<clipPath id="clip0">
<rect width="36" height="36" fill="white"/>
</clipPath>
</defs>
</svg>
