<svg width="514" height="478" viewBox="0 0 514 478" fill="none" xmlns="http://www.w3.org/2000/svg">
<path d="M335.788 56.3008C334.701 58.106 333.589 59.9113 332.406 61.6392" stroke="#749DD3" stroke-linecap="round" stroke-linejoin="round"/>
<path d="M324.869 71.826C292.402 111.232 237.71 129.182 190.387 113.914C168.694 106.926 147.484 93.6181 125.018 96.8934C92.3097 101.664 73.3465 138.543 63.2489 172.096C58.8523 186.744 54.7698 202.295 44.6722 213.256C34.5746 224.216 16.0945 228.188 6.09352 217.098C-5.28441 204.461 3.79863 180.632 19.549 175.706C35.2993 170.78 52.4508 180.632 62.186 194.764C71.8971 208.897 75.8588 226.46 79.7481 243.507C83.6374 260.528 87.9615 278.09 98.1799 291.784C116.926 316.852 151.156 322.629 180.7 316.8C210.244 310.998 237.372 295.833 265.974 285.956C284.865 279.431 308.853 276.62 321.632 292.868C334.024 308.625 328.033 332.944 317.743 350.352C307.476 367.76 293.272 383.595 289.745 403.814C283.754 438.165 313.636 470.892 346.03 475.818C378.425 480.744 410.602 464.677 436.957 443.968C463.312 423.259 486.165 397.573 513.655 378.618" stroke="#CCCCCC" stroke-linecap="round" stroke-linejoin="round" stroke-dasharray="50.38 50.38"/>
<path d="M341.362 54.601L364.432 63.8769L394.934 0L305.784 40.3414L328.934 49.6174" fill="#1E5BFA"/>
<path d="M341.362 54.601L394.933 0L328.934 49.6174L333.239 68.0602L341.362 54.601Z" fill="#114ADE"/>
<path d="M333.239 68.0603L347.252 56.9655L341.362 54.601L333.239 68.0603Z" fill="#1E5BFA"/>
<path d="M325.888 35.4725C331.832 35.4725 336.651 30.5873 336.651 24.561C336.651 18.5348 331.832 13.6495 325.888 13.6495C319.944 13.6495 315.125 18.5348 315.125 24.561C315.125 30.5873 319.944 35.4725 325.888 35.4725Z" fill="white"/>
<path d="M325.888 36.0491C319.674 36.0491 314.597 30.9022 314.597 24.6023C314.597 18.3025 319.674 13.1556 325.888 13.1556C332.102 13.1556 337.179 18.3025 337.179 24.6023C337.179 30.9022 332.102 36.0491 325.888 36.0491ZM325.888 14.2261C320.242 14.2261 315.693 18.8789 315.693 24.5612C315.693 30.2846 320.283 34.8962 325.888 34.8962C331.533 34.8962 336.082 30.2434 336.082 24.5612C336.082 18.8789 331.493 14.2261 325.888 14.2261Z" fill="#1E5BFA"/>
<path d="M325.888 32.6316C330.284 32.6316 333.848 29.0184 333.848 24.5612C333.848 20.1041 330.284 16.4908 325.888 16.4908C321.491 16.4908 317.927 20.1041 317.927 24.5612C317.927 29.0184 321.491 32.6316 325.888 32.6316Z" fill="black"/>
<path d="M325.644 21.2259L324.101 22.0494L323.857 21.1436L325.766 20.1142H326.781V29.0493H325.644V21.2259Z" fill="#CCCCCC"/>
</svg>
