<svg width="48" height="48" viewBox="0 0 48 48" fill="none" xmlns="http://www.w3.org/2000/svg">
<path d="M17.9048 16.6156H36.6694C37.0577 16.6156 37.3725 16.3008 37.3725 15.9125C37.3725 15.5242 37.0577 15.2094 36.6694 15.2094H17.9048C17.5164 15.2094 17.2016 15.5242 17.2016 15.9125C17.2016 16.3008 17.5164 16.6156 17.9048 16.6156Z" fill="white"/>
<path d="M17.9048 21.827H36.6694C37.0577 21.827 37.3725 21.5122 37.3725 21.1238C37.3725 20.7355 37.0577 20.4207 36.6694 20.4207H17.9048C17.5164 20.4207 17.2016 20.7355 17.2016 21.1238C17.2016 21.5122 17.5164 21.827 17.9048 21.827Z" fill="white"/>
<path d="M17.9048 27.0383H36.6694C37.0577 27.0383 37.3725 26.7235 37.3725 26.3352C37.3725 25.9469 37.0577 25.6321 36.6694 25.6321H17.9048C17.5164 25.6321 17.2016 25.9469 17.2016 26.3352C17.2016 26.7235 17.5164 27.0383 17.9048 27.0383Z" fill="white"/>
<path d="M43.5657 9.00206C43.5596 8.82581 43.486 8.6535 43.361 8.52853L35.0384 0.205969C34.9083 0.0758438 34.7251 0 34.5411 0H13.7647C12.2441 0 11.0072 1.23703 11.0072 2.75756V3.28706H10.4777C9.05587 3.28706 7.88222 4.36875 7.73578 5.75231H7.19062C5.67009 5.75231 4.43306 6.98934 4.43306 8.50988V32.1453C4.43306 32.5336 4.74787 32.8484 5.13619 32.8484C5.5245 32.8484 5.83931 32.5336 5.83931 32.1453V8.50978C5.83931 7.76466 6.4455 7.15847 7.19062 7.15847H7.72012V42.7772C7.72012 44.2977 8.95716 45.5348 10.4777 45.5348H28.3646C28.7529 45.5348 29.0677 45.2199 29.0677 44.8316C29.0677 44.4433 28.7529 44.1285 28.3646 44.1285H10.4777C9.73256 44.1285 9.12637 43.5223 9.12637 42.7772V6.04453C9.12637 5.29941 9.73256 4.69322 10.4777 4.69322H11.0072V8.52328C11.0072 8.91159 11.322 9.22641 11.7103 9.22641C12.0986 9.22641 12.4134 8.91159 12.4134 8.52328V2.75756C12.4134 2.01244 13.0196 1.40625 13.7647 1.40625H33.838V6.97162C33.838 8.49197 35.0749 9.72881 36.5952 9.72881H42.1606V39.4901C42.1606 40.2352 41.5544 40.8414 40.8093 40.8414H13.7647C13.0195 40.8414 12.4134 40.2352 12.4134 39.4901V11.5876C12.4134 11.1993 12.0986 10.8845 11.7103 10.8845C11.322 10.8845 11.0072 11.1993 11.0072 11.5876V39.4901C11.0072 41.0107 12.2442 42.2477 13.7647 42.2477H38.8736V42.7772C38.8736 43.5223 38.2674 44.1285 37.5223 44.1285H31.4288C31.0405 44.1285 30.7257 44.4433 30.7257 44.8316C30.7257 45.2199 31.0405 45.5348 31.4288 45.5348H35.5538C35.4198 46.1397 34.88 46.5938 34.2352 46.5938H7.19062C6.4455 46.5938 5.83931 45.9876 5.83931 45.2424V35.2095C5.83931 34.8212 5.5245 34.5064 5.13619 34.5064C4.74787 34.5064 4.43306 34.8212 4.43306 35.2095V45.2424C4.43306 46.763 5.67009 48 7.19062 48H34.2353C35.6571 48 36.8308 46.9183 36.9772 45.5348H37.5224C39.0429 45.5348 40.28 44.2977 40.28 42.7772V42.2477H40.8095C42.33 42.2477 43.567 41.0107 43.567 39.4901V9.02569C43.5669 9.01781 43.566 9.00994 43.5657 9.00206ZM36.5953 8.32256C35.8504 8.32256 35.2444 7.71656 35.2444 6.97162V2.40056L41.1664 8.32256H36.5953Z" fill="white"/>
</svg>
