<svg width="48" height="48" viewBox="0 0 48 48" fill="none" xmlns="http://www.w3.org/2000/svg">
<path d="M31.125 26.2503C30.7108 26.2503 30.375 26.5861 30.375 27.0003V40.5H4.875V7.5H13.125C13.5392 7.5 13.875 7.16419 13.875 6.75C13.875 6.33581 13.5392 6 13.125 6H4.875V5.25C4.875 3.18225 6.55725 1.5 8.625 1.5H26.625C27.0392 1.5 27.375 1.16419 27.375 0.75C27.375 0.335812 27.0392 0 26.625 0H8.625C5.73019 0 3.375 2.35519 3.375 5.25V42.75C3.375 45.6448 5.73019 48 8.625 48H26.625C29.5198 48 31.875 45.6448 31.875 42.75V27.0003C31.875 26.5861 31.5392 26.2503 31.125 26.2503ZM26.625 46.5H8.625C6.55725 46.5 4.875 44.8177 4.875 42.75V42H30.375V42.75C30.375 44.8177 28.6927 46.5 26.625 46.5Z" fill="white"/>
<path d="M19.125 43.5H16.125C15.7108 43.5 15.375 43.8358 15.375 44.25C15.375 44.6642 15.7108 45 16.125 45H19.125C19.5392 45 19.875 44.6642 19.875 44.25C19.875 43.8358 19.5392 43.5 19.125 43.5Z" fill="white"/>
<path d="M12.5944 3.21938C12.4547 3.35906 12.375 3.55313 12.375 3.75C12.375 3.94687 12.4547 4.14094 12.5944 4.28062C12.7341 4.42031 12.9272 4.5 13.125 4.5C13.3228 4.5 13.5159 4.42031 13.6556 4.28062C13.7953 4.14094 13.875 3.94781 13.875 3.75C13.875 3.55219 13.7953 3.35906 13.6556 3.21938C13.5159 3.07969 13.3228 3 13.125 3C12.9272 3 12.7341 3.07969 12.5944 3.21938Z" fill="white"/>
<path d="M19.875 12.75H24.375C24.7892 12.75 25.125 12.4142 25.125 12C25.125 11.5858 24.7892 11.25 24.375 11.25H19.875C19.4608 11.25 19.125 11.5858 19.125 12C19.125 12.4142 19.4608 12.75 19.875 12.75Z" fill="white"/>
<path d="M39.375 11.25H27.375C26.9608 11.25 26.625 11.5858 26.625 12C26.625 12.4142 26.9608 12.75 27.375 12.75H39.375C39.7892 12.75 40.125 12.4142 40.125 12C40.125 11.5858 39.7892 11.25 39.375 11.25Z" fill="white"/>
<path d="M39.375 15H34.875C34.4608 15 34.125 15.3358 34.125 15.75C34.125 16.1642 34.4608 16.5 34.875 16.5H39.375C39.7892 16.5 40.125 16.1642 40.125 15.75C40.125 15.3358 39.7892 15 39.375 15Z" fill="white"/>
<path d="M19.875 16.5H31.875C32.2892 16.5 32.625 16.1642 32.625 15.75C32.625 15.3358 32.2892 15 31.875 15H19.875C19.4608 15 19.125 15.3358 19.125 15.75C19.125 16.1642 19.4608 16.5 19.875 16.5Z" fill="white"/>
<path d="M39.375 7.5H19.875C19.4608 7.5 19.125 7.83581 19.125 8.25C19.125 8.66419 19.4608 9 19.875 9H39.375C39.7892 9 40.125 8.66419 40.125 8.25C40.125 7.83581 39.7892 7.5 39.375 7.5Z" fill="white"/>
<path d="M39.375 18.75H19.875C19.4608 18.75 19.125 19.0858 19.125 19.5C19.125 19.9142 19.4608 20.25 19.875 20.25H39.375C39.7892 20.25 40.125 19.9142 40.125 19.5C40.125 19.0858 39.7892 18.75 39.375 18.75Z" fill="white"/>
<path d="M39.375 3H19.875C16.9802 3 14.625 5.35519 14.625 8.25V19.5C14.625 22.1403 16.5841 24.3316 19.125 24.6966V27.4393C19.125 28.0482 19.4885 28.5922 20.051 28.8251C20.2377 28.9025 20.433 28.9401 20.6266 28.9401C21.0161 28.9401 21.3981 28.7876 21.6857 28.5L25.4357 24.75H39.375C42.2698 24.75 44.625 22.3948 44.625 19.5V8.25C44.625 5.35519 42.2698 3 39.375 3ZM43.125 19.5C43.125 21.5677 41.4427 23.25 39.375 23.25H25.125C24.9261 23.25 24.7353 23.329 24.5947 23.4697L20.625 27.4387V24C20.625 23.5858 20.2892 23.25 19.875 23.25C17.8073 23.25 16.125 21.5677 16.125 19.5V8.25C16.125 6.18225 17.8073 4.5 19.875 4.5H39.375C41.4427 4.5 43.125 6.18225 43.125 8.25V19.5Z" fill="white"/>
</svg>
