<svg width="48" height="48" viewBox="0 0 48 48" fill="none" xmlns="http://www.w3.org/2000/svg">
<g clip-path="url(#clip0_18_19)">
<path d="M47.6878 39.4889L42.8749 36.2677L43.623 34.8387C43.7562 34.5845 43.7214 34.2748 43.535 34.0565C43.4776 33.9891 42.1751 32.4868 39.2068 30.9666C40.2685 28.6553 41.123 26.1277 41.7613 23.4046C43.682 15.2098 42.9894 8.17345 42.9589 7.87795C42.9248 7.54674 42.663 7.2849 42.3318 7.25077C36.7372 6.67365 32.1774 4.80785 29.3374 3.34443C26.2503 1.7535 24.468 0.279391 24.4508 0.265047C24.1898 0.0469863 23.81 0.0469863 23.5492 0.265047C23.4789 0.323734 16.4086 6.14284 5.668 7.25086C5.33678 7.28508 5.07503 7.54683 5.04091 7.87805C5.02722 8.0107 4.71063 11.1783 5.06725 15.7436C5.09753 16.1306 5.43484 16.4203 5.82268 16.3896C6.20978 16.3594 6.49899 16.0211 6.4688 15.6342C6.20799 12.2948 6.3219 9.68141 6.39502 8.58426C11.9608 7.91752 16.4908 6.04937 19.3471 4.5731C21.6751 3.36993 23.2696 2.24766 23.9999 1.69697C24.73 2.24766 26.3247 3.36993 28.6526 4.5731C31.509 6.04937 36.0388 7.91742 41.6045 8.58426C41.7254 10.4067 41.9556 16.4154 40.3925 23.084C39.7154 25.9729 38.7881 28.6289 37.6233 31.0262C37.5906 31.0934 37.5573 31.1595 37.5243 31.2261C37.4524 31.3714 37.3797 31.5159 37.306 31.6593C37.2645 31.7401 37.223 31.8209 37.1809 31.9011C37.1027 32.0501 37.0233 32.1977 36.9432 32.3445C36.8764 32.467 36.8087 32.5884 36.7406 32.7093C36.6795 32.8179 36.6181 32.9262 36.556 33.0334C36.4935 33.1412 36.4303 33.2484 36.3668 33.355C36.3209 33.4319 36.2744 33.5081 36.228 33.5843C36.078 33.8306 35.9255 34.0739 35.7696 34.3135C35.7581 34.3311 35.7471 34.3489 35.7356 34.3664C35.6544 34.4905 35.5722 34.6131 35.4895 34.7353C35.4541 34.7877 35.4185 34.84 35.3827 34.8921C34.894 35.6044 34.3792 36.2855 33.8386 36.9327C33.8355 36.9365 33.8324 36.9402 33.8293 36.944C33.7246 37.0692 33.6188 37.1929 33.5122 37.3157C33.4282 37.4121 33.3433 37.5074 33.2581 37.6025C33.241 37.6216 33.224 37.6411 33.2068 37.6601C33.1106 37.7668 33.0135 37.8725 32.9157 37.9773C32.9107 37.9826 32.9057 37.988 32.9007 37.9934C30.4195 40.6463 27.4383 42.6943 24 44.1032C20.6337 42.7226 16.865 40.3602 13.6686 36.3228C13.6583 36.3098 13.6481 36.2968 13.6379 36.2839C13.5735 36.2022 13.5097 36.1193 13.4458 36.0364C12.2799 34.5109 11.245 32.8208 10.3564 30.9852C10.3357 30.9423 10.311 30.9026 10.2833 30.866C8.67322 27.5157 7.42308 23.4275 6.76271 18.4363C6.7118 18.0514 6.35752 17.7806 5.97371 17.8317C5.58887 17.8826 5.31813 18.2359 5.36903 18.6207C5.97493 23.2 7.12477 27.3387 8.79322 30.9666C5.82465 32.487 4.52219 33.9893 4.46473 34.0566C4.27845 34.2749 4.24367 34.5846 4.3766 34.8388L5.12472 36.2678L0.311916 39.489C0.108012 39.6256 -0.0100188 39.8585 0.000668629 40.1037C0.011356 40.3488 0.149074 40.5707 0.364228 40.6891L4.29654 42.8519V47.1957C4.29654 47.448 4.43182 47.681 4.65091 47.8061C4.75901 47.8678 4.87919 47.8987 4.99947 47.8987C5.12303 47.8987 5.24669 47.866 5.35684 47.801L13.1671 43.1901C13.172 43.1872 13.1763 43.1839 13.1811 43.1809C13.189 43.1759 13.1968 43.1708 13.2046 43.1655C13.2186 43.1561 13.2321 43.1461 13.2452 43.1358C13.2516 43.1308 13.258 43.1258 13.2642 43.1205C13.2807 43.1066 13.2964 43.0919 13.3114 43.0768C13.3138 43.0743 13.3163 43.0722 13.3187 43.0696C13.3369 43.0506 13.3537 43.0306 13.3695 43.0099C13.37 43.0093 13.3706 43.0087 13.3712 43.0079C13.3724 43.0063 13.3733 43.0044 13.3746 43.0027C13.3907 42.9809 13.4053 42.9583 13.4187 42.9348C13.4215 42.9299 13.4245 42.925 13.4272 42.92C13.4408 42.8949 13.4531 42.8692 13.4635 42.8428C13.4653 42.8383 13.4667 42.8337 13.4684 42.8291C13.4768 42.8062 13.4841 42.7829 13.4902 42.7594C13.4917 42.7531 13.4935 42.7469 13.4949 42.7407C13.5012 42.7132 13.506 42.6855 13.509 42.6574C13.5094 42.6537 13.5095 42.6499 13.5097 42.6461C13.512 42.6208 13.5127 42.5954 13.5122 42.5699C13.5121 42.564 13.512 42.5582 13.5118 42.5524C13.5105 42.5236 13.5078 42.4948 13.5029 42.4661C13.5025 42.4641 13.502 42.4621 13.5016 42.4601C13.4969 42.4339 13.4903 42.408 13.4826 42.3823C13.4805 42.3755 13.4784 42.3689 13.4763 42.3622C13.4671 42.3347 13.4568 42.3074 13.4439 42.2807L12.481 40.2714C13.059 39.9833 13.7335 39.6879 14.5098 39.4097C17.1043 42.0579 20.1899 44.1019 23.7404 45.5142C23.8239 45.5474 23.912 45.564 24.0002 45.564C24.0884 45.564 24.1765 45.5474 24.26 45.5142C27.8042 44.1043 30.8946 42.0585 33.4909 39.4099C34.2671 39.6881 34.9415 39.9834 35.5194 40.2715L34.5565 42.2808C34.5436 42.3075 34.5333 42.3349 34.5241 42.3624C34.5219 42.369 34.5198 42.3757 34.5178 42.3825C34.51 42.4082 34.5035 42.4342 34.4988 42.4604C34.4984 42.4623 34.4979 42.4643 34.4976 42.4663C34.4927 42.4949 34.49 42.5238 34.4887 42.5526C34.4884 42.5585 34.4884 42.5643 34.4883 42.5701C34.4878 42.5956 34.4885 42.621 34.4907 42.6464C34.4911 42.6501 34.4911 42.6539 34.4915 42.6577C34.4944 42.6857 34.4993 42.7135 34.5055 42.7409C34.507 42.7472 34.5087 42.7534 34.5104 42.7597C34.5164 42.7832 34.5236 42.8064 34.5321 42.8292C34.5338 42.8338 34.5352 42.8384 34.537 42.843C34.5474 42.8695 34.5595 42.8951 34.5731 42.9201C34.5759 42.9252 34.5789 42.9301 34.5818 42.9351C34.5952 42.9584 34.6097 42.981 34.6257 43.0027C34.627 43.0044 34.6279 43.0064 34.6292 43.008C34.6298 43.0087 34.6303 43.0094 34.6309 43.01C34.6466 43.0307 34.6635 43.0507 34.6817 43.0697C34.684 43.0723 34.6866 43.0744 34.689 43.0769C34.7039 43.092 34.7197 43.1067 34.7362 43.1206C34.7424 43.1259 34.7488 43.1308 34.7552 43.1359C34.7683 43.1462 34.7818 43.1562 34.7958 43.1656C34.8036 43.1709 34.8114 43.1761 34.8192 43.181C34.824 43.184 34.8283 43.1873 34.8332 43.1902L42.6434 47.8011C42.7535 47.8661 42.877 47.8988 43.0007 47.8988C43.1209 47.8988 43.2412 47.8679 43.3493 47.8062C43.5684 47.6811 43.7037 47.4481 43.7037 47.1958V42.8519L47.636 40.6891C47.851 40.5707 47.9888 40.3489 47.9995 40.1037C48.0098 39.8584 47.8918 39.6255 47.6878 39.4889ZM5.70259 45.9642V42.436C5.7025 42.1798 5.56291 41.9438 5.33828 41.8201L2.05462 40.0142L5.78078 37.5205L8.25304 42.243C8.26663 42.2689 8.28182 42.2938 8.29832 42.3175C8.30479 42.3268 8.31238 42.3351 8.31923 42.344C8.3301 42.3582 8.34079 42.3726 8.3527 42.3857C8.36451 42.3989 8.37745 42.4108 8.3901 42.423C8.39807 42.4305 8.40557 42.4386 8.41391 42.4457C8.42948 42.4593 8.44607 42.4717 8.46285 42.4839C8.46894 42.4883 8.47485 42.493 8.48104 42.4972C8.49979 42.5099 8.51938 42.5214 8.53935 42.5324C8.54404 42.5349 8.54863 42.5376 8.55341 42.54C8.57479 42.5511 8.59672 42.5609 8.61932 42.5697C8.62307 42.5712 8.62682 42.5727 8.63066 42.5741C8.65401 42.5828 8.67782 42.5902 8.70219 42.5965C8.70557 42.5973 8.70904 42.5982 8.7125 42.5989C8.72779 42.6026 8.74269 42.6073 8.75835 42.6099L10.7981 42.9561L5.70259 45.9642ZM10.4718 41.4748C10.4882 41.4628 10.5055 41.4505 10.5224 41.4383C10.5588 41.4121 10.5951 41.3861 10.6333 41.3593C10.6568 41.3428 10.6818 41.3259 10.706 41.3092C10.7452 41.2822 10.784 41.2553 10.825 41.2276C10.8497 41.2111 10.876 41.1939 10.9015 41.177C10.9446 41.1484 10.9871 41.1201 11.0321 41.091C11.0483 41.0806 11.0657 41.0699 11.0821 41.0594C11.1327 41.0269 11.1838 40.9945 11.2368 40.9615C11.2408 40.959 11.2452 40.9564 11.2493 40.9539L11.5898 41.6644L10.4718 41.4748ZM11.2109 39.3489C11.209 39.35 11.2068 39.3506 11.2048 39.3517C11.1988 39.355 11.1931 39.3583 11.1871 39.3617C11.187 39.3617 11.187 39.3617 11.1869 39.3618C11.1846 39.3631 11.1823 39.3644 11.1799 39.3657C11.1501 39.3822 11.1209 39.3986 11.0917 39.4151C11.0372 39.4457 10.9839 39.4761 10.9313 39.5065C10.9 39.5246 10.8686 39.5426 10.8379 39.5606C10.8344 39.5627 10.8311 39.5646 10.8276 39.5667C10.8228 39.5695 10.8182 39.5723 10.8134 39.575C10.729 39.6247 10.6472 39.6738 10.5673 39.7228C10.5551 39.7303 10.5423 39.738 10.5301 39.7455C10.4816 39.7754 10.4345 39.8049 10.3877 39.8344C10.3777 39.8407 10.3679 39.847 10.358 39.8533C10.3568 39.854 10.3556 39.8548 10.3544 39.8555C9.81387 40.1991 9.38844 40.5175 9.07269 40.778L6.77302 36.3854L5.85934 34.6396C6.37112 34.1567 7.50698 33.2079 9.40653 32.2318C9.47937 32.3744 9.55306 32.5161 9.62768 32.657C9.66556 32.7285 9.70428 32.7992 9.74262 32.8704C9.83965 33.0504 9.93781 33.2292 10.0377 33.4063C10.06 33.4458 10.0811 33.4863 10.1034 33.5256C10.8543 34.8451 11.6824 36.0758 12.5837 37.2186C12.6045 37.245 12.6253 37.2714 12.6462 37.2978C12.7194 37.3899 12.793 37.4816 12.8673 37.5726C12.9054 37.6193 12.9439 37.6657 12.9822 37.7122C13.0476 37.7913 13.1127 37.8704 13.1786 37.9485C13.277 38.0651 13.3761 38.1806 13.476 38.2951C12.5991 38.6368 11.8482 38.9977 11.2109 39.3489ZM34.5243 38.295C34.5255 38.2931 34.5271 38.2912 34.5287 38.2895C34.5894 38.2202 34.649 38.1498 34.7088 38.0798C34.7453 38.0372 34.782 37.9951 34.8183 37.9522C34.9099 37.844 35.0005 37.7346 35.0906 37.6248C35.0937 37.621 35.0968 37.6174 35.0998 37.6136C35.54 37.0762 35.9635 36.519 36.3691 35.9411C36.4229 35.8644 36.4747 35.7856 36.5277 35.7083C36.5923 35.6143 36.6568 35.5204 36.7204 35.4254C36.7917 35.3189 36.8624 35.2118 36.9325 35.1039C36.9892 35.0171 37.045 34.9296 37.1008 34.8419C37.1938 34.6959 37.2858 34.5492 37.3767 34.401C37.4383 34.3006 37.4993 34.1997 37.5599 34.0984C37.631 33.9795 37.7015 33.8603 37.7711 33.74C37.8495 33.6049 37.9269 33.4691 38.0036 33.3323C38.0457 33.257 38.0881 33.182 38.1297 33.1062C38.2301 32.9236 38.3287 32.7393 38.4261 32.5538C38.4592 32.4907 38.492 32.4274 38.5249 32.364C38.5476 32.32 38.5709 32.2763 38.5935 32.232C40.4796 33.2026 41.6238 34.1569 42.1398 34.6413L38.9271 40.778C38.6113 40.5175 38.1859 40.199 37.6451 39.8554C37.644 39.8547 37.643 39.854 37.6418 39.8533C37.632 39.847 37.6221 39.8407 37.6122 39.8344C37.5655 39.8049 37.5184 39.7754 37.47 39.7456C37.4547 39.7362 37.4387 39.7265 37.4232 39.7172C37.3463 39.6701 37.2677 39.6228 37.1865 39.575C37.1817 39.5722 37.1771 39.5694 37.1723 39.5667C37.1689 39.5646 37.1655 39.5627 37.162 39.5606C37.1314 39.5426 37.0999 39.5246 37.0687 39.5065C37.016 39.4761 36.9626 39.4458 36.9082 39.4151C36.879 39.3987 36.8497 39.3822 36.82 39.3657C36.8177 39.3644 36.8154 39.3631 36.813 39.3618C36.8129 39.3618 36.8129 39.3617 36.8129 39.3617C36.8069 39.3584 36.8012 39.3551 36.7952 39.3517C36.7932 39.3506 36.7911 39.3499 36.7891 39.3488C36.152 38.9978 35.4012 38.6368 34.5243 38.295ZM36.6121 41.2439L36.751 40.9541C36.7552 40.9566 36.7595 40.9592 36.7636 40.9618C36.8165 40.9946 36.8672 41.0269 36.9175 41.0592C36.9341 41.0698 36.9518 41.0806 36.9682 41.0912C37.0134 41.1204 37.0561 41.1489 37.0992 41.1776C37.1244 41.1943 37.1507 41.2113 37.1752 41.2278C37.2163 41.2555 37.2552 41.2825 37.2945 41.3096C37.3187 41.3263 37.3436 41.3431 37.3671 41.3596C37.4046 41.386 37.4402 41.4115 37.4759 41.4372C37.4935 41.4498 37.5115 41.4627 37.5287 41.4751L36.4109 41.6649L36.6121 41.2439ZM42.6616 41.8201C42.4371 41.9437 42.2974 42.1798 42.2974 42.4361V45.9643L37.202 42.956L39.2418 42.6098C39.2492 42.6086 39.2562 42.606 39.2635 42.6045C39.2809 42.601 39.298 42.597 39.315 42.5922C39.3273 42.5887 39.3394 42.5849 39.3514 42.5808C39.3678 42.5752 39.3838 42.569 39.3995 42.5622C39.4113 42.5572 39.4229 42.5521 39.4343 42.5465C39.4498 42.5389 39.4647 42.5305 39.4795 42.5218C39.4903 42.5155 39.5011 42.5094 39.5114 42.5025C39.5262 42.4927 39.5403 42.4819 39.5543 42.471C39.5636 42.4638 39.5732 42.4571 39.582 42.4494C39.5966 42.4368 39.6102 42.4231 39.6238 42.4094C39.631 42.402 39.6387 42.3953 39.6455 42.3876C39.6614 42.3701 39.676 42.3512 39.6901 42.332C39.6936 42.3271 39.6978 42.3228 39.7011 42.3179C39.7178 42.294 39.7331 42.2688 39.7468 42.2427L42.2191 37.5202L45.9452 40.0139L42.6616 41.8201Z" fill="white"/>
<path d="M38.6091 11.4232C38.575 11.092 38.3132 10.8302 37.982 10.796C29.873 9.95947 24.5036 5.55635 24.4508 5.51238C24.1902 5.2946 23.8107 5.2946 23.5497 5.51201C23.4965 5.55644 18.1271 9.95957 10.0179 10.796C9.68672 10.8302 9.42498 11.092 9.39085 11.4232C9.37745 11.5535 9.06789 14.6632 9.55079 18.9093C9.99825 22.8428 11.2452 28.5151 14.6443 33.2002C14.7817 33.3897 14.9963 33.4904 15.2137 33.4904C15.3568 33.4904 15.5012 33.4468 15.6259 33.3563C15.9401 33.1283 16.0101 32.6887 15.782 32.3745C12.5695 27.9465 11.382 22.5401 10.9514 18.7844C10.5983 15.7048 10.6822 13.1986 10.7473 12.1277C17.7068 11.2624 22.544 8.02767 23.9999 6.94224C25.4559 8.02777 30.2926 11.2627 37.2529 12.1277C37.301 12.9103 37.3593 14.4601 37.2477 16.4436C37.2259 16.8313 37.5225 17.1631 37.91 17.1848C38.2987 17.2058 38.6297 16.9103 38.6513 16.5227C38.8199 13.5236 38.6178 11.5076 38.6091 11.4232Z" fill="white"/>
<path d="M37.7786 18.6342C37.3939 18.5855 37.0418 18.8581 36.9931 19.2432C35.4285 31.6059 29.1231 36.733 23.9997 38.855C21.5239 37.8306 19.3528 36.3603 17.5433 34.482C17.2742 34.2025 16.829 34.194 16.5495 34.4634C16.2699 34.7328 16.2616 35.1778 16.5309 35.4574C18.5433 37.5462 20.9688 39.1643 23.7401 40.2667C23.8237 40.2999 23.9117 40.3165 23.9999 40.3165C24.0881 40.3165 24.1763 40.2999 24.2597 40.2667C28.7913 38.464 32.3381 35.3254 34.8012 30.938C36.6249 27.6897 37.8315 23.8145 38.3877 19.4198C38.4365 19.0347 38.1636 18.683 37.7786 18.6342Z" fill="white"/>
<path d="M31.8595 16.9279C30.8995 15.968 29.3379 15.9681 28.3779 16.9279L22.1172 23.1886L19.8573 20.9286C18.8973 19.9687 17.3356 19.9688 16.3756 20.9287C15.4158 21.8887 15.4158 23.4505 16.3756 24.4104L20.3766 28.4112C20.8414 28.8762 21.4597 29.1321 22.1172 29.1321C22.775 29.1321 23.3931 28.876 23.858 28.4111L31.8596 20.4096C32.8194 19.4497 32.8194 17.8878 31.8595 16.9279ZM30.8657 19.4156L22.8641 27.4171C22.6647 27.6165 22.3995 27.7264 22.1174 27.7264C21.8353 27.7264 21.5701 27.6165 21.3707 27.4171L17.3699 23.4163C16.9581 23.0045 16.9581 22.3346 17.3698 21.9227C17.5756 21.7168 17.8461 21.6139 18.1167 21.6139C18.387 21.6139 18.6575 21.7169 18.8634 21.9227L21.6203 24.6798C21.7522 24.8117 21.9308 24.8857 22.1173 24.8857C22.3037 24.8857 22.4825 24.8116 22.6144 24.6798L29.372 17.9221C29.7839 17.5101 30.4538 17.51 30.8657 17.9219C31.2775 18.3338 31.2775 19.0038 30.8657 19.4156Z" fill="white"/>
</g>
<defs>
<clipPath id="clip0_18_19">
<rect width="48" height="48" fill="white"/>
</clipPath>
</defs>
</svg>
