<svg width="48" height="48" viewBox="0 0 48 48" fill="none" xmlns="http://www.w3.org/2000/svg">
<g clip-path="url(#clip0_20_82)">
<path d="M45.226 21.1175C49.2839 16.5073 48.8374 9.45506 44.2307 5.397C42.4047 3.78825 40.1602 2.83866 37.7394 2.65106C35.3987 2.46937 33.0162 3.04425 31.0282 4.26872C30.6975 4.47244 30.5945 4.90566 30.7982 5.23641C31.0019 5.56716 31.4352 5.67 31.7659 5.46638C35.4323 3.20812 40.068 3.60412 43.3007 6.45244C46.9675 9.6825 47.6168 15.0835 45.0228 19.0648C44.3349 17.0238 42.6445 15.2366 40.4354 14.2471C41.3324 13.3423 41.8874 12.0995 41.8874 10.7296C41.8874 10.6692 41.885 10.6095 41.8828 10.5497C41.8835 10.537 41.8848 10.5246 41.8848 10.5117C41.8848 10.475 41.8811 10.4392 41.8757 10.4039C41.7069 7.79344 39.5261 5.72072 36.8682 5.72072C35.1245 5.72072 33.5862 6.61322 32.6862 7.96406C32.667 7.98956 32.6502 8.01647 32.6348 8.04403C32.1382 8.82085 31.849 9.74194 31.849 10.7296C31.849 12.0996 32.404 13.3423 33.301 14.2471C31.0893 15.2378 29.3983 17.0284 28.7131 19.0727C27.804 17.6828 27.2652 16.0749 27.1573 14.3723C26.9929 11.778 27.8484 9.27497 29.5663 7.32441C29.8231 7.03294 29.7949 6.58847 29.5034 6.33178C29.212 6.07491 28.7676 6.10313 28.5108 6.39469C26.8579 8.27138 25.9028 10.5948 25.752 13.0515H22.2441C22.0545 10.0909 20.7218 7.37306 18.4908 5.39803C14.7207 2.05987 9.19932 1.63537 5.06392 4.36556C4.73973 4.57959 4.65048 5.01591 4.86451 5.34C5.07845 5.66419 5.51476 5.75344 5.83895 5.5395C9.44439 3.15919 14.2635 3.53419 17.5584 6.45131C21.2176 9.69085 21.8685 15.0912 19.2842 19.0643C18.596 17.0231 16.9052 15.2359 14.6958 14.2466C15.592 13.3418 16.1464 12.0994 16.1464 10.7297C16.1464 10.6693 16.144 10.6096 16.1418 10.5498C16.1425 10.5371 16.1437 10.5247 16.1437 10.5118C16.1437 10.4751 16.14 10.4393 16.1346 10.4041C15.9658 7.79353 13.7862 5.72081 11.1298 5.72081C9.38598 5.72081 7.84764 6.61341 6.94764 7.96434C6.92861 7.98966 6.91182 8.01638 6.89654 8.04385C6.39986 8.82075 6.11064 9.74184 6.11064 10.7298C6.11064 12.0998 6.66564 13.3425 7.56264 14.2474C5.35182 15.2378 3.66048 17.0278 2.97367 19.0718C0.68176 15.5603 0.883042 10.8488 3.74982 7.41413C3.99873 7.11591 3.95879 6.67238 3.66057 6.42347C3.36235 6.17456 2.91882 6.21459 2.66992 6.51272C-1.27733 11.2415 -0.795271 18.0951 3.76754 22.1156C5.88029 23.9756 8.50595 24.8889 11.1217 24.8888C12.0348 24.8888 12.9466 24.7765 13.835 24.5553L15.553 27.028C11.8832 31.2955 12.0172 37.5928 15.6873 41.7023C15.6947 41.711 15.7025 41.7193 15.7103 41.7277C15.9982 42.0481 16.307 42.3555 16.638 42.6471C18.6888 44.4536 21.273 45.4266 23.9824 45.4266C24.222 45.4266 24.463 45.419 24.7043 45.4037C27.6735 45.2151 30.3915 43.8818 32.3577 41.6493C36.0708 37.4337 36.0119 31.1735 32.4467 27.029L34.1568 24.5648C35.0303 24.783 35.9338 24.8951 36.8518 24.8951C37.0915 24.8951 37.3322 24.8875 37.5735 24.8722C40.5001 24.6862 43.1823 23.3869 45.1418 21.2108C45.1584 21.1942 45.1741 21.1766 45.189 21.1584C45.2012 21.1446 45.2138 21.1313 45.226 21.1175ZM36.8683 7.12735C38.541 7.12735 39.9514 8.26697 40.3607 9.80841H39.3437C36.8986 9.80841 34.9353 9.03919 34.1496 8.36156C34.8122 7.60603 35.785 7.12735 36.8683 7.12735ZM33.4406 9.59475C34.7137 10.5591 36.9949 11.215 39.3436 11.215H40.4471C40.2083 12.9709 38.6949 14.329 36.8682 14.329C34.8762 14.329 33.2558 12.7143 33.2558 10.7296C33.2559 10.3331 33.3213 9.95185 33.4406 9.59475ZM11.1297 7.12735C12.8012 7.12735 14.2105 8.26697 14.6195 9.80841H13.6051C11.1601 9.80841 9.19679 9.03919 8.41098 8.36156C9.0737 7.60603 10.0465 7.12735 11.1297 7.12735ZM7.70195 9.59475C8.97507 10.5591 11.2563 11.215 13.6051 11.215H14.7059C14.4673 12.9709 12.9551 14.329 11.1298 14.329C9.13783 14.329 7.51726 12.7143 7.51726 10.7296C7.51726 10.3331 7.58279 9.95185 7.70195 9.59475ZM4.69736 21.0601C4.48257 20.8709 4.27885 20.674 4.08489 20.4711C4.3817 18.1752 6.31604 16.0757 8.92661 15.2265C9.39104 15.4538 9.89551 15.6111 10.4264 15.6856V18.4296C10.4264 18.8181 10.7413 19.1329 11.1297 19.1329C11.5181 19.1329 11.833 18.8181 11.833 18.4296V15.6855C12.3638 15.6109 12.868 15.4536 13.3322 15.2262C15.9427 16.075 17.8772 18.1733 18.1745 20.4676C14.594 24.2296 8.62867 24.521 4.69736 21.0601ZM24.6151 43.9999C24.404 44.0133 24.194 44.0199 23.9844 44.0199C21.6175 44.0198 19.3592 43.1696 17.5678 41.5916C17.353 41.4025 17.1493 41.2055 16.9553 41.0021C17.2501 38.7099 19.1842 36.6109 21.7965 35.7587C22.2603 35.9857 22.7641 36.1428 23.2944 36.2173V38.964C23.2944 39.3525 23.6093 39.6673 23.9977 39.6673C24.3861 39.6673 24.701 39.3525 24.701 38.964V36.2173C25.2323 36.1426 25.7371 35.9852 26.2018 35.7577C28.8124 36.6069 30.7467 38.7067 31.0428 41.0019C29.349 42.782 27.0814 43.8431 24.6151 43.9999ZM20.5721 30.1281C21.846 31.0915 24.1271 31.7468 26.4757 31.7468H27.5765C27.3377 33.5026 25.8243 34.8608 23.9978 34.8608C22.0073 34.8608 20.3878 33.246 20.3878 31.2612C20.3878 30.8653 20.4532 30.4846 20.5721 30.1281ZM21.2809 28.895C21.9431 28.14 22.9151 27.6617 23.9978 27.6617C25.6702 27.6617 27.0804 28.8002 27.4899 30.34H26.4757C24.0311 30.34 22.0683 29.5721 21.2809 28.895ZM32.1534 39.5995C31.4662 37.557 29.7754 35.7682 27.5656 34.7782C28.4622 33.8734 29.017 32.6308 29.017 31.2612C29.017 31.2009 29.0145 31.1412 29.0124 31.0814C29.013 31.0688 29.0142 31.0563 29.0142 31.0434C29.0142 31.0066 29.0106 30.9708 29.0051 30.9355C28.8362 28.3265 26.6555 26.2551 23.9978 26.2551C22.2629 26.2551 20.7312 27.1387 19.83 28.4784C19.7984 28.5177 19.7711 28.5598 19.749 28.6044C19.2634 29.375 18.9812 30.2856 18.9812 31.2612C18.9812 32.6316 19.5362 33.8746 20.4331 34.7796C18.2223 35.7711 16.5315 37.5592 15.8447 39.5996C13.5211 36.0294 13.7468 31.2045 16.6959 27.8562C16.7785 27.7624 16.8632 27.6709 16.9489 27.5807C16.956 27.5735 16.963 27.5662 16.9698 27.5587C18.6621 25.7877 20.9238 24.7322 23.383 24.5759C23.5942 24.5625 23.8042 24.5558 24.0138 24.5558C26.3806 24.5558 28.639 25.4062 30.4303 26.9842C34.0998 30.2165 34.7498 35.6193 32.1534 39.5995ZM31.4449 26.0052C31.4165 25.9797 31.3887 25.9538 31.36 25.9285C29.128 23.9622 26.2632 22.9834 23.2938 23.172C20.7604 23.333 18.4103 24.3278 16.5535 26.0029L15.236 24.1065C16.783 23.4956 18.2141 22.5292 19.399 21.2151C19.4174 21.1969 19.4347 21.1776 19.4511 21.1575C19.4631 21.144 19.4755 21.131 19.4874 21.1175C21.1417 19.2382 22.097 16.9136 22.2464 14.4582H25.7533C25.7534 14.4593 25.7534 14.4604 25.7535 14.4614C25.9418 17.4312 27.2754 20.1495 29.5086 22.1155C30.4853 22.9758 31.5831 23.6467 32.7575 24.1138L31.4449 26.0052ZM37.4844 23.4682C36.3254 23.5421 35.1846 23.4113 34.1028 23.0914C34.0782 23.0825 34.0533 23.075 34.0282 23.069C32.7181 22.6699 31.4966 21.9922 30.4384 21.0599C30.2245 20.8716 30.0205 20.6749 29.8257 20.4713C30.1202 18.1757 32.0538 16.076 34.6651 15.2265C35.1296 15.4538 35.634 15.6111 36.1649 15.6856V18.4296C36.1649 18.8181 36.4797 19.1329 36.8682 19.1329C37.2567 19.1329 37.5716 18.8181 37.5716 18.4296V15.6856C38.1025 15.611 38.607 15.4538 39.0715 15.2265C41.6816 16.0755 43.6158 18.1738 43.913 20.4679C42.219 22.2494 39.951 23.3115 37.4844 23.4682Z" fill="white"/>
</g>
<defs>
<clipPath id="clip0_20_82">
<rect width="48" height="48" fill="white"/>
</clipPath>
</defs>
</svg>
