<svg width="48" height="48" viewBox="0 0 48 48" fill="none" xmlns="http://www.w3.org/2000/svg">
<g clip-path="url(#clip0_18_7)">
<path d="M46.141 33.1198C46.1551 33.0912 46.1676 33.062 46.1775 33.0319C49.0214 26.4682 48.5132 18.4213 44.8196 12.2709C46.7915 9.91365 44.2301 6.53785 41.4291 7.84401C40.9368 7.341 40.42 6.8589 39.8845 6.40306C40.9357 3.54538 37.4273 1.20111 35.2423 3.33622C28.8915 0.129341 20.9925 0.169954 14.6767 3.44474C12.43 1.0638 8.65682 3.61666 10.0171 6.60397C9.23806 7.28519 8.50066 8.02109 7.82075 8.79929C7.2337 9.47122 8.29722 10.3922 8.88024 9.72493C9.51278 9.00104 10.1981 8.31626 10.922 7.68165C12.3219 8.69133 14.3517 8.17697 15.1196 6.63577C17.654 7.36529 20.0742 8.4123 22.3295 9.75607C22.1407 10.4369 22.2178 11.1973 22.5418 11.8258C20.6856 13.4292 19.014 15.243 17.5625 17.2307C16.2224 16.8258 14.7454 17.5036 14.1627 18.7726C11.2075 18.7884 8.24319 19.1063 5.33279 19.7215C5.0758 19.2426 4.68618 18.8457 4.21384 18.5799C4.76066 16.4476 5.62674 14.4191 6.79334 12.5435C7.25818 11.796 6.08483 11.0189 5.5987 11.8004C4.35838 13.7944 3.43714 15.9508 2.8545 18.2176C-0.515485 18.2748 -1.08124 22.9369 2.12695 23.8338C2.07968 30.4689 4.94843 36.9198 9.92303 41.3142C8.8853 44.1173 12.2543 46.4295 14.4775 44.4524C20.9659 47.9026 29.1662 47.903 35.655 44.4535C37.9162 46.6899 41.5379 44.1914 40.2642 41.2678C42.8281 38.9893 44.8198 36.2024 46.141 33.1198ZM45.2547 31.5465C43.3074 29.612 41.1765 27.857 38.9013 26.3165C39.2244 25.3043 38.9436 24.1656 38.1891 23.4184C40.1023 20.2374 41.6042 16.8266 42.6614 13.2635C43.0137 13.2647 43.3524 13.1997 43.6644 13.0821C46.9039 18.5533 47.4964 25.6075 45.2547 31.5465ZM12.8843 39.4987C12.2922 33.6999 13.3311 27.9149 15.9022 22.6869C17.4995 23.1854 19.226 22.135 19.5362 20.4954C24.3867 21.0933 29.0582 22.5174 33.4423 24.7351C33.2314 25.5547 33.406 26.4584 33.9083 27.1401C28.9666 33.4007 22.4436 38.1117 14.978 40.8117C14.5256 40.0954 13.7649 39.5943 12.8843 39.4987ZM34.7593 25.4479C34.7593 24.6508 35.4031 24.0023 36.1945 24.0023C38.0983 24.0816 38.0977 26.8146 36.1945 26.8936C35.4031 26.8936 34.7593 26.2451 34.7593 25.4479ZM44.1027 10.411C44.1027 11.2082 43.4589 11.8567 42.6676 11.8567C40.7637 11.7774 40.7642 9.04437 42.6676 8.9654C43.4589 8.9654 44.1027 9.61388 44.1027 10.411ZM40.3541 8.75727C39.3818 10.1234 39.8331 12.0982 41.2989 12.9101C40.2747 16.3471 38.8228 19.6372 36.9758 22.706C36.5896 22.5949 36.161 22.5674 35.764 22.6281C33.8333 18.5055 31.0241 14.7921 27.5924 11.826C27.9167 11.1971 27.9939 10.438 27.8049 9.75626C29.977 8.4621 32.3037 7.4422 34.7368 6.71718C35.5455 8.27846 37.7149 8.71929 39.0616 7.55053C39.508 7.93452 39.9401 8.33792 40.3541 8.75727ZM23.632 10.5199C23.632 9.72278 24.2758 9.07429 25.0671 9.07429C26.971 9.15355 26.9705 11.8865 25.0671 11.9655C24.2758 11.9655 23.632 11.317 23.632 10.5199ZM37.2384 3.91886C38.0298 3.91886 38.6736 4.56735 38.6736 5.36449C38.5946 7.28228 35.8819 7.28181 35.8033 5.36449C35.8033 4.56735 36.4471 3.91886 37.2384 3.91886ZM12.5764 6.81003C11.7851 6.81003 11.1413 6.16155 11.1413 5.3644C11.2203 3.44652 13.933 3.44718 14.0117 5.3644C14.0117 6.16155 13.3678 6.81003 12.5764 6.81003ZM15.4158 5.25654C15.4085 5.06126 15.3817 4.87114 15.337 4.68768C21.2257 1.6425 28.5821 1.58942 34.5161 4.54606C34.4399 4.80108 34.3981 5.07073 34.3967 5.34996C31.8375 6.10705 29.3903 7.17648 27.1057 8.53526C26.0076 7.39934 24.1271 7.39896 23.0286 8.53517C20.6479 7.11908 18.0923 6.01833 15.4158 5.25654ZM23.4731 12.8802C24.4244 13.5295 25.7096 13.5296 26.661 12.8803C29.9373 15.7092 32.6213 19.2504 34.4701 23.1826C34.3448 23.279 34.2277 23.3856 34.12 23.5011C29.498 21.1567 24.5656 19.6662 19.4423 19.0664C19.3039 18.6477 19.0717 18.2718 18.7702 17.9641C20.1453 16.0962 21.7232 14.3902 23.4731 12.8802ZM16.7446 18.5167C17.5359 18.5167 18.1797 19.1652 18.1797 19.9624C18.1007 21.8802 15.3881 21.8797 15.3094 19.9624C15.3095 19.1652 15.9533 18.5167 16.7446 18.5167ZM1.39367 21.0696C1.39367 20.2724 2.03747 19.6239 2.8288 19.6239C4.73261 19.7032 4.73205 22.4361 2.8288 22.5151C2.03756 22.5152 1.39367 21.8667 1.39367 21.0696ZM3.53375 23.8332C3.53375 23.8332 5.67045 23.3672 5.67045 21.0882C5.67045 21.0882 11.1532 20.2117 13.9118 20.181C13.9635 20.8625 14.2546 21.4775 14.7009 21.9416C11.9596 27.4567 10.8538 33.5713 11.4903 39.6986C11.2162 39.8128 10.9639 39.969 10.7409 40.1588C6.15151 36.0475 3.53375 29.159 3.53375 23.8332ZM12.5764 43.7797C11.7851 43.7797 11.1413 43.1312 11.1413 42.3341C11.1413 41.5369 11.7851 40.8884 12.5764 40.8884C13.3572 40.8884 14.0117 41.5647 14.0117 42.3341C14.0117 43.1312 13.3678 43.7797 12.5764 43.7797ZM25.0671 45.644C21.653 45.644 18.2768 44.8263 15.2593 43.274C15.3818 42.9229 15.4358 42.523 15.412 42.1504C23.1347 39.3667 29.8832 34.502 34.9955 28.0333C35.4155 28.2303 35.8816 28.3207 36.3446 28.2964C36.6571 29.4564 36.9041 30.6398 37.0791 31.823C37.2132 32.7289 38.6053 32.5265 38.4709 31.6173C38.2851 30.3608 38.022 29.1042 37.688 27.8734C37.8562 27.7687 38.0125 27.6467 38.1548 27.5103C40.5023 29.1039 42.6909 30.9333 44.6735 32.958C43.4439 35.6763 41.6543 38.1375 39.3804 40.1712C39.1556 40.0024 38.9049 39.8666 38.6358 39.7699C38.7741 38.4622 38.8343 37.1418 38.814 35.8358C38.7998 34.9168 37.393 34.9384 37.4073 35.8576C37.4268 37.1129 37.3687 38.3822 37.2351 39.6393C35.576 39.9031 34.4909 41.6235 34.948 43.2358C31.9116 44.8128 28.5093 45.644 25.0671 45.644ZM37.6814 43.902C36.89 43.902 36.2462 43.2535 36.2462 42.4564C36.3252 40.5385 39.0379 40.5391 39.1166 42.4564C39.1166 43.2535 38.4728 43.902 37.6814 43.902Z" fill="white"/>
</g>
<defs>
<clipPath id="clip0_18_7">
<rect width="48" height="48" fill="white"/>
</clipPath>
</defs>
</svg>
