<svg width="48" height="48" viewBox="0 0 48 48" fill="none" xmlns="http://www.w3.org/2000/svg">
<g clip-path="url(#clip0_20_111)">
<path d="M43.2 38.2913C43.046 37.0059 42.5051 35.7976 41.649 34.8266C40.7929 33.8556 39.6619 33.1676 38.406 32.8538L29.25 30.2782V26.7262C31.0567 25.245 32.6287 23.232 32.937 21H35.85C36.4865 21 37.097 20.7471 37.547 20.2971C37.9971 19.847 38.25 19.2365 38.25 18.6V15.9C38.2487 15.4487 38.1199 15.0069 37.8784 14.6257C37.6368 14.2444 37.2925 13.9392 36.885 13.7452C36.9412 13.2906 36.9712 12.8331 36.975 12.375C36.975 7.75275 35.2882 0 24 0C12.7117 0 11.025 7.75275 11.025 12.375C11.0285 12.8331 11.0583 13.2906 11.1142 13.7452C10.7069 13.9393 10.3627 14.2446 10.1213 14.6258C9.87992 15.0071 9.7512 15.4488 9.74999 15.9V18.6C9.74999 19.2365 10.0028 19.847 10.4529 20.2971C10.903 20.7471 11.5135 21 12.15 21H15.0652C15.3735 23.226 16.9402 25.2352 18.7515 26.715V30.2782L9.61724 32.85C8.35713 33.1613 7.2215 33.8485 6.36111 34.8203C5.50071 35.7922 4.95625 37.0027 4.79999 38.2913L3.75524 47.1623C3.73199 47.3598 3.78814 47.5584 3.91135 47.7145C4.03456 47.8707 4.21473 47.9715 4.41224 47.9948C4.44135 47.9983 4.47065 48.0001 4.49999 48C4.68356 47.9998 4.86068 47.9323 4.99779 47.8102C5.13491 47.6882 5.22251 47.5201 5.24399 47.3377L6.28874 38.4668C6.40934 37.4769 6.82909 36.5474 7.49193 35.8024C8.15476 35.0574 9.02913 34.5324 9.99824 34.2975L14.601 33.0037L18.876 39.4163C18.9344 39.5036 19.0105 39.5778 19.0994 39.6338C19.1883 39.6899 19.288 39.7267 19.392 39.7417C19.4277 39.7475 19.4638 39.7502 19.5 39.75C19.6753 39.7501 19.8452 39.6888 19.98 39.5768L23.25 36.8512V41.9827C23.25 42.1817 23.329 42.3724 23.4697 42.5131C23.6103 42.6537 23.8011 42.7327 24 42.7327C24.1989 42.7327 24.3897 42.6537 24.5303 42.5131C24.671 42.3724 24.75 42.1817 24.75 41.9827V36.8512L28.02 39.5768C28.1548 39.6888 28.3247 39.7501 28.5 39.75C28.5362 39.7502 28.5723 39.7475 28.608 39.7417C28.712 39.7267 28.8117 39.6899 28.9006 39.6338C28.9895 39.5778 29.0656 39.5036 29.124 39.4163L33.399 33L38.025 34.3042C38.9891 34.5419 39.858 35.0675 40.5161 35.811C41.1742 36.5546 41.5903 37.4809 41.709 38.4668L42.753 47.3377C42.7745 47.5206 42.8625 47.6891 43.0003 47.8112C43.1381 47.9333 43.3159 48.0005 43.5 48C43.5296 48.0001 43.5591 47.9983 43.5885 47.9948C43.786 47.9715 43.9662 47.8707 44.0894 47.7145C44.2126 47.5584 44.2687 47.3598 44.2455 47.1623L43.2 38.2913ZM15.0547 13.5H14.8012C15 6.86025 17.8635 3.75 23.7817 3.75C29.3752 3.75 32.238 6.5295 32.7067 12.4387C32.5213 11.654 32.0752 10.9553 31.4413 10.4569C30.8075 9.95845 30.0233 9.68968 29.217 9.6945C28.1793 9.72602 27.1603 9.97972 26.229 10.4385C25.5369 10.7918 24.7776 10.9938 24.0015 11.031C23.2254 10.9938 22.466 10.7918 21.774 10.4385C20.8426 9.97972 19.8237 9.72602 18.786 9.6945C16.2187 9.6945 15.273 11.8822 15.0547 13.5ZM36.75 18.6C36.75 18.8387 36.6552 19.0676 36.4864 19.2364C36.3176 19.4052 36.0887 19.5 35.85 19.5H33V15H35.85C36.0887 15 36.3176 15.0948 36.4864 15.2636C36.6552 15.4324 36.75 15.6613 36.75 15.9V18.6ZM24 1.5C33.4837 1.5 35.475 7.413 35.475 12.375C35.4726 12.751 35.4495 13.1265 35.406 13.5H34.2615C34.05 5.94 30.621 2.25 23.7817 2.25C16.9425 2.25 13.515 5.94 13.302 13.5H12.5947C12.5512 13.1265 12.5282 12.751 12.5257 12.375C12.525 7.413 14.5162 1.5 24 1.5ZM11.25 18.6V15.9C11.25 15.6613 11.3448 15.4324 11.5136 15.2636C11.6824 15.0948 11.9113 15 12.15 15H15V19.5H12.15C11.9113 19.5 11.6824 19.4052 11.5136 19.2364C11.3448 19.0676 11.25 18.8387 11.25 18.6ZM16.5 20.2162V14.25C16.5 14.1248 16.5427 11.1923 18.7845 11.1923C19.6199 11.227 20.4382 11.44 21.1845 11.817C22.06 12.2534 23.0193 12.4961 23.997 12.5287C24.9747 12.4961 25.9339 12.2534 26.8095 11.817C27.5558 11.44 28.3741 11.227 29.2095 11.1923C31.4572 11.1945 31.5 14.127 31.5 14.25V19.7302L27.9615 21.057C27.6195 20.658 27.1479 20.3921 26.6295 20.3059C26.1111 20.2198 25.5789 20.3189 25.1262 20.5859C24.6736 20.8528 24.3293 21.2706 24.1539 21.766C23.9784 22.2614 23.983 22.8027 24.1667 23.2951C24.3505 23.7875 24.7017 24.1994 25.1588 24.4588C25.6158 24.7181 26.1496 24.8083 26.6665 24.7134C27.1835 24.6186 27.6505 24.3448 27.9857 23.9401C28.321 23.5353 28.503 23.0255 28.5 22.5C28.5 22.4858 28.4962 22.473 28.4955 22.4587L31.3215 21.399C30.3682 24.8678 25.5697 27.75 24.0172 27.75C22.2825 27.75 16.5 24.189 16.5 20.2178V20.2162ZM27 22.5C27 22.6483 26.956 22.7933 26.8736 22.9167C26.7912 23.04 26.674 23.1361 26.537 23.1929C26.4 23.2497 26.2492 23.2645 26.1037 23.2356C25.9582 23.2066 25.8245 23.1352 25.7197 23.0303C25.6148 22.9254 25.5433 22.7918 25.5144 22.6463C25.4855 22.5008 25.5003 22.35 25.5571 22.213C25.6138 22.0759 25.71 21.9588 25.8333 21.8764C25.9566 21.794 26.1017 21.75 26.25 21.75C26.4489 21.75 26.6397 21.829 26.7803 21.9697C26.921 22.1103 27 22.3011 27 22.5ZM24.0172 29.25C25.3616 29.0851 26.644 28.5896 27.75 27.8078V30.4395L24 34.1895L20.25 30.4395V27.7957C21.3664 28.5841 22.6607 29.0837 24.0172 29.25ZM19.6612 37.89L16.119 32.5763L19.356 31.6665L22.8892 35.1997L19.6612 37.89ZM28.3387 37.89L25.1137 35.1997L28.647 31.6665L31.884 32.5763L28.3387 37.89Z" fill="white"/>
<path d="M24 44.25C23.8011 44.25 23.6103 44.329 23.4697 44.4697C23.329 44.6103 23.25 44.8011 23.25 45V47.25C23.25 47.4489 23.329 47.6397 23.4697 47.7803C23.6103 47.921 23.8011 48 24 48C24.1989 48 24.3897 47.921 24.5303 47.7803C24.671 47.6397 24.75 47.4489 24.75 47.25V45C24.75 44.8011 24.671 44.6103 24.5303 44.4697C24.3897 44.329 24.1989 44.25 24 44.25Z" fill="white"/>
</g>
<defs>
<clipPath id="clip0_20_111">
<rect width="48" height="48" fill="white"/>
</clipPath>
</defs>
</svg>
