<?xml version="1.0" encoding="UTF-8"?>
<!DOCTYPE svg PUBLIC "-//W3C//DTD SVG 1.0//EN" "http://www.w3.org/TR/2001/REC-SVG-20010904/DTD/svg10.dtd">
<!-- Creator: CorelDRAW 2020 (64-Bit) -->
<svg xmlns="http://www.w3.org/2000/svg" xml:space="preserve" width="47.3961mm" height="52.4003mm" version="1.0" style="shape-rendering:geometricPrecision; text-rendering:geometricPrecision; image-rendering:optimizeQuality; fill-rule:evenodd; clip-rule:evenodd"
viewBox="0 0 321 355"
 xmlns:xlink="http://www.w3.org/1999/xlink"
 xmlns:xodm="http://www.corel.com/coreldraw/odm/2003">
 <defs>
  <style type="text/css">
   <![CDATA[
    .fil0 {fill:#263238}
   ]]>
  </style>
 </defs>
 <g id="Слой_x0020_1">
  <metadata id="CorelCorpID_0Corel-Layer"/>
  <path class="fil0" d="M149 33c15,-2 29,0 42,5 9,4 13,6 20,12l10 10c10,11 16,26 19,42 3,18 -1,35 -9,50 -1,2 -3,4 -4,6 -4,6 -5,6 -9,11l-8 7c-28,22 -68,23 -95,3l-11 -9c-10,-11 -19,-24 -22,-39 -5,-22 -2,-38 8,-58 3,-6 10,-15 15,-20l3 -2c4,-3 7,-5 12,-8 2,-1 4,-2 7,-3 3,-1 4,-2 7,-3 5,-2 11,-3 17,-4zm19 -33l-16 0c-2,1 -15,2 -19,3 -6,1 -11,3 -17,6 -13,5 -22,12 -31,20 -7,6 -13,13 -19,21 -24,36 -25,84 -3,122 9,14 19,24 32,34 0,0 -27,13 -46,30 -10,10 -19,20 -26,32 -1,2 -2,3 -3,5 -7,13 -13,26 -17,41 -2,7 -5,22 -4,28 3,13 23,17 30,4 2,-5 4,-22 10,-40 2,-4 3,-8 5,-12l6 -10c1,-1 1,-2 2,-3l6 -9c0,0 1,-1 1,-1 1,-1 1,-1 2,-2 2,-3 5,-6 8,-9l9 -8c0,0 0,0 0,0 2,-1 2,-2 5,-4l21 -12c33,-16 75,-16 109,0 2,1 4,2 6,3 2,1 4,2 5,3l28 22c3,2 5,6 8,9 13,15 22,37 26,58 2,11 2,18 12,22 10,4 19,-3 21,-10 2,-7 -2,-22 -4,-29 -7,-28 -22,-54 -43,-75l-9 -8c-1,-1 -4,-3 -5,-4 -8,-6 -16,-12 -25,-16 -3,-1 -8,-4 -11,-6l6 -5c3,-3 12,-10 14,-14l3 -3c3,-4 6,-9 9,-13 9,-15 15,-35 16,-52 0,-8 0,-16 -1,-24 -4,-25 -16,-47 -34,-64 -14,-13 -31,-23 -51,-28 -4,-1 -17,-2 -19,-3z"/>
 </g>
</svg>
