<svg width="24" height="24" viewBox="0 0 24 24" fill="none" xmlns="http://www.w3.org/2000/svg">
<path d="M14.25 2.62482C10.3148 2.62482 7.12498 5.81466 7.12498 9.74982C7.12498 11.3975 7.68514 12.9139 8.62264 14.1209L7.65935 15.0842L6.1992 13.624C6.1635 13.5891 6.11555 13.5695 6.0656 13.5695C6.01566 13.5695 5.96771 13.5891 5.93201 13.624L4.9992 14.5568C4.96427 14.5925 4.94471 14.6405 4.94471 14.6904C4.94471 14.7404 4.96427 14.7883 4.9992 14.824L6.45935 16.2842L5.40701 17.3365L3.94685 15.8764C3.91116 15.8414 3.8632 15.8219 3.81326 15.8219C3.76332 15.8219 3.71536 15.8414 3.67966 15.8764L2.74685 16.8092C2.71192 16.8449 2.69236 16.8928 2.69236 16.9428C2.69236 16.9927 2.71192 17.0407 2.74685 17.0764L4.20701 18.5365L2.67654 20.067C2.64164 20.1022 2.62207 20.1498 2.62207 20.1994C2.62207 20.249 2.64164 20.2966 2.67654 20.3318L3.66795 21.3233C3.7406 21.3959 3.86013 21.3959 3.93279 21.3233L9.87654 15.3795C11.1277 16.35 12.6665 16.8761 14.25 16.8748C18.1851 16.8748 21.375 13.685 21.375 9.74982C21.375 5.81466 18.1851 2.62482 14.25 2.62482ZM18.0281 13.5279C17.0203 14.5381 15.6773 15.0936 14.25 15.0936C12.8226 15.0936 11.4797 14.5381 10.4719 13.5279C9.4617 12.5201 8.90623 11.1772 8.90623 9.74982C8.90623 8.32247 9.4617 6.9795 10.4719 5.97169C11.4797 4.96154 12.8226 4.40607 14.25 4.40607C15.6773 4.40607 17.0203 4.96154 18.0281 5.97169C19.0383 6.9795 19.5937 8.32247 19.5937 9.74982C19.5937 11.1772 19.0383 12.5201 18.0281 13.5279Z" fill="#324352"/>
</svg>
