<svg width="24" height="24" viewBox="0 0 24 24" fill="none" xmlns="http://www.w3.org/2000/svg">
<path d="M21.8675 11.3669C19.6931 6.46626 16.4063 4 12 4C7.59149 4 4.30689 6.46626 2.13245 11.3693C2.04523 11.5669 2 11.7827 2 12.0012C2 12.2198 2.04523 12.4356 2.13245 12.6331C4.30689 17.5338 7.59378 20 12 20C16.4085 20 19.6931 17.5338 21.8675 12.6307C22.0442 12.2331 22.0442 11.7718 21.8675 11.3669ZM12 18.2331C8.30025 18.2331 5.59137 16.2257 3.6807 12C5.59137 7.77424 8.30025 5.76688 12 5.76688C15.6998 5.76688 18.4087 7.77424 20.3193 12C18.4109 16.2257 15.702 18.2331 12 18.2331ZM11.9083 7.68099C9.67877 7.68099 7.87133 9.61474 7.87133 12C7.87133 14.3853 9.67877 16.319 11.9083 16.319C14.1377 16.319 15.9452 14.3853 15.9452 12C15.9452 9.61474 14.1377 7.68099 11.9083 7.68099ZM11.9083 14.7485C10.4884 14.7485 9.3393 13.519 9.3393 12C9.3393 10.481 10.4884 9.25154 11.9083 9.25154C13.3281 9.25154 14.4772 10.481 14.4772 12C14.4772 13.519 13.3281 14.7485 11.9083 14.7485Z" fill="#64648E"/>
</svg>
