<svg width="661" height="661" viewBox="0 0 661 661" fill="none" xmlns="http://www.w3.org/2000/svg">
    <g filter="url(#filter0_d_140_89)">
        <circle cx="330" cy="319" r="270" fill="white"/>
    </g>
    <path opacity="0.33" d="M390.087 371.292C377.839 383.604 360.895 391.219 342.175 391.219C304.86 391.219 274.654 361.012 274.654 323.698C274.654 307.071 281.063 291.968 290.772 280.101C297.182 272.295 304.67 265.759 314.126 261.57C322.502 257.89 332.465 256.176 342.175 256.176C360.705 256.176 377.522 263.665 389.706 275.722L453.928 211.691C425.498 183.451 386.343 166 343.19 166C256.377 166 186 236.377 186 323.19C186 410.003 256.377 480.38 343.19 480.38C386.343 480.38 422.959 458.042 453.801 434.879L390.087 371.292Z" fill="#1E5BFA"/>
    <path opacity="0.33" d="M390.15 371.356C377.903 383.604 360.959 391.219 342.238 391.282C360.959 391.219 377.903 383.604 390.15 371.356Z" fill="url(#paint0_linear_140_89)"/>
    <path opacity="0.33" d="M422.515 455.377C419.532 456.836 416.486 458.169 413.567 459.311C328.086 492.755 257.519 407.274 262.85 354.603C265.198 331.376 276.176 301.296 288.234 283.21C297.372 272.232 310.635 256.113 342.174 256.176C358.42 256.24 376.316 262.205 389.706 275.722L391.292 274.135C370.985 254.399 343.253 242.279 312.729 242.279C250.285 242.279 199.707 292.92 199.707 355.301C199.707 413.62 254.536 461.596 300.354 474.478C303.591 475.367 306.7 476.318 309.81 476.89C317.171 478.222 324.279 479.428 330.752 479.936C355.184 481.966 373.777 478.222 394.973 469.782C406.903 465.023 420.865 457.344 431.082 450.871" fill="url(#paint1_linear_140_89)"/>
    <path opacity="0.33" d="M390.213 371.292C377.965 383.603 361.022 391.282 342.301 391.282C304.986 391.282 274.78 361.075 274.78 323.761C274.78 314.813 277.128 304.025 280.745 296.283C280.301 297.171 279.856 298.123 279.412 299.012C278.587 300.725 277.762 302.502 277.001 304.279C276.366 305.738 275.732 307.198 275.16 308.657C274.462 310.307 273.828 311.957 273.193 313.607C272.305 315.955 271.48 318.367 270.655 320.715C269.576 323.888 268.624 327.124 267.736 330.297C266.339 335.247 265.197 340.134 264.372 344.766C263.738 348.129 263.293 351.429 262.976 354.539C262.595 358.727 262.659 363.677 263.166 367.802C263.865 374.275 265.388 379.986 267.355 385.952C280.808 425.106 322.311 466.419 374.412 466.863C380.123 466.926 386.025 466.482 391.99 465.467C395.861 464.832 399.732 463.944 403.667 462.801C407.538 461.722 411.409 460.39 415.343 458.74C419.785 456.963 424.291 454.805 428.797 452.33C436.158 447.761 444.979 441.606 453.863 434.942L390.213 371.292Z" fill="url(#paint2_linear_140_89)"/>
    <defs>
        <filter id="filter0_d_140_89" x="-85" y="-91" width="830" height="830" filterUnits="userSpaceOnUse" color-interpolation-filters="sRGB">
            <feFlood flood-opacity="0" result="BackgroundImageFix"/>
            <feColorMatrix in="SourceAlpha" type="matrix" values="0 0 0 0 0 0 0 0 0 0 0 0 0 0 0 0 0 0 127 0" result="hardAlpha"/>
            <feOffset dy="5"/>
            <feGaussianBlur stdDeviation="72.5"/>
            <feComposite in2="hardAlpha" operator="out"/>
            <feColorMatrix type="matrix" values="0 0 0 0 0 0 0 0 0 0 0 0 0 0 0 0 0 0 0.05 0"/>
            <feBlend mode="normal" in2="BackgroundImageFix" result="effect1_dropShadow_140_89"/>
            <feBlend mode="normal" in="SourceGraphic" in2="effect1_dropShadow_140_89" result="shape"/>
        </filter>
        <linearGradient id="paint0_linear_140_89" x1="383.126" y1="364.347" x2="349.233" y2="398.24" gradientUnits="userSpaceOnUse">
            <stop stop-color="#7166CF"/>
            <stop offset="0.4693" stop-color="#3B44B9"/>
            <stop offset="1" stop-color="#D3E6F7"/>
        </linearGradient>
        <linearGradient id="paint1_linear_140_89" x1="390.352" y1="304.679" x2="232.241" y2="462.79" gradientUnits="userSpaceOnUse">
            <stop offset="0.4928" stop-color="#3B44B9"/>
            <stop offset="1" stop-color="#D3E6F7"/>
        </linearGradient>
        <linearGradient id="paint2_linear_140_89" x1="222.346" y1="381.567" x2="444.448" y2="381.567" gradientUnits="userSpaceOnUse">
            <stop stop-color="#3B44B9"/>
            <stop offset="0.5084" stop-color="#3B44B9"/>
            <stop offset="1" stop-color="#99C6EF"/>
        </linearGradient>
    </defs>
</svg>
