<?xml version="1.0" encoding="UTF-8"?>
<!DOCTYPE svg PUBLIC "-//W3C//DTD SVG 1.0//EN" "http://www.w3.org/TR/2001/REC-SVG-20010904/DTD/svg10.dtd">
<!-- Creator: CorelDRAW 2020 (64-Bit) -->
<svg xmlns="http://www.w3.org/2000/svg" xml:space="preserve" width="52.4003mm" height="52.4003mm" version="1.0" style="shape-rendering:geometricPrecision; text-rendering:geometricPrecision; image-rendering:optimizeQuality; fill-rule:evenodd; clip-rule:evenodd"
viewBox="0 0 253 253"
 xmlns:xlink="http://www.w3.org/1999/xlink"
 xmlns:xodm="http://www.corel.com/coreldraw/odm/2003">
 <defs>
  <style type="text/css">
   <![CDATA[
    .fil0 {fill:#263238}
   ]]>
  </style>
 </defs>
 <g id="Слой_x0020_1">
  <metadata id="CorelCorpID_0Corel-Layer"/>
  <path class="fil0" d="M126 0l0 0c6,0 11,5 11,11l0 104 104 0c6,0 11,5 11,11l0 0c0,6 -5,11 -11,11l-104 0 0 104c0,6 -5,11 -11,11l0 0c-6,0 -11,-5 -11,-11l0 -104 -104 0c-6,0 -11,-5 -11,-11l0 0c0,-6 5,-11 11,-11l104 0 0 -104c0,-6 5,-11 11,-11z"/>
 </g>
</svg>
